<?xml version="1.0" encoding="iso-8859-1"?>
<!-- Generator: Adobe Illustrator 19.0.0, SVG Export Plug-In . SVG Version: 6.00 Build 0)  -->
<svg xmlns="http://www.w3.org/2000/svg" xmlns:xlink="http://www.w3.org/1999/xlink" version="1.1" id="Capa_1" x="0px" y="0px" viewBox="0 0 512 512" style="enable-background:new 0 0 512 512;" xml:space="preserve">
<g>
	<path style="fill:#C7BFB7;" d="M467.862,150.069H44.138V17.655C44.138,7.91,52.047,0,61.793,0h388.414   c9.746,0,17.655,7.91,17.655,17.655V150.069z"/>
	<path style="fill:#F7F0E8;" d="M432.552,150.069H79.448V44.138c0-4.882,3.946-8.828,8.828-8.828h335.448   c4.882,0,8.828,3.946,8.828,8.828V150.069z"/>
	<path style="fill:#E64C3C;" d="M467.862,512H44.138c-9.746,0-17.655-7.91-17.655-17.655V211.862h459.034v282.483   C485.517,504.09,477.608,512,467.862,512"/>
	<path style="fill:#CC392E;" d="M485.517,211.862H26.483v-52.966c0-9.746,7.91-17.655,17.655-17.655h423.724   c9.746,0,17.655,7.91,17.655,17.655V211.862z"/>
	<g>
		<path style="fill:#F0C419;" d="M230.621,141.241H122.483l-1.192-2.737c-8.704-21.645-8.713-45.718,0-65.148l1.192-2.737    c35.346-11.546,72.801-11.546,108.138,0l1.201,2.737c8.695,21.204,8.704,45.321,0,65.148L230.621,141.241z"/>
		<path style="fill:#F0C419;" d="M398.345,141.241H290.207l-1.192-2.737c-8.704-21.645-8.713-45.718,0-65.148l1.192-2.737    c35.346-11.546,72.801-11.546,108.138,0l1.201,2.737c8.695,21.204,8.704,45.321,0,65.148L398.345,141.241z"/>
	</g>
</g>
<g>
</g>
<g>
</g>
<g>
</g>
<g>
</g>
<g>
</g>
<g>
</g>
<g>
</g>
<g>
</g>
<g>
</g>
<g>
</g>
<g>
</g>
<g>
</g>
<g>
</g>
<g>
</g>
<g>
</g>
</svg>
