<?xml version="1.0" encoding="iso-8859-1"?>
<!-- Generator: Adobe Illustrator 19.0.0, SVG Export Plug-In . SVG Version: 6.00 Build 0)  -->
<svg xmlns="http://www.w3.org/2000/svg" xmlns:xlink="http://www.w3.org/1999/xlink" version="1.1" id="Capa_1" x="0px" y="0px" viewBox="0 0 511.724 511.724" style="enable-background:new 0 0 511.724 511.724;" xml:space="preserve">
<g>
	<path style="fill:#5E5F62;" d="M229.379,114.94v78.989h52.966v-78.954C264.654,114.331,246.99,114.331,229.379,114.94"/>
	<path style="fill:#513E3E;" d="M96.966,185.104v243.447v56.691c53.831,17.284,106.637,26.324,158.897,26.483   c52.268-0.159,105.066-9.198,158.897-26.483v-56.691V185.104H96.966z"/>
	<g>
		<path style="fill:#6D5A5A;" d="M79.31,432.276L79.31,432.276c-24.373,0-44.138-19.756-44.138-44.138V202.759    c0-24.382,19.765-44.138,44.138-44.138s44.138,19.756,44.138,44.138v185.379C123.448,412.52,103.683,432.276,79.31,432.276"/>
		<path style="fill:#6D5A5A;" d="M432.414,432.276L432.414,432.276c24.382,0,44.138-19.756,44.138-44.138V202.759    c0-24.382-19.756-44.138-44.138-44.138s-44.138,19.756-44.138,44.138v185.379C388.276,412.52,408.032,432.276,432.414,432.276"/>
	</g>
	<path style="fill:#453434;" d="M393.539,136.5L393.539,136.5c-92.328-17.231-185.229-17.196-275.35,0   c-15.775,2.489-30.049-9.71-30.049-25.679V48.074c0-17.514,12.747-32.424,30.049-35.16c90.483-17.205,183.393-17.231,275.35,0   c17.302,2.737,30.049,17.646,30.049,35.16v62.746C423.588,126.79,409.323,138.989,393.539,136.5"/>
</g>
<g>
</g>
<g>
</g>
<g>
</g>
<g>
</g>
<g>
</g>
<g>
</g>
<g>
</g>
<g>
</g>
<g>
</g>
<g>
</g>
<g>
</g>
<g>
</g>
<g>
</g>
<g>
</g>
<g>
</g>
</svg>
