<?xml version="1.0" encoding="iso-8859-1"?>
<!-- Generator: Adobe Illustrator 19.0.0, SVG Export Plug-In . SVG Version: 6.00 Build 0)  -->
<svg xmlns="http://www.w3.org/2000/svg" xmlns:xlink="http://www.w3.org/1999/xlink" version="1.1" id="Capa_1" x="0px" y="0px" viewBox="0 0 512 512" style="enable-background:new 0 0 512 512;" xml:space="preserve">
<path style="fill:#7A5F4C;" d="M264.8,173.9H79.4v-59.1c0-4.9,4.1-8.8,9.3-8.8h176.1L264.8,173.9L264.8,173.9z"/>
<g>
	<polygon style="fill:#93755F;" points="70.6,158.9 70.6,201.3 99.8,211.9 264.8,211.9 264.8,158.9  "/>
	<path style="fill:#93755F;" d="M256,174.2h176.6v-56.9c0-6.3-4-11.4-8.8-11.4H256V174.2z"/>
</g>
<polygon style="fill:#7A5F4C;" points="256,158.9 256,211.9 413.6,211.9 441.4,201.3 441.4,158.9 "/>
<path style="fill:#543F32;" d="M79.4,203h-53v-61.8c0-4.9,4-8.8,8.8-8.8h44.1V203H79.4z"/>
<polygon style="fill:#7A5F4C;" points="70.6,203 70.6,353.1 70.6,388.4 268,388.4 268,203 "/>
<path style="fill:#93755F;" d="M432.6,203v141.2c0,4.9,4,8.8,8.8,8.8H459v35.3H256V203H432.6z"/>
<path style="fill:#543F32;" d="M70.6,406.1H35.3c-4.9,0-8.8-3.9-8.8-8.8v-53h53v53C79.4,402.1,75.5,406.1,70.6,406.1"/>
<path style="fill:#674E3F;" d="M97.1,353.1H8.8c-4.9,0-8.8-3.9-8.8-8.8V203c0-4.9,4-8.8,8.8-8.8h97.1v150.1  C105.9,349.2,102,353.1,97.1,353.1"/>
<g>
	<path style="fill:#543F32;" d="M432.6,203h53v-61.8c0-4.9-4-8.8-8.8-8.8h-44.1V203H432.6z"/>
	<path style="fill:#543F32;" d="M441.4,406.1h35.3c4.9,0,8.8-3.9,8.8-8.8v-53h-53v53C432.6,402.1,436.5,406.1,441.4,406.1"/>
</g>
<path style="fill:#674E3F;" d="M414.9,353.1h88.3c4.9,0,8.8-3.9,8.8-8.8V203c0-4.9-4-8.8-8.8-8.8h-97.1v150.1  C406.1,349.2,410,353.1,414.9,353.1"/>
<g>
</g>
<g>
</g>
<g>
</g>
<g>
</g>
<g>
</g>
<g>
</g>
<g>
</g>
<g>
</g>
<g>
</g>
<g>
</g>
<g>
</g>
<g>
</g>
<g>
</g>
<g>
</g>
<g>
</g>
</svg>
