<?xml version="1.0" encoding="iso-8859-1"?>
<!-- Generator: Adobe Illustrator 19.0.0, SVG Export Plug-In . SVG Version: 6.00 Build 0)  -->
<svg xmlns="http://www.w3.org/2000/svg" xmlns:xlink="http://www.w3.org/1999/xlink" version="1.1" id="Capa_1" x="0px" y="0px" viewBox="0 0 511.902 511.902" style="enable-background:new 0 0 511.902 511.902;" xml:space="preserve">
<g transform="translate(1)">
	<path style="fill:#CCCED1;" d="M476.9,81.101H357.4v-34.2c0-14.1,11.5-25.6,25.6-25.6h68.3c14.1,0,25.6,11.5,25.6,25.6V81.101z"/>
	<path style="fill:#DDDFE4;" d="M451.3,251.701H383c-14.1,0-25.6-11.5-25.6-25.6v-145h119.5v145.1   C476.9,240.301,465.4,251.701,451.3,251.701"/>
	<g>
		<path style="fill:#9C9FA6;" d="M442.7,123.701h-51.2c-4.7,0-8.5-3.8-8.5-8.5s3.8-8.5,8.5-8.5h51.2c4.7,0,8.5,3.8,8.5,8.5    C451.3,119.901,447.5,123.701,442.7,123.701"/>
		<path style="fill:#9C9FA6;" d="M417.1,166.401c-4.7,0-8.5-3.8-8.5-8.5v-8.5c0-4.7,3.8-8.5,8.5-8.5s8.5,3.8,8.5,8.5v8.5    C425.7,162.601,421.9,166.401,417.1,166.401"/>
	</g>
	<polygon style="fill:#38454F;" points="152.6,251.701 186.7,251.701 186.7,204.601 152.6,204.601  "/>
	<path style="fill:#687492;" d="M314.7,183.501v-150.7c0-6.3-5.1-11.5-11.5-11.5H36.1c-6.3,0-11.5,5.1-11.5,11.5v150.7l0,0v22.7   c0,6.3,5.1,11.5,11.5,11.5h267.2c6.3,0,11.5-5.1,11.5-11.5L314.7,183.501L314.7,183.501z"/>
	<path style="fill:#38454F;" d="M314.7,183.501H24.6v-150.7c0-6.3,5.1-11.5,11.5-11.5h267.2c6.3,0,11.5,5.1,11.5,11.5v150.7H314.7z"/>
	<g>
		<g>
			<polygon style="fill:#7F6E5D;" points="8,284.001 25.7,284.001 131.5,284.001 378.5,284.001 484.3,284.001 502,284.001      502,253.601 8,253.601    "/>
			<path style="fill:#7F6E5D;" d="M57.8,447.901c0,0.2,0,0.3,0,0.5C57.7,448.201,57.8,448.001,57.8,447.901z"/>
			<path style="fill:#7F6E5D;" d="M57.7,448.701c0,0.2,0,0.4-0.1,0.5C57.7,449.001,57.7,448.801,57.7,448.701z"/>
			<path style="fill:#7F6E5D;" d="M51.3,449.501l0.2-0.2c4.8-5.3,15.5-22,9.7-61.3c-2.7-18.2-1.2-35.9,4.3-52.7l1.4-4.1h32.9l-2.8,8     c-5,14.3-7.2,30.9-6.5,49.4c0.7,19.1-7.7,56.9-27.7,77.6c-5.7,5.9-12,9.9-18.7,12l-17.1,5.3L51.3,449.501z"/>
			<path style="fill:#7F6E5D;" d="M56.2,452.901c0.1-0.2,0.3-0.4,0.4-0.6C56.5,452.501,56.3,452.701,56.2,452.901z"/>
			<path style="fill:#7F6E5D;" d="M57.5,450.001c0-0.2,0.1-0.4,0.1-0.6C57.6,449.601,57.6,449.801,57.5,450.001z"/>
			<path style="fill:#7F6E5D;" d="M57,451.601c0.1-0.2,0.2-0.4,0.3-0.6C57.2,451.201,57.1,451.401,57,451.601z"/>
			<path style="fill:#7F6E5D;" d="M56.6,452.301c0.1-0.2,0.2-0.4,0.3-0.7C56.8,451.901,56.7,452.101,56.6,452.301z"/>
			<path style="fill:#7F6E5D;" d="M57.3,450.801c0.1-0.2,0.1-0.4,0.2-0.6C57.4,450.401,57.3,450.601,57.3,450.801z"/>
			<path style="fill:#7F6E5D;" d="M468.6,478.001c-6.7-2.1-13-6.1-18.7-12c-20-20.7-28.3-58.6-27.7-77.6c0.6-18.4-1.6-35-6.5-49.3     l-2.8-8h32.9l1.4,4.1c5.5,16.8,6.9,34.5,4.3,52.7c-5.7,39.2,4.9,56,9.7,61.3l0.2,0.2l24.4,33.8L468.6,478.001z"/>
			<polygon style="fill:#7F6E5D;" points="107.3,325.401 134,325.401 134,289.001 34.6,289.001 34.6,325.401 62,325.401    "/>
			<polygon style="fill:#7F6E5D;" points="378.3,325.401 406.7,325.401 449.8,325.401 473,325.401 473,289.001 378.3,289.001    "/>
			<rect x="137" y="289.001" style="fill:#7F6E5D;" width="235.9" height="36.3"/>
		</g>
		<path style="fill:#56493F;" d="M502.5,243.201H7.5c-4.7,0-8.5,3.8-8.5,8.5v34.1c0,4.7,3.8,8.5,8.5,8.5h17.1v34.2    c0,4.7,3.8,8.5,8.5,8.5h20.3c-4.7,16.8-5.7,34.4-3.1,52.5c5.4,36.9-5,50.2-7.1,52.5c-0.3,0.4-0.6,0.7-0.9,1.1l0,0l-24.7,34.1    c-1.9,2.6-2.1,6-0.7,8.8c1.5,2.8,4.4,4.6,7.6,4.6H33c14,0,26.6-5.7,37.5-17c22.5-23.3,31.5-64.1,30.7-85.7    c-0.7-19.6,2-36.7,8.1-50.9h26.1h238.9H403c6.1,14.2,8.8,31.3,8.1,50.9c-0.8,21.6,8.3,62.4,30.7,85.7c10.9,11.3,23.5,17,37.5,17    h8.5l0,0c4.7,0,8.5-3.8,8.5-8.5c0-2-0.7-3.9-1.9-5.4l-24.2-33.7l0,0c-0.3-0.4-0.5-0.7-0.9-1.1c-2.1-2.3-12.5-15.6-7.1-52.5    c2.6-18,1.6-35.6-3.1-52.5h17.7c4.7,0,8.5-3.8,8.5-8.5v-34.2h17.1c4.7,0,8.5-3.8,8.5-8.5v-34.1    C511,247.001,507.2,243.201,502.5,243.201z M468.4,320.001h-20.9h-38.8H383v-25.7h85.4V320.001z M445.5,387.001    c-6.1,41.5,5.5,59.9,11.2,66.2l13.7,19c-5.8-1.8-11.2-5.3-16.2-10.4c-18-18.6-26.6-54.5-26-73.3c0.7-19.2-1.6-36.5-6.9-51.5h20.1    C446.7,353.001,448,369.701,445.5,387.001z M84.4,388.601c0.7,18.7-8,54.6-26,73.3c-5,5.2-10.4,8.7-16.2,10.5l13.7-19    c5.6-6.2,17.3-24.6,11.2-66.2c-2.5-17.3-1.2-34.1,4-50h20.1C86,352.101,83.7,369.301,84.4,388.601z M57.8,447.901    c0,0.2,0,0.3,0,0.5C57.7,448.201,57.8,448.001,57.8,447.901z M57.7,448.701c0,0.2,0,0.4-0.1,0.5    C57.7,449.001,57.7,448.801,57.7,448.701z M57.6,449.501c0,0.2-0.1,0.4-0.1,0.6C57.6,449.801,57.6,449.601,57.6,449.501z     M57.5,450.201c-0.1,0.2-0.1,0.4-0.2,0.6C57.3,450.601,57.4,450.401,57.5,450.201z M57.2,450.901c-0.1,0.2-0.2,0.4-0.3,0.6    C57.1,451.401,57.2,451.201,57.2,450.901z M56.9,451.601c-0.1,0.2-0.2,0.5-0.3,0.7C56.7,452.101,56.8,451.901,56.9,451.601z     M56.6,452.301c-0.1,0.2-0.3,0.4-0.4,0.6C56.3,452.701,56.5,452.501,56.6,452.301z M366,320.001H144v-25.7h222V320.001z     M41.6,294.401H127v25.6h-23H65.2H41.6V294.401z M494,277.401h-17.1H374.5h-239H33.1H16v-17.1h478V277.401z"/>
	</g>
</g>
<g>
</g>
<g>
</g>
<g>
</g>
<g>
</g>
<g>
</g>
<g>
</g>
<g>
</g>
<g>
</g>
<g>
</g>
<g>
</g>
<g>
</g>
<g>
</g>
<g>
</g>
<g>
</g>
<g>
</g>
</svg>
