<?xml version="1.0" encoding="iso-8859-1"?>
<!-- Generator: Adobe Illustrator 19.0.0, SVG Export Plug-In . SVG Version: 6.00 Build 0)  -->
<svg xmlns="http://www.w3.org/2000/svg" xmlns:xlink="http://www.w3.org/1999/xlink" version="1.1" id="Capa_1" x="0px" y="0px" viewBox="0 0 512 512" style="enable-background:new 0 0 512 512;" xml:space="preserve">
<g>
	<polygon style="fill:#667984;" points="238.644,442.576 273.356,442.576 273.356,130.169 238.644,130.169  "/>
	<path style="fill:#38454F;" d="M290.712,433.898h-69.424c-19.17,0-34.712,15.542-34.712,34.712v17.356h138.847V468.61   C325.424,449.441,309.882,433.898,290.712,433.898"/>
	<g>
		<polygon style="fill:#667984;" points="39.051,104.136 82.441,104.136 82.441,52.068 39.051,52.068   "/>
		<polygon style="fill:#667984;" points="429.559,104.136 472.949,104.136 472.949,52.068 429.559,52.068   "/>
	</g>
	<path style="fill:#38454F;" d="M438.237,104.136H73.763V59.019C73.763,26.424,100.187,0,132.782,0h246.437   c32.594,0,59.019,26.424,59.019,59.019V104.136z"/>
	<g>
		<path style="fill:#667984;" d="M360.136,503.322H151.864c0-19.17,15.542-34.712,34.712-34.712h138.847    C344.593,468.61,360.136,484.152,360.136,503.322"/>
		<path style="fill:#667984;" d="M386.169,234.305c-4.79,0-8.678-3.584-8.678-8.01v-88.116c0-4.426,3.888-8.01,8.678-8.01    s8.678,3.584,8.678,8.01v88.116C394.847,230.721,390.96,234.305,386.169,234.305"/>
	</g>
	<path style="fill:#38454F;" d="M371.25,295.051h29.835l-13.017-52.068h-3.801L371.25,295.051z M412.202,312.407h-52.068   c-2.673,0-5.189-1.232-6.838-3.341c-1.64-2.1-2.23-4.842-1.579-7.437l17.356-69.424c0.963-3.862,4.434-6.578,8.418-6.578h17.356   c3.983,0,7.454,2.716,8.418,6.578l17.356,69.424c0.651,2.595,0.069,5.337-1.579,7.437   C417.4,311.175,414.874,312.407,412.202,312.407L412.202,312.407z"/>
	<polygon style="fill:#F0C419;" points="73.763,138.847 438.237,138.847 438.237,104.136 73.763,104.136  "/>
	<path style="fill:#38454F;" d="M386.169,512H125.831c-4.79,0-8.678-3.879-8.678-8.678c0-4.799,3.888-8.678,8.678-8.678h260.339   c4.79,0,8.678,3.879,8.678,8.678C394.847,508.121,390.96,512,386.169,512"/>
</g>
<g>
</g>
<g>
</g>
<g>
</g>
<g>
</g>
<g>
</g>
<g>
</g>
<g>
</g>
<g>
</g>
<g>
</g>
<g>
</g>
<g>
</g>
<g>
</g>
<g>
</g>
<g>
</g>
<g>
</g>
</svg>
