<?xml version="1.0" encoding="iso-8859-1"?>
<!-- Generator: Adobe Illustrator 19.0.0, SVG Export Plug-In . SVG Version: 6.00 Build 0)  -->
<svg xmlns="http://www.w3.org/2000/svg" xmlns:xlink="http://www.w3.org/1999/xlink" version="1.1" id="Capa_1" x="0px" y="0px" viewBox="0 0 512 512" style="enable-background:new 0 0 512 512;" xml:space="preserve">
<g>
	<polygon style="fill:#C7BFB7;" points="150.069,282.483 361.931,282.483 361.931,203.034 150.069,203.034  "/>
	<path style="fill:#F7F0E8;" d="M282.483,256h-52.966c-4.882,0-8.828-3.946-8.828-8.828s3.946-8.828,8.828-8.828h52.966   c4.882,0,8.828,3.946,8.828,8.828S287.364,256,282.483,256"/>
	<polygon style="fill:#D1D4D1;" points="26.483,185.379 79.448,185.379 79.448,141.25 26.483,141.25  "/>
	<polygon style="fill:#7D6599;" points="459.034,185.379 494.345,185.379 494.345,70.621 459.034,70.621  "/>
	<polygon style="fill:#E64C3C;" points="423.724,185.379 459.034,185.379 459.034,88.276 423.724,88.276  "/>
	<polygon style="fill:#F0C419;" points="388.414,185.379 423.724,185.379 423.724,105.931 388.414,105.931  "/>
	<polygon style="fill:#464F5D;" points="229.517,194.207 264.828,194.207 264.828,132.414 229.517,132.414  "/>
	<g>
		<polygon style="fill:#C7BFB7;" points="485.517,494.345 450.207,494.345 441.379,344.276 494.345,344.276   "/>
		<polygon style="fill:#C7BFB7;" points="61.793,494.345 26.483,494.345 17.655,344.276 70.621,344.276   "/>
	</g>
	<g>
		<polygon style="fill:#F7F0E8;" points="353.103,353.103 494.345,353.103 494.345,203.034 353.103,203.034   "/>
		<polygon style="fill:#F7F0E8;" points="17.655,353.103 158.897,353.103 158.897,203.034 17.655,203.034   "/>
	</g>
	<polygon style="fill:#A59B92;" points="0,211.862 512,211.862 512,176.552 0,176.552  "/>
	<g>
		<path style="fill:#C7BFB7;" d="M450.207,282.483h-52.966c-4.882,0-8.828-3.946-8.828-8.828s3.946-8.828,8.828-8.828h52.966    c4.882,0,8.828,3.946,8.828,8.828S455.089,282.483,450.207,282.483"/>
		<path style="fill:#C7BFB7;" d="M423.724,300.138c-4.882,0-8.828-3.946-8.828-8.828v-17.655c0-4.882,3.946-8.828,8.828-8.828    c4.882,0,8.828,3.946,8.828,8.828v17.655C432.552,296.192,428.606,300.138,423.724,300.138"/>
		<path style="fill:#C7BFB7;" d="M114.759,282.483H61.793c-4.882,0-8.828-3.946-8.828-8.828s3.946-8.828,8.828-8.828h52.966    c4.882,0,8.828,3.946,8.828,8.828S119.64,282.483,114.759,282.483"/>
		<path style="fill:#C7BFB7;" d="M88.276,300.138c-4.882,0-8.828-3.946-8.828-8.828v-17.655c0-4.882,3.946-8.828,8.828-8.828    s8.828,3.946,8.828,8.828v17.655C97.103,296.192,93.158,300.138,88.276,300.138"/>
	</g>
	<polygon style="fill:#687492;" points="158.897,141.241 335.448,141.241 335.448,17.655 158.897,17.655  "/>
	<g>
		<path style="fill:#A5A5A4;" d="M97.103,150.078H8.828c-4.882,0-8.828-3.955-8.828-8.828c0-4.882,3.946-8.828,8.828-8.828h88.276    c4.882,0,8.828,3.946,8.828,8.828C105.931,146.123,101.985,150.078,97.103,150.078"/>
		<path style="fill:#A5A5A4;" d="M52.379,80.517h0.097H52.379z M52.971,114.768c-1.13,0-2.26-0.221-3.363-0.671    c-8.422-3.496-13.436-9.843-13.436-16.984c0-7.15,5.014-13.497,13.436-16.984c0.547-0.23,1.006-0.459,1.386-0.671    c-0.38-0.221-0.839-0.45-1.386-0.671c-4.511-1.871-6.647-7.036-4.776-11.538c1.854-4.511,7.009-6.656,11.529-4.776    c8.413,3.487,13.436,9.834,13.436,16.984c0,7.142-5.023,13.489-13.436,16.984c-0.547,0.221-1.015,0.45-1.395,0.671    c0.38,0.212,0.847,0.441,1.395,0.671c4.502,1.863,6.638,7.027,4.776,11.538C59.724,112.712,56.44,114.768,52.971,114.768    L52.971,114.768z"/>
	</g>
</g>
<g>
</g>
<g>
</g>
<g>
</g>
<g>
</g>
<g>
</g>
<g>
</g>
<g>
</g>
<g>
</g>
<g>
</g>
<g>
</g>
<g>
</g>
<g>
</g>
<g>
</g>
<g>
</g>
<g>
</g>
</svg>
