<?xml version="1.0" encoding="iso-8859-1"?>
<!-- Generator: Adobe Illustrator 19.0.0, SVG Export Plug-In . SVG Version: 6.00 Build 0)  -->
<svg xmlns="http://www.w3.org/2000/svg" xmlns:xlink="http://www.w3.org/1999/xlink" version="1.1" id="Capa_1" x="0px" y="0px" viewBox="0 0 512 512" style="enable-background:new 0 0 512 512;" xml:space="preserve">
<g>
	<polygon style="fill:#B2AAA4;" points="35.31,295.724 353.103,295.724 353.103,207.448 35.31,207.448  "/>
	<g>
		<path style="fill:#706B67;" d="M229.517,251.586h-70.621c-4.873,0-8.828-3.946-8.828-8.828s3.955-8.828,8.828-8.828h70.621    c4.873,0,8.828,3.946,8.828,8.828S234.39,251.586,229.517,251.586"/>
		<path style="fill:#706B67;" d="M194.207,269.241c-4.873,0-8.828-3.946-8.828-8.828v-17.655c0-4.882,3.955-8.828,8.828-8.828    s8.828,3.946,8.828,8.828v17.655C203.034,265.295,199.08,269.241,194.207,269.241"/>
	</g>
	<path style="fill:#D1D4D1;" d="M35.31,463.448c-4.873,0-8.828-3.946-8.828-8.828V207.448c0-4.882,3.955-8.828,8.828-8.828   s8.828,3.946,8.828,8.828v247.172C44.138,459.502,40.183,463.448,35.31,463.448"/>
	<polygon style="fill:#687492;" points="229.517,172.138 264.828,172.138 264.828,136.828 229.517,136.828  "/>
	<polygon style="fill:#464F5D;" points="158.897,136.828 335.448,136.828 335.448,13.241 158.897,13.241  "/>
	<polygon style="fill:#706B67;" points="0,207.448 512,207.448 512,172.138 0,172.138  "/>
	<polygon style="fill:#C7BFB7;" points="353.103,207.448 353.103,278.069 353.103,348.69 494.345,348.69 494.345,278.069    494.345,207.448  "/>
	<polygon style="fill:#B2AAA4;" points="353.103,348.69 353.103,419.31 353.103,489.931 494.345,489.931 494.345,419.31    494.345,348.69  "/>
	<g>
		<polygon style="fill:#706B67;" points="388.414,348.69 459.034,348.69 459.034,242.759 388.414,242.759   "/>
		<polygon style="fill:#706B67;" points="388.414,489.931 459.034,489.931 459.034,384 388.414,384   "/>
	</g>
	<g>
		<path style="fill:#C7BFB7;" d="M423.724,313.379c-4.873,0-8.828-3.946-8.828-8.828v-17.655c0-4.882,3.955-8.828,8.828-8.828    c4.873,0,8.828,3.946,8.828,8.828v17.655C432.552,309.433,428.597,313.379,423.724,313.379"/>
		<path style="fill:#C7BFB7;" d="M423.724,454.621c-4.873,0-8.828-3.946-8.828-8.828v-17.655c0-4.882,3.955-8.828,8.828-8.828    c4.873,0,8.828,3.946,8.828,8.828v17.655C432.552,450.675,428.597,454.621,423.724,454.621"/>
	</g>
	<polygon style="fill:#F0C419;" points="459.034,172.138 494.345,172.138 494.345,66.207 459.034,66.207  "/>
	<polygon style="fill:#E64C3C;" points="423.724,172.138 459.034,172.138 459.034,83.862 423.724,83.862  "/>
	<polygon style="fill:#E57E25;" points="388.414,172.138 423.724,172.138 423.724,101.517 388.414,101.517  "/>
	<polygon style="fill:#D1D4D1;" points="26.483,172.147 79.448,172.147 79.448,136.836 26.483,136.836  "/>
	<g>
		<path style="fill:#A5A5A4;" d="M97.103,145.664H8.828c-4.873,0-8.828-3.955-8.828-8.828c0-4.882,3.955-8.828,8.828-8.828h88.276    c4.873,0,8.828,3.946,8.828,8.828C105.931,141.709,101.976,145.664,97.103,145.664"/>
		<path style="fill:#A5A5A4;" d="M52.384,76.104h0.088H52.384z M52.975,110.355c-1.13,0-2.269-0.221-3.372-0.671    c-8.422-3.496-13.436-9.843-13.436-16.984c0-7.15,5.014-13.497,13.436-16.984c0.547-0.23,1.006-0.459,1.386-0.671    c-0.38-0.221-0.839-0.45-1.386-0.671c-4.511-1.871-6.647-7.036-4.776-11.538c1.863-4.511,7.018-6.656,11.529-4.776    c8.413,3.487,13.436,9.834,13.436,16.984c0,7.142-5.023,13.489-13.436,16.984c-0.547,0.221-1.015,0.45-1.395,0.671    c0.38,0.212,0.847,0.441,1.395,0.671c4.502,1.863,6.647,7.027,4.776,11.538C59.728,108.298,56.436,110.355,52.975,110.355    L52.975,110.355z"/>
		<path style="fill:#A5A5A4;" d="M61.793,498.759H8.828c-4.873,0-8.828-3.946-8.828-8.828v-35.31c0-4.882,3.955-8.828,8.828-8.828    h52.966c4.873,0,8.828,3.946,8.828,8.828v35.31C70.621,494.813,66.666,498.759,61.793,498.759"/>
	</g>
</g>
<g>
</g>
<g>
</g>
<g>
</g>
<g>
</g>
<g>
</g>
<g>
</g>
<g>
</g>
<g>
</g>
<g>
</g>
<g>
</g>
<g>
</g>
<g>
</g>
<g>
</g>
<g>
</g>
<g>
</g>
</svg>
