<?xml version="1.0" encoding="iso-8859-1"?>
<!-- Generator: Adobe Illustrator 19.0.0, SVG Export Plug-In . SVG Version: 6.00 Build 0)  -->
<svg xmlns="http://www.w3.org/2000/svg" xmlns:xlink="http://www.w3.org/1999/xlink" version="1.1" id="Capa_1" x="0px" y="0px" viewBox="0 0 512 512" style="enable-background:new 0 0 512 512;" xml:space="preserve">
<g>
	<g>
		<polygon style="fill:#28160F;" points="438.857,512 466.286,512 466.286,448 420.571,448   "/>
		<polygon style="fill:#28160F;" points="73.143,512 45.714,512 45.714,448 91.429,448   "/>
	</g>
	<polygon style="fill:#966F58;" points="256,27.429 27.429,27.429 27.429,429.714 256,429.714 484.571,429.714 484.571,27.429  "/>
	<path style="fill:#69432E;" d="M36.571,420.571h438.857v-384H36.571V420.571z M18.286,438.857h475.429V18.286H18.286V438.857z"/>
	<g>
		<polygon style="fill:#492B1D;" points="9.143,36.571 502.857,36.571 502.857,0 9.143,0   "/>
		<polygon style="fill:#492B1D;" points="9.143,457.143 502.857,457.143 502.857,420.571 9.143,420.571   "/>
		<polygon style="fill:#492B1D;" points="64,393.143 64,64 274.286,64 448,64 448,393.143   "/>
	</g>
	<polygon style="fill:#D1D4D1;" points="64,137.143 448,137.143 448,118.857 64,118.857  "/>
	<g>
		<path style="fill:#A2AAA2;" d="M338.286,192c-5.056,0-9.143-4.096-9.143-9.143v-27.429c0-5.047,4.087-9.143,9.143-9.143    c10.085,0,18.286-8.201,18.286-18.286c0-10.085-8.201-18.286-18.286-18.286C328.201,109.714,320,117.915,320,128    c0,5.047-4.087,9.143-9.143,9.143c-5.056,0-9.143-4.096-9.143-9.143c0-20.169,16.402-36.571,36.571-36.571    s36.571,16.402,36.571,36.571c0,17.006-11.666,31.342-27.429,35.419v19.438C347.429,187.904,343.342,192,338.286,192"/>
		<path style="fill:#A2AAA2;" d="M256,192c-5.056,0-9.143-4.096-9.143-9.143v-27.429c0-5.047,4.087-9.143,9.143-9.143    c10.085,0,18.286-8.201,18.286-18.286c0-10.085-8.201-18.286-18.286-18.286c-10.085,0-18.286,8.201-18.286,18.286    c0,5.047-4.087,9.143-9.143,9.143s-9.143-4.096-9.143-9.143c0-20.169,16.402-36.571,36.571-36.571    c20.169,0,36.571,16.402,36.571,36.571c0,17.006-11.666,31.342-27.429,35.419v19.438C265.143,187.904,261.056,192,256,192"/>
		<path style="fill:#A2AAA2;" d="M173.714,192c-5.056,0-9.143-4.096-9.143-9.143v-27.429c0-5.047,4.087-9.143,9.143-9.143    c10.085,0,18.286-8.201,18.286-18.286c0-10.085-8.201-18.286-18.286-18.286s-18.286,8.201-18.286,18.286    c0,5.047-4.087,9.143-9.143,9.143s-9.143-4.096-9.143-9.143c0-20.169,16.402-36.571,36.571-36.571s36.571,16.402,36.571,36.571    c0,17.006-11.666,31.342-27.429,35.419v19.438C182.857,187.904,178.77,192,173.714,192"/>
	</g>
	<path style="fill:#6D9B42;" d="M384,338.286h-82.286c-5.056,0-9.143-4.096-9.143-9.143v-91.429c0-5.047,4.087-9.143,9.143-9.143   H320v-9.143c0-8.814-9.582-17.125-25.627-22.208c-3.794-1.207-6.373-4.727-6.373-8.713c0-3.986,2.578-7.515,6.373-8.713   c12.699-4.032,27.474-6.08,43.913-6.08c49.216,0,82.286,18.368,82.286,45.714v18.286c0,5.047-4.087,9.143-9.143,9.143h-18.286   v82.286C393.143,334.19,389.056,338.286,384,338.286"/>
	<path style="fill:#E64C3C;" d="M301.714,338.286h-82.286c-5.056,0-9.143-4.096-9.143-9.143v-91.429   c0-5.047,4.087-9.143,9.143-9.143h18.286v-9.143c0-8.814-9.582-17.125-25.627-22.208c-3.794-1.207-6.373-4.727-6.373-8.713   c0-3.986,2.578-7.515,6.373-8.713c12.699-4.032,27.474-6.08,43.913-6.08c49.216,0,82.286,18.368,82.286,45.714v18.286   c0,5.047-4.087,9.143-9.143,9.143h-18.286v82.286C310.857,334.19,306.77,338.286,301.714,338.286"/>
	<path style="fill:#F3D55B;" d="M219.429,338.286H128c-5.056,0-9.143-4.096-9.143-9.143v-82.286h-18.286   c-5.056,0-9.143-4.096-9.143-9.143v-18.286c0-27.346,33.07-45.714,82.286-45.714S256,192.082,256,219.429v18.286   c0,5.047-4.087,9.143-9.143,9.143h-18.286v82.286C228.571,334.19,224.485,338.286,219.429,338.286"/>
</g>
<g>
</g>
<g>
</g>
<g>
</g>
<g>
</g>
<g>
</g>
<g>
</g>
<g>
</g>
<g>
</g>
<g>
</g>
<g>
</g>
<g>
</g>
<g>
</g>
<g>
</g>
<g>
</g>
<g>
</g>
</svg>
