<?xml version="1.0" encoding="iso-8859-1"?>
<!-- Generator: Adobe Illustrator 19.0.0, SVG Export Plug-In . SVG Version: 6.00 Build 0)  -->
<svg xmlns="http://www.w3.org/2000/svg" xmlns:xlink="http://www.w3.org/1999/xlink" version="1.1" id="Capa_1" x="0px" y="0px" viewBox="0 0 512 512" style="enable-background:new 0 0 512 512;" xml:space="preserve">
<g>
	<g>
		<polygon style="fill:#2C343F;" points="423.727,428.138 476.692,428.138 476.692,357.517 406.072,357.517   "/>
		<polygon style="fill:#2C343F;" points="88.279,428.138 35.313,428.138 35.313,357.517 105.934,357.517   "/>
		<path style="fill:#2C343F;" d="M361.934,128h-70.621V92.84c0-4.961,4.017-8.978,8.978-8.978h52.665    c4.961,0,8.978,4.017,8.978,8.978V128z"/>
		<path style="fill:#2C343F;" d="M467.865,128h-70.621V92.84c0-4.961,4.017-8.978,8.978-8.978h52.665    c4.961,0,8.978,4.017,8.978,8.978V128z"/>
	</g>
	<path style="fill:#464F5D;" d="M481.589,366.345H30.411C13.621,366.345,0,352.733,0,335.934v-186.35   c0-16.799,13.621-30.411,30.411-30.411h451.178c16.799,0,30.411,13.612,30.411,30.411v186.35   C512,352.733,498.388,366.345,481.589,366.345"/>
	<path style="fill:#6D9B42;" d="M446.279,331.034H65.721c-16.79,0-30.411-13.612-30.411-30.411v-115.73   c0-16.799,13.621-30.411,30.411-30.411h380.557c16.799,0,30.411,13.612,30.411,30.411v115.73   C476.69,317.422,463.078,331.034,446.279,331.034"/>
	<g>
		<path style="fill:#4B6D27;" d="M88.279,286.897h35.31v-88.276h-35.31V286.897z M132.416,304.552H79.451    c-4.873,0-8.828-3.955-8.828-8.828V189.793c0-4.873,3.955-8.828,8.828-8.828h52.966c4.873,0,8.828,3.955,8.828,8.828v105.931    C141.244,300.597,137.289,304.552,132.416,304.552L132.416,304.552z"/>
		<path style="fill:#4B6D27;" d="M176.554,286.897h35.31v-88.276h-35.31V286.897z M220.692,304.552h-52.966    c-4.873,0-8.828-3.955-8.828-8.828V189.793c0-4.873,3.955-8.828,8.828-8.828h52.966c4.873,0,8.828,3.955,8.828,8.828v105.931    C229.52,300.597,225.565,304.552,220.692,304.552L220.692,304.552z"/>
		<path style="fill:#4B6D27;" d="M300.141,286.897h35.31v-88.276h-35.31V286.897z M344.279,304.552h-52.966    c-4.873,0-8.828-3.955-8.828-8.828V189.793c0-4.873,3.955-8.828,8.828-8.828h52.966c4.873,0,8.828,3.955,8.828,8.828v105.931    C353.106,300.597,349.151,304.552,344.279,304.552L344.279,304.552z"/>
		<path style="fill:#4B6D27;" d="M432.554,304.552h-52.966c-4.873,0-8.828-3.955-8.828-8.828s3.955-8.828,8.828-8.828h44.138v-35.31    h-44.138c-4.873,0-8.828-3.955-8.828-8.828v-52.966c0-4.873,3.955-8.828,8.828-8.828h52.966c4.882,0,8.828,3.955,8.828,8.828    c0,4.873-3.946,8.828-8.828,8.828h-44.138v35.31h44.138c4.882,0,8.828,3.955,8.828,8.828v52.965    C441.382,300.597,437.436,304.552,432.554,304.552"/>
		<path style="fill:#4B6D27;" d="M264.83,225.103c0,4.873-3.955,8.828-8.828,8.828s-8.828-3.955-8.828-8.828    s3.955-8.828,8.828-8.828S264.83,220.231,264.83,225.103"/>
		<path style="fill:#4B6D27;" d="M264.83,260.414c0,4.873-3.955,8.828-8.828,8.828s-8.828-3.955-8.828-8.828    s3.955-8.828,8.828-8.828S264.83,255.541,264.83,260.414"/>
	</g>
</g>
<g>
</g>
<g>
</g>
<g>
</g>
<g>
</g>
<g>
</g>
<g>
</g>
<g>
</g>
<g>
</g>
<g>
</g>
<g>
</g>
<g>
</g>
<g>
</g>
<g>
</g>
<g>
</g>
<g>
</g>
</svg>
