<?xml version="1.0" encoding="iso-8859-1"?>
<!-- Generator: Adobe Illustrator 19.0.0, SVG Export Plug-In . SVG Version: 6.00 Build 0)  -->
<svg xmlns="http://www.w3.org/2000/svg" xmlns:xlink="http://www.w3.org/1999/xlink" version="1.1" id="Capa_1" x="0px" y="0px" viewBox="0 0 512 512" style="enable-background:new 0 0 512 512;" xml:space="preserve">
<g>
	<g>
		<polygon style="fill:#ECF0F1;" points="441.379,410.483 494.345,410.483 494.345,348.69 423.724,348.69   "/>
		<polygon style="fill:#ECF0F1;" points="70.621,410.483 17.655,410.483 17.655,348.69 88.276,348.69   "/>
	</g>
	<polygon style="fill:#464F5D;" points="0,348.69 512,348.69 512,101.517 0,101.517  "/>
	<polygon style="fill:#FFB200;" points="35.31,313.379 476.69,313.379 476.69,136.828 35.31,136.828  "/>
	<polygon style="fill:#D39008;" points="388.414,313.379 476.69,313.379 476.69,136.828 388.414,136.828  "/>
	<g>
		<path style="fill:#8D4700;" d="M441.379,180.966h-17.655c-4.873,0-8.828-3.955-8.828-8.828c0-4.873,3.955-8.828,8.828-8.828    h17.655c4.873,0,8.828,3.955,8.828,8.828C450.207,177.011,446.252,180.966,441.379,180.966"/>
		<path style="fill:#8D4700;" d="M441.379,216.276h-17.655c-4.873,0-8.828-3.955-8.828-8.828c0-4.873,3.955-8.828,8.828-8.828    h17.655c4.873,0,8.828,3.955,8.828,8.828C450.207,212.321,446.252,216.276,441.379,216.276"/>
		<path style="fill:#8D4700;" d="M441.379,251.586h-17.655c-4.873,0-8.828-3.955-8.828-8.828s3.955-8.828,8.828-8.828h17.655    c4.873,0,8.828,3.955,8.828,8.828S446.252,251.586,441.379,251.586"/>
		<path style="fill:#8D4700;" d="M441.379,286.897h-17.655c-4.873,0-8.828-3.955-8.828-8.828s3.955-8.828,8.828-8.828h17.655    c4.873,0,8.828,3.955,8.828,8.828S446.252,286.897,441.379,286.897"/>
		<path style="fill:#8D4700;" d="M79.448,251.586h17.655v-52.966H79.448V251.586z M105.931,269.241h-35.31    c-4.873,0-8.828-3.955-8.828-8.828v-70.621c0-4.873,3.955-8.828,8.828-8.828h35.31c4.873,0,8.828,3.955,8.828,8.828v70.621    C114.759,265.287,110.804,269.241,105.931,269.241L105.931,269.241z"/>
		<path style="fill:#8D4700;" d="M150.069,251.586h17.655v-52.966h-17.655V251.586z M176.552,269.241h-35.31    c-4.873,0-8.828-3.955-8.828-8.828v-70.621c0-4.873,3.955-8.828,8.828-8.828h35.31c4.873,0,8.828,3.955,8.828,8.828v70.621    C185.379,265.287,181.425,269.241,176.552,269.241L176.552,269.241z"/>
		<path style="fill:#8D4700;" d="M256,251.586h17.655v-52.966H256V251.586z M282.483,269.241h-35.31    c-4.873,0-8.828-3.955-8.828-8.828v-70.621c0-4.873,3.955-8.828,8.828-8.828h35.31c4.873,0,8.828,3.955,8.828,8.828v70.621    C291.31,265.287,287.356,269.241,282.483,269.241L282.483,269.241z"/>
		<path style="fill:#8D4700;" d="M353.103,269.241h-35.31c-4.873,0-8.828-3.955-8.828-8.828c0-4.873,3.955-8.828,8.828-8.828h26.483    v-17.655h-26.483c-4.873,0-8.828-3.955-8.828-8.828v-35.31c0-4.873,3.955-8.828,8.828-8.828h35.31    c4.873,0,8.828,3.955,8.828,8.828c0,4.873-3.955,8.828-8.828,8.828h-26.483v17.655h26.483c4.873,0,8.828,3.955,8.828,8.828v35.31    C361.931,265.287,357.976,269.241,353.103,269.241"/>
		<path style="fill:#8D4700;" d="M220.69,207.448c0,4.873-3.955,8.828-8.828,8.828c-4.873,0-8.828-3.955-8.828-8.828    c0-4.873,3.955-8.828,8.828-8.828C216.735,198.621,220.69,202.575,220.69,207.448"/>
		<path style="fill:#8D4700;" d="M220.69,242.759c0,4.873-3.955,8.828-8.828,8.828c-4.873,0-8.828-3.955-8.828-8.828    s3.955-8.828,8.828-8.828C216.735,233.931,220.69,237.886,220.69,242.759"/>
	</g>
</g>
<g>
</g>
<g>
</g>
<g>
</g>
<g>
</g>
<g>
</g>
<g>
</g>
<g>
</g>
<g>
</g>
<g>
</g>
<g>
</g>
<g>
</g>
<g>
</g>
<g>
</g>
<g>
</g>
<g>
</g>
</svg>
