<?xml version="1.0" encoding="iso-8859-1"?>
<!-- Generator: Adobe Illustrator 19.0.0, SVG Export Plug-In . SVG Version: 6.00 Build 0)  -->
<svg xmlns="http://www.w3.org/2000/svg" xmlns:xlink="http://www.w3.org/1999/xlink" version="1.1" id="Capa_1" x="0px" y="0px" viewBox="0 0 512 512" style="enable-background:new 0 0 512 512;" xml:space="preserve">
<g>
	<path style="fill:#88C057;" d="M70.621,114.759c-4.873,0-8.828-3.955-8.828-8.828V61.793c0-4.873,3.955-8.828,8.828-8.828   s8.828,3.955,8.828,8.828v44.138C79.448,110.804,75.494,114.759,70.621,114.759"/>
	<polygon style="fill:#BCA591;" points="26.483,353.103 494.345,353.103 494.345,194.207 26.483,194.207  "/>
	<g>
		<polygon style="fill:#7A6958;" points="61.793,317.793 238.345,317.793 238.345,229.517 61.793,229.517   "/>
		<polygon style="fill:#7A6958;" points="282.483,317.793 459.034,317.793 459.034,229.517 282.483,229.517   "/>
		<polygon style="fill:#7A6958;" points="0,194.207 512,194.207 512,158.897 0,158.897   "/>
	</g>
	<g>
		<path style="fill:#DEC150;" d="M185.379,273.655h-70.621c-4.873,0-8.828-3.955-8.828-8.828s3.955-8.828,8.828-8.828h70.621    c4.873,0,8.828,3.955,8.828,8.828S190.252,273.655,185.379,273.655"/>
		<path style="fill:#DEC150;" d="M150.069,291.31c-4.873,0-8.828-3.955-8.828-8.828v-17.655c0-4.873,3.955-8.828,8.828-8.828    c4.873,0,8.828,3.955,8.828,8.828v17.655C158.897,287.356,154.942,291.31,150.069,291.31"/>
		<path style="fill:#DEC150;" d="M406.069,273.655h-70.621c-4.873,0-8.828-3.955-8.828-8.828s3.955-8.828,8.828-8.828h70.621    c4.873,0,8.828,3.955,8.828,8.828S410.942,273.655,406.069,273.655"/>
		<path style="fill:#DEC150;" d="M370.759,291.31c-4.873,0-8.828-3.955-8.828-8.828v-17.655c0-4.873,3.955-8.828,8.828-8.828    c4.873,0,8.828,3.955,8.828,8.828v17.655C379.586,287.356,375.631,291.31,370.759,291.31"/>
	</g>
	<g>
		<path style="fill:#F7F0E8;" d="M485.517,158.897h-70.621V66.56c0-7.512,6.082-13.594,13.594-13.594h43.432    c7.512,0,13.594,6.082,13.594,13.594V158.897z"/>
		<path style="fill:#F7F0E8;" d="M273.655,158.897V101.87c0-7.512,6.082-13.594,13.594-13.594h78.742    c7.512,0,13.594,6.082,13.594,13.594v57.026H273.655z"/>
		<path style="fill:#F7F0E8;" d="M150.069,158.897V84.215c0-7.512,6.082-13.594,13.594-13.594h61.087    c7.512,0,13.594,6.082,13.594,13.594v74.681H150.069z"/>
	</g>
	<path style="fill:#D1D4D1;" d="M88.276,105.931L88.276,105.931H56.497c-2.489,9.975-8.519,18.432-16.066,25.423   c-3.858,3.566-5.959,9.022-4.802,14.848c1.501,7.548,8.58,12.694,16.269,12.694h40.978c7.689,0,14.769-5.146,16.269-12.694   c1.156-5.826-0.945-11.282-4.802-14.848C96.794,124.363,90.774,115.906,88.276,105.931"/>
	<path style="fill:#E64C3C;" d="M70.621,0H44.138v35.31c0,14.566,11.917,26.483,26.483,26.483V0z"/>
	<path style="fill:#C03A2B;" d="M70.621,0h26.483v35.31c0,14.566-11.917,26.483-26.483,26.483V0z"/>
	<g>
		<path style="fill:#7A6958;" d="M108.646,353.103H68.463c-6.435,16.631-10.249,37.314-6.674,61.793    c6.991,47.819-10.046,61.714-9.79,61.793L26.479,512h8.828c44.138,0,62.817-68.061,61.793-97.103    C96.102,386.357,101.946,366.442,108.646,353.103"/>
		<path style="fill:#7A6958;" d="M459.034,414.897c3.575-24.479-0.23-45.162-6.665-61.793h-40.192    c6.709,13.339,12.553,33.254,11.546,61.793C422.709,443.939,441.379,512,485.517,512h8.828l-25.512-35.31    C469.089,476.61,452.043,462.716,459.034,414.897"/>
	</g>
</g>
<g>
</g>
<g>
</g>
<g>
</g>
<g>
</g>
<g>
</g>
<g>
</g>
<g>
</g>
<g>
</g>
<g>
</g>
<g>
</g>
<g>
</g>
<g>
</g>
<g>
</g>
<g>
</g>
<g>
</g>
</svg>
