<?xml version="1.0" encoding="iso-8859-1"?>
<!-- Generator: Adobe Illustrator 19.0.0, SVG Export Plug-In . SVG Version: 6.00 Build 0)  -->
<svg xmlns="http://www.w3.org/2000/svg" xmlns:xlink="http://www.w3.org/1999/xlink" version="1.1" id="Capa_1" x="0px" y="0px" viewBox="0 0 512 512" style="enable-background:new 0 0 512 512;" xml:space="preserve">
<g>
	<g>
		<path style="fill:#C7BFB7;" d="M460,472.278c0.256-0.079-16.781-13.974-9.79-61.793c3.575-24.479-2.401-45.162-8.828-61.793    v-17.655h-35.31v17.655c6.691,13.339,9.825,33.254,8.828,61.793c-1.024,29.043,17.655,97.103,61.793,97.103h8.828L460,472.278z"/>
		<path style="fill:#C7BFB7;" d="M51.991,472.278c-0.247-0.079,16.79-13.974,9.799-61.793c-3.575-24.479,2.392-45.162,8.828-61.793    v-17.655h35.31v17.655c-6.691,13.339-9.825,33.254-8.828,61.793c1.024,29.043-17.655,97.103-61.793,97.103h-8.828L51.991,472.278z    "/>
	</g>
	<path style="fill:#88C057;" d="M88.276,119.17c-4.882,0-8.828-3.955-8.828-8.828V66.205c0-4.873,3.946-8.828,8.828-8.828   s8.828,3.955,8.828,8.828v44.138C97.103,115.215,93.158,119.17,88.276,119.17"/>
	<path style="fill:#D1D4D1;" d="M105.931,110.343L105.931,110.343H74.152c-2.498,9.975-8.519,18.432-16.066,25.415   c-3.858,3.575-5.959,9.022-4.802,14.857c1.492,7.548,8.58,12.694,16.269,12.694h40.978c7.689,0,14.769-5.146,16.269-12.694   c1.156-5.835-0.936-11.282-4.802-14.857C114.45,128.775,108.42,120.318,105.931,110.343"/>
	<path style="fill:#E64C3C;" d="M88.276,4.412H61.793v35.31c0,14.566,11.917,26.483,26.483,26.483V4.412z"/>
	<path style="fill:#C03A2B;" d="M88.276,4.412h26.483v35.31c0,14.566-11.917,26.483-26.483,26.483V4.412z"/>
	<polygon style="fill:#F3D55B;" points="379.586,163.313 485.517,163.313 485.517,128.002 379.586,128.002  "/>
	<polygon style="fill:#E64C3C;" points="397.241,128.002 503.172,128.002 503.172,92.692 397.241,92.692  "/>
	<polygon style="fill:#88C057;" points="379.586,92.692 485.517,92.692 485.517,57.382 379.586,57.382  "/>
	<polygon style="fill:#D1D4D1;" points="229.517,163.313 282.483,163.313 282.483,128.002 229.517,128.002  "/>
	<g>
		<path style="fill:#A5A5A4;" d="M300.138,136.83h-88.276c-4.882,0-8.828-3.955-8.828-8.828c0-4.873,3.946-8.828,8.828-8.828h88.276    c4.882,0,8.828,3.955,8.828,8.828C308.966,132.875,305.02,136.83,300.138,136.83"/>
		<path style="fill:#A5A5A4;" d="M255.414,67.269h0.097H255.414z M256.005,101.52c-1.13,0-2.26-0.221-3.363-0.671    c-8.422-3.487-13.436-9.843-13.436-16.984c0-7.15,5.014-13.497,13.436-16.984c0.547-0.23,1.006-0.459,1.386-0.671    c-0.38-0.221-0.839-0.441-1.386-0.671c-4.511-1.871-6.647-7.036-4.776-11.538c1.854-4.502,7.009-6.647,11.529-4.776    c8.413,3.487,13.436,9.834,13.436,16.984c0,7.142-5.023,13.497-13.436,16.984c-0.547,0.23-1.015,0.45-1.395,0.671    c0.38,0.212,0.847,0.441,1.395,0.671c4.502,1.863,6.638,7.027,4.776,11.538C262.758,99.472,259.475,101.52,256.005,101.52    L256.005,101.52z"/>
	</g>
	<polygon style="fill:#706B67;" points="26.483,348.692 485.517,348.692 485.517,180.968 26.483,180.968  "/>
	<g>
		<polygon style="fill:#C7BFB7;" points="61.793,313.382 167.724,313.382 167.724,225.106 61.793,225.106   "/>
		<polygon style="fill:#C7BFB7;" points="203.034,313.382 308.966,313.382 308.966,260.416 203.034,260.416   "/>
		<polygon style="fill:#C7BFB7;" points="344.276,313.382 450.207,313.382 450.207,225.106 344.276,225.106   "/>
		<polygon style="fill:#C7BFB7;" points="0,189.795 512,189.795 512,154.485 0,154.485   "/>
	</g>
	<g>
		<path style="fill:#706B67;" d="M132.414,269.244h-35.31c-4.882,0-8.828-3.955-8.828-8.828c0-4.873,3.946-8.828,8.828-8.828h35.31    c4.882,0,8.828,3.955,8.828,8.828C141.241,265.289,137.295,269.244,132.414,269.244"/>
		<path style="fill:#706B67;" d="M114.759,286.899c-4.882,0-8.828-3.955-8.828-8.828v-17.655c0-4.873,3.946-8.828,8.828-8.828    s8.828,3.955,8.828,8.828v17.655C123.586,282.944,119.64,286.899,114.759,286.899"/>
		<path style="fill:#706B67;" d="M414.897,269.244h-35.31c-4.882,0-8.828-3.955-8.828-8.828c0-4.873,3.946-8.828,8.828-8.828h35.31    c4.882,0,8.828,3.955,8.828,8.828C423.724,265.289,419.778,269.244,414.897,269.244"/>
		<path style="fill:#706B67;" d="M397.241,286.899c-4.882,0-8.828-3.955-8.828-8.828v-17.655c0-4.873,3.946-8.828,8.828-8.828    c4.882,0,8.828,3.955,8.828,8.828v17.655C406.069,282.944,402.123,286.899,397.241,286.899"/>
	</g>
	<path style="fill:#C7BFB7;" d="M308.966,233.933H203.034c-4.882,0-8.828-3.955-8.828-8.828c0-4.873,3.946-8.828,8.828-8.828   h105.931c4.882,0,8.828,3.955,8.828,8.828C317.793,229.978,313.847,233.933,308.966,233.933"/>
</g>
<g>
</g>
<g>
</g>
<g>
</g>
<g>
</g>
<g>
</g>
<g>
</g>
<g>
</g>
<g>
</g>
<g>
</g>
<g>
</g>
<g>
</g>
<g>
</g>
<g>
</g>
<g>
</g>
<g>
</g>
</svg>
