<?xml version="1.0" encoding="iso-8859-1"?>
<!-- Generator: Adobe Illustrator 19.0.0, SVG Export Plug-In . SVG Version: 6.00 Build 0)  -->
<svg xmlns="http://www.w3.org/2000/svg" xmlns:xlink="http://www.w3.org/1999/xlink" version="1.1" id="Capa_1" x="0px" y="0px" viewBox="0 0 512 512" style="enable-background:new 0 0 512 512;" xml:space="preserve">
<g>
	<polygon style="fill:#69432E;" points="256,27.429 27.429,27.429 27.429,429.714 256,429.714 484.571,429.714 484.571,27.429  "/>
	<path style="fill:#8A5B46;" d="M36.571,420.571h438.857v-384H36.571V420.571z M484.571,438.857H27.429   c-5.047,0-9.143-4.096-9.143-9.143V27.429c0-5.047,4.096-9.143,9.143-9.143h457.143c5.047,0,9.143,4.096,9.143,9.143v402.286   C493.714,434.761,489.618,438.857,484.571,438.857L484.571,438.857z"/>
	<g>
		<polygon style="fill:#492B1D;" points="64,393.143 237.714,393.143 237.714,64 64,64   "/>
		<polygon style="fill:#492B1D;" points="274.286,393.143 448,393.143 448,64 274.286,64   "/>
		<polygon style="fill:#492B1D;" points="438.857,512 466.286,512 466.286,457.143 420.571,457.143   "/>
		<polygon style="fill:#492B1D;" points="73.143,512 45.714,512 45.714,457.143 91.429,457.143   "/>
	</g>
	<g>
		<path style="fill:#B9902F;" d="M192,265.143c-5.047,0-9.143-4.096-9.143-9.143v-27.429c0-5.047,4.096-9.143,9.143-9.143    c5.047,0,9.143,4.096,9.143,9.143V256C201.143,261.047,197.047,265.143,192,265.143"/>
		<path style="fill:#B9902F;" d="M192,237.714h-27.429c-5.047,0-9.143-4.096-9.143-9.143s4.096-9.143,9.143-9.143H192    c5.047,0,9.143,4.096,9.143,9.143S197.047,237.714,192,237.714"/>
		<path style="fill:#B9902F;" d="M320,265.143c-5.047,0-9.143-4.096-9.143-9.143v-27.429c0-5.047,4.096-9.143,9.143-9.143    c5.047,0,9.143,4.096,9.143,9.143V256C329.143,261.047,325.047,265.143,320,265.143"/>
		<path style="fill:#B9902F;" d="M347.429,237.714H320c-5.047,0-9.143-4.096-9.143-9.143s4.096-9.143,9.143-9.143h27.429    c5.047,0,9.143,4.096,9.143,9.143S352.475,237.714,347.429,237.714"/>
	</g>
	<g>
		<polygon style="fill:#492B1D;" points="9.143,36.571 502.857,36.571 502.857,0 9.143,0   "/>
		<polygon style="fill:#492B1D;" points="9.143,457.143 502.857,457.143 502.857,420.571 9.143,420.571   "/>
	</g>
</g>
<g>
</g>
<g>
</g>
<g>
</g>
<g>
</g>
<g>
</g>
<g>
</g>
<g>
</g>
<g>
</g>
<g>
</g>
<g>
</g>
<g>
</g>
<g>
</g>
<g>
</g>
<g>
</g>
<g>
</g>
</svg>
