<?xml version="1.0" encoding="iso-8859-1"?>
<!-- Generator: Adobe Illustrator 19.0.0, SVG Export Plug-In . SVG Version: 6.00 Build 0)  -->
<svg xmlns="http://www.w3.org/2000/svg" xmlns:xlink="http://www.w3.org/1999/xlink" version="1.1" id="Capa_1" x="0px" y="0px" viewBox="0 0 512 512" style="enable-background:new 0 0 512 512;" xml:space="preserve">
<g>
	<polygon style="fill:#687492;" points="256,0 35.31,167.724 35.31,185.379 476.69,185.379 476.69,167.724  "/>
	<polygon style="fill:#38454F;" points="35.31,512 476.69,512 476.69,167.724 35.31,167.724  "/>
	<g>
		<polygon style="fill:#687492;" points="167.724,512 203.034,512 203.034,450.207 167.724,450.207   "/>
		<polygon style="fill:#687492;" points="308.966,512 344.276,512 344.276,450.207 308.966,450.207   "/>
	</g>
	<g>
		<polygon style="fill:#4F5A72;" points="35.31,512 88.276,512 88.276,167.724 35.31,167.724   "/>
		<polygon style="fill:#4F5A72;" points="423.724,512 476.69,512 476.69,167.724 423.724,167.724   "/>
	</g>
	<polygon style="fill:#E64C3C;" points="141.241,459.034 370.759,459.034 370.759,335.448 141.241,335.448  "/>
	<g>
		<path style="fill:#F0C419;" d="M220.69,401.655c0,12.191-9.878,22.069-22.069,22.069c-12.191,0-22.069-9.878-22.069-22.069    c0-12.191,9.878-22.069,22.069-22.069C210.812,379.586,220.69,389.464,220.69,401.655"/>
		<path style="fill:#F0C419;" d="M335.448,401.655c0,12.191-9.878,22.069-22.069,22.069c-12.191,0-22.069-9.878-22.069-22.069    c0-12.191,9.878-22.069,22.069-22.069C325.57,379.586,335.448,389.464,335.448,401.655"/>
	</g>
	<polygon style="fill:#BDC3C7;" points="88.276,344.276 423.724,344.276 423.724,167.724 88.276,167.724  "/>
	<g>
		<polygon style="fill:#959CA0;" points="88.276,220.69 423.724,220.69 423.724,203.034 88.276,203.034   "/>
		<polygon style="fill:#959CA0;" points="88.276,264.828 423.724,264.828 423.724,247.172 88.276,247.172   "/>
		<polygon style="fill:#959CA0;" points="88.276,308.966 423.724,308.966 423.724,291.31 88.276,291.31   "/>
	</g>
</g>
<g>
</g>
<g>
</g>
<g>
</g>
<g>
</g>
<g>
</g>
<g>
</g>
<g>
</g>
<g>
</g>
<g>
</g>
<g>
</g>
<g>
</g>
<g>
</g>
<g>
</g>
<g>
</g>
<g>
</g>
</svg>
