<?xml version="1.0" encoding="iso-8859-1"?>
<!-- Generator: Adobe Illustrator 19.0.0, SVG Export Plug-In . SVG Version: 6.00 Build 0)  -->
<svg xmlns="http://www.w3.org/2000/svg" xmlns:xlink="http://www.w3.org/1999/xlink" version="1.1" id="Capa_1" x="0px" y="0px" viewBox="0 0 512 512" style="enable-background:new 0 0 512 512;" xml:space="preserve">
<g>
	<path style="fill:#DDDFE4;" d="M476.69,459.034H35.31c-19.5,0-35.31-15.81-35.31-35.31V88.276c0-19.5,15.81-35.31,35.31-35.31   H476.69c19.5,0,35.31,15.81,35.31,35.31v335.448C512,443.224,496.19,459.034,476.69,459.034"/>
	<path style="fill:#9C9FA6;" d="M273.655,176.552v69.676c0,8.801-6.012,16.949-14.689,18.361   c-11.061,1.801-20.621-6.691-20.621-17.417v-70.621H88.276c-9.746,0-17.655,7.91-17.655,17.655v211.862   c0,9.746,7.91,17.655,17.655,17.655h335.448c9.746,0,17.655-7.91,17.655-17.655V194.207c0-9.746-7.91-17.655-17.655-17.655H273.655   z"/>
	<path style="fill:#CCCED1;" d="M256,264.828L256,264.828c-9.746,0-17.655-7.91-17.655-17.655V132.414   c0-9.746,7.91-17.655,17.655-17.655c9.746,0,17.655,7.91,17.655,17.655v114.759C273.655,256.918,265.746,264.828,256,264.828"/>
	<path style="fill:#9C9FA6;" d="M317.793,88.276H194.207c-9.746,0-17.655,7.91-17.655,17.655v17.655   c0,9.746,7.91,17.655,17.655,17.655h44.138v-8.828c0-9.746,7.91-17.655,17.655-17.655c9.746,0,17.655,7.91,17.655,17.655v8.828   h44.138c9.746,0,17.655-7.91,17.655-17.655v-17.655C335.448,96.185,327.539,88.276,317.793,88.276"/>
</g>
<g>
</g>
<g>
</g>
<g>
</g>
<g>
</g>
<g>
</g>
<g>
</g>
<g>
</g>
<g>
</g>
<g>
</g>
<g>
</g>
<g>
</g>
<g>
</g>
<g>
</g>
<g>
</g>
<g>
</g>
</svg>
