<?xml version="1.0" encoding="iso-8859-1"?>
<!-- Generator: Adobe Illustrator 19.0.0, SVG Export Plug-In . SVG Version: 6.00 Build 0)  -->
<svg xmlns="http://www.w3.org/2000/svg" xmlns:xlink="http://www.w3.org/1999/xlink" version="1.1" id="Capa_1" x="0px" y="0px" viewBox="0 0 512.1 512.1" style="enable-background:new 0 0 512.1 512.1;" xml:space="preserve">
<g>
	<path style="fill:#4F3022;" d="M73.7,326.65c-12.9,18.5-26.6,48.4-20.7,88.3c7,47.8-10,61.7-9.8,61.8l-25.5,35.3h8.8   c44.1,0,62.8-68.1,61.8-97.1c-2.2-62.9,28.8-84.2,29.1-84.5l3.8-3.8H73.7z"/>
	<path style="fill:#4F3022;" d="M438.3,326.65c12.9,18.5,26.6,48.4,20.8,88.3c-7,47.8,10,61.7,9.8,61.8l25.5,35.3h-8.8   c-44.1,0-62.8-68.1-61.8-97.1c2.2-62.9-28.8-84.2-29.1-84.5l-3.8-3.8H438.3z"/>
</g>
<g>
	<polygon style="fill:#69432E;" points="158.9,361.95 353.1,361.95 353.1,309.05 158.9,309.05  "/>
	<polygon style="fill:#69432E;" points="35.3,273.75 35.3,326.65 158.9,326.65 158.9,309.05 353.1,309.05 353.1,326.65    476.7,326.65 476.7,273.75  "/>
</g>
<path style="fill:#DEC150;" d="M282.5,344.35h-53c-4.9,0-8.8-4-8.8-8.8s3.9-8.8,8.8-8.8h53c4.9,0,8.8,4,8.8,8.8  S287.4,344.35,282.5,344.35"/>
<g>
	<path style="fill:#69432E;" d="M79.4,132.45c0,24.4-19.8,44.1-44.1,44.1v61.8h79.4v-105.9H79.4z"/>
	<path style="fill:#69432E;" d="M432.6,132.45c0,24.4,19.8,44.1,44.1,44.1v61.8h-79.4v-105.9H432.6z"/>
	<polygon style="fill:#69432E;" points="344.3,238.35 397.2,238.35 397.2,132.45 344.3,132.45  "/>
	<polygon style="fill:#69432E;" points="114.8,238.35 167.7,238.35 167.7,132.45 114.8,132.45  "/>
</g>
<g>
	<path style="fill:#8A5B46;" d="M476.7,265.25H35.3c-4.7,0-8.5,3.8-8.5,8.5v53c0,4.7,3.8,8.5,8.5,8.5h115.1v26.8   c0,4.7,3.8,8.5,8.5,8.5h194.2c4.7,0,8.5-3.8,8.5-8.5v-26.8h115.1c4.7,0,8.5-3.8,8.5-8.5v-53   C485.2,269.05,481.4,265.25,476.7,265.25z M344.6,353.45H167.4v-26.8v-9.2h177.2v9.2L344.6,353.45L344.6,353.45z M468.2,318.15   H361.6v-9.1c0-4.7-3.8-8.5-8.5-8.5H158.9c-4.7,0-8.5,3.8-8.5,8.5v9.2H43.8v-36h424.4L468.2,318.15L468.2,318.15z"/>
	<path style="fill:#8A5B46;" d="M35.3,246.85h79.4h53c4.7,0,8.5-3.8,8.5-8.5v-105.9c0-4.7-3.8-8.5-8.5-8.5h-53H79.4   c-4.7,0-8.5,3.8-8.5,8.5c0,19.7-16,35.6-35.6,35.6c-4.7,0-8.5,3.8-8.5,8.5v61.8C26.8,243.05,30.6,246.85,35.3,246.85z    M159.2,229.85h-36v-88.9h36V229.85z M43.8,184.45c22.2-3.6,39.8-21.2,43.5-43.5h19v88.9H43.8V184.45z"/>
	<path style="fill:#8A5B46;" d="M476.7,168.15c-19.7,0-35.6-16-35.6-35.6c0-4.7-3.8-8.5-8.5-8.5h-35.3h-53c-4.7,0-8.5,3.8-8.5,8.5   v105.9c0,4.7,3.8,8.5,8.5,8.5h53h79.4c4.7,0,8.5-3.8,8.5-8.5v-61.8C485.2,171.95,481.4,168.15,476.7,168.15z M352.8,140.95h36v88.9   h-36V140.95z M468.2,229.85h-62.4v-88.9h19c3.6,22.2,21.2,39.8,43.5,43.5v45.4H468.2z"/>
</g>
<path style="fill:#4F3022;" d="M494.3,273.75H17.7c-9.8,0-17.7-8-17.7-17.7c0-9.7,7.9-17.7,17.7-17.7h476.7  c9.7,0,17.7,7.9,17.7,17.7C512,265.75,504.1,273.75,494.3,273.75"/>
<path style="fill:#90BAE1;" d="M353.1,238.35H158.9V97.15c0-53.6,43.5-97.1,97.1-97.1s97.1,43.5,97.1,97.1V238.35z"/>
<g>
	<path style="fill:#B0D3F0;" d="M203,150.15c-2.3,0-4.5-0.9-6.2-2.6c-3.5-3.5-3.5-9,0-12.5l88.3-88.3c3.5-3.5,9-3.5,12.5,0   s3.5,9,0,12.5l-88.3,88.3C207.6,149.25,205.3,150.15,203,150.15"/>
	<path style="fill:#B0D3F0;" d="M203,105.95c-2.3,0-4.5-0.9-6.2-2.6c-3.5-3.5-3.5-9,0-12.5l44.1-44.1c3.5-3.5,9-3.5,12.5,0   s3.5,9,0,12.5l-44.1,44.1C207.6,105.15,205.3,105.95,203,105.95"/>
</g>
<g>
</g>
<g>
</g>
<g>
</g>
<g>
</g>
<g>
</g>
<g>
</g>
<g>
</g>
<g>
</g>
<g>
</g>
<g>
</g>
<g>
</g>
<g>
</g>
<g>
</g>
<g>
</g>
<g>
</g>
</svg>
