<?xml version="1.0" encoding="iso-8859-1"?>
<!-- Generator: Adobe Illustrator 19.0.0, SVG Export Plug-In . SVG Version: 6.00 Build 0)  -->
<svg xmlns="http://www.w3.org/2000/svg" xmlns:xlink="http://www.w3.org/1999/xlink" version="1.1" id="Capa_1" x="0px" y="0px" viewBox="0 0 512 512" style="enable-background:new 0 0 512 512;" xml:space="preserve">
<g>
	<polygon style="fill:#24AE5F;" points="170.667,230.4 221.867,230.4 221.867,102.4 170.667,102.4  "/>
	<polygon style="fill:#88C057;" points="119.467,230.4 170.667,230.4 170.667,102.4 119.467,102.4  "/>
	<polygon style="fill:#8697CB;" points="85.333,230.4 34.133,230.4 68.267,119.467 119.467,119.467  "/>
	<polygon style="fill:#F3D55B;" points="375.467,136.533 324.267,136.533 341.333,230.4 375.467,230.4 409.6,230.4 426.667,136.533     "/>
	<polygon style="fill:#88C057;" points="366.933,136.533 384,136.533 384,93.867 366.933,93.867  "/>
	<path style="fill:#E64C3C;" d="M426.667,59.733c0-28.271-22.929-51.2-51.2-51.2s-51.2,22.929-51.2,51.2s22.929,51.2,51.2,51.2   S426.667,88.004,426.667,59.733"/>
	<g>
		<path style="fill:#6B4A3A;" d="M469.333,435.2c4.48,7.347,7.492,15.829,5.692,24.823c-0.051,0.222-0.094,0.444-0.137,0.657    c-3.081,15.795-1.161,28.715,10.854,42.052l0.657,0.734h-5.623c-28.109,0-39.509-29.995-38.861-43.443    c0.495-10.317-2.569-18.5-6.716-24.823H469.333z"/>
		<path style="fill:#6B4A3A;" d="M42.667,435.2c-4.48,7.347-7.492,15.829-5.692,24.823c0.051,0.222,0.094,0.444,0.137,0.657    c3.081,15.795,1.161,28.715-10.854,42.052l-0.657,0.734h5.623c28.109,0,39.509-29.995,38.861-43.443    c-0.495-10.317,2.569-18.5,6.716-24.823H42.667z"/>
	</g>
	<polygon style="fill:#69432E;" points="8.533,332.8 503.467,332.8 503.467,230.4 8.533,230.4  "/>
	<path style="fill:#8A5B46;" d="M17.067,324.267h477.867v-85.333H17.067V324.267z M503.467,341.333H8.533   c-4.71,0-8.533-3.814-8.533-8.533V230.4c0-4.719,3.823-8.533,8.533-8.533h494.933c4.71,0,8.533,3.814,8.533,8.533v102.4   C512,337.519,508.177,341.333,503.467,341.333L503.467,341.333z"/>
	<polygon style="fill:#69432E;" points="8.533,435.2 503.467,435.2 503.467,332.8 8.533,332.8  "/>
	<path style="fill:#8A5B46;" d="M17.067,426.667h477.867v-85.333H17.067V426.667z M503.467,443.733H8.533   c-4.71,0-8.533-3.814-8.533-8.533V332.8c0-4.719,3.823-8.533,8.533-8.533h494.933c4.71,0,8.533,3.814,8.533,8.533v102.4   C512,439.919,508.177,443.733,503.467,443.733L503.467,443.733z"/>
	<g>
		<path style="fill:#DEC150;" d="M290.133,281.6h-68.267c-4.71,0-8.533-3.814-8.533-8.533s3.823-8.533,8.533-8.533h68.267    c4.71,0,8.533,3.814,8.533,8.533S294.844,281.6,290.133,281.6"/>
		<path style="fill:#DEC150;" d="M256,298.667c-4.71,0-8.533-3.814-8.533-8.533v-17.067c0-4.719,3.823-8.533,8.533-8.533    c4.71,0,8.533,3.814,8.533,8.533v17.067C264.533,294.852,260.71,298.667,256,298.667"/>
		<path style="fill:#DEC150;" d="M290.133,384h-68.267c-4.71,0-8.533-3.814-8.533-8.533c0-4.719,3.823-8.533,8.533-8.533h68.267    c4.71,0,8.533,3.814,8.533,8.533C298.667,380.186,294.844,384,290.133,384"/>
		<path style="fill:#DEC150;" d="M256,401.067c-4.71,0-8.533-3.814-8.533-8.533v-17.067c0-4.719,3.823-8.533,8.533-8.533    c4.71,0,8.533,3.814,8.533,8.533v17.067C264.533,397.252,260.71,401.067,256,401.067"/>
	</g>
</g>
<g>
</g>
<g>
</g>
<g>
</g>
<g>
</g>
<g>
</g>
<g>
</g>
<g>
</g>
<g>
</g>
<g>
</g>
<g>
</g>
<g>
</g>
<g>
</g>
<g>
</g>
<g>
</g>
<g>
</g>
</svg>
