<?xml version="1.0" encoding="iso-8859-1"?>
<!-- Generator: Adobe Illustrator 19.0.0, SVG Export Plug-In . SVG Version: 6.00 Build 0)  -->
<svg xmlns="http://www.w3.org/2000/svg" xmlns:xlink="http://www.w3.org/1999/xlink" version="1.1" id="Capa_1" x="0px" y="0px" viewBox="0 0 512 512" style="enable-background:new 0 0 512 512;" xml:space="preserve">
<g>
	<g>
		<polygon style="fill:#4F3022;" points="476.69,454.621 512,454.621 512,375.172 459.034,375.172   "/>
		<polygon style="fill:#4F3022;" points="35.31,454.621 0,454.621 0,375.172 52.966,375.172   "/>
	</g>
	<g>
		<path style="fill:#72503F;" d="M35.31,392.828H0V75.034c0-9.746,7.91-17.655,17.655-17.655s17.655,7.91,17.655,17.655V392.828z"/>
		<path style="fill:#72503F;" d="M512,392.828h-35.31V163.31c0-9.746,7.91-17.655,17.655-17.655c9.746,0,17.655,7.91,17.655,17.655    V392.828z"/>
	</g>
	<polygon style="fill:#F7F0E8;" points="35.31,392.828 476.69,392.828 476.69,251.586 35.31,251.586  "/>
	<polygon style="fill:#E64C3C;" points="35.31,251.586 476.69,251.586 476.69,216.276 35.31,216.276  "/>
	<path style="fill:#F7F0E8;" d="M176.552,216.276h-52.966c-14.566,0-26.483-11.917-26.483-26.483   c0-14.566,11.917-26.483,26.483-26.483h52.966c14.566,0,26.483,11.917,26.483,26.483   C203.034,204.359,191.117,216.276,176.552,216.276"/>
	<polygon style="fill:#CC392E;" points="256,339.862 167.724,251.586 344.276,251.586  "/>
</g>
<g>
</g>
<g>
</g>
<g>
</g>
<g>
</g>
<g>
</g>
<g>
</g>
<g>
</g>
<g>
</g>
<g>
</g>
<g>
</g>
<g>
</g>
<g>
</g>
<g>
</g>
<g>
</g>
<g>
</g>
</svg>
