<?xml version="1.0" encoding="iso-8859-1"?>
<!-- Generator: Adobe Illustrator 19.0.0, SVG Export Plug-In . SVG Version: 6.00 Build 0)  -->
<svg xmlns="http://www.w3.org/2000/svg" xmlns:xlink="http://www.w3.org/1999/xlink" version="1.1" id="Capa_1" x="0px" y="0px" viewBox="0 0 512 512" style="enable-background:new 0 0 512 512;" xml:space="preserve">
<g>
	<g>
		<path style="fill:#C7BFB7;" d="M476.69,423.724v17.655c4.634,7.601,7.751,16.375,5.888,25.679c-0.053,0.23-0.097,0.459-0.141,0.68    c-3.187,16.34-1.192,29.705,11.229,43.502l0.68,0.759h-5.817c-29.078,0-40.872-31.029-40.201-44.941    c0.521-10.673-2.657-19.138-6.947-25.679v-17.655H476.69z"/>
		<path style="fill:#C7BFB7;" d="M35.31,423.724v17.655c-4.634,7.601-7.751,16.375-5.879,25.679c0.044,0.23,0.088,0.459,0.132,0.68    c3.187,16.331,1.192,29.705-11.229,43.502L17.655,512h5.817c29.078,0,40.872-31.029,40.201-44.941    c-0.521-10.673,2.657-19.138,6.947-25.679v-17.655H35.31z"/>
		<path style="fill:#C7BFB7;" d="M393.56,264.828h83.129V105.931C388.414,105.931,379.586,0,256,0S123.586,105.931,35.31,105.931    v158.897h83.129H393.56z"/>
	</g>
	<path style="fill:#F7F0E8;" d="M393.56,264.828h47.819V136.625c-33.986-9.34-57.459-31.285-78.769-51.218   C333.868,58.527,309.045,35.31,256,35.31s-77.868,23.217-106.611,50.097c-21.31,19.933-44.782,41.878-78.769,51.218v128.203h47.819   H393.56z"/>
	<path style="fill:#A89F98;" d="M476.69,264.828H35.31c-19.5,0-35.31,15.81-35.31,35.31v141.241h512V300.138   C512,280.638,496.19,264.828,476.69,264.828"/>
	<path style="fill:#F7F0E8;" d="M35.31,406.069v-88.276c0-9.746,7.91-17.655,17.655-17.655h406.069   c9.746,0,17.655,7.91,17.655,17.655v88.276H35.31z"/>
	<g>
		<path style="fill:#C7BFB7;" d="M398.388,211.965l1.271,1.192c8.351,7.857,8.351,21.133,0,28.99l-1.271,1.201    c-30.446,28.646-77.921,28.646-108.367,0l-1.271-1.201c-8.351-7.857-8.351-21.133,0-28.99l1.271-1.192    C320.467,183.32,367.942,183.32,398.388,211.965"/>
		<path style="fill:#C7BFB7;" d="M221.983,211.965l1.271,1.192c8.351,7.857,8.351,21.133,0,28.99l-1.271,1.201    c-30.446,28.646-77.921,28.646-108.367,0l-1.271-1.201c-8.351-7.857-8.351-21.133,0-28.99l1.271-1.192    C144.062,183.32,191.537,183.32,221.983,211.965"/>
	</g>
</g>
<g>
</g>
<g>
</g>
<g>
</g>
<g>
</g>
<g>
</g>
<g>
</g>
<g>
</g>
<g>
</g>
<g>
</g>
<g>
</g>
<g>
</g>
<g>
</g>
<g>
</g>
<g>
</g>
<g>
</g>
</svg>
