<?xml version="1.0" encoding="iso-8859-1"?>
<!-- Generator: Adobe Illustrator 19.0.0, SVG Export Plug-In . SVG Version: 6.00 Build 0)  -->
<svg xmlns="http://www.w3.org/2000/svg" xmlns:xlink="http://www.w3.org/1999/xlink" version="1.1" id="Capa_1" x="0px" y="0px" viewBox="0 0 512.001 512.001" style="enable-background:new 0 0 512.001 512.001;" xml:space="preserve">
<g>
	<g>
		<path style="fill:#966F58;" d="M502.492,511.242c-12.42-13.797-14.415-27.171-11.22-43.502c0.035-0.221,0.079-0.45,0.124-0.68    c1.871-9.304-1.236-18.079-5.879-25.679v-17.655h-35.31v17.655c4.29,6.541,7.468,15.007,6.947,25.679    c-0.671,13.912,11.123,44.941,40.201,44.941h5.817L502.492,511.242z"/>
		<path style="fill:#966F58;" d="M27.164,511.242c12.42-13.797,14.415-27.171,11.22-43.502c-0.035-0.221-0.079-0.45-0.132-0.68    c-1.863-9.304,1.245-18.079,5.888-25.679v-17.655h35.31v17.655c-4.29,6.541-7.468,15.007-6.947,25.679    c0.671,13.912-11.123,44.941-40.201,44.941h-5.817L27.164,511.242z"/>
	</g>
	<g>
		<path style="fill:#4F3022;" d="M256,203.034c64.335,0,100.882,30.799,137.56,61.793h83.129V105.931    C388.414,105.931,379.587,0,256,0S123.587,105.931,35.311,105.931v158.897h83.129C155.119,233.834,191.665,203.034,256,203.034"/>
		<path style="fill:#4F3022;" d="M414.897,282.483c-45.012-35.681-82.211-79.448-158.897-79.448s-113.885,43.767-158.897,79.448    C59.216,312.514,8.069,335.448,0,335.448v105.931h512V335.448C503.932,335.448,452.785,312.514,414.897,282.483"/>
	</g>
	<g>
		<path style="fill:#966F58;" d="M35.311,406.069v-44.138c27.313-12.023,61.308-34.013,83.721-51.774    c7.495-5.941,14.777-12.085,22.051-18.238C176.508,261.994,204.5,238.345,256,238.345s79.492,23.649,114.918,53.575    c7.274,6.153,14.557,12.297,22.042,18.238c22.422,17.761,56.417,39.751,83.73,51.774v44.138H35.311z"/>
		<path style="fill:#966F58;" d="M256,203.034c64.335,0,100.882,30.799,137.56,61.793h47.819V136.625    c-33.986-9.34-57.459-31.285-78.769-51.218C333.869,58.527,309.045,35.31,256,35.31S178.132,58.527,149.39,85.407    c-21.31,19.933-44.782,41.878-78.769,51.218v128.203h47.819C155.119,233.834,191.665,203.034,256,203.034"/>
	</g>
	<g>
		<path style="fill:#F7F0E8;" d="M118.44,264.828H35.311c-19.5,0-35.31,15.81-35.31,35.31v35.31    c8.068,0,59.215-22.934,97.103-52.966C104.351,276.736,111.396,270.777,118.44,264.828"/>
		<path style="fill:#F7F0E8;" d="M476.69,264.828h-83.129c7.044,5.95,14.089,11.908,21.336,17.655    c37.888,30.031,89.035,52.966,97.103,52.966v-35.31C512,280.638,496.19,264.828,476.69,264.828"/>
	</g>
</g>
<g>
</g>
<g>
</g>
<g>
</g>
<g>
</g>
<g>
</g>
<g>
</g>
<g>
</g>
<g>
</g>
<g>
</g>
<g>
</g>
<g>
</g>
<g>
</g>
<g>
</g>
<g>
</g>
<g>
</g>
</svg>
