<?xml version="1.0" encoding="iso-8859-1"?>
<!-- Generator: Adobe Illustrator 19.0.0, SVG Export Plug-In . SVG Version: 6.00 Build 0)  -->
<svg xmlns="http://www.w3.org/2000/svg" xmlns:xlink="http://www.w3.org/1999/xlink" version="1.1" id="Capa_1" x="0px" y="0px" viewBox="0 0 512 512" style="enable-background:new 0 0 512 512;" xml:space="preserve">
<g>
	<g>
		<polygon style="fill:#61729E;" points="238.345,384 264.828,384 264.828,331.034 238.345,331.034   "/>
		<polygon style="fill:#61729E;" points="441.379,392.828 467.862,392.828 467.862,331.034 441.379,331.034   "/>
	</g>
	<polygon style="fill:#E64C3C;" points="97.103,384 167.724,384 167.724,57.379 97.103,57.379  "/>
	<polygon style="fill:#F0C419;" points="26.483,384 97.103,384 97.103,111.819 26.483,111.819  "/>
	<g>
		<polygon style="fill:#6B4A3A;" points="88.276,454.621 44.138,454.621 26.483,410.483 105.931,410.483   "/>
		<polygon style="fill:#6B4A3A;" points="423.724,454.621 467.862,454.621 485.517,410.483 406.069,410.483   "/>
	</g>
	<polygon style="fill:#966F58;" points="0,419.31 512,419.31 512,375.172 0,375.172  "/>
	<polygon style="fill:#C03A2B;" points="97.103,136.828 167.724,136.828 167.724,101.517 97.103,101.517  "/>
	<polygon style="fill:#CCA119;" points="26.483,189.793 97.103,189.793 97.103,154.483 26.483,154.483  "/>
	<path style="fill:#C03A2B;" d="M132.414,339.862c-4.873,0-8.828-3.946-8.828-8.828V180.966c0-4.882,3.955-8.828,8.828-8.828   c4.873,0,8.828,3.946,8.828,8.828v150.069C141.241,335.916,137.287,339.862,132.414,339.862"/>
	<path style="fill:#CCA119;" d="M61.793,339.862c-4.873,0-8.828-3.946-8.828-8.828v-97.103c0-4.882,3.955-8.828,8.828-8.828   s8.828,3.946,8.828,8.828v97.103C70.621,335.916,66.666,339.862,61.793,339.862"/>
	<path style="fill:#8697CB;" d="M485.517,339.862H220.69c-9.746,0-17.655-7.91-17.655-17.655V128c0-9.746,7.91-17.655,17.655-17.655   h264.828c9.746,0,17.655,7.91,17.655,17.655v194.207C503.172,331.953,495.263,339.862,485.517,339.862"/>
	<g>
		<path style="fill:#F7F0E8;" d="M503.172,207.448h-35.31c-9.746,0-17.655-7.91-17.655-17.655c0-9.746,7.91-17.655,17.655-17.655    h35.31V207.448z"/>
		<path style="fill:#F7F0E8;" d="M503.172,278.069h-35.31c-9.746,0-17.655-7.91-17.655-17.655c0-9.746,7.91-17.655,17.655-17.655    h35.31V278.069z"/>
	</g>
	<path style="fill:#61729E;" d="M450.207,260.414L450.207,260.414c0-9.746,7.91-17.655,17.655-17.655v-35.31   c-9.746,0-17.655-7.91-17.655-17.655c0-9.746,7.91-17.655,17.655-17.655v-8.828c0-9.746-7.91-17.655-17.655-17.655H256   c-9.746,0-17.655,7.91-17.655,17.655v123.586c0,9.746,7.91,17.655,17.655,17.655h194.207c9.746,0,17.655-7.91,17.655-17.655v-8.828   C458.116,278.069,450.207,270.159,450.207,260.414"/>
	<g>
		<path style="fill:#F7F0E8;" d="M282.483,269.241c-4.873,0-8.828-3.946-8.828-8.828v-70.621c0-4.882,3.955-8.828,8.828-8.828    c4.873,0,8.828,3.946,8.828,8.828v70.621C291.31,265.295,287.356,269.241,282.483,269.241"/>
		<path style="fill:#F7F0E8;" d="M404.556,200.138c-13.789-13.789-36.149-13.789-49.938,0s-13.789,36.149,0,49.929    c13.789,13.798,36.149,13.798,49.938,0C418.345,236.287,418.345,213.927,404.556,200.138"/>
	</g>
	<path style="fill:#C7BFB7;" d="M354.616,258.896c-2.26,0-4.52-0.865-6.241-2.586c-3.452-3.452-3.452-9.031,0-12.482l12.491-12.482   c3.443-3.452,9.031-3.452,12.482,0c3.443,3.452,3.443,9.031,0,12.482l-12.491,12.482   C359.136,258.031,356.876,258.896,354.616,258.896"/>
</g>
<g>
</g>
<g>
</g>
<g>
</g>
<g>
</g>
<g>
</g>
<g>
</g>
<g>
</g>
<g>
</g>
<g>
</g>
<g>
</g>
<g>
</g>
<g>
</g>
<g>
</g>
<g>
</g>
<g>
</g>
</svg>
