<?xml version="1.0" encoding="iso-8859-1"?>
<!-- Generator: Adobe Illustrator 19.0.0, SVG Export Plug-In . SVG Version: 6.00 Build 0)  -->
<svg xmlns="http://www.w3.org/2000/svg" xmlns:xlink="http://www.w3.org/1999/xlink" version="1.1" id="Capa_1" x="0px" y="0px" viewBox="0 0 512 512" style="enable-background:new 0 0 512 512;" xml:space="preserve">
<g transform="translate(1 1)">
	<g>
		<path style="fill:#492B1D;" d="M476.9,404.3c4.5,7.3,7.5,15.8,5.7,24.8c0,0.2-0.1,0.4-0.1,0.7c-3.1,15.8-1.2,28.7,10.9,42.1    l0.7,0.7h-5.6c-28.1,0-39.5-30-38.9-43.4c0.5-10.3-2.6-18.5-6.7-24.8h34V404.3z"/>
		<path style="fill:#492B1D;" d="M33.1,404.3c-4.5,7.3-7.5,15.8-5.7,24.8c0,0.2,0.1,0.4,0.1,0.7c3.1,15.8,1.2,28.7-10.9,42.1    l-0.7,0.7h5.6c28.1,0,39.5-30,38.9-43.4c-0.5-10.3,2.6-18.5,6.7-24.8h-34V404.3z"/>
	</g>
	<polygon style="fill:#996E5A;" points="7.5,148.3 502.5,148.3 502.5,45.9 7.5,45.9  "/>
	<polygon style="fill:#13A085;" points="246.5,148.3 272.1,148.3 272.1,80.1 246.5,80.1  "/>
	<polygon style="fill:#71C285;" points="220.9,148.3 246.5,148.3 246.5,80.1 220.9,80.1  "/>
	<polygon style="fill:#25C3AB;" points="442.7,148.3 468.3,148.3 468.3,80.1 442.7,80.1  "/>
	<polygon style="fill:#955BA5;" points="417.1,148.3 442.7,148.3 442.7,80.1 417.1,80.1  "/>
	<polygon style="fill:#E57E25;" points="391.5,148.3 417.1,148.3 417.1,80.1 391.5,80.1  "/>
	<polygon style="fill:#F0C419;" points="365.9,148.3 391.5,148.3 391.5,80.1 365.9,80.1  "/>
	<polygon style="fill:#24AE5F;" points="340.3,148.3 365.9,148.3 365.9,80.1 340.3,80.1  "/>
	<polygon style="fill:#E64C3C;" points="314.7,148.3 340.3,148.3 340.3,80.1 314.7,80.1  "/>
	<polygon style="fill:#E57E25;" points="41.7,148.3 118.5,148.3 118.5,122.7 41.7,122.7  "/>
	<polygon style="fill:#F0C419;" points="41.7,122.7 118.5,122.7 118.5,97.1 41.7,97.1  "/>
	<polygon style="fill:#8697CB;" points="178.2,148.3 152.6,148.3 178.2,88.6 203.8,88.6  "/>
	<g>
		<polygon style="fill:#996E5A;" points="7.5,404.3 178.2,404.3 178.2,148.3 7.5,148.3   "/>
		<polygon style="fill:#996E5A;" points="178.2,404.3 348.9,404.3 348.9,148.3 178.2,148.3   "/>
	</g>
	<g>
		<path style="fill:#DEC150;" d="M220.9,293.4c-4.7,0-8.5-3.8-8.5-8.5v-25.6c0-4.7,3.8-8.5,8.5-8.5s8.5,3.8,8.5,8.5v25.6    C229.4,289.6,225.6,293.4,220.9,293.4"/>
		<path style="fill:#DEC150;" d="M135.5,293.4c-4.7,0-8.5-3.8-8.5-8.5v-25.6c0-4.7,3.8-8.5,8.5-8.5s8.5,3.8,8.5,8.5v25.6    C144.1,289.6,140.3,293.4,135.5,293.4"/>
	</g>
	<g>
		<polygon style="fill:#996E5A;" points="348.9,233.7 502.5,233.7 502.5,148.3 348.9,148.3   "/>
		<polygon style="fill:#996E5A;" points="348.9,404.3 502.5,404.3 502.5,319 348.9,319   "/>
		<polygon style="fill:#996E5A;" points="348.9,319 502.5,319 502.5,233.7 348.9,233.7   "/>
	</g>
	<path style="fill:#8A5B46;" d="M502.5,37.4H7.5c-4.7,0-8.5,3.8-8.5,8.5v102.4v256c0,4.7,3.8,8.5,8.5,8.5h170.7h170.7h153.6   c4.7,0,8.5-3.8,8.5-8.5V319v-85.3v-85.3V45.9C511,41.2,507.2,37.4,502.5,37.4z M494,156.8v68.3H357.4v-68.3H494z M357.4,242.2H494   v68.3H357.4V242.2z M16,54.4h478v85.4H348.9H178.2H16V54.4z M16,156.8h153.7v239H16V156.8z M186.7,156.8h153.7v76.8V319v76.8H186.7   V156.8z M494,395.8H357.4v-68.3H494V395.8z"/>
	<g>
		<path style="fill:#DEC150;" d="M246.5,267.8h-25.6c-4.7,0-8.5-3.8-8.5-8.5c0-4.7,3.8-8.5,8.5-8.5h25.6c4.7,0,8.5,3.8,8.5,8.5    C255,264,251.2,267.8,246.5,267.8"/>
		<path style="fill:#DEC150;" d="M442.7,284.9h-34.1c-4.7,0-8.5-3.8-8.5-8.5s3.8-8.5,8.5-8.5h34.1c4.7,0,8.5,3.8,8.5,8.5    C451.3,281,447.5,284.9,442.7,284.9"/>
		<path style="fill:#DEC150;" d="M442.7,199.5h-34.1c-4.7,0-8.5-3.8-8.5-8.5s3.8-8.5,8.5-8.5h34.1c4.7,0,8.5,3.8,8.5,8.5    S447.5,199.5,442.7,199.5"/>
		<path style="fill:#DEC150;" d="M442.7,370.2h-34.1c-4.7,0-8.5-3.8-8.5-8.5s3.8-8.5,8.5-8.5h34.1c4.7,0,8.5,3.8,8.5,8.5    S447.5,370.2,442.7,370.2"/>
		<path style="fill:#DEC150;" d="M135.5,267.8h-25.6c-4.7,0-8.5-3.8-8.5-8.5c0-4.7,3.8-8.5,8.5-8.5h25.6c4.7,0,8.5,3.8,8.5,8.5    C144.1,264,140.3,267.8,135.5,267.8"/>
	</g>
</g>
<g>
</g>
<g>
</g>
<g>
</g>
<g>
</g>
<g>
</g>
<g>
</g>
<g>
</g>
<g>
</g>
<g>
</g>
<g>
</g>
<g>
</g>
<g>
</g>
<g>
</g>
<g>
</g>
<g>
</g>
</svg>
