<?xml version="1.0" encoding="iso-8859-1"?>
<!-- Generator: Adobe Illustrator 19.0.0, SVG Export Plug-In . SVG Version: 6.00 Build 0)  -->
<svg xmlns="http://www.w3.org/2000/svg" xmlns:xlink="http://www.w3.org/1999/xlink" version="1.1" id="Capa_1" x="0px" y="0px" viewBox="0 0 512 512" style="enable-background:new 0 0 512 512;" xml:space="preserve">
<g>
	<g>
		<path style="fill:#643872;" d="M102.4,512c-4.719,0-8.533-3.823-8.533-8.533v-25.6c0-4.71,3.814-8.533,8.533-8.533    c4.719,0,8.533,3.823,8.533,8.533v25.6C110.933,508.177,107.119,512,102.4,512"/>
		<path style="fill:#643872;" d="M136.533,512c-4.719,0-8.533-3.823-8.533-8.533v-25.6c0-4.71,3.814-8.533,8.533-8.533    s8.533,3.823,8.533,8.533v25.6C145.067,508.177,141.252,512,136.533,512"/>
		<path style="fill:#643872;" d="M170.667,512c-4.719,0-8.533-3.823-8.533-8.533v-25.6c0-4.71,3.814-8.533,8.533-8.533    c4.719,0,8.533,3.823,8.533,8.533v25.6C179.2,508.177,175.386,512,170.667,512"/>
		<path style="fill:#643872;" d="M204.8,512c-4.719,0-8.533-3.823-8.533-8.533v-25.6c0-4.71,3.814-8.533,8.533-8.533    c4.719,0,8.533,3.823,8.533,8.533v25.6C213.333,508.177,209.519,512,204.8,512"/>
		<path style="fill:#643872;" d="M238.933,512c-4.719,0-8.533-3.823-8.533-8.533v-25.6c0-4.71,3.814-8.533,8.533-8.533    c4.719,0,8.533,3.823,8.533,8.533v25.6C247.467,508.177,243.652,512,238.933,512"/>
		<path style="fill:#643872;" d="M273.067,512c-4.719,0-8.533-3.823-8.533-8.533v-25.6c0-4.71,3.814-8.533,8.533-8.533    s8.533,3.823,8.533,8.533v25.6C281.6,508.177,277.786,512,273.067,512"/>
		<path style="fill:#643872;" d="M307.2,512c-4.719,0-8.533-3.823-8.533-8.533v-25.6c0-4.71,3.814-8.533,8.533-8.533    s8.533,3.823,8.533,8.533v25.6C315.733,508.177,311.919,512,307.2,512"/>
		<path style="fill:#643872;" d="M341.333,512c-4.719,0-8.533-3.823-8.533-8.533v-25.6c0-4.71,3.814-8.533,8.533-8.533    s8.533,3.823,8.533,8.533v25.6C349.867,508.177,346.052,512,341.333,512"/>
		<path style="fill:#643872;" d="M375.467,512c-4.719,0-8.533-3.823-8.533-8.533v-25.6c0-4.71,3.814-8.533,8.533-8.533    c4.719,0,8.533,3.823,8.533,8.533v25.6C384,508.177,380.186,512,375.467,512"/>
		<path style="fill:#643872;" d="M409.6,512c-4.719,0-8.533-3.823-8.533-8.533v-25.6c0-4.71,3.814-8.533,8.533-8.533    c4.719,0,8.533,3.823,8.533,8.533v25.6C418.133,508.177,414.319,512,409.6,512"/>
		<path style="fill:#643872;" d="M102.4,42.667c-4.719,0-8.533-3.823-8.533-8.533v-25.6C93.867,3.823,97.681,0,102.4,0    c4.719,0,8.533,3.823,8.533,8.533v25.6C110.933,38.844,107.119,42.667,102.4,42.667"/>
		<path style="fill:#643872;" d="M136.533,42.667c-4.719,0-8.533-3.823-8.533-8.533v-25.6C128,3.823,131.814,0,136.533,0    s8.533,3.823,8.533,8.533v25.6C145.067,38.844,141.252,42.667,136.533,42.667"/>
		<path style="fill:#643872;" d="M170.667,42.667c-4.719,0-8.533-3.823-8.533-8.533v-25.6c0-4.71,3.814-8.533,8.533-8.533    c4.719,0,8.533,3.823,8.533,8.533v25.6C179.2,38.844,175.386,42.667,170.667,42.667"/>
		<path style="fill:#643872;" d="M204.8,42.667c-4.719,0-8.533-3.823-8.533-8.533v-25.6c0-4.71,3.814-8.533,8.533-8.533    c4.719,0,8.533,3.823,8.533,8.533v25.6C213.333,38.844,209.519,42.667,204.8,42.667"/>
		<path style="fill:#643872;" d="M238.933,42.667c-4.719,0-8.533-3.823-8.533-8.533v-25.6c0-4.71,3.814-8.533,8.533-8.533    c4.719,0,8.533,3.823,8.533,8.533v25.6C247.467,38.844,243.652,42.667,238.933,42.667"/>
		<path style="fill:#643872;" d="M273.067,42.667c-4.719,0-8.533-3.823-8.533-8.533v-25.6c0-4.71,3.814-8.533,8.533-8.533    s8.533,3.823,8.533,8.533v25.6C281.6,38.844,277.786,42.667,273.067,42.667"/>
		<path style="fill:#643872;" d="M307.2,42.667c-4.719,0-8.533-3.823-8.533-8.533v-25.6c0-4.71,3.814-8.533,8.533-8.533    s8.533,3.823,8.533,8.533v25.6C315.733,38.844,311.919,42.667,307.2,42.667"/>
		<path style="fill:#643872;" d="M341.333,42.667c-4.719,0-8.533-3.823-8.533-8.533v-25.6c0-4.71,3.814-8.533,8.533-8.533    s8.533,3.823,8.533,8.533v25.6C349.867,38.844,346.052,42.667,341.333,42.667"/>
		<path style="fill:#643872;" d="M375.467,42.667c-4.719,0-8.533-3.823-8.533-8.533v-25.6c0-4.71,3.814-8.533,8.533-8.533    C380.186,0,384,3.823,384,8.533v25.6C384,38.844,380.186,42.667,375.467,42.667"/>
		<path style="fill:#643872;" d="M409.6,42.667c-4.719,0-8.533-3.823-8.533-8.533v-25.6c0-4.71,3.814-8.533,8.533-8.533    c4.719,0,8.533,3.823,8.533,8.533v25.6C418.133,38.844,414.319,42.667,409.6,42.667"/>
	</g>
	<path style="fill:#955BA5;" d="M409.6,486.4H102.4c-4.719,0-8.533-3.823-8.533-8.533V34.133c0-4.71,3.814-8.533,8.533-8.533h307.2   c4.719,0,8.533,3.823,8.533,8.533v443.733C418.133,482.577,414.319,486.4,409.6,486.4"/>
	<polygon style="fill:#643872;" points="136.533,443.733 375.467,443.733 375.467,68.267 136.533,68.267  "/>
	<g>
		<polygon style="fill:#F3D55B;" points="221.867,128 196.267,153.6 170.667,128 196.267,102.4   "/>
		<polygon style="fill:#F3D55B;" points="341.333,128 315.733,153.6 290.133,128 315.733,102.4   "/>
		<polygon style="fill:#F3D55B;" points="221.867,384 196.267,409.6 170.667,384 196.267,358.4   "/>
		<polygon style="fill:#F3D55B;" points="341.333,384 315.733,409.6 290.133,384 315.733,358.4   "/>
		<path style="fill:#F3D55B;" d="M324.267,256c0,37.7-30.566,68.267-68.267,68.267S187.733,293.7,187.733,256    S218.3,187.733,256,187.733S324.267,218.3,324.267,256"/>
	</g>
	<g>
		<path style="fill:#AD983E;" d="M238.933,281.6c-2.185,0-4.369-0.836-6.033-2.5c-3.337-3.337-3.337-8.73,0-12.066l34.133-34.133    c3.337-3.337,8.73-3.337,12.066,0c3.337,3.337,3.337,8.73,0,12.066L244.966,279.1C243.302,280.764,241.118,281.6,238.933,281.6"/>
		<path style="fill:#AD983E;" d="M273.067,281.6c-2.185,0-4.369-0.836-6.033-2.5L232.9,244.966c-3.337-3.337-3.337-8.73,0-12.066    c3.337-3.337,8.73-3.337,12.066,0l34.133,34.133c3.337,3.337,3.337,8.73,0,12.066C277.436,280.764,275.251,281.6,273.067,281.6"/>
	</g>
</g>
<g>
</g>
<g>
</g>
<g>
</g>
<g>
</g>
<g>
</g>
<g>
</g>
<g>
</g>
<g>
</g>
<g>
</g>
<g>
</g>
<g>
</g>
<g>
</g>
<g>
</g>
<g>
</g>
<g>
</g>
</svg>
