<?xml version="1.0" encoding="iso-8859-1"?>
<!-- Generator: Adobe Illustrator 19.0.0, SVG Export Plug-In . SVG Version: 6.00 Build 0)  -->
<svg xmlns="http://www.w3.org/2000/svg" xmlns:xlink="http://www.w3.org/1999/xlink" version="1.1" id="Capa_1" x="0px" y="0px" viewBox="0 0 512.003 512.003" style="enable-background:new 0 0 512.003 512.003;" xml:space="preserve">
<g>
	<g>
		<path style="fill:#492B1D;" d="M460.801,477.869c-4.719,0-8.533-3.823-8.533-8.533v-204.8c0-4.71,3.814-8.533,8.533-8.533    c4.719,0,8.533,3.823,8.533,8.533v204.8C469.335,474.046,465.52,477.869,460.801,477.869"/>
		<path style="fill:#492B1D;" d="M435.201,247.469h-42.667c-4.719,0-8.533-3.823-8.533-8.533c0-4.71,3.814-8.533,8.533-8.533h42.667    c4.719,0,8.533,3.823,8.533,8.533C443.735,243.646,439.92,247.469,435.201,247.469"/>
		<path style="fill:#492B1D;" d="M51.201,477.869c-4.719,0-8.533-3.823-8.533-8.533v-204.8c0-4.71,3.814-8.533,8.533-8.533    s8.533,3.823,8.533,8.533v204.8C59.735,474.046,55.92,477.869,51.201,477.869"/>
		<path style="fill:#492B1D;" d="M119.468,247.469H76.801c-4.719,0-8.533-3.823-8.533-8.533c0-4.71,3.814-8.533,8.533-8.533h42.667    c4.719,0,8.533,3.823,8.533,8.533C128.001,243.646,124.187,247.469,119.468,247.469"/>
	</g>
	<path style="fill:#69432E;" d="M119.468,78.486c0-21.589,15.317-40.994,36.71-43.938c15.087-2.082,31.07,6.511,40.09,16.657   C207.02,27.61,228.387,8.538,256.001,8.538c27.614,0,48.981,19.072,59.733,42.667c9.02-10.146,25.003-18.739,40.09-16.657   c21.393,2.944,36.71,22.349,36.71,43.938v361.643c0,16.128-13.073,29.21-29.21,29.21H148.678c-16.137,0-29.21-13.082-29.21-29.21   V78.486z"/>
	<path style="fill:#8A5B46;" d="M160.884,42.761c-1.186,0-2.364,0.077-3.541,0.239c-16.734,2.304-29.346,17.553-29.346,35.49   v361.634c0,11.401,9.276,20.676,20.676,20.676h214.656c11.401,0,20.668-9.276,20.668-20.676V78.49   c0-17.937-12.604-33.186-29.338-35.49c-12.356-1.681-25.54,5.999-32.546,13.875c-1.929,2.15-4.821,3.174-7.654,2.765   c-2.85-0.427-5.291-2.278-6.494-4.898c-10.735-23.586-30.174-37.675-51.968-37.675c-21.786,0-41.225,14.089-51.959,37.675   c-1.203,2.62-3.644,4.471-6.494,4.898c-2.859,0.41-5.734-0.614-7.654-2.765C183.549,49.741,172.166,42.761,160.884,42.761    M363.329,477.867H148.673c-20.804,0-37.743-16.93-37.743-37.743V78.49c0-26.419,18.953-48.939,44.092-52.395   c14.131-1.954,28.348,3.61,38.844,11.443C208.159,14.131,231.156,0,255.997,0c24.849,0,47.846,14.131,62.14,37.538   c10.496-7.842,24.687-13.414,38.852-11.443c25.131,3.456,44.075,25.975,44.075,52.395v361.634   C401.064,460.937,384.134,477.867,363.329,477.867"/>
	<polygon style="fill:#90BAE1;" points="153.601,435.203 358.401,435.203 358.401,85.336 153.601,85.336  "/>
	<g>
		<path style="fill:#B0D3F0;" d="M213.335,307.203c-2.185,0-4.369-0.836-6.033-2.5c-3.337-3.337-3.337-8.73,0-12.066l85.333-85.333    c3.337-3.337,8.73-3.337,12.066,0c3.337,3.337,3.337,8.73,0,12.066l-85.333,85.333    C217.704,306.366,215.519,307.203,213.335,307.203"/>
		<path style="fill:#B0D3F0;" d="M213.335,264.536c-2.185,0-4.369-0.836-6.033-2.5c-3.337-3.337-3.337-8.73,0-12.066l42.667-42.667    c3.337-3.337,8.73-3.337,12.066,0c3.337,3.337,3.337,8.73,0,12.066l-42.667,42.667C217.704,263.7,215.519,264.536,213.335,264.536    "/>
		<path style="fill:#B0D3F0;" d="M264.535,298.669c-2.185,0-4.369-0.836-6.033-2.5c-3.337-3.337-3.337-8.73,0-12.066l25.6-25.6    c3.337-3.337,8.73-3.337,12.066,0c3.337,3.337,3.337,8.73,0,12.066l-25.6,25.6C268.904,297.833,266.719,298.669,264.535,298.669"/>
		<path style="fill:#B0D3F0;" d="M247.468,315.736c-1.109,0-2.219-0.256-3.243-0.683c-1.024-0.427-1.963-1.024-2.816-1.792    c-1.545-1.621-2.475-3.84-2.475-6.059s0.93-4.437,2.475-6.059c0.853-0.768,1.792-1.365,2.816-1.792    c3.063-1.365,6.912-0.597,9.301,1.792c0.341,0.427,0.683,0.853,1.024,1.365c0.341,0.427,0.589,0.939,0.768,1.451    c0.256,0.512,0.427,1.024,0.503,1.536c0.094,0.597,0.179,1.109,0.179,1.707c0,2.219-0.939,4.437-2.475,6.059    C251.905,314.797,249.687,315.736,247.468,315.736"/>
	</g>
	<g>
		<path style="fill:#69432E;" d="M486.401,512.003h-51.2c-4.719,0-8.533-3.823-8.533-8.533v-34.133c0-4.71,3.814-8.533,8.533-8.533    h51.2c4.719,0,8.533,3.823,8.533,8.533v34.133C494.935,508.18,491.12,512.003,486.401,512.003"/>
		<path style="fill:#69432E;" d="M460.801,273.069c-18.825,0-34.133-15.309-34.133-34.133s15.309-34.133,34.133-34.133    s34.133,15.309,34.133,34.133S479.626,273.069,460.801,273.069"/>
		<path style="fill:#69432E;" d="M76.801,512.003h-51.2c-4.719,0-8.533-3.823-8.533-8.533v-34.133c0-4.71,3.814-8.533,8.533-8.533    h51.2c4.719,0,8.533,3.823,8.533,8.533v34.133C85.335,508.18,81.52,512.003,76.801,512.003"/>
		<path style="fill:#69432E;" d="M51.201,273.069c-18.825,0-34.133-15.309-34.133-34.133s15.309-34.133,34.133-34.133    s34.133,15.309,34.133,34.133S70.026,273.069,51.201,273.069"/>
	</g>
</g>
<g>
</g>
<g>
</g>
<g>
</g>
<g>
</g>
<g>
</g>
<g>
</g>
<g>
</g>
<g>
</g>
<g>
</g>
<g>
</g>
<g>
</g>
<g>
</g>
<g>
</g>
<g>
</g>
<g>
</g>
</svg>
