<?xml version="1.0" encoding="iso-8859-1"?>
<!-- Generator: Adobe Illustrator 19.0.0, SVG Export Plug-In . SVG Version: 6.00 Build 0)  -->
<svg xmlns="http://www.w3.org/2000/svg" xmlns:xlink="http://www.w3.org/1999/xlink" version="1.1" id="Capa_1" x="0px" y="0px" viewBox="0 0 512 512" style="enable-background:new 0 0 512 512;" xml:space="preserve">
<g>
	<polygon style="fill:#69432E;" points="8.533,494.933 128,494.933 128,375.467 8.533,375.467  "/>
	<path style="fill:#8A5B46;" d="M17.067,486.4h102.4V384h-102.4V486.4z M128,503.467H8.533c-4.71,0-8.533-3.823-8.533-8.533V375.467   c0-4.71,3.823-8.533,8.533-8.533H128c4.71,0,8.533,3.823,8.533,8.533v119.467C136.533,499.644,132.71,503.467,128,503.467   L128,503.467z"/>
	<polygon style="fill:#69432E;" points="8.533,375.467 128,375.467 128,256 8.533,256  "/>
	<path style="fill:#8A5B46;" d="M17.067,366.933h102.4v-102.4h-102.4V366.933z M128,384H8.533C3.823,384,0,380.177,0,375.467V256   c0-4.71,3.823-8.533,8.533-8.533H128c4.71,0,8.533,3.823,8.533,8.533v119.467C136.533,380.177,132.71,384,128,384L128,384z"/>
	<polygon style="fill:#69432E;" points="8.533,256 128,256 128,136.533 8.533,136.533  "/>
	<path style="fill:#8A5B46;" d="M17.067,247.467h102.4v-102.4h-102.4V247.467z M128,264.533H8.533C3.823,264.533,0,260.71,0,256   V136.533C0,131.823,3.823,128,8.533,128H128c4.71,0,8.533,3.823,8.533,8.533V256C136.533,260.71,132.71,264.533,128,264.533   L128,264.533z"/>
	<polygon style="fill:#69432E;" points="8.533,136.533 128,136.533 128,17.067 8.533,17.067  "/>
	<path style="fill:#8A5B46;" d="M17.067,128h102.4V25.6h-102.4V128z M128,145.067H8.533c-4.71,0-8.533-3.823-8.533-8.533V17.067   c0-4.71,3.823-8.533,8.533-8.533H128c4.71,0,8.533,3.823,8.533,8.533v119.467C136.533,141.244,132.71,145.067,128,145.067   L128,145.067z"/>
	<polygon style="fill:#69432E;" points="384,494.933 503.467,494.933 503.467,375.467 384,375.467  "/>
	<path style="fill:#8A5B46;" d="M392.533,486.4h102.4V384h-102.4V486.4z M503.467,503.467H384c-4.71,0-8.533-3.823-8.533-8.533   V375.467c0-4.71,3.823-8.533,8.533-8.533h119.467c4.719,0,8.533,3.823,8.533,8.533v119.467   C512,499.644,508.186,503.467,503.467,503.467L503.467,503.467z"/>
	<polygon style="fill:#69432E;" points="384,375.467 503.467,375.467 503.467,256 384,256  "/>
	<path style="fill:#8A5B46;" d="M392.533,366.933h102.4v-102.4h-102.4V366.933z M503.467,384H384c-4.71,0-8.533-3.823-8.533-8.533   V256c0-4.71,3.823-8.533,8.533-8.533h119.467c4.719,0,8.533,3.823,8.533,8.533v119.467C512,380.177,508.186,384,503.467,384   L503.467,384z"/>
	<polygon style="fill:#69432E;" points="384,256 503.467,256 503.467,136.533 384,136.533  "/>
	<path style="fill:#8A5B46;" d="M392.533,247.467h102.4v-102.4h-102.4V247.467z M503.467,264.533H384   c-4.71,0-8.533-3.823-8.533-8.533V136.533c0-4.71,3.823-8.533,8.533-8.533h119.467c4.719,0,8.533,3.823,8.533,8.533V256   C512,260.71,508.186,264.533,503.467,264.533L503.467,264.533z"/>
	<polygon style="fill:#69432E;" points="384,136.533 503.467,136.533 503.467,17.067 384,17.067  "/>
	<path style="fill:#8A5B46;" d="M392.533,128h102.4V25.6h-102.4V128z M503.467,145.067H384c-4.71,0-8.533-3.823-8.533-8.533V17.067   c0-4.71,3.823-8.533,8.533-8.533h119.467c4.719,0,8.533,3.823,8.533,8.533v119.467C512,141.244,508.186,145.067,503.467,145.067   L503.467,145.067z"/>
	<polygon style="fill:#F0C419;" points="42.667,366.933 93.867,366.933 93.867,341.333 42.667,341.333  "/>
	<polygon style="fill:#E64C3C;" points="42.667,341.333 93.867,341.333 93.867,315.733 42.667,315.733  "/>
	<polygon style="fill:#13A085;" points="42.667,315.733 93.867,315.733 93.867,290.133 42.667,290.133  "/>
	<polygon style="fill:#D1D4D1;" points="51.2,128 85.333,128 85.333,93.867 51.2,93.867  "/>
	<path style="fill:#A5A5A4;" d="M93.867,102.4h-51.2c-4.71,0-8.533-3.823-8.533-8.533c0-4.71,3.823-8.533,8.533-8.533h51.2   c4.71,0,8.533,3.823,8.533,8.533C102.4,98.577,98.577,102.4,93.867,102.4"/>
	<polygon style="fill:#69432E;" points="128,494.933 256,494.933 256,17.067 128,17.067  "/>
	<path style="fill:#8A5B46;" d="M136.533,486.4h110.933V25.6H136.533V486.4z M256,503.467H128c-4.71,0-8.533-3.823-8.533-8.533   V17.067c0-4.71,3.823-8.533,8.533-8.533h128c4.71,0,8.533,3.823,8.533,8.533v477.867C264.533,499.644,260.71,503.467,256,503.467   L256,503.467z"/>
	<polygon style="fill:#69432E;" points="256,494.933 384,494.933 384,17.067 256,17.067  "/>
	<path style="fill:#8A5B46;" d="M264.533,486.4h110.933V25.6H264.533V486.4z M384,503.467H256c-4.71,0-8.533-3.823-8.533-8.533   V17.067c0-4.71,3.823-8.533,8.533-8.533h128c4.71,0,8.533,3.823,8.533,8.533v477.867C392.533,499.644,388.71,503.467,384,503.467   L384,503.467z"/>
	<g>
		<path style="fill:#F0C419;" d="M290.133,290.133c-4.71,0-8.533-3.823-8.533-8.533V256c0-4.71,3.823-8.533,8.533-8.533    c4.71,0,8.533,3.823,8.533,8.533v25.6C298.667,286.31,294.844,290.133,290.133,290.133"/>
		<path style="fill:#F0C419;" d="M315.733,264.533h-25.6c-4.71,0-8.533-3.823-8.533-8.533c0-4.71,3.823-8.533,8.533-8.533h25.6    c4.71,0,8.533,3.823,8.533,8.533C324.267,260.71,320.444,264.533,315.733,264.533"/>
		<path style="fill:#F0C419;" d="M221.867,290.133c-4.71,0-8.533-3.823-8.533-8.533V256c0-4.71,3.823-8.533,8.533-8.533    c4.71,0,8.533,3.823,8.533,8.533v25.6C230.4,286.31,226.577,290.133,221.867,290.133"/>
		<path style="fill:#F0C419;" d="M221.867,264.533h-25.6c-4.71,0-8.533-3.823-8.533-8.533c0-4.71,3.823-8.533,8.533-8.533h25.6    c4.71,0,8.533,3.823,8.533,8.533C230.4,260.71,226.577,264.533,221.867,264.533"/>
	</g>
	<polygon style="fill:#88C057;" points="443.733,247.467 469.333,247.467 469.333,170.667 443.733,170.667  "/>
	<polygon style="fill:#E64C3C;" points="418.133,247.467 443.733,247.467 443.733,170.667 418.133,170.667  "/>
	<polygon style="fill:#25C3AB;" points="409.6,486.4 426.667,486.4 426.667,409.6 409.6,409.6  "/>
	<polygon style="fill:#F0C419;" points="435.2,486.4 452.267,486.4 452.267,409.6 435.2,409.6  "/>
	<polygon style="fill:#25C3AB;" points="460.8,486.4 477.867,486.4 477.867,409.6 460.8,409.6  "/>
</g>
<g>
</g>
<g>
</g>
<g>
</g>
<g>
</g>
<g>
</g>
<g>
</g>
<g>
</g>
<g>
</g>
<g>
</g>
<g>
</g>
<g>
</g>
<g>
</g>
<g>
</g>
<g>
</g>
<g>
</g>
</svg>
