<?xml version="1.0" encoding="iso-8859-1"?>
<!-- Generator: Adobe Illustrator 19.0.0, SVG Export Plug-In . SVG Version: 6.00 Build 0)  -->
<svg xmlns="http://www.w3.org/2000/svg" xmlns:xlink="http://www.w3.org/1999/xlink" version="1.1" id="Capa_1" x="0px" y="0px" viewBox="0 0 512 512" style="enable-background:new 0 0 512 512;" xml:space="preserve">
<g>
	<polygon style="fill:#7A6958;" points="35.31,167.724 476.69,167.724 476.69,0 35.31,0  "/>
	<g>
		<polygon style="fill:#AD9883;" points="35.31,326.621 476.69,326.621 476.69,158.897 35.31,158.897   "/>
		<path style="fill:#AD9883;" d="M450.207,441.379c4.634,7.601,7.751,16.375,5.888,25.679c-0.053,0.23-0.097,0.459-0.141,0.68    c-3.187,16.331-1.201,29.705,11.229,43.502l0.68,0.759h-5.817c-29.078,0-40.872-31.029-40.201-44.941    c0.512-10.673-2.657-19.138-6.947-25.679H450.207z"/>
		<path style="fill:#AD9883;" d="M61.793,441.379c-4.634,7.601-7.751,16.375-5.888,25.679c0.053,0.23,0.097,0.459,0.141,0.68    c3.187,16.331,1.201,29.705-11.229,43.502L44.138,512h5.817c29.078,0,40.872-31.029,40.201-44.941    c-0.512-10.673,2.657-19.138,6.947-25.679H61.793z"/>
	</g>
	<polygon style="fill:#7A6958;" points="35.31,441.379 476.69,441.379 476.69,317.793 35.31,317.793  "/>
	<polygon style="fill:#955BA5;" points="406.069,317.793 432.552,317.793 432.552,238.345 406.069,238.345  "/>
	<polygon style="fill:#88C057;" points="379.586,317.793 406.069,317.793 406.069,238.345 379.586,238.345  "/>
	<polygon style="fill:#E64C3C;" points="353.103,317.793 379.586,317.793 379.586,238.345 353.103,238.345  "/>
	<polygon style="fill:#E57E25;" points="326.621,317.793 353.103,317.793 353.103,238.345 326.621,238.345  "/>
	<polygon style="fill:#F0C419;" points="282.483,317.793 256,317.793 282.483,247.172 308.966,247.172  "/>
	<polygon style="fill:#955BA5;" points="388.414,158.897 414.897,158.897 414.897,79.448 388.414,79.448  "/>
	<polygon style="fill:#E64C3C;" points="361.931,158.897 388.414,158.897 388.414,79.448 361.931,79.448  "/>
	<polygon style="fill:#13A085;" points="335.448,158.897 361.931,158.897 361.931,79.448 335.448,79.448  "/>
	<polygon style="fill:#F0C419;" points="308.966,158.897 335.448,158.897 335.448,79.448 308.966,79.448  "/>
	<polygon style="fill:#25C3AB;" points="282.483,158.897 308.966,158.897 308.966,79.448 282.483,79.448  "/>
	<polygon style="fill:#88C057;" points="256,158.897 282.483,158.897 282.483,79.448 256,79.448  "/>
	<polygon style="fill:#25C3AB;" points="105.931,158.897 185.379,158.897 185.379,132.414 105.931,132.414  "/>
	<polygon style="fill:#13A085;" points="105.931,132.414 185.379,132.414 185.379,105.931 105.931,105.931  "/>
	<polygon style="fill:#E64C3C;" points="88.276,317.793 194.207,317.793 194.207,282.483 88.276,282.483  "/>
	<polygon style="fill:#955BA5;" points="105.931,282.483 211.862,282.483 211.862,247.172 105.931,247.172  "/>
	<polygon style="fill:#F0C419;" points="88.276,247.172 194.207,247.172 194.207,211.862 88.276,211.862  "/>
	<g>
		<path style="fill:#DEC150;" d="M291.31,379.586H220.69c-4.873,0-8.828-3.955-8.828-8.828c0-4.873,3.955-8.828,8.828-8.828h70.621    c4.873,0,8.828,3.955,8.828,8.828C300.138,375.631,296.183,379.586,291.31,379.586"/>
		<path style="fill:#DEC150;" d="M256,397.241c-4.873,0-8.828-3.955-8.828-8.828v-17.655c0-4.873,3.955-8.828,8.828-8.828    s8.828,3.955,8.828,8.828v17.655C264.828,393.287,260.873,397.241,256,397.241"/>
	</g>
</g>
<g>
</g>
<g>
</g>
<g>
</g>
<g>
</g>
<g>
</g>
<g>
</g>
<g>
</g>
<g>
</g>
<g>
</g>
<g>
</g>
<g>
</g>
<g>
</g>
<g>
</g>
<g>
</g>
<g>
</g>
</svg>
