<?xml version="1.0" encoding="iso-8859-1"?>
<!-- Generator: Adobe Illustrator 19.0.0, SVG Export Plug-In . SVG Version: 6.00 Build 0)  -->
<svg xmlns="http://www.w3.org/2000/svg" xmlns:xlink="http://www.w3.org/1999/xlink" version="1.1" id="Capa_1" x="0px" y="0px" viewBox="0 0 512 512" style="enable-background:new 0 0 512 512;" xml:space="preserve">
<g>
	<polygon style="fill:#38454F;" points="0,432.552 512,432.552 512,26.483 0,26.483  "/>
	<g>
		<polygon style="fill:#BDC3C7;" points="17.655,485.517 105.931,485.517 105.931,432.552 17.655,432.552   "/>
		<polygon style="fill:#BDC3C7;" points="406.069,485.517 494.345,485.517 494.345,432.552 406.069,432.552   "/>
	</g>
	<g>
		<polygon style="fill:#687492;" points="388.414,432.552 512,432.552 512,26.483 388.414,26.483   "/>
		<polygon style="fill:#687492;" points="44.138,388.414 344.276,388.414 344.276,70.621 44.138,70.621   "/>
	</g>
	<g>
		<path style="fill:#ECF0F1;" d="M308.966,308.966h-35.31c-4.882,0-8.828-3.946-8.828-8.828V158.897    c0-4.882,3.946-8.828,8.828-8.828h35.31c4.882,0,8.828,3.946,8.828,8.828c0,4.882-3.946,8.828-8.828,8.828h-26.483V291.31h26.483    c4.882,0,8.828,3.946,8.828,8.828S313.847,308.966,308.966,308.966"/>
		<path style="fill:#ECF0F1;" d="M476.69,361.931c0,14.627-11.855,26.483-26.483,26.483c-14.627,0-26.483-11.855-26.483-26.483    s11.855-26.483,26.483-26.483C464.834,335.448,476.69,347.304,476.69,361.931"/>
		<path style="fill:#ECF0F1;" d="M476.69,264.828c0,14.627-11.855,26.483-26.483,26.483c-14.627,0-26.483-11.855-26.483-26.483    c0-14.627,11.855-26.483,26.483-26.483C464.834,238.345,476.69,250.2,476.69,264.828"/>
		<path style="fill:#ECF0F1;" d="M476.69,70.621h-52.966c-4.882,0-8.828-3.946-8.828-8.828s3.946-8.828,8.828-8.828h52.966    c4.882,0,8.828,3.946,8.828,8.828S481.571,70.621,476.69,70.621"/>
		<path style="fill:#ECF0F1;" d="M476.69,114.759h-52.966c-4.882,0-8.828-3.946-8.828-8.828c0-4.882,3.946-8.828,8.828-8.828h52.966    c4.882,0,8.828,3.946,8.828,8.828C485.517,110.813,481.571,114.759,476.69,114.759"/>
		<path style="fill:#ECF0F1;" d="M476.69,158.897h-52.966c-4.882,0-8.828-3.946-8.828-8.828c0-4.882,3.946-8.828,8.828-8.828h52.966    c4.882,0,8.828,3.946,8.828,8.828C485.517,154.951,481.571,158.897,476.69,158.897"/>
		<path style="fill:#ECF0F1;" d="M476.69,203.034h-52.966c-4.882,0-8.828-3.946-8.828-8.828s3.946-8.828,8.828-8.828h52.966    c4.882,0,8.828,3.946,8.828,8.828S481.571,203.034,476.69,203.034"/>
	</g>
</g>
<g>
</g>
<g>
</g>
<g>
</g>
<g>
</g>
<g>
</g>
<g>
</g>
<g>
</g>
<g>
</g>
<g>
</g>
<g>
</g>
<g>
</g>
<g>
</g>
<g>
</g>
<g>
</g>
<g>
</g>
</svg>
