<?xml version="1.0" encoding="iso-8859-1"?>
<!-- Generator: Adobe Illustrator 19.0.0, SVG Export Plug-In . SVG Version: 6.00 Build 0)  -->
<svg xmlns="http://www.w3.org/2000/svg" xmlns:xlink="http://www.w3.org/1999/xlink" version="1.1" id="Capa_1" x="0px" y="0px" viewBox="0 0 512 512" style="enable-background:new 0 0 512 512;" xml:space="preserve">
<g>
	<path style="fill:#DDDFE4;" d="M494.345,392.828H17.655C7.91,392.828,0,384.918,0,375.172V136.828   c0-9.746,7.91-17.655,17.655-17.655h476.69c9.746,0,17.655,7.91,17.655,17.655v238.345C512,384.918,504.09,392.828,494.345,392.828   "/>
	<path style="fill:#9C9FA6;" d="M476.69,322.207l-357.588,14.301C73.375,338.335,35.31,301.771,35.31,256   s38.065-82.335,83.791-80.508l357.588,14.301V322.207z"/>
	<g>
		<path style="fill:#7F8C8D;" d="M450.207,163.31h-52.966c-4.882,0-8.828-3.946-8.828-8.828s3.946-8.828,8.828-8.828h52.966    c4.882,0,8.828,3.946,8.828,8.828S455.089,163.31,450.207,163.31"/>
		<path style="fill:#7F8C8D;" d="M423.724,225.103c-4.882,0-8.828-3.946-8.828-8.828v-61.793c0-4.882,3.946-8.828,8.828-8.828    c4.882,0,8.828,3.946,8.828,8.828v61.793C432.552,221.158,428.606,225.103,423.724,225.103"/>
	</g>
	<path style="fill:#CCCED1;" d="M432.552,260.414h-17.655c-9.737,0-17.655-7.918-17.655-17.655v-17.655   c0-9.737,7.918-17.655,17.655-17.655h17.655c9.737,0,17.655,7.918,17.655,17.655v17.655   C450.207,252.495,442.289,260.414,432.552,260.414"/>
</g>
<g>
</g>
<g>
</g>
<g>
</g>
<g>
</g>
<g>
</g>
<g>
</g>
<g>
</g>
<g>
</g>
<g>
</g>
<g>
</g>
<g>
</g>
<g>
</g>
<g>
</g>
<g>
</g>
<g>
</g>
</svg>
