<?xml version="1.0" encoding="iso-8859-1"?>
<!-- Generator: Adobe Illustrator 19.0.0, SVG Export Plug-In . SVG Version: 6.00 Build 0)  -->
<svg xmlns="http://www.w3.org/2000/svg" xmlns:xlink="http://www.w3.org/1999/xlink" version="1.1" id="Capa_1" x="0px" y="0px" viewBox="0 0 512 512" style="enable-background:new 0 0 512 512;" xml:space="preserve">
<g>
	<polygon style="fill:#38454F;" points="176.552,233.931 335.448,233.931 335.448,172.138 176.552,172.138  "/>
	<g>
		<path style="fill:#38454F;" d="M61.793,225.103H17.655v-44.138c0-4.882,3.955-8.828,8.828-8.828h35.31V225.103z"/>
		<path style="fill:#8697CB;" d="M185.379,180.966l-132.414,8.828v-52.966c0-4.882,3.955-8.828,8.828-8.828h132.414L185.379,180.966    z"/>
		<polygon style="fill:#596A8C;" points="176.552,366.345 335.448,366.345 335.448,225.103 176.552,225.103   "/>
		<path style="fill:#38454F;" d="M450.207,233.931h44.138v-52.966c0-4.882-3.955-8.828-8.828-8.828h-35.31V233.931z"/>
		<path style="fill:#8697CB;" d="M326.621,189.793h132.414v-52.966c0-4.882-3.955-8.828-8.828-8.828H326.621V189.793z"/>
		<g>
			<polygon style="fill:#596A8C;" points="326.621,180.966 326.621,233.931 441.379,233.931 459.034,223.338 459.034,180.966    "/>
			<polygon style="fill:#596A8C;" points="52.966,180.966 52.966,223.338 70.621,233.931 185.379,233.931 185.379,180.966    "/>
		</g>
		<g>
			<polygon style="fill:#8697CB;" points="52.966,225.103 52.966,339.862 52.966,366.345 185.379,366.345 185.379,225.103    "/>
			<polygon style="fill:#8697CB;" points="459.034,225.103 326.621,225.103 326.621,366.345 459.034,366.345 459.034,339.862    "/>
		</g>
		<path style="fill:#687492;" d="M70.621,339.862H8.828c-4.873,0-8.828-3.946-8.828-8.828V225.103c0-4.882,3.955-8.828,8.828-8.828    h61.793V339.862z"/>
		<path style="fill:#38454F;" d="M44.138,384H26.483c-4.873,0-8.828-3.946-8.828-8.828v-35.31h35.31v35.31    C52.966,380.054,49.011,384,44.138,384"/>
		<path style="fill:#687492;" d="M441.379,339.862h61.793c4.873,0,8.828-3.946,8.828-8.828V225.103c0-4.882-3.955-8.828-8.828-8.828    h-61.793V339.862z"/>
		<path style="fill:#38454F;" d="M467.862,384h17.655c4.873,0,8.828-3.946,8.828-8.828v-35.31h-35.31v35.31    C459.034,380.054,462.989,384,467.862,384"/>
		<polygon style="fill:#596A8C;" points="185.379,180.966 326.621,180.966 326.621,128 185.379,128   "/>
	</g>
</g>
<g>
</g>
<g>
</g>
<g>
</g>
<g>
</g>
<g>
</g>
<g>
</g>
<g>
</g>
<g>
</g>
<g>
</g>
<g>
</g>
<g>
</g>
<g>
</g>
<g>
</g>
<g>
</g>
<g>
</g>
</svg>
