<?xml version="1.0" encoding="iso-8859-1"?>
<!-- Generator: Adobe Illustrator 19.0.0, SVG Export Plug-In . SVG Version: 6.00 Build 0)  -->
<svg xmlns="http://www.w3.org/2000/svg" xmlns:xlink="http://www.w3.org/1999/xlink" version="1.1" id="Capa_1" x="0px" y="0px" viewBox="0 0 512 512" style="enable-background:new 0 0 512 512;" xml:space="preserve">
<g>
	<g>
		<path style="fill:#ACB3B6;" d="M114.759,176.552H35.31V79.448c0-4.882,3.955-8.828,8.828-8.828h70.621V176.552z"/>
		<path style="fill:#ACB3B6;" d="M476.69,176.552h-79.448V70.621h70.621c4.873,0,8.828,3.946,8.828,8.828V176.552z"/>
	</g>
	<path style="fill:#D1D4D1;" d="M406.069,132.414H105.931V26.483c0-4.882,3.955-8.828,8.828-8.828h282.483   c4.873,0,8.828,3.946,8.828,8.828V132.414z"/>
	<polygon style="fill:#BDC3C7;" points="105.931,185.379 105.931,441.379 105.931,476.69 406.069,476.69 406.069,441.379    406.069,185.379  "/>
	<polygon style="fill:#838B8E;" points="105.931,123.586 105.931,167.724 105.931,185.379 406.069,185.379 406.069,167.724    406.069,123.586  "/>
	<g>
		<path style="fill:#ACB3B6;" d="M97.103,494.345H44.138c-4.873,0-8.828-3.946-8.828-8.828v-52.966h70.621v52.966    C105.931,490.399,101.976,494.345,97.103,494.345"/>
		<path style="fill:#ACB3B6;" d="M467.862,494.345h-52.966c-4.873,0-8.828-3.946-8.828-8.828v-52.966h70.621v52.966    C476.69,490.399,472.735,494.345,467.862,494.345"/>
	</g>
	<g>
		<path style="fill:#D1D4D1;" d="M132.414,441.379H8.828c-4.873,0-8.828-3.946-8.828-8.828v-256c0-4.882,3.955-8.828,8.828-8.828    h123.586c4.873,0,8.828,3.946,8.828,8.828v256C141.241,437.433,137.287,441.379,132.414,441.379"/>
		<path style="fill:#D1D4D1;" d="M503.172,441.379H379.586c-4.873,0-8.828-3.946-8.828-8.828v-256c0-4.882,3.955-8.828,8.828-8.828    h123.586c4.873,0,8.828,3.946,8.828,8.828v256C512,437.433,508.045,441.379,503.172,441.379"/>
	</g>
</g>
<g>
</g>
<g>
</g>
<g>
</g>
<g>
</g>
<g>
</g>
<g>
</g>
<g>
</g>
<g>
</g>
<g>
</g>
<g>
</g>
<g>
</g>
<g>
</g>
<g>
</g>
<g>
</g>
<g>
</g>
</svg>
