<?xml version="1.0" encoding="iso-8859-1"?>
<!-- Generator: Adobe Illustrator 19.0.0, SVG Export Plug-In . SVG Version: 6.00 Build 0)  -->
<svg xmlns="http://www.w3.org/2000/svg" xmlns:xlink="http://www.w3.org/1999/xlink" version="1.1" id="Capa_1" x="0px" y="0px" viewBox="0 0 512 512" style="enable-background:new 0 0 512 512;" xml:space="preserve">
<g>
	<path style="fill:#8697CB;" d="M423.724,512H88.276V35.31c0-19.5,15.81-35.31,35.31-35.31h264.828c19.5,0,35.31,15.81,35.31,35.31   V512z"/>
	<path style="fill:#B0D3F0;" d="M370.759,35.31H141.241c-9.746,0-17.655,7.91-17.655,17.655V512h35.31v-44.138h229.517V52.966   C388.414,43.22,380.504,35.31,370.759,35.31"/>
	<polygon style="fill:#ECF0F1;" points="158.897,512 388.414,512 388.414,467.862 158.897,467.862  "/>
	<g>
		<path style="fill:#95A5A5;" d="M158.905,264.828c-2.851,0-5.658-1.377-7.353-3.928c-2.71-4.061-1.615-9.534,2.445-12.244    L180.48,231c1.448-0.962,3.16-1.483,4.899-1.483h26.483c4.882,0,8.828,3.946,8.828,8.828c0,4.882-3.946,8.828-8.828,8.828h-23.808    l-24.258,16.172C162.286,264.342,160.583,264.828,158.905,264.828"/>
		<path style="fill:#95A5A5;" d="M194.207,335.448h-35.31c-4.882,0-8.828-3.946-8.828-8.828v-44.138    c0-4.882,3.946-8.828,8.828-8.828h35.31c4.882,0,8.828,3.946,8.828,8.828v44.138C203.034,331.502,199.089,335.448,194.207,335.448    "/>
	</g>
	<g>
		<path style="fill:#8697CB;" d="M282.483,220.69c-4.882,0-8.828-3.946-8.828-8.828v-17.655c0-4.882,3.946-8.828,8.828-8.828    s8.828,3.946,8.828,8.828v17.655C291.31,216.744,287.364,220.69,282.483,220.69 M282.483,273.655    c-4.882,0-8.828-3.946-8.828-8.828v-17.655c0-4.882,3.946-8.828,8.828-8.828s8.828,3.946,8.828,8.828v17.655    C291.31,269.709,287.364,273.655,282.483,273.655 M282.483,326.621c-4.882,0-8.828-3.946-8.828-8.828v-17.655    c0-4.882,3.946-8.828,8.828-8.828s8.828,3.946,8.828,8.828v17.655C291.31,322.675,287.364,326.621,282.483,326.621     M282.483,379.586c-4.882,0-8.828-3.946-8.828-8.828v-17.655c0-4.882,3.946-8.828,8.828-8.828s8.828,3.946,8.828,8.828v17.655    C291.31,375.64,287.364,379.586,282.483,379.586 M282.483,432.552c-4.882,0-8.828-3.946-8.828-8.828v-17.655    c0-4.882,3.946-8.828,8.828-8.828s8.828,3.946,8.828,8.828v17.655C291.31,428.606,287.364,432.552,282.483,432.552"/>
		<path style="fill:#8697CB;" d="M247.172,203.034c-4.882,0-8.828-3.946-8.828-8.828v-17.655c0-4.882,3.946-8.828,8.828-8.828    S256,171.67,256,176.552v17.655C256,199.089,252.054,203.034,247.172,203.034 M247.172,256c-4.882,0-8.828-3.946-8.828-8.828    v-17.655c0-4.882,3.946-8.828,8.828-8.828s8.828,3.946,8.828,8.828v17.655C256,252.054,252.054,256,247.172,256 M247.172,308.966    c-4.882,0-8.828-3.946-8.828-8.828v-17.655c0-4.882,3.946-8.828,8.828-8.828s8.828,3.946,8.828,8.828v17.655    C256,305.02,252.054,308.966,247.172,308.966 M247.172,361.931c-4.882,0-8.828-3.946-8.828-8.828v-17.655    c0-4.882,3.946-8.828,8.828-8.828s8.828,3.946,8.828,8.828v17.655C256,357.985,252.054,361.931,247.172,361.931 M247.172,414.897    c-4.882,0-8.828-3.946-8.828-8.828v-17.655c0-4.882,3.946-8.828,8.828-8.828s8.828,3.946,8.828,8.828v17.655    C256,410.951,252.054,414.897,247.172,414.897"/>
		<path style="fill:#8697CB;" d="M317.793,203.034c-4.882,0-8.828-3.946-8.828-8.828v-17.655c0-4.882,3.946-8.828,8.828-8.828    s8.828,3.946,8.828,8.828v17.655C326.621,199.089,322.675,203.034,317.793,203.034 M317.793,256c-4.882,0-8.828-3.946-8.828-8.828    v-17.655c0-4.882,3.946-8.828,8.828-8.828s8.828,3.946,8.828,8.828v17.655C326.621,252.054,322.675,256,317.793,256     M317.793,308.966c-4.882,0-8.828-3.946-8.828-8.828v-17.655c0-4.882,3.946-8.828,8.828-8.828s8.828,3.946,8.828,8.828v17.655    C326.621,305.02,322.675,308.966,317.793,308.966 M317.793,361.931c-4.882,0-8.828-3.946-8.828-8.828v-17.655    c0-4.882,3.946-8.828,8.828-8.828s8.828,3.946,8.828,8.828v17.655C326.621,357.985,322.675,361.931,317.793,361.931     M317.793,414.897c-4.882,0-8.828-3.946-8.828-8.828v-17.655c0-4.882,3.946-8.828,8.828-8.828s8.828,3.946,8.828,8.828v17.655    C326.621,410.951,322.675,414.897,317.793,414.897"/>
	</g>
	<path style="fill:#ECF0F1;" d="M158.897,512c-4.882,0-8.828-3.946-8.828-8.828V105.931c0-24.338,19.8-44.138,44.138-44.138h52.966   c24.338,0,44.138,19.8,44.138,44.138c0,4.882-3.946,8.828-8.828,8.828s-8.828-3.946-8.828-8.828   c0-14.601-11.882-26.483-26.483-26.483h-52.966c-14.601,0-26.483,11.882-26.483,26.483v397.241   C167.724,508.054,163.778,512,158.897,512"/>
	<path style="fill:#95A5A5;" d="M344.276,150.069H220.69c-3.063,0-5.897-1.589-7.512-4.193c-1.607-2.604-1.757-5.853-0.388-8.58   l17.655-35.31c1.501-2.993,4.555-4.882,7.901-4.882h88.276c3.346,0,6.4,1.889,7.901,4.882l17.655,35.31   c1.368,2.728,1.218,5.976-0.388,8.58C350.173,148.48,347.339,150.069,344.276,150.069"/>
</g>
<g>
</g>
<g>
</g>
<g>
</g>
<g>
</g>
<g>
</g>
<g>
</g>
<g>
</g>
<g>
</g>
<g>
</g>
<g>
</g>
<g>
</g>
<g>
</g>
<g>
</g>
<g>
</g>
<g>
</g>
</svg>
