<?xml version="1.0" encoding="iso-8859-1"?>
<!-- Generator: Adobe Illustrator 19.0.0, SVG Export Plug-In . SVG Version: 6.00 Build 0)  -->
<svg xmlns="http://www.w3.org/2000/svg" xmlns:xlink="http://www.w3.org/1999/xlink" version="1.1" id="Capa_1" x="0px" y="0px" viewBox="0 0 512 512" style="enable-background:new 0 0 512 512;" xml:space="preserve">
<g>
	<polygon style="fill:#DDD4D0;" points="150.069,247.172 361.931,247.172 361.931,44.138 150.069,44.138  "/>
	<polygon style="fill:#B6AAA7;" points="361.931,238.345 150.069,238.345 0,414.897 0,432.552 512,432.552 512,414.897  "/>
	<polygon style="fill:#DDD4D0;" points="0,467.862 512,467.862 512,414.897 0,414.897  "/>
	<path style="fill:#FFFFFF;" d="M326.422,291.31H185.578c-5.535,0-10.584,3.125-13.065,8.077l-20.701,41.401   c-4.855,9.719,2.207,21.142,13.056,21.142h182.263c10.849,0,17.911-11.423,13.056-21.142l-20.71-41.401   C337.006,294.435,331.957,291.31,326.422,291.31"/>
	<path style="fill:#DDD4D0;" d="M308.966,335.448H203.034c-4.882,0-8.828-3.946-8.828-8.828s3.946-8.828,8.828-8.828h105.931   c4.882,0,8.828,3.946,8.828,8.828S313.847,335.448,308.966,335.448"/>
</g>
<g>
</g>
<g>
</g>
<g>
</g>
<g>
</g>
<g>
</g>
<g>
</g>
<g>
</g>
<g>
</g>
<g>
</g>
<g>
</g>
<g>
</g>
<g>
</g>
<g>
</g>
<g>
</g>
<g>
</g>
</svg>
