<?xml version="1.0" encoding="iso-8859-1"?>
<!-- Generator: Adobe Illustrator 19.0.0, SVG Export Plug-In . SVG Version: 6.00 Build 0)  -->
<svg xmlns="http://www.w3.org/2000/svg" xmlns:xlink="http://www.w3.org/1999/xlink" version="1.1" id="Capa_1" x="0px" y="0px" viewBox="0 0 512 512" style="enable-background:new 0 0 512 512;" xml:space="preserve">
<g>
	<path style="fill:#9C9FA6;" d="M30.897,0h110.345v141.241H0V30.897C0,13.833,13.833,0,30.897,0"/>
	<path style="fill:#CCCED1;" d="M132.414,0v141.241H512V30.897C512,13.833,498.167,0,481.103,0H132.414z"/>
	<path style="fill:#DDDFE4;" d="M512,123.586v357.517C512,498.167,498.167,512,481.103,512H30.897C13.833,512,0,498.167,0,481.103   V123.586H512z"/>
	<path style="fill:#EDEEF2;" d="M317.793,61.793c0,14.627-11.855,26.483-26.483,26.483c-14.627,0-26.483-11.855-26.483-26.483   S276.683,35.31,291.31,35.31C305.938,35.31,317.793,47.166,317.793,61.793"/>
	<path style="fill:#9C9FA6;" d="M291.31,61.793c-4.882,0-8.828-3.946-8.828-8.828V35.31c0-4.882,3.946-8.828,8.828-8.828   c4.882,0,8.828,3.946,8.828,8.828v17.655C300.138,57.847,296.192,61.793,291.31,61.793"/>
	<path style="fill:#EDEEF2;" d="M379.586,88.276c-14.627,0-26.483-11.855-26.483-26.483s11.855-26.483,26.483-26.483   s26.483,11.855,26.483,26.483S394.214,88.276,379.586,88.276"/>
	<path style="fill:#9C9FA6;" d="M406.069,70.621h-17.655c-4.882,0-8.828-3.946-8.828-8.828s3.946-8.828,8.828-8.828h17.655   c4.882,0,8.828,3.946,8.828,8.828S410.951,70.621,406.069,70.621"/>
	<path style="fill:#EDEEF2;" d="M221.759,43.069c10.346,10.337,10.346,27.11,0,37.447c-10.337,10.346-27.11,10.346-37.447,0   c-10.346-10.337-10.346-27.11,0-37.447C194.649,32.723,211.422,32.723,221.759,43.069"/>
	<path style="fill:#9C9FA6;" d="M196.793,64.38c-2.26,0-4.52-0.865-6.241-2.586L178.07,49.311c-3.452-3.452-3.452-9.031,0-12.482   c3.452-3.452,9.031-3.452,12.482,0l12.482,12.482c3.452,3.452,3.452,9.031,0,12.482C201.313,63.514,199.053,64.38,196.793,64.38"/>
	<g>
		<path style="fill:#CCCED1;" d="M105.931,44.138H35.31c-4.882,0-8.828-3.946-8.828-8.828s3.946-8.828,8.828-8.828h70.621    c4.882,0,8.828,3.946,8.828,8.828S110.813,44.138,105.931,44.138"/>
		<path style="fill:#CCCED1;" d="M105.931,70.621H35.31c-4.882,0-8.828-3.946-8.828-8.828s3.946-8.828,8.828-8.828h70.621    c4.882,0,8.828,3.946,8.828,8.828S110.813,70.621,105.931,70.621"/>
		<path style="fill:#CCCED1;" d="M105.931,97.103H35.31c-4.882,0-8.828-3.946-8.828-8.828s3.946-8.828,8.828-8.828h70.621    c4.882,0,8.828,3.946,8.828,8.828S110.813,97.103,105.931,97.103"/>
	</g>
	<g>
		<path style="fill:#9C9FA6;" d="M97.103,176.552H44.138c-4.882,0-8.828-3.946-8.828-8.828s3.946-8.828,8.828-8.828h52.966    c4.882,0,8.828,3.946,8.828,8.828S101.985,176.552,97.103,176.552"/>
		<path style="fill:#9C9FA6;" d="M467.862,476.69h-52.966c-4.882,0-8.828-3.946-8.828-8.828c0-4.882,3.946-8.828,8.828-8.828h52.966    c4.882,0,8.828,3.946,8.828,8.828C476.69,472.744,472.744,476.69,467.862,476.69"/>
	</g>
	<polygon style="fill:#EDEEF2;" points="441.379,88.276 476.69,88.276 476.69,35.31 441.379,35.31  "/>
	<path style="fill:#90BAE1;" d="M353.103,317.793c0,53.628-43.476,97.103-97.103,97.103s-97.103-43.476-97.103-97.103   S202.372,220.69,256,220.69S353.103,264.165,353.103,317.793"/>
	<path style="fill:#CCCED1;" d="M397.241,317.793c0-24.788-6.435-48.057-17.646-68.308c-30.446,7.848-52.974,35.407-52.974,68.308   s22.528,60.46,52.974,68.308C390.806,365.85,397.241,342.59,397.241,317.793"/>
	<path style="fill:#EDEEF2;" d="M342.319,362.069c-16.137,31.32-48.737,52.824-86.316,52.824c-53.548,0-97.103-43.555-97.103-97.103   c0-53.539,43.555-97.103,97.103-97.103c37.579,0,70.179,21.513,86.316,52.833c9.366-11.573,22.29-20.127,37.138-23.985   c-24.082-43.467-70.25-72.986-123.454-72.986c-78.009,0-141.241,63.232-141.241,141.241s63.232,141.241,141.241,141.241   c53.204,0,99.372-29.511,123.454-72.978C364.608,382.187,351.685,373.642,342.319,362.069"/>
</g>
<g>
</g>
<g>
</g>
<g>
</g>
<g>
</g>
<g>
</g>
<g>
</g>
<g>
</g>
<g>
</g>
<g>
</g>
<g>
</g>
<g>
</g>
<g>
</g>
<g>
</g>
<g>
</g>
<g>
</g>
</svg>
