<?xml version="1.0" encoding="iso-8859-1"?>
<!-- Generator: Adobe Illustrator 19.0.0, SVG Export Plug-In . SVG Version: 6.00 Build 0)  -->
<svg xmlns="http://www.w3.org/2000/svg" xmlns:xlink="http://www.w3.org/1999/xlink" version="1.1" id="Capa_1" x="0px" y="0px" viewBox="0 0 512 512" style="enable-background:new 0 0 512 512;" xml:space="preserve">
<g>
	<path style="fill:#DDDFE4;" d="M481.112,512H30.888C13.824,512,0,498.176,0,481.112V30.888C0,13.824,13.824,0,30.888,0h450.225   C498.176,0,512,13.824,512,30.888v450.225C512,498.176,498.176,512,481.112,512"/>
	<path style="fill:#CCCED1;" d="M512,123.586H0V30.888C0,13.824,13.824,0,30.888,0h450.225C498.176,0,512,13.824,512,30.888V123.586   z"/>
	<g>
		<polygon style="fill:#9C9FA6;" points="35.31,88.276 211.862,88.276 211.862,35.31 35.31,35.31   "/>
		<path style="fill:#9C9FA6;" d="M467.862,61.793c0,14.627-11.855,26.483-26.483,26.483s-26.483-11.855-26.483-26.483    s11.855-26.483,26.483-26.483S467.862,47.166,467.862,61.793"/>
		<path style="fill:#9C9FA6;" d="M370.759,61.793c0,14.627-11.855,26.483-26.483,26.483c-14.627,0-26.483-11.855-26.483-26.483    s11.855-26.483,26.483-26.483C358.903,35.31,370.759,47.166,370.759,61.793"/>
		<path style="fill:#9C9FA6;" d="M282.483,52.966h-35.31c-4.882,0-8.828-3.946-8.828-8.828s3.946-8.828,8.828-8.828h35.31    c4.882,0,8.828,3.946,8.828,8.828S287.364,52.966,282.483,52.966"/>
		<path style="fill:#9C9FA6;" d="M282.483,88.276h-35.31c-4.882,0-8.828-3.946-8.828-8.828c0-4.882,3.946-8.828,8.828-8.828h35.31    c4.882,0,8.828,3.946,8.828,8.828C291.31,84.33,287.364,88.276,282.483,88.276"/>
	</g>
	<path style="fill:#90BAE1;" d="M397.241,317.793c0,78.009-63.232,141.241-141.241,141.241s-141.241-63.232-141.241-141.241   S177.991,176.552,256,176.552S397.241,239.784,397.241,317.793"/>
	<g>
		<path style="fill:#6993B2;" d="M158.897,326.621c-4.882,0-8.828-3.946-8.828-8.828c0-58.412,47.519-105.931,105.931-105.931    c4.882,0,8.828,3.946,8.828,8.828s-3.946,8.828-8.828,8.828c-48.675,0-88.276,39.601-88.276,88.276    C167.724,322.675,163.778,326.621,158.897,326.621"/>
		<path style="fill:#6993B2;" d="M256,423.724c-4.882,0-8.828-3.946-8.828-8.828c0-4.882,3.946-8.828,8.828-8.828    c48.675,0,88.276-39.601,88.276-88.276c0-4.882,3.946-8.828,8.828-8.828c4.882,0,8.828,3.946,8.828,8.828    C361.931,376.205,314.412,423.724,256,423.724"/>
	</g>
	<g>
		<path style="fill:#CCCED1;" d="M105.931,185.379H52.966c-4.882,0-8.828-3.946-8.828-8.828s3.946-8.828,8.828-8.828h52.966    c4.882,0,8.828,3.946,8.828,8.828S110.813,185.379,105.931,185.379"/>
		<path style="fill:#CCCED1;" d="M459.034,467.862h-52.966c-4.882,0-8.828-3.946-8.828-8.828c0-4.882,3.946-8.828,8.828-8.828    h52.966c4.882,0,8.828,3.946,8.828,8.828C467.862,463.916,463.916,467.862,459.034,467.862"/>
	</g>
	<g>
		<path style="fill:#6993B2;" d="M256,379.586c-34.066,0-61.793-27.727-61.793-61.793c0-4.882,3.946-8.828,8.828-8.828    s8.828,3.946,8.828,8.828c0,24.338,19.8,44.138,44.138,44.138c4.882,0,8.828,3.946,8.828,8.828    C264.828,375.64,260.882,379.586,256,379.586"/>
		<path style="fill:#6993B2;" d="M308.966,326.621c-4.882,0-8.828-3.946-8.828-8.828c0-24.338-19.8-44.138-44.138-44.138    c-4.882,0-8.828-3.946-8.828-8.828S251.118,256,256,256c34.066,0,61.793,27.727,61.793,61.793    C317.793,322.675,313.847,326.621,308.966,326.621"/>
	</g>
</g>
<g>
</g>
<g>
</g>
<g>
</g>
<g>
</g>
<g>
</g>
<g>
</g>
<g>
</g>
<g>
</g>
<g>
</g>
<g>
</g>
<g>
</g>
<g>
</g>
<g>
</g>
<g>
</g>
<g>
</g>
</svg>
