<?xml version="1.0" encoding="iso-8859-1"?>
<!-- Generator: Adobe Illustrator 19.0.0, SVG Export Plug-In . SVG Version: 6.00 Build 0)  -->
<svg xmlns="http://www.w3.org/2000/svg" xmlns:xlink="http://www.w3.org/1999/xlink" version="1.1" id="Capa_1" x="0px" y="0px" viewBox="0 0 512 512" style="enable-background:new 0 0 512 512;" xml:space="preserve">
<g>
	<path style="fill:#DDDFE4;" d="M481.112,512H30.888C13.824,512,0,498.176,0,481.112V30.888C0,13.824,13.824,0,30.888,0h450.225   C498.176,0,512,13.824,512,30.888v450.225C512,498.176,498.176,512,481.112,512"/>
	<path style="fill:#687492;" d="M116.845,341.121c11.14,66.878,69.111,117.91,139.158,117.91c66.613,0,122.297-46.168,137.198-108.2   c-62.42,27.833-105.516-4.361-128.371-15.386C207.416,302.244,167.886,296.859,116.845,341.121"/>
	<path style="fill:#8697CB;" d="M264.828,335.448c22.855,11.026,65.96,43.22,128.371,15.378c2.551-10.62,4.043-21.636,4.043-33.033   c0-78.009-63.232-141.241-141.241-141.241s-141.241,63.232-141.241,141.241c0,7.962,0.821,15.722,2.083,23.331   C167.892,296.863,207.413,302.239,264.828,335.448"/>
	<path style="fill:#EDEEF2;" d="M512,123.586H0V30.888C0,13.824,13.824,0,30.888,0h450.225C498.176,0,512,13.824,512,30.888V123.586   z"/>
	<polygon style="fill:#B1D194;" points="35.31,88.276 88.276,88.276 88.276,35.31 35.31,35.31  "/>
	<g>
		<path style="fill:#CCCED1;" d="M176.552,61.793c0,14.627-11.855,26.483-26.483,26.483s-26.483-11.855-26.483-26.483    s11.855-26.483,26.483-26.483S176.552,47.166,176.552,61.793"/>
		<path style="fill:#CCCED1;" d="M388.414,61.793c0,14.627-11.855,26.483-26.483,26.483s-26.483-11.855-26.483-26.483    s11.855-26.483,26.483-26.483S388.414,47.166,388.414,61.793"/>
		<path style="fill:#CCCED1;" d="M476.69,61.793c0,14.627-11.855,26.483-26.483,26.483c-14.627,0-26.483-11.855-26.483-26.483    S435.58,35.31,450.207,35.31C464.834,35.31,476.69,47.166,476.69,61.793"/>
		<path style="fill:#CCCED1;" d="M300.138,52.966h-88.276c-4.882,0-8.828-3.946-8.828-8.828s3.946-8.828,8.828-8.828h88.276    c4.882,0,8.828,3.946,8.828,8.828S305.02,52.966,300.138,52.966"/>
		<path style="fill:#CCCED1;" d="M300.138,88.276h-88.276c-4.882,0-8.828-3.946-8.828-8.828c0-4.882,3.946-8.828,8.828-8.828h88.276    c4.882,0,8.828,3.946,8.828,8.828C308.966,84.33,305.02,88.276,300.138,88.276"/>
	</g>
	<path style="fill:#687492;" d="M351.483,308.966c-4.184,0-7.892-2.975-8.669-7.221c-6.038-32.75-30.667-59.789-62.746-68.89   c-4.687-1.324-7.406-6.206-6.073-10.902c1.333-4.696,6.188-7.45,10.902-6.082c38.479,10.92,68.034,43.37,75.273,82.662   c0.892,4.793-2.277,9.401-7.071,10.284C352.551,308.921,352.012,308.966,351.483,308.966"/>
	<g>
		<path style="fill:#EDEEF2;" d="M105.931,185.379H52.966c-4.882,0-8.828-3.946-8.828-8.828s3.946-8.828,8.828-8.828h52.966    c4.882,0,8.828,3.946,8.828,8.828S110.813,185.379,105.931,185.379"/>
		<path style="fill:#EDEEF2;" d="M459.034,467.862h-52.966c-4.882,0-8.828-3.946-8.828-8.828c0-4.882,3.946-8.828,8.828-8.828    h52.966c4.882,0,8.828,3.946,8.828,8.828C467.862,463.916,463.916,467.862,459.034,467.862"/>
	</g>
</g>
<g>
</g>
<g>
</g>
<g>
</g>
<g>
</g>
<g>
</g>
<g>
</g>
<g>
</g>
<g>
</g>
<g>
</g>
<g>
</g>
<g>
</g>
<g>
</g>
<g>
</g>
<g>
</g>
<g>
</g>
</svg>
