<?xml version="1.0" encoding="iso-8859-1"?>
<!-- Generator: Adobe Illustrator 19.0.0, SVG Export Plug-In . SVG Version: 6.00 Build 0)  -->
<svg xmlns="http://www.w3.org/2000/svg" xmlns:xlink="http://www.w3.org/1999/xlink" version="1.1" id="Capa_1" x="0px" y="0px" viewBox="0 0 512 512" style="enable-background:new 0 0 512 512;" xml:space="preserve">
<g>
	<polygon style="fill:#877D77;" points="379.586,423.724 512,423.724 512,353.103 379.586,353.103  "/>
	<g>
		<polygon style="fill:#A89F98;" points="379.586,353.103 512,353.103 512,282.483 379.586,282.483   "/>
		<polygon style="fill:#A89F98;" points="132.414,423.724 256,423.724 256,282.483 132.414,282.483   "/>
	</g>
	<polygon style="fill:#DAD6C4;" points="0,423.724 141.241,423.724 141.241,211.862 0,211.862  "/>
	<polygon style="fill:#EBE5D1;" points="0,220.69 141.241,220.69 141.241,88.276 0,88.276  "/>
	<g>
		<path style="fill:#4A3048;" d="M105.931,185.379c-4.873,0-8.828-3.946-8.828-8.828v-26.483c0-4.882,3.955-8.828,8.828-8.828    c4.873,0,8.828,3.946,8.828,8.828v26.483C114.759,181.433,110.804,185.379,105.931,185.379"/>
		<path style="fill:#4A3048;" d="M105.931,300.138c-4.873,0-8.828-3.946-8.828-8.828v-26.483c0-4.882,3.955-8.828,8.828-8.828    c4.873,0,8.828,3.946,8.828,8.828v26.483C114.759,296.192,110.804,300.138,105.931,300.138"/>
	</g>
	<g>
		<polygon style="fill:#EDEEF2;" points="247.172,423.724 388.414,423.724 388.414,282.483 247.172,282.483   "/>
		<polygon style="fill:#EDEEF2;" points="370.759,211.862 264.828,211.862 282.483,88.276 353.103,88.276   "/>
	</g>
	<path style="fill:#9C9FA6;" d="M388.414,220.69H247.172c-4.873,0-8.828-3.946-8.828-8.828c0-4.882,3.955-8.828,8.828-8.828h141.241   c4.873,0,8.828,3.946,8.828,8.828C397.241,216.744,393.287,220.69,388.414,220.69"/>
	<polygon style="fill:#CCCED1;" points="282.483,379.586 353.103,379.586 353.103,317.793 282.483,317.793  "/>
	<g>
		<path style="fill:#706B67;" d="M211.862,344.276c-4.873,0-8.828-3.946-8.828-8.828v-17.655c0-4.882,3.955-8.828,8.828-8.828    c4.873,0,8.828,3.946,8.828,8.828v17.655C220.69,340.33,216.735,344.276,211.862,344.276"/>
		<path style="fill:#706B67;" d="M211.862,326.621h-17.655c-4.873,0-8.828-3.946-8.828-8.828s3.955-8.828,8.828-8.828h17.655    c4.873,0,8.828,3.946,8.828,8.828S216.735,326.621,211.862,326.621"/>
	</g>
	<g>
		<path style="fill:#4A3048;" d="M105.931,273.655H88.276c-4.873,0-8.828-3.946-8.828-8.828S83.403,256,88.276,256h17.655    c4.873,0,8.828,3.946,8.828,8.828S110.804,273.655,105.931,273.655"/>
		<path style="fill:#4A3048;" d="M105.931,185.379H88.276c-4.873,0-8.828-3.946-8.828-8.828c0-4.882,3.955-8.828,8.828-8.828h17.655    c4.873,0,8.828,3.946,8.828,8.828C114.759,181.433,110.804,185.379,105.931,185.379"/>
	</g>
	<path style="fill:#706B67;" d="M476.69,326.621h-52.966c-4.873,0-8.828-3.946-8.828-8.828s3.955-8.828,8.828-8.828h52.966   c4.873,0,8.828,3.946,8.828,8.828S481.562,326.621,476.69,326.621"/>
	<path style="fill:#A89F98;" d="M476.69,397.241h-52.966c-4.873,0-8.828-3.946-8.828-8.828c0-4.882,3.955-8.828,8.828-8.828h52.966   c4.873,0,8.828,3.946,8.828,8.828C485.517,393.295,481.562,397.241,476.69,397.241"/>
</g>
<g>
</g>
<g>
</g>
<g>
</g>
<g>
</g>
<g>
</g>
<g>
</g>
<g>
</g>
<g>
</g>
<g>
</g>
<g>
</g>
<g>
</g>
<g>
</g>
<g>
</g>
<g>
</g>
<g>
</g>
</svg>
