<?xml version="1.0" encoding="iso-8859-1"?>
<!-- Generator: Adobe Illustrator 19.0.0, SVG Export Plug-In . SVG Version: 6.00 Build 0)  -->
<svg xmlns="http://www.w3.org/2000/svg" xmlns:xlink="http://www.w3.org/1999/xlink" version="1.1" id="Capa_1" x="0px" y="0px" viewBox="0 0 512 512" style="enable-background:new 0 0 512 512;" xml:space="preserve">
<g>
	<path style="fill:#7C5445;" d="M476.69,313.379c-48.79,0-88.276-39.486-88.276-88.276c0-73.128-59.286-132.414-132.414-132.414   s-132.414,59.286-132.414,132.414c0,48.79-39.486,88.276-88.276,88.276H17.655v61.793h476.69v-61.793H476.69z"/>
	<polygon style="fill:#4F3022;" points="0,419.31 512,419.31 512,366.345 0,366.345  "/>
	<path style="fill:#F7F0E8;" d="M344.276,225.103c0,48.746-39.521,88.276-88.276,88.276s-88.276-39.53-88.276-88.276   s39.521-88.276,88.276-88.276S344.276,176.358,344.276,225.103"/>
	<g>
		<path style="fill:#38454F;" d="M256,216.276c-4.873,0-8.828-3.946-8.828-8.828v-35.31c0-4.882,3.955-8.828,8.828-8.828    s8.828,3.946,8.828,8.828v35.31C264.828,212.33,260.873,216.276,256,216.276"/>
		<path style="fill:#38454F;" d="M291.31,269.241c-2.26,0-4.52-0.865-6.241-2.586L267.414,249c-3.452-3.452-3.452-9.031,0-12.482    c3.452-3.452,9.031-3.452,12.482,0l17.655,17.655c3.452,3.452,3.452,9.031,0,12.482C295.83,268.376,293.57,269.241,291.31,269.241    "/>
	</g>
	<path style="fill:#687492;" d="M256,251.586c-14.601,0-26.483-11.882-26.483-26.483c0-14.601,11.882-26.483,26.483-26.483   s26.483,11.882,26.483,26.483C282.483,239.704,270.601,251.586,256,251.586"/>
</g>
<g>
</g>
<g>
</g>
<g>
</g>
<g>
</g>
<g>
</g>
<g>
</g>
<g>
</g>
<g>
</g>
<g>
</g>
<g>
</g>
<g>
</g>
<g>
</g>
<g>
</g>
<g>
</g>
<g>
</g>
</svg>
