<?xml version="1.0" encoding="iso-8859-1"?>
<!-- Generator: Adobe Illustrator 19.0.0, SVG Export Plug-In . SVG Version: 6.00 Build 0)  -->
<svg xmlns="http://www.w3.org/2000/svg" xmlns:xlink="http://www.w3.org/1999/xlink" version="1.1" id="Capa_1" x="0px" y="0px" viewBox="0 0 512 512" style="enable-background:new 0 0 512 512;" xml:space="preserve">
<g>
	<polygon style="fill:#232D33;" points="176.552,295.724 335.448,295.724 335.448,110.345 176.552,110.345  "/>
	<g>
		<path style="fill:#38454F;" d="M185.379,295.724H44.138c-9.746,0-17.655-7.91-17.655-17.655V66.207    c0-9.746,7.91-17.655,17.655-17.655h123.586c9.746,0,17.655,7.91,17.655,17.655V295.724z"/>
		<path style="fill:#232D33;" d="M150.069,216.276c0-24.382-19.765-44.138-44.138-44.138s-44.138,19.756-44.138,44.138    s19.765,44.138,44.138,44.138S150.069,240.658,150.069,216.276"/>
		<path style="fill:#38454F;" d="M467.862,295.724H326.621V66.207c0-9.746,7.91-17.655,17.655-17.655h123.586    c9.746,0,17.655,7.91,17.655,17.655v211.862C485.517,287.815,477.608,295.724,467.862,295.724"/>
		<path style="fill:#232D33;" d="M450.207,216.276c0-24.382-19.765-44.138-44.138-44.138s-44.138,19.756-44.138,44.138    s19.765,44.138,44.138,44.138S450.207,240.658,450.207,216.276"/>
		<polygon style="fill:#C7BFB7;" points="0,286.897 0,463.448 26.483,463.448 44.138,419.31 467.862,419.31 485.517,463.448     512,463.448 512,286.897   "/>
		<g>
			<path style="fill:#232D33;" d="M132.414,110.345c0-14.627-11.855-26.483-26.483-26.483s-26.483,11.855-26.483,26.483     s11.855,26.483,26.483,26.483S132.414,124.972,132.414,110.345"/>
			<path style="fill:#232D33;" d="M432.552,110.345c0-14.627-11.855-26.483-26.483-26.483s-26.483,11.855-26.483,26.483     s11.855,26.483,26.483,26.483S432.552,124.972,432.552,110.345"/>
		</g>
		<g>
			<path style="fill:#38454F;" d="M423.724,216.276c0-9.746-7.91-17.655-17.655-17.655c-9.746,0-17.655,7.91-17.655,17.655     s7.91,17.655,17.655,17.655C415.815,233.931,423.724,226.022,423.724,216.276"/>
			<path style="fill:#38454F;" d="M123.586,216.276c0-9.746-7.91-17.655-17.655-17.655s-17.655,7.91-17.655,17.655     s7.91,17.655,17.655,17.655S123.586,226.022,123.586,216.276"/>
			<path style="fill:#38454F;" d="M291.31,154.483H220.69c-4.873,0-8.828-3.946-8.828-8.828c0-4.882,3.955-8.828,8.828-8.828h70.621     c4.873,0,8.828,3.946,8.828,8.828C300.138,150.537,296.183,154.483,291.31,154.483"/>
			<path style="fill:#38454F;" d="M291.31,198.621H220.69c-4.873,0-8.828-3.946-8.828-8.828c0-4.882,3.955-8.828,8.828-8.828h70.621     c4.873,0,8.828,3.946,8.828,8.828C300.138,194.675,296.183,198.621,291.31,198.621"/>
			<polygon style="fill:#38454F;" points="220.69,260.414 291.31,260.414 291.31,225.103 220.69,225.103    "/>
			<path style="fill:#38454F;" d="M238.345,207.448c-4.873,0-8.828-3.946-8.828-8.828v-17.655c0-4.882,3.955-8.828,8.828-8.828     c4.873,0,8.828,3.946,8.828,8.828v17.655C247.172,203.502,243.218,207.448,238.345,207.448"/>
			<path style="fill:#38454F;" d="M273.655,163.31c-4.873,0-8.828-3.946-8.828-8.828v-17.655c0-4.882,3.955-8.828,8.828-8.828     c4.873,0,8.828,3.946,8.828,8.828v17.655C282.483,159.364,278.528,163.31,273.655,163.31"/>
		</g>
		<polygon style="fill:#706B67;" points="35.31,384 476.69,384 476.69,322.207 35.31,322.207   "/>
	</g>
</g>
<g>
</g>
<g>
</g>
<g>
</g>
<g>
</g>
<g>
</g>
<g>
</g>
<g>
</g>
<g>
</g>
<g>
</g>
<g>
</g>
<g>
</g>
<g>
</g>
<g>
</g>
<g>
</g>
<g>
</g>
</svg>
