<?xml version="1.0" encoding="iso-8859-1"?>
<!-- Generator: Adobe Illustrator 19.0.0, SVG Export Plug-In . SVG Version: 6.00 Build 0)  -->
<svg xmlns="http://www.w3.org/2000/svg" xmlns:xlink="http://www.w3.org/1999/xlink" version="1.1" id="Capa_1" x="0px" y="0px" viewBox="0 0 512 512" style="enable-background:new 0 0 512 512;" xml:space="preserve">
<g>
	<polygon style="fill:#C7BFB7;" points="0,4.414 0,507.586 26.483,507.586 44.138,463.448 467.862,463.448 485.517,507.586    512,507.586 512,4.414  "/>
	<polygon style="fill:#BDC3C7;" points="97.103,278.069 203.034,278.069 203.034,207.448 97.103,207.448  "/>
	<g>
		<polygon style="fill:#706B67;" points="35.31,163.31 35.31,278.069 97.103,278.069 97.103,207.448 203.034,207.448     203.034,278.069 476.69,278.069 476.69,163.31   "/>
		<polygon style="fill:#706B67;" points="35.31,428.138 476.69,428.138 476.69,313.379 35.31,313.379   "/>
		<polygon style="fill:#706B67;" points="35.31,128 158.897,128 158.897,39.724 35.31,39.724   "/>
		<polygon style="fill:#706B67;" points="194.207,128 317.793,128 317.793,39.724 194.207,39.724   "/>
		<polygon style="fill:#706B67;" points="353.103,128 476.69,128 476.69,39.724 353.103,39.724   "/>
	</g>
	<polygon style="fill:#88C057;" points="388.414,428.138 414.897,428.138 414.897,348.69 388.414,348.69  "/>
	<polygon style="fill:#4C8056;" points="361.931,428.138 388.414,428.138 388.414,348.69 361.931,348.69  "/>
	<polygon style="fill:#25C3AB;" points="335.448,428.138 361.931,428.138 361.931,348.69 335.448,348.69  "/>
	<polygon style="fill:#13A085;" points="308.966,428.138 335.448,428.138 335.448,348.69 308.966,348.69  "/>
	<polygon style="fill:#F18D46;" points="264.828,428.138 238.345,428.138 264.828,357.517 291.31,357.517  "/>
	<polygon style="fill:#F3D55B;" points="105.931,428.138 185.379,428.138 185.379,401.655 105.931,401.655  "/>
	<polygon style="fill:#F18D46;" points="88.276,401.655 167.724,401.655 167.724,375.172 88.276,375.172  "/>
	<polygon style="fill:#E64C3C;" points="114.759,375.172 194.207,375.172 194.207,348.69 114.759,348.69  "/>
	<polygon style="fill:#955BA5;" points="317.793,278.069 397.241,278.069 397.241,251.586 317.793,251.586  "/>
	<polygon style="fill:#F3D55B;" points="300.138,251.586 379.586,251.586 379.586,225.103 300.138,225.103  "/>
	<polygon style="fill:#F18D46;" points="326.621,225.103 406.069,225.103 406.069,198.621 326.621,198.621  "/>
	<path style="fill:#FFFFFF;" d="M158.897,251.586h-17.655c-4.882,0-8.828-3.946-8.828-8.828s3.946-8.828,8.828-8.828h17.655   c4.882,0,8.828,3.946,8.828,8.828S163.778,251.586,158.897,251.586"/>
	<g>
		<path style="fill:#C7BFB7;" d="M114.759,83.862h-35.31c-4.882,0-8.828-3.946-8.828-8.828s3.946-8.828,8.828-8.828h35.31    c4.882,0,8.828,3.946,8.828,8.828S119.64,83.862,114.759,83.862"/>
		<path style="fill:#C7BFB7;" d="M97.103,101.517c-4.882,0-8.828-3.946-8.828-8.828V75.034c0-4.882,3.946-8.828,8.828-8.828    s8.828,3.946,8.828,8.828V92.69C105.931,97.571,101.985,101.517,97.103,101.517"/>
		<path style="fill:#C7BFB7;" d="M273.655,83.862h-35.31c-4.882,0-8.828-3.946-8.828-8.828s3.946-8.828,8.828-8.828h35.31    c4.882,0,8.828,3.946,8.828,8.828S278.537,83.862,273.655,83.862"/>
		<path style="fill:#C7BFB7;" d="M256,101.517c-4.882,0-8.828-3.946-8.828-8.828V75.034c0-4.882,3.946-8.828,8.828-8.828    s8.828,3.946,8.828,8.828V92.69C264.828,97.571,260.882,101.517,256,101.517"/>
		<path style="fill:#C7BFB7;" d="M432.552,83.862h-35.31c-4.882,0-8.828-3.946-8.828-8.828s3.946-8.828,8.828-8.828h35.31    c4.882,0,8.828,3.946,8.828,8.828S437.433,83.862,432.552,83.862"/>
		<path style="fill:#C7BFB7;" d="M414.897,101.517c-4.882,0-8.828-3.946-8.828-8.828V75.034c0-4.882,3.946-8.828,8.828-8.828    c4.882,0,8.828,3.946,8.828,8.828V92.69C423.724,97.571,419.778,101.517,414.897,101.517"/>
	</g>
</g>
<g>
</g>
<g>
</g>
<g>
</g>
<g>
</g>
<g>
</g>
<g>
</g>
<g>
</g>
<g>
</g>
<g>
</g>
<g>
</g>
<g>
</g>
<g>
</g>
<g>
</g>
<g>
</g>
<g>
</g>
</svg>
