<?xml version="1.0" encoding="iso-8859-1"?>
<!-- Generator: Adobe Illustrator 19.0.0, SVG Export Plug-In . SVG Version: 6.00 Build 0)  -->
<svg xmlns="http://www.w3.org/2000/svg" xmlns:xlink="http://www.w3.org/1999/xlink" version="1.1" id="Capa_1" x="0px" y="0px" viewBox="0 0 512 512" style="enable-background:new 0 0 512 512;" xml:space="preserve">
<g>
	<g>
		<path style="fill:#F29C1F;" d="M368.814,69.424c-4.799,0-8.678-3.879-8.678-8.678V43.39c0-4.799,3.879-8.678,8.678-8.678    c4.799,0,8.678,3.879,8.678,8.678v17.356C377.492,65.545,373.612,69.424,368.814,69.424"/>
		<path style="fill:#F29C1F;" d="M438.237,34.712c-4.799,0-8.678-3.879-8.678-8.678V8.678c0-4.799,3.879-8.678,8.678-8.678    c4.799,0,8.678,3.879,8.678,8.678v17.356C446.915,30.833,443.036,34.712,438.237,34.712"/>
	</g>
	<g>
		<path style="fill:#DDDFE4;" d="M368.814,234.305c-4.799,0-8.678-3.879-8.678-8.678v-52.068c0-4.799,3.879-8.678,8.678-8.678    c4.799,0,8.678,3.879,8.678,8.678v52.068C377.492,230.426,373.612,234.305,368.814,234.305"/>
		<path style="fill:#DDDFE4;" d="M438.237,234.305c-4.799,0-8.678-3.879-8.678-8.678v-86.78c0-4.799,3.879-8.678,8.678-8.678    c4.799,0,8.678,3.879,8.678,8.678v86.78C446.915,230.426,443.036,234.305,438.237,234.305"/>
		<path style="fill:#DDDFE4;" d="M108.483,234.305c-2.647,0-5.241-1.198-6.951-3.471l-19.092-25.452l-19.092,25.452    c-2.872,3.844-8.305,4.617-12.149,1.736c-3.836-2.872-4.617-8.313-1.736-12.149l26.034-34.712c3.272-4.374,10.613-4.374,13.885,0    l26.034,34.712c2.881,3.836,2.1,9.277-1.736,12.149C112.119,233.741,110.297,234.305,108.483,234.305"/>
		<path style="fill:#DDDFE4;" d="M177.907,234.305c-3.185,0-6.248-1.753-7.775-4.799l-18.267-36.543l-18.267,36.543    c-2.152,4.287-7.368,6.014-11.646,3.888c-4.287-2.152-6.031-7.359-3.888-11.646l26.034-52.068c2.951-5.884,12.583-5.884,15.534,0    l26.034,52.068c2.143,4.287,0.399,9.494-3.888,11.646C180.536,234.01,179.209,234.305,177.907,234.305"/>
	</g>
	<polygon style="fill:#C7BFB7;" points="4.339,225.627 4.339,512 30.373,512 47.729,468.61 464.271,468.61 481.627,512 507.661,512    507.661,225.627  "/>
	<polygon style="fill:#706B67;" points="39.051,329.763 472.949,329.763 472.949,260.339 39.051,260.339  "/>
	<path style="fill:#C7BFB7;" d="M143.186,303.729H82.441c-4.799,0-8.678-3.879-8.678-8.678s3.879-8.678,8.678-8.678h60.746   c4.799,0,8.678,3.879,8.678,8.678S147.985,303.729,143.186,303.729"/>
	<polygon style="fill:#706B67;" points="39.051,433.898 472.949,433.898 472.949,364.475 39.051,364.475  "/>
	<g>
		<path style="fill:#C7BFB7;" d="M143.186,407.864H82.441c-4.799,0-8.678-3.879-8.678-8.678c0-4.799,3.879-8.678,8.678-8.678h60.746    c4.799,0,8.678,3.879,8.678,8.678C151.864,403.985,147.985,407.864,143.186,407.864"/>
		<path style="fill:#C7BFB7;" d="M429.559,303.729h-60.746c-4.799,0-8.678-3.879-8.678-8.678s3.879-8.678,8.678-8.678h60.746    c4.799,0,8.678,3.879,8.678,8.678S434.358,303.729,429.559,303.729"/>
		<path style="fill:#C7BFB7;" d="M429.559,407.864h-60.746c-4.799,0-8.678-3.879-8.678-8.678c0-4.799,3.879-8.678,8.678-8.678    h60.746c4.799,0,8.678,3.879,8.678,8.678C438.237,403.985,434.358,407.864,429.559,407.864"/>
	</g>
	<polygon style="fill:#9C9FA6;" points="47.729,190.915 117.153,190.915 117.153,121.492 47.729,121.492  "/>
	<polygon style="fill:#CCCED1;" points="99.797,69.424 99.797,121.492 117.153,121.492 117.153,173.559 203.932,173.559    203.932,69.424  "/>
	<polygon style="fill:#F3D55B;" points="351.458,147.525 386.169,147.525 386.169,60.746 351.458,60.746  "/>
	<polygon style="fill:#9C9FA6;" points="386.169,173.559 351.458,173.559 342.78,147.525 394.847,147.525  "/>
	<polygon style="fill:#F3D55B;" points="420.881,112.814 455.593,112.814 455.593,26.034 420.881,26.034  "/>
	<polygon style="fill:#9C9FA6;" points="455.593,138.847 420.881,138.847 412.203,112.814 464.271,112.814  "/>
</g>
<g>
</g>
<g>
</g>
<g>
</g>
<g>
</g>
<g>
</g>
<g>
</g>
<g>
</g>
<g>
</g>
<g>
</g>
<g>
</g>
<g>
</g>
<g>
</g>
<g>
</g>
<g>
</g>
<g>
</g>
</svg>
