<?xml version="1.0" encoding="iso-8859-1"?>
<!-- Generator: Adobe Illustrator 19.0.0, SVG Export Plug-In . SVG Version: 6.00 Build 0)  -->
<svg xmlns="http://www.w3.org/2000/svg" xmlns:xlink="http://www.w3.org/1999/xlink" version="1.1" id="Capa_1" x="0px" y="0px" viewBox="0 0 512 512" style="enable-background:new 0 0 512 512;" xml:space="preserve">
<g>
	<polygon style="fill:#C7BFB7;" points="0,291.31 0,326.621 0,432.552 0,467.862 512,467.862 512,432.552 512,326.621 512,291.31     "/>
	<g>
		<polygon style="fill:#706B67;" points="35.31,432.552 238.345,432.552 238.345,326.621 35.31,326.621   "/>
		<polygon style="fill:#706B67;" points="273.655,432.552 476.69,432.552 476.69,326.621 273.655,326.621   "/>
	</g>
	<polygon style="fill:#687492;" points="238.345,291.31 273.655,291.31 273.655,256 238.345,256  "/>
	<polygon style="fill:#464F5D;" points="35.31,256 476.69,256 476.69,44.138 35.31,44.138  "/>
	<polygon style="fill:#F0C419;" points="70.621,432.552 114.759,432.552 114.759,406.069 70.621,406.069  "/>
	<polygon style="fill:#B1DC85;" points="150.069,432.552 176.552,432.552 176.552,388.414 150.069,388.414  "/>
	<polygon style="fill:#88C057;" points="176.552,432.552 203.034,432.552 203.034,353.103 176.552,353.103  "/>
	<polygon style="fill:#F29C1F;" points="308.966,432.552 441.379,432.552 441.379,379.586 308.966,379.586  "/>
	<g>
		<path style="fill:#687492;" d="M70.621,176.552c-2.26,0-4.52-0.865-6.241-2.586c-3.452-3.452-3.452-9.031,0-12.482l88.276-88.276    c3.452-3.452,9.031-3.452,12.482,0c3.452,3.452,3.452,9.031,0,12.482l-88.276,88.276C75.14,175.687,72.881,176.552,70.621,176.552    "/>
		<path style="fill:#687492;" d="M70.621,132.414c-2.26,0-4.52-0.865-6.241-2.586c-3.452-3.452-3.452-9.031,0-12.482l44.138-44.138    c3.452-3.452,9.031-3.452,12.482,0c3.452,3.452,3.452,9.031,0,12.482l-44.138,44.138C75.14,131.549,72.881,132.414,70.621,132.414    "/>
		<path style="fill:#687492;" d="M123.586,167.724c-2.26,0-4.52-0.865-6.241-2.586c-3.452-3.452-3.452-9.031,0-12.482l26.483-26.483    c3.452-3.452,9.031-3.452,12.482,0c3.452,3.452,3.452,9.031,0,12.482l-26.483,26.483    C128.106,166.859,125.846,167.724,123.586,167.724"/>
		<path style="fill:#687492;" d="M105.931,185.379c-2.295,0-4.599-0.971-6.268-2.56c-1.598-1.677-2.56-3.972-2.56-6.268    c0-2.295,0.962-4.59,2.56-6.268c2.463-2.472,6.356-3.266,9.622-1.854c1.059,0.441,2.022,1.05,2.913,1.854    c1.589,1.677,2.56,3.972,2.56,6.268c0,2.295-0.971,4.59-2.56,6.268c-0.892,0.794-1.854,1.404-2.913,1.854    C108.226,185.114,107.079,185.379,105.931,185.379"/>
	</g>
</g>
<g>
</g>
<g>
</g>
<g>
</g>
<g>
</g>
<g>
</g>
<g>
</g>
<g>
</g>
<g>
</g>
<g>
</g>
<g>
</g>
<g>
</g>
<g>
</g>
<g>
</g>
<g>
</g>
<g>
</g>
</svg>
