<?xml version="1.0" encoding="iso-8859-1"?>
<!-- Generator: Adobe Illustrator 19.0.0, SVG Export Plug-In . SVG Version: 6.00 Build 0)  -->
<svg xmlns="http://www.w3.org/2000/svg" xmlns:xlink="http://www.w3.org/1999/xlink" version="1.1" id="Capa_1" x="0px" y="0px" viewBox="0 0 512 512" style="enable-background:new 0 0 512 512;" xml:space="preserve">
<g>
	<g>
		<path style="fill:#492B1D;" d="M438.857,310.857H73.143c0-20.197,16.375-36.571,36.571-36.571h292.571    C422.482,274.286,438.857,290.661,438.857,310.857"/>
		<path style="fill:#492B1D;" d="M73.143,438.857c-4.8,7.872-8.027,16.96-6.089,26.597c0.046,0.238,0.091,0.475,0.137,0.704    c3.301,16.923,1.234,30.766-11.63,45.056L54.857,512h6.025c30.117,0,42.331-32.137,41.637-46.546    c-0.539-11.054,2.752-19.822,7.195-26.597H73.143z"/>
		<path style="fill:#492B1D;" d="M438.857,438.857c4.8,7.872,8.027,16.96,6.089,26.597c-0.046,0.238-0.091,0.475-0.137,0.704    c-3.301,16.923-1.234,30.766,11.63,45.056l0.704,0.786h-6.025c-30.117,0-42.331-32.137-41.637-46.546    c0.539-11.054-2.752-19.822-7.195-26.597H438.857z"/>
	</g>
	<path style="fill:#69432E;" d="M73.143,438.857h365.714c35.346,0,64-28.654,64-64s-28.654-64-64-64H73.143   c-35.346,0-64,28.654-64,64S37.797,438.857,73.143,438.857"/>
	<path style="fill:#8A5B46;" d="M73.143,320c-30.254,0-54.857,24.603-54.857,54.857c0,30.254,24.603,54.857,54.857,54.857h365.714   c30.254,0,54.857-24.603,54.857-54.857c0-30.254-24.603-54.857-54.857-54.857H73.143z M438.857,448H73.143   C32.814,448,0,415.186,0,374.857s32.814-73.143,73.143-73.143h365.714c40.329,0,73.143,32.814,73.143,73.143   S479.186,448,438.857,448L438.857,448z"/>
	<g>
		<path style="fill:#492B1D;" d="M137.143,402.286H82.286c-15.15,0-27.429-12.279-27.429-27.429    c0-15.15,12.279-27.429,27.429-27.429h54.857c15.15,0,27.429,12.279,27.429,27.429    C164.571,390.007,152.293,402.286,137.143,402.286"/>
		<path style="fill:#492B1D;" d="M429.714,402.286h-54.857c-15.15,0-27.429-12.279-27.429-27.429    c0-15.15,12.279-27.429,27.429-27.429h54.857c15.15,0,27.429,12.279,27.429,27.429    C457.143,390.007,444.864,402.286,429.714,402.286"/>
		<path style="fill:#492B1D;" d="M283.429,402.286h-54.857c-15.15,0-27.429-12.279-27.429-27.429    c0-15.15,12.279-27.429,27.429-27.429h54.857c15.15,0,27.429,12.279,27.429,27.429    C310.857,390.007,298.578,402.286,283.429,402.286"/>
	</g>
	<g>
		<path style="fill:#DEC150;" d="M109.714,374.857c-5.056,0-9.143-4.087-9.143-9.143v-18.286c0-5.056,4.087-9.143,9.143-9.143    c5.056,0,9.143,4.087,9.143,9.143v18.286C118.857,370.77,114.77,374.857,109.714,374.857"/>
		<path style="fill:#DEC150;" d="M256,374.857c-5.056,0-9.143-4.087-9.143-9.143v-18.286c0-5.056,4.087-9.143,9.143-9.143    c5.056,0,9.143,4.087,9.143,9.143v18.286C265.143,370.77,261.056,374.857,256,374.857"/>
		<path style="fill:#DEC150;" d="M402.286,374.857c-5.056,0-9.143-4.087-9.143-9.143v-18.286c0-5.056,4.087-9.143,9.143-9.143    c5.056,0,9.143,4.087,9.143,9.143v18.286C411.429,370.77,407.342,374.857,402.286,374.857"/>
	</g>
	<polygon style="fill:#966F58;" points="109.714,182.857 402.286,182.857 402.286,0 109.714,0  "/>
	<polygon style="fill:#88C057;" points="137.143,155.429 374.857,155.429 374.857,27.429 137.143,27.429  "/>
	<path style="fill:#E64C3C;" d="M210.286,108.848c0,0,98.286-27.895,164.571-26.56v73.143H210.286v-45.714"/>
	<path style="fill:#F0C419;" d="M283.429,155.429c-46.665-46.665-146.286-73.143-146.286-73.143v73.143H283.429"/>
</g>
<g>
</g>
<g>
</g>
<g>
</g>
<g>
</g>
<g>
</g>
<g>
</g>
<g>
</g>
<g>
</g>
<g>
</g>
<g>
</g>
<g>
</g>
<g>
</g>
<g>
</g>
<g>
</g>
<g>
</g>
</svg>
