<?xml version="1.0" encoding="iso-8859-1"?>
<!-- Generator: Adobe Illustrator 19.0.0, SVG Export Plug-In . SVG Version: 6.00 Build 0)  -->
<svg xmlns="http://www.w3.org/2000/svg" xmlns:xlink="http://www.w3.org/1999/xlink" version="1.1" id="Capa_1" x="0px" y="0px" viewBox="0 0 512 512" style="enable-background:new 0 0 512 512;" xml:space="preserve">
<g>
	<g>
		<path style="fill:#A5A5A4;" d="M238.644,130.169c0,43.069-35.042,78.102-78.102,78.102s-78.102-35.033-78.102-78.102v-17.356    H47.729v17.356c0,62.204,50.61,112.814,112.814,112.814c30.312,0,57.813-15.195,78.102-34.712h8.678v-78.102H238.644z"/>
		<path style="fill:#A5A5A4;" d="M273.356,130.169c0,43.069,35.042,78.102,78.102,78.102s78.102-35.033,78.102-78.102v-17.356    h34.712v17.356c0,62.204-50.61,112.814-112.814,112.814c-30.312,0-57.813-15.195-78.102-34.712h-8.678v-78.102H273.356z"/>
	</g>
	<g>
		<path style="fill:#D1D4D1;" d="M256,279.568c6.396,0,12.323,2.551,17.356,6.804V95.456h-34.712v190.915    C243.677,282.119,249.604,279.568,256,279.568"/>
		<path style="fill:#D1D4D1;" d="M256,345.246c-6.396,0-12.323-2.551-17.356-6.804v104.136h34.712V338.442    C268.323,342.695,262.396,345.246,256,345.246"/>
		<path style="fill:#D1D4D1;" d="M256,81.966c6.352,0,12.236,1.831,17.356,4.816V17.359c0-9.589-7.775-17.356-17.356-17.356    s-17.356,7.767-17.356,17.356v69.424C243.764,83.797,249.648,81.966,256,81.966"/>
		<path style="fill:#D1D4D1;" d="M342.78,503.322H169.22c0-19.17,15.542-34.712,34.712-34.712h104.136    C327.237,468.61,342.78,484.152,342.78,503.322"/>
	</g>
	<g>
		<path style="fill:#A5A5A4;" d="M308.068,468.61H203.932c0-19.17,15.542-34.712,34.712-34.712h34.712    C292.526,433.898,308.068,449.441,308.068,468.61"/>
		<path style="fill:#A5A5A4;" d="M368.814,512H143.186c-4.79,0-8.678-3.879-8.678-8.678c0-4.799,3.888-8.678,8.678-8.678h225.627    c4.79,0,8.678,3.879,8.678,8.678C377.492,508.121,373.604,512,368.814,512"/>
		<path style="fill:#A5A5A4;" d="M290.712,104.136h-69.424c0-19.17,15.542-34.712,34.712-34.712S290.712,84.966,290.712,104.136"/>
		<path style="fill:#A5A5A4;" d="M223.458,312.407c0-23.969,14.57-43.39,32.542-43.39s32.542,19.421,32.542,43.39    c0,23.969-14.57,43.39-32.542,43.39S223.458,336.375,223.458,312.407"/>
	</g>
	<g>
		<path style="fill:#F0C419;" d="M13.017,43.39V0h104.136v43.39c0,23.76,2.916,63.731,8.678,86.78H4.339    C10.101,107.121,13.017,67.15,13.017,43.39"/>
		<path style="fill:#F0C419;" d="M394.847,43.39V0h104.136v43.39c0,23.76,2.916,63.731,8.678,86.78H386.169    C391.932,107.121,394.847,67.15,394.847,43.39"/>
	</g>
</g>
<g>
</g>
<g>
</g>
<g>
</g>
<g>
</g>
<g>
</g>
<g>
</g>
<g>
</g>
<g>
</g>
<g>
</g>
<g>
</g>
<g>
</g>
<g>
</g>
<g>
</g>
<g>
</g>
<g>
</g>
</svg>
