<?xml version="1.0" encoding="iso-8859-1"?>
<!-- Generator: Adobe Illustrator 19.0.0, SVG Export Plug-In . SVG Version: 6.00 Build 0)  -->
<svg xmlns="http://www.w3.org/2000/svg" xmlns:xlink="http://www.w3.org/1999/xlink" version="1.1" id="Capa_1" x="0px" y="0px" viewBox="0 0 512 512" style="enable-background:new 0 0 512 512;" xml:space="preserve">
<g>
	<polygon style="fill:#7F6E5D;" points="238.644,260.339 273.356,260.339 273.356,182.237 238.644,182.237  "/>
	<path style="fill:#AC9A91;" d="M229.966,251.661v190.915h52.068V251.661c0-4.799-3.888-8.678-8.678-8.678h-34.712   C233.845,242.983,229.966,246.862,229.966,251.661"/>
	<path style="fill:#7F6E5D;" d="M290.712,433.898h-69.424c-19.17,0-34.712,15.542-34.712,34.712v17.356h138.847V468.61   C325.424,449.441,309.882,433.898,290.712,433.898"/>
	<path style="fill:#AC9A91;" d="M342.78,295.051c-4.79,0-8.678-3.601-8.678-8.062v-96.69c0-4.46,3.888-8.062,8.678-8.062   c4.79,0,8.678,3.601,8.678,8.062v96.69C351.458,291.449,347.57,295.051,342.78,295.051"/>
	<path style="fill:#7F6E5D;" d="M327.861,355.797h29.835l-13.017-52.068h-3.801L327.861,355.797z M368.812,373.153h-52.068   c-2.673,0-5.189-1.232-6.838-3.341c-1.64-2.1-2.23-4.842-1.579-7.437l17.356-69.424c0.963-3.862,4.434-6.578,8.418-6.578h17.356   c3.983,0,7.454,2.716,8.418,6.578l17.356,69.424c0.651,2.595,0.069,5.337-1.579,7.437   C374.01,371.92,371.485,373.153,368.812,373.153L368.812,373.153z"/>
	<path style="fill:#AC9A91;" d="M360.136,503.322H151.864c0-19.17,15.542-34.712,34.712-34.712h138.847   C344.593,468.61,360.136,484.152,360.136,503.322"/>
	<path style="fill:#7F6E5D;" d="M386.169,512H125.831c-4.79,0-8.678-3.879-8.678-8.678c0-4.799,3.888-8.678,8.678-8.678h260.339   c4.79,0,8.678,3.879,8.678,8.678C394.847,508.121,390.96,512,386.169,512"/>
	<path style="fill:#F0C419;" d="M347.665,190.915H164.335c-15.777,0-27.926-13.919-25.8-29.548L157.47,22.519   C159.232,9.615,170.253,0,183.27,0h145.46c13.017,0,24.038,9.615,25.8,22.519l18.935,138.847   C375.591,176.996,363.442,190.915,347.665,190.915"/>
</g>
<g>
</g>
<g>
</g>
<g>
</g>
<g>
</g>
<g>
</g>
<g>
</g>
<g>
</g>
<g>
</g>
<g>
</g>
<g>
</g>
<g>
</g>
<g>
</g>
<g>
</g>
<g>
</g>
<g>
</g>
</svg>
