<?xml version="1.0" encoding="iso-8859-1"?>
<!-- Generator: Adobe Illustrator 19.0.0, SVG Export Plug-In . SVG Version: 6.00 Build 0)  -->
<svg xmlns="http://www.w3.org/2000/svg" xmlns:xlink="http://www.w3.org/1999/xlink" version="1.1" id="Capa_1" x="0px" y="0px" viewBox="0 0 512 512" style="enable-background:new 0 0 512 512;" xml:space="preserve">
<g>
	<g>
		<path style="fill:#687492;" d="M238.345,384.001c0,43.811-35.646,79.448-79.448,79.448s-79.448-35.637-79.448-79.448v-17.655    h-35.31v17.655c0,63.276,51.482,114.759,114.759,114.759c30.835,0,58.809-15.457,79.448-35.31h8.828v-79.448H238.345z"/>
		<path style="fill:#687492;" d="M273.655,384.001c0,43.811,35.646,79.448,79.448,79.448s79.448-35.637,79.448-79.448v-17.655h35.31    v17.655c0,63.276-51.482,114.759-114.759,114.759c-30.835,0-58.809-15.457-79.448-35.31h-8.828v-79.448H273.655z"/>
	</g>
	<g>
		<path style="fill:#38454F;" d="M256,371.243c-6.462,0-12.447-1.863-17.655-4.899V489.93c0,9.754,7.91,17.655,17.655,17.655    c9.746,0,17.655-7.901,17.655-17.655V366.344C268.447,369.38,262.462,371.243,256,371.243"/>
		<path style="fill:#38454F;" d="M256,240.855c-6.506,0-12.535-2.595-17.655-6.921V357.52h35.31V233.934    C268.535,238.26,262.506,240.855,256,240.855"/>
		<path style="fill:#38454F;" d="M256,174.044c6.506,0,12.535,2.595,17.655,6.921V75.034h-35.31v105.931    C243.465,176.64,249.494,174.044,256,174.044"/>
	</g>
	<path style="fill:#687492;" d="M203.034,30.898v17.655c0,19.5,15.81,35.31,35.31,35.31h35.31c19.5,0,35.31-15.81,35.31-35.31   V30.898H203.034z"/>
	<path style="fill:#38454F;" d="M167.724,13.243h176.552c0,19.5-15.81,35.31-35.31,35.31H203.034   C183.534,48.553,167.724,32.743,167.724,13.243"/>
	<g>
		<path style="fill:#687492;" d="M370.759,22.07H141.241c-4.873,0-8.828-3.946-8.828-8.828s3.955-8.828,8.828-8.828h229.517    c4.873,0,8.828,3.946,8.828,8.828S375.631,22.07,370.759,22.07"/>
		<path style="fill:#687492;" d="M220.69,348.691h70.621c0,19.5-15.81,35.31-35.31,35.31S220.69,368.191,220.69,348.691"/>
		<path style="fill:#687492;" d="M289.103,207.45c0,24.382-14.822,44.138-33.103,44.138s-33.103-19.756-33.103-44.138    s14.822-44.138,33.103-44.138S289.103,183.068,289.103,207.45"/>
	</g>
	<g>
		<path style="fill:#F0C419;" d="M8.828,295.725v-44.138h105.931v44.138c0,24.17,2.966,64.83,8.828,88.276H0    C5.862,360.555,8.828,319.895,8.828,295.725"/>
		<path style="fill:#F0C419;" d="M397.241,295.725v-44.138h105.931v44.138c0,24.17,2.966,64.83,8.828,88.276H388.414    C394.275,360.555,397.241,319.895,397.241,295.725"/>
	</g>
</g>
<g>
</g>
<g>
</g>
<g>
</g>
<g>
</g>
<g>
</g>
<g>
</g>
<g>
</g>
<g>
</g>
<g>
</g>
<g>
</g>
<g>
</g>
<g>
</g>
<g>
</g>
<g>
</g>
<g>
</g>
</svg>
