<?xml version="1.0" encoding="iso-8859-1"?>
<!-- Generator: Adobe Illustrator 19.0.0, SVG Export Plug-In . SVG Version: 6.00 Build 0)  -->
<svg xmlns="http://www.w3.org/2000/svg" xmlns:xlink="http://www.w3.org/1999/xlink" version="1.1" id="Capa_1" x="0px" y="0px" viewBox="0 0 512 512" style="enable-background:new 0 0 512 512;" xml:space="preserve">
<g>
	<g>
		<path style="fill:#687492;" d="M273.356,43.39h-34.712V8.678c0-4.799,3.888-8.678,8.678-8.678h17.356    c4.79,0,8.678,3.879,8.678,8.678V43.39z"/>
		<polygon style="fill:#687492;" points="238.644,442.576 273.356,442.576 273.356,164.881 238.644,164.881   "/>
	</g>
	<path style="fill:#BEC1D1;" d="M290.712,433.898h-69.424c-19.17,0-34.712,15.542-34.712,34.712v17.356h138.847V468.61   C325.424,449.441,309.882,433.898,290.712,433.898"/>
	<path style="fill:#A5A5A4;" d="M351.458,251.661c-4.79,0-8.678-3.523-8.678-7.888V172.77c0-4.365,3.888-7.888,8.678-7.888   c4.79,0,8.678,3.523,8.678,7.888v71.003C360.136,248.138,356.248,251.661,351.458,251.661"/>
	<path style="fill:#95A5A5;" d="M336.538,312.407h29.835l-13.017-52.068h-3.801L336.538,312.407z M377.49,329.763h-52.068   c-2.673,0-5.189-1.232-6.838-3.341c-1.64-2.1-2.23-4.842-1.579-7.437l17.356-69.424c0.963-3.862,4.434-6.578,8.418-6.578h17.356   c3.983,0,7.454,2.716,8.418,6.578l17.356,69.424c0.651,2.595,0.069,5.337-1.579,7.437   C382.688,328.53,380.163,329.763,377.49,329.763L377.49,329.763z"/>
	<path style="fill:#687492;" d="M360.136,503.322H151.864c0-19.17,15.542-34.712,34.712-34.712h138.847   C344.593,468.61,360.136,484.152,360.136,503.322"/>
	<g>
		<polygon style="fill:#BEC1D1;" points="160.542,34.712 351.458,34.712 403.525,173.559 108.475,173.559   "/>
		<path style="fill:#BEC1D1;" d="M386.169,512H125.831c-4.79,0-8.678-3.879-8.678-8.678c0-4.799,3.888-8.678,8.678-8.678h260.339    c4.79,0,8.678,3.879,8.678,8.678C394.847,508.121,390.96,512,386.169,512"/>
	</g>
</g>
<g>
</g>
<g>
</g>
<g>
</g>
<g>
</g>
<g>
</g>
<g>
</g>
<g>
</g>
<g>
</g>
<g>
</g>
<g>
</g>
<g>
</g>
<g>
</g>
<g>
</g>
<g>
</g>
<g>
</g>
</svg>
