<?xml version="1.0" encoding="iso-8859-1"?>
<!-- Generator: Adobe Illustrator 19.0.0, SVG Export Plug-In . SVG Version: 6.00 Build 0)  -->
<svg xmlns="http://www.w3.org/2000/svg" xmlns:xlink="http://www.w3.org/1999/xlink" version="1.1" id="Capa_1" x="0px" y="0px" viewBox="0 0 512 512" style="enable-background:new 0 0 512 512;" xml:space="preserve">
<g>
	<g>
		<polygon style="fill:#72503F;" points="26.483,203.034 308.966,203.034 308.966,141.241 26.483,141.241   "/>
		<polygon style="fill:#72503F;" points="432.552,203.034 476.69,203.034 476.69,141.241 432.552,141.241   "/>
		<polygon style="fill:#72503F;" points="26.483,450.207 308.966,450.207 308.966,388.414 26.483,388.414   "/>
		<polygon style="fill:#72503F;" points="432.552,450.207 476.69,450.207 476.69,388.414 432.552,388.414   "/>
	</g>
	<g>
		<path style="fill:#C7BFB7;" d="M203.034,97.103h-52.966c-14.627,0-26.483-11.855-26.483-26.483s11.855-26.483,26.483-26.483    h52.966c14.566,0,26.483,11.917,26.483,26.483S217.6,97.103,203.034,97.103"/>
		<path style="fill:#C7BFB7;" d="M203.034,344.276h-52.966c-14.627,0-26.483-11.855-26.483-26.483    c0-14.627,11.855-26.483,26.483-26.483h52.966c14.566,0,26.483,11.917,26.483,26.483    C229.517,332.359,217.6,344.276,203.034,344.276"/>
	</g>
	<g>
		<polygon style="fill:#4F3022;" points="0,512 35.31,512 35.31,0 0,0   "/>
		<polygon style="fill:#4F3022;" points="467.862,512 512,512 512,0 467.862,0   "/>
	</g>
	<g>
		<polygon style="fill:#F7F0E8;" points="79.448,141.241 432.552,141.241 432.552,97.103 79.448,97.103   "/>
		<polygon style="fill:#F7F0E8;" points="79.448,388.414 308.966,388.414 308.966,344.276 79.448,344.276   "/>
	</g>
	<g>
		<path style="fill:#8697CB;" d="M317.793,432.552h105.931v-291.31H317.793V432.552z M432.552,450.207H308.966    c-4.882,0-8.828-3.946-8.828-8.828V132.414c0-4.882,3.946-8.828,8.828-8.828h123.586c4.882,0,8.828,3.946,8.828,8.828v308.966    C441.379,446.261,437.433,450.207,432.552,450.207L432.552,450.207z"/>
		<path style="fill:#8697CB;" d="M432.552,185.379H308.966c-4.882,0-8.828-3.946-8.828-8.828s3.946-8.828,8.828-8.828h123.586    c4.882,0,8.828,3.946,8.828,8.828S437.433,185.379,432.552,185.379"/>
		<path style="fill:#8697CB;" d="M432.552,229.517H308.966c-4.882,0-8.828-3.946-8.828-8.828s3.946-8.828,8.828-8.828h123.586    c4.882,0,8.828,3.946,8.828,8.828S437.433,229.517,432.552,229.517"/>
		<path style="fill:#8697CB;" d="M432.552,273.655H308.966c-4.882,0-8.828-3.946-8.828-8.828s3.946-8.828,8.828-8.828h123.586    c4.882,0,8.828,3.946,8.828,8.828S437.433,273.655,432.552,273.655"/>
		<path style="fill:#8697CB;" d="M432.552,317.793H308.966c-4.882,0-8.828-3.946-8.828-8.828c0-4.882,3.946-8.828,8.828-8.828    h123.586c4.882,0,8.828,3.946,8.828,8.828C441.379,313.847,437.433,317.793,432.552,317.793"/>
		<path style="fill:#8697CB;" d="M432.552,361.931H308.966c-4.882,0-8.828-3.946-8.828-8.828c0-4.882,3.946-8.828,8.828-8.828    h123.586c4.882,0,8.828,3.946,8.828,8.828C441.379,357.985,437.433,361.931,432.552,361.931"/>
		<path style="fill:#8697CB;" d="M432.552,406.069H308.966c-4.882,0-8.828-3.946-8.828-8.828c0-4.882,3.946-8.828,8.828-8.828    h123.586c4.882,0,8.828,3.946,8.828,8.828C441.379,402.123,437.433,406.069,432.552,406.069"/>
	</g>
</g>
<g>
</g>
<g>
</g>
<g>
</g>
<g>
</g>
<g>
</g>
<g>
</g>
<g>
</g>
<g>
</g>
<g>
</g>
<g>
</g>
<g>
</g>
<g>
</g>
<g>
</g>
<g>
</g>
<g>
</g>
</svg>
