<?xml version="1.0" encoding="iso-8859-1"?>
<!-- Generator: Adobe Illustrator 19.0.0, SVG Export Plug-In . SVG Version: 6.00 Build 0)  -->
<svg xmlns="http://www.w3.org/2000/svg" xmlns:xlink="http://www.w3.org/1999/xlink" version="1.1" id="Capa_1" x="0px" y="0px" viewBox="0 0 512 512" style="enable-background:new 0 0 512 512;" xml:space="preserve">
<g transform="translate(1)">
	<path style="fill:#24AE5F;" d="M164.9,102.5c17.5-0.5,34.2-2.3,49.5-5.3c0.4-1.9,0.6-3.9,0.6-6c0-15.7-12.7-28.4-28.4-28.4   c-7.9,0-15.1,3.2-20.2,8.5c2,4.4,3.2,9.2,3.2,14.3C169.5,91.7,167.8,97.5,164.9,102.5"/>
	<path style="fill:#F2DB60;" d="M124.6,97.1c12.7,1.6,26.1,2.4,39.9,2.4c3.3,0,6.5-0.1,9.7-0.1c2.9-5,4.5-10.8,4.5-16.9   c0-18.9-15.3-34.1-34.1-34.1c-9.8,0-18.5,4.1-24.8,10.7c4.8,6.6,7.7,14.7,7.7,23.4C127.5,87.7,126.4,92.6,124.6,97.1"/>
	<path style="fill:#E57E25;" d="M169.7,99.6c-46.8,0-88.4-9.6-115-24.4c-14.5-8.1-33.3-5.1-42.8,8.6c-2.9,4.1-4.4,8.5-4.4,13   c0,26.7,53.5,48.3,119.5,48.3s119.5-21.6,119.5-48.3c0-2.2-0.5-4.3-1.1-6.3C223.3,96.2,197.4,99.6,169.7,99.6"/>
	<path style="fill:#24AE5F;" d="M54.7,75.1c18.7,10.5,44.9,18.3,75.2,22c1.8-4.5,2.8-9.5,2.8-14.7c0-22-17.8-39.8-39.8-39.8   c-19.3,0-35.5,13.8-39.1,32.1C54.1,74.9,54.4,75,54.7,75.1"/>
	<g>
		<path style="fill:#BDC3C7;" d="M485.4,145.1h-68.3V55.8c0-7.3,5.9-13.1,13.1-13.1h42c7.3,0,13.1,5.9,13.1,13.1v89.3H485.4z"/>
		<path style="fill:#BDC3C7;" d="M280.6,145.1V89.9c0-7.3,5.9-13.1,13.1-13.1h76.1c7.3,0,13.1,5.9,13.1,13.1V145H280.6V145.1z"/>
	</g>
	<g>
		<path style="fill:#492B1D;" d="M476.9,401.1c4.5,7.3,7.5,15.8,5.7,24.8c0,0.2-0.1,0.4-0.1,0.7c-3.1,15.8-1.2,28.7,10.9,42.1    l0.7,0.7h-5.6c-28.1,0-39.5-30-38.9-43.4c0.5-10.3-2.6-18.5-6.7-24.8h34V401.1z"/>
		<path style="fill:#492B1D;" d="M33.1,401.1c-4.5,7.3-7.5,15.8-5.7,24.8c0,0.2,0.1,0.4,0.1,0.7c3.1,15.8,1.2,28.7-10.9,42.1    l-0.7,0.7h5.6c28.1,0,39.5-30,38.9-43.4c-0.5-10.3,2.6-18.5,6.7-24.8h-34V401.1z"/>
	</g>
	<g>
		<polygon style="fill:#996E5A;" points="7.5,401.1 178.2,401.1 178.2,145.1 7.5,145.1   "/>
		<polygon style="fill:#996E5A;" points="178.2,401.1 348.9,401.1 348.9,145.1 178.2,145.1   "/>
	</g>
	<g>
		<path style="fill:#DEC150;" d="M220.9,290.1c-4.7,0-8.5-3.8-8.5-8.5V256c0-4.7,3.8-8.5,8.5-8.5s8.5,3.8,8.5,8.5v25.6    C229.4,286.3,225.6,290.1,220.9,290.1"/>
		<path style="fill:#DEC150;" d="M135.5,290.1c-4.7,0-8.5-3.8-8.5-8.5V256c0-4.7,3.8-8.5,8.5-8.5s8.5,3.8,8.5,8.5v25.6    C144.1,286.3,140.3,290.1,135.5,290.1"/>
	</g>
	<g>
		<polygon style="fill:#996E5A;" points="348.9,230.4 502.5,230.4 502.5,145.1 348.9,145.1   "/>
		<polygon style="fill:#996E5A;" points="348.9,401.1 502.5,401.1 502.5,315.7 348.9,315.7   "/>
		<polygon style="fill:#996E5A;" points="348.9,315.7 502.5,315.7 502.5,230.4 348.9,230.4   "/>
	</g>
	<path style="fill:#8A5B46;" d="M502.5,136.6H348.9H178.2H7.5c-4.7,0-8.5,3.8-8.5,8.5v256c0,4.7,3.8,8.5,8.5,8.5h170.7h170.7h153.6   c4.7,0,8.5-3.8,8.5-8.5v-85.3v-85.3v-85.3C511,140.4,507.2,136.6,502.5,136.6z M357.4,238.9H494v68.3H357.4V238.9z M494,221.9   H357.4v-68.3H494V221.9z M16,153.6h153.7v239H16V153.6z M186.7,153.6h153.7v76.8v85.3v76.8H186.7V153.6z M494,392.6H357.4v-68.3   H494V392.6z"/>
	<g>
		<path style="fill:#DEC150;" d="M246.5,264.5h-25.6c-4.7,0-8.5-3.8-8.5-8.5c0-4.7,3.8-8.5,8.5-8.5h25.6c4.7,0,8.5,3.8,8.5,8.5    C255,260.7,251.2,264.5,246.5,264.5"/>
		<path style="fill:#DEC150;" d="M442.7,281.6h-34.1c-4.7,0-8.5-3.8-8.5-8.5s3.8-8.5,8.5-8.5h34.1c4.7,0,8.5,3.8,8.5,8.5    C451.3,277.8,447.5,281.6,442.7,281.6"/>
		<path style="fill:#DEC150;" d="M442.7,196.3h-34.1c-4.7,0-8.5-3.8-8.5-8.5s3.8-8.5,8.5-8.5h34.1c4.7,0,8.5,3.8,8.5,8.5    C451.3,192.4,447.5,196.3,442.7,196.3"/>
		<path style="fill:#DEC150;" d="M442.7,366.9h-34.1c-4.7,0-8.5-3.8-8.5-8.5s3.8-8.5,8.5-8.5h34.1c4.7,0,8.5,3.8,8.5,8.5    C451.3,363.1,447.5,366.9,442.7,366.9"/>
		<path style="fill:#DEC150;" d="M135.5,264.5h-25.6c-4.7,0-8.5-3.8-8.5-8.5c0-4.7,3.8-8.5,8.5-8.5h25.6c4.7,0,8.5,3.8,8.5,8.5    C144.1,260.7,140.3,264.5,135.5,264.5"/>
	</g>
</g>
<g>
</g>
<g>
</g>
<g>
</g>
<g>
</g>
<g>
</g>
<g>
</g>
<g>
</g>
<g>
</g>
<g>
</g>
<g>
</g>
<g>
</g>
<g>
</g>
<g>
</g>
<g>
</g>
<g>
</g>
</svg>
