<?xml version="1.0" encoding="iso-8859-1"?>
<!-- Generator: Adobe Illustrator 19.0.0, SVG Export Plug-In . SVG Version: 6.00 Build 0)  -->
<svg xmlns="http://www.w3.org/2000/svg" xmlns:xlink="http://www.w3.org/1999/xlink" version="1.1" id="Capa_1" x="0px" y="0px" viewBox="0 0 512 512" style="enable-background:new 0 0 512 512;" xml:space="preserve">
<g>
	<g>
		<polygon style="fill:#72503F;" points="459.034,375.172 459.034,392.828 476.69,454.621 512,454.621 512,392.828 512,375.172       "/>
		<polygon style="fill:#72503F;" points="52.966,375.172 52.966,392.828 35.31,454.621 0,454.621 0,392.828 0,375.172   "/>
		<polygon style="fill:#72503F;" points="52.966,348.69 459.034,348.69 459.034,260.414 52.966,260.414   "/>
	</g>
	<polygon style="fill:#F7F0E8;" points="52.966,260.414 459.034,260.414 459.034,216.276 52.966,216.276  "/>
	<path style="fill:#F3D55B;" d="M132.414,216.276H52.966V163.31h79.448c14.566,0,26.483,11.917,26.483,26.483   C158.897,204.359,146.979,216.276,132.414,216.276"/>
	<g>
		<path style="fill:#4F3022;" d="M52.966,392.828H0V57.379c29.246,0,52.966,23.72,52.966,52.966V392.828z"/>
		<path style="fill:#4F3022;" d="M459.034,392.828H512V163.31c-29.246,0-52.966,23.72-52.966,52.966V392.828z"/>
		<polygon style="fill:#4F3022;" points="379.586,304.552 459.034,304.552 459.034,286.897 379.586,286.897   "/>
		<polygon style="fill:#4F3022;" points="273.655,322.207 344.276,322.207 344.276,304.552 273.655,304.552   "/>
		<polygon style="fill:#4F3022;" points="167.724,304.552 238.345,304.552 238.345,286.897 167.724,286.897   "/>
		<polygon style="fill:#4F3022;" points="52.966,322.207 132.414,322.207 132.414,304.552 52.966,304.552   "/>
	</g>
	<g>
		<polygon style="fill:#72503F;" points="0,136.828 26.483,136.828 26.483,119.172 0,119.172   "/>
		<polygon style="fill:#72503F;" points="26.483,189.793 52.966,189.793 52.966,172.138 26.483,172.138   "/>
		<polygon style="fill:#72503F;" points="0,242.759 26.483,242.759 26.483,225.103 0,225.103   "/>
		<polygon style="fill:#72503F;" points="0,348.69 26.483,348.69 26.483,331.034 0,331.034   "/>
		<polygon style="fill:#72503F;" points="459.034,242.759 485.517,242.759 485.517,225.103 459.034,225.103   "/>
		<polygon style="fill:#72503F;" points="485.517,295.724 512,295.724 512,278.069 485.517,278.069   "/>
	</g>
</g>
<g>
</g>
<g>
</g>
<g>
</g>
<g>
</g>
<g>
</g>
<g>
</g>
<g>
</g>
<g>
</g>
<g>
</g>
<g>
</g>
<g>
</g>
<g>
</g>
<g>
</g>
<g>
</g>
<g>
</g>
</svg>
