<?xml version="1.0" encoding="iso-8859-1"?>
<!-- Generator: Adobe Illustrator 19.0.0, SVG Export Plug-In . SVG Version: 6.00 Build 0)  -->
<svg xmlns="http://www.w3.org/2000/svg" xmlns:xlink="http://www.w3.org/1999/xlink" version="1.1" id="Capa_1" x="0px" y="0px" viewBox="0 0 512 512" style="enable-background:new 0 0 512 512;" xml:space="preserve">
<g>
	<polygon style="fill:#F18D46;" points="344.276,384 414.897,384 414.897,57.379 344.276,57.379  "/>
	<polygon style="fill:#F0C419;" points="414.897,384 485.517,384 485.517,111.819 414.897,111.819  "/>
	<polygon style="fill:#88C057;" points="26.483,384 256,384 256,304.552 26.483,304.552  "/>
	<g>
		<polygon style="fill:#6B4A3A;" points="88.276,454.621 44.138,454.621 26.483,410.483 105.931,410.483   "/>
		<polygon style="fill:#6B4A3A;" points="423.724,454.621 467.862,454.621 485.517,410.483 406.069,410.483   "/>
	</g>
	<polygon style="fill:#966F58;" points="0,419.31 512,419.31 512,375.172 0,375.172  "/>
	<polygon style="fill:#C16B30;" points="344.276,136.828 414.897,136.828 414.897,101.517 344.276,101.517  "/>
	<polygon style="fill:#CCA119;" points="414.897,189.793 485.517,189.793 485.517,154.483 414.897,154.483  "/>
	<polygon style="fill:#4C8056;" points="70.621,375.172 105.931,375.172 105.931,304.552 70.621,304.552  "/>
	<path style="fill:#C16B30;" d="M379.586,339.862c-4.873,0-8.828-3.946-8.828-8.828V180.966c0-4.882,3.955-8.828,8.828-8.828   s8.828,3.946,8.828,8.828v150.069C388.414,335.916,384.459,339.862,379.586,339.862"/>
	<path style="fill:#CCA119;" d="M450.207,339.862c-4.873,0-8.828-3.946-8.828-8.828v-97.103c0-4.882,3.955-8.828,8.828-8.828   c4.873,0,8.828,3.946,8.828,8.828v97.103C459.034,335.916,455.08,339.862,450.207,339.862"/>
	<path style="fill:#4C8056;" d="M211.862,348.69h-61.793c-4.873,0-8.828-3.946-8.828-8.828c0-4.882,3.955-8.828,8.828-8.828h61.793   c4.873,0,8.828,3.946,8.828,8.828C220.69,344.744,216.735,348.69,211.862,348.69"/>
	<polygon style="fill:#E64C3C;" points="70.621,304.552 300.138,304.552 300.138,233.931 70.621,233.931  "/>
	<g>
		<polygon style="fill:#C03A2B;" points="220.69,304.552 256,304.552 256,233.931 220.69,233.931   "/>
		<path style="fill:#C03A2B;" d="M176.552,278.069h-61.793c-4.873,0-8.828-3.946-8.828-8.828c0-4.882,3.955-8.828,8.828-8.828    h61.793c4.873,0,8.828,3.946,8.828,8.828C185.379,274.123,181.425,278.069,176.552,278.069"/>
	</g>
	<polygon style="fill:#8697CB;" points="52.966,233.931 282.483,233.931 282.483,163.31 52.966,163.31  "/>
	<g>
		<polygon style="fill:#5A6E9E;" points="97.103,233.931 132.414,233.931 132.414,163.31 97.103,163.31   "/>
		<path style="fill:#5A6E9E;" d="M238.345,207.448h-61.793c-4.873,0-8.828-3.946-8.828-8.828s3.955-8.828,8.828-8.828h61.793    c4.873,0,8.828,3.946,8.828,8.828S243.218,207.448,238.345,207.448"/>
	</g>
</g>
<g>
</g>
<g>
</g>
<g>
</g>
<g>
</g>
<g>
</g>
<g>
</g>
<g>
</g>
<g>
</g>
<g>
</g>
<g>
</g>
<g>
</g>
<g>
</g>
<g>
</g>
<g>
</g>
<g>
</g>
</svg>
