<?xml version="1.0" encoding="iso-8859-1"?>
<!-- Generator: Adobe Illustrator 19.0.0, SVG Export Plug-In . SVG Version: 6.00 Build 0)  -->
<svg xmlns="http://www.w3.org/2000/svg" xmlns:xlink="http://www.w3.org/1999/xlink" version="1.1" id="Capa_1" x="0px" y="0px" viewBox="0 0 512 512" style="enable-background:new 0 0 512 512;" xml:space="preserve">
<g>
	<polygon style="fill:#E64C3C;" points="397.241,384 467.862,384 467.862,57.379 397.241,57.379  "/>
	<polygon style="fill:#955BA5;" points="35.31,384 105.931,384 105.931,57.379 35.31,57.379  "/>
	<polygon style="fill:#88C057;" points="105.931,384 176.552,384 176.552,111.819 105.931,111.819  "/>
	<g>
		<polygon style="fill:#6B4A3A;" points="88.276,454.621 44.138,454.621 26.483,410.483 105.931,410.483   "/>
		<polygon style="fill:#6B4A3A;" points="423.724,454.621 467.862,454.621 485.517,410.483 406.069,410.483   "/>
	</g>
	<polygon style="fill:#966F58;" points="0,419.31 512,419.31 512,375.172 0,375.172  "/>
	<polygon style="fill:#643872;" points="35.31,136.828 105.931,136.828 105.931,101.517 35.31,101.517  "/>
	<polygon style="fill:#4C8056;" points="105.931,189.793 176.552,189.793 176.552,154.483 105.931,154.483  "/>
	<polygon style="fill:#C03A2B;" points="397.241,136.828 467.862,136.828 467.862,101.517 397.241,101.517  "/>
	<path style="fill:#643872;" d="M70.621,339.862c-4.873,0-8.828-3.946-8.828-8.828V180.966c0-4.882,3.955-8.828,8.828-8.828   s8.828,3.946,8.828,8.828v150.069C79.448,335.916,75.494,339.862,70.621,339.862"/>
	<path style="fill:#4C8056;" d="M141.241,339.862c-4.873,0-8.828-3.946-8.828-8.828v-97.103c0-4.882,3.955-8.828,8.828-8.828   s8.828,3.946,8.828,8.828v97.103C150.069,335.916,146.114,339.862,141.241,339.862"/>
	<polygon style="fill:#F3D55B;" points="353.103,345.784 289.033,375.172 176.552,139.731 240.622,110.344  "/>
	<g>
		<polygon style="fill:#CEB446;" points="274.367,180.974 210.296,210.37 195.298,178.97 259.369,149.583   "/>
		<path style="fill:#CEB446;" d="M302.327,330.069c-3.293,0-6.453-1.854-7.971-5.023l-41.242-86.334    c-2.101-4.396-0.238-9.657,4.158-11.767c4.405-2.101,9.666-0.238,11.767,4.167l41.251,86.325    c2.101,4.396,0.238,9.666-4.158,11.767C304.905,329.795,303.607,330.069,302.327,330.069"/>
	</g>
	<path style="fill:#C03A2B;" d="M432.552,339.862c-4.873,0-8.828-3.946-8.828-8.828V180.966c0-4.882,3.955-8.828,8.828-8.828   s8.828,3.946,8.828,8.828v150.069C441.379,335.916,437.425,339.862,432.552,339.862"/>
</g>
<g>
</g>
<g>
</g>
<g>
</g>
<g>
</g>
<g>
</g>
<g>
</g>
<g>
</g>
<g>
</g>
<g>
</g>
<g>
</g>
<g>
</g>
<g>
</g>
<g>
</g>
<g>
</g>
<g>
</g>
</svg>
