<?xml version="1.0" encoding="iso-8859-1"?>
<!-- Generator: Adobe Illustrator 19.0.0, SVG Export Plug-In . SVG Version: 6.00 Build 0)  -->
<svg xmlns="http://www.w3.org/2000/svg" xmlns:xlink="http://www.w3.org/1999/xlink" version="1.1" id="Capa_1" x="0px" y="0px" viewBox="0 0 512 512" style="enable-background:new 0 0 512 512;" xml:space="preserve">
<g>
	<polygon style="fill:#F3D55B;" points="414.897,397.241 450.207,397.241 450.207,282.483 414.897,282.483  "/>
	<polygon style="fill:#25C3AB;" points="379.586,397.241 414.897,397.241 414.897,282.483 379.586,282.483  "/>
	<polygon style="fill:#F18D46;" points="88.276,397.241 220.69,397.241 220.69,353.103 88.276,353.103  "/>
	<polygon style="fill:#25C3AB;" points="88.276,132.414 123.586,132.414 123.586,17.655 88.276,17.655  "/>
	<polygon style="fill:#4C8056;" points="123.586,132.414 158.897,132.414 158.897,17.655 123.586,17.655  "/>
	<polygon style="fill:#88C057;" points="158.897,132.414 194.207,132.414 194.207,17.655 158.897,17.655  "/>
	<polygon style="fill:#13A085;" points="52.966,132.414 88.276,132.414 88.276,17.655 52.966,17.655  "/>
	<g>
		<path style="fill:#6B4A3A;" d="M35.31,141.241v17.655c-4.634,7.601-7.751,16.375-5.888,25.679c0.053,0.23,0.097,0.459,0.141,0.68    c3.187,16.331,1.201,29.705-11.229,43.502l-0.68,0.759h5.817c29.078,0,40.872-31.029,40.201-44.941    c-0.521-10.673,2.657-19.138,6.947-25.679v-17.655H35.31z"/>
		<path style="fill:#6B4A3A;" d="M476.69,141.241v17.655c4.634,7.601,7.751,16.375,5.888,25.679c-0.053,0.23-0.097,0.459-0.141,0.68    c-3.187,16.34-1.201,29.705,11.229,43.502l0.68,0.759h-5.817c-29.078,0-40.872-31.029-40.201-44.941    c0.512-10.673-2.657-19.138-6.947-25.679v-17.655H476.69z"/>
		<path style="fill:#6B4A3A;" d="M35.31,406.069v17.655c-4.634,7.601-7.751,16.375-5.888,25.679c0.053,0.23,0.097,0.459,0.141,0.68    c3.187,16.331,1.201,29.705-11.229,43.502l-0.68,0.759h5.817c29.078,0,40.872-31.029,40.201-44.941    c-0.521-10.673,2.657-19.138,6.947-25.679v-17.655H35.31z"/>
		<path style="fill:#6B4A3A;" d="M476.69,406.069v17.655c4.634,7.601,7.751,16.375,5.888,25.679c-0.053,0.23-0.097,0.459-0.141,0.68    c-3.187,16.331-1.201,29.705,11.229,43.502l0.68,0.759h-5.817c-29.078,0-40.872-31.029-40.201-44.941    c0.512-10.673-2.657-19.138-6.947-25.679v-17.655H476.69z"/>
	</g>
	<polygon style="fill:#966F58;" points="0,423.724 512,423.724 512,388.414 0,388.414  "/>
	<polygon style="fill:#955BA5;" points="344.276,388.414 308.966,388.414 344.276,300.138 379.586,300.138  "/>
	<polygon style="fill:#F3D55B;" points="52.966,353.103 185.379,353.103 185.379,317.793 52.966,317.793  "/>
	<g>
		<polygon style="fill:#E64C3C;" points="97.103,317.793 229.517,317.793 229.517,282.483 97.103,282.483   "/>
		<polygon style="fill:#E64C3C;" points="326.621,132.414 459.034,132.414 459.034,88.276 326.621,88.276   "/>
	</g>
	<polygon style="fill:#F3D55B;" points="291.31,88.276 423.724,88.276 423.724,52.966 291.31,52.966  "/>
	<polygon style="fill:#955BA5;" points="335.448,52.966 467.862,52.966 467.862,17.655 335.448,17.655  "/>
	<polygon style="fill:#966F58;" points="0,158.897 512,158.897 512,123.586 0,123.586  "/>
</g>
<g>
</g>
<g>
</g>
<g>
</g>
<g>
</g>
<g>
</g>
<g>
</g>
<g>
</g>
<g>
</g>
<g>
</g>
<g>
</g>
<g>
</g>
<g>
</g>
<g>
</g>
<g>
</g>
<g>
</g>
</svg>
