<?xml version="1.0" encoding="iso-8859-1"?>
<!-- Generator: Adobe Illustrator 19.0.0, SVG Export Plug-In . SVG Version: 6.00 Build 0)  -->
<svg xmlns="http://www.w3.org/2000/svg" xmlns:xlink="http://www.w3.org/1999/xlink" version="1.1" id="Capa_1" x="0px" y="0px" viewBox="0 0 512 512" style="enable-background:new 0 0 512 512;" xml:space="preserve">
<g>
	<g>
		<polygon style="fill:#6B4A3A;" points="247.172,247.172 300.138,247.172 300.138,194.207 247.172,194.207   "/>
		<polygon style="fill:#6B4A3A;" points="35.31,247.172 88.276,247.172 88.276,194.207 35.31,194.207   "/>
	</g>
	<polygon style="fill:#E64C3C;" points="88.276,167.724 220.69,167.724 220.69,105.931 88.276,105.931  "/>
	<polygon style="fill:#966F58;" points="176.552,476.69 512,476.69 512,423.724 176.552,423.724  "/>
	<g>
		<polygon style="fill:#6B4A3A;" points="423.724,512 476.69,512 476.69,476.69 423.724,476.69   "/>
		<polygon style="fill:#6B4A3A;" points="211.862,512 264.828,512 264.828,476.69 211.862,476.69   "/>
	</g>
	<polygon style="fill:#966F58;" points="0,211.862 335.448,211.862 335.448,158.897 0,158.897  "/>
	<polygon style="fill:#88C057;" points="388.414,423.724 441.379,423.724 441.379,291.31 388.414,291.31  "/>
	<polygon style="fill:#24AE5F;" points="335.448,423.724 388.414,423.724 388.414,291.31 335.448,291.31  "/>
	<polygon style="fill:#F3D55B;" points="52.966,105.931 185.379,105.931 185.379,52.966 52.966,52.966  "/>
	<polygon style="fill:#13A085;" points="97.103,52.966 229.517,52.966 229.517,0 97.103,0  "/>
	<polygon style="fill:#8697CB;" points="300.138,423.724 247.172,423.724 282.483,308.966 335.448,308.966  "/>
</g>
<g>
</g>
<g>
</g>
<g>
</g>
<g>
</g>
<g>
</g>
<g>
</g>
<g>
</g>
<g>
</g>
<g>
</g>
<g>
</g>
<g>
</g>
<g>
</g>
<g>
</g>
<g>
</g>
<g>
</g>
</svg>
