<?xml version="1.0" encoding="iso-8859-1"?>
<!-- Generator: Adobe Illustrator 19.0.0, SVG Export Plug-In . SVG Version: 6.00 Build 0)  -->
<svg xmlns="http://www.w3.org/2000/svg" xmlns:xlink="http://www.w3.org/1999/xlink" version="1.1" id="Capa_1" x="0px" y="0px" viewBox="0 0 512 512" style="enable-background:new 0 0 512 512;" xml:space="preserve">
<g transform="translate(1)">
	<polygon style="fill:#F3D55B;" points="434.2,174.85 468.3,174.85 468.3,89.55 434.2,89.55  "/>
	<polygon style="fill:#24AE5F;" points="400.1,174.85 434.2,174.85 434.2,106.65 400.1,106.65  "/>
	<g>
		<polygon style="fill:#687492;" points="33.1,174.85 135.5,174.85 135.5,140.75 33.1,140.75   "/>
		<polygon style="fill:#687492;" points="246.5,174.85 280.6,174.85 280.6,140.75 246.5,140.75   "/>
	</g>
	<polygon style="fill:#38454F;" points="178.2,140.75 348.9,140.75 348.9,21.25 178.2,21.25  "/>
	<g>
		<polygon style="fill:#7F6E5D;" points="7.5,209.05 502.5,209.05 502.5,174.85 7.5,174.85   "/>
		<polygon style="fill:#7F6E5D;" points="24.6,482.05 75.8,482.05 75.8,209.05 24.6,209.05   "/>
		<polygon style="fill:#7F6E5D;" points="434.2,482.05 485.4,482.05 485.4,209.05 434.2,209.05   "/>
		<polygon style="fill:#7F6E5D;" points="263.5,209.05 263.5,277.25 297.7,277.25 434.2,277.25 434.2,209.05   "/>
	</g>
	<path style="fill:#F3D55B;" d="M374.5,251.65h-51.2c-4.7,0-8.5-3.8-8.5-8.5s3.8-8.5,8.5-8.5h51.2c4.7,0,8.5,3.8,8.5,8.5   S379.2,251.65,374.5,251.65"/>
	<polygon style="fill:#7F6E5D;" points="263.5,277.25 263.5,345.55 297.7,345.55 434.2,345.55 434.2,277.25  "/>
	<path style="fill:#F3D55B;" d="M374.5,319.95h-51.2c-4.7,0-8.5-3.8-8.5-8.5s3.8-8.5,8.5-8.5h51.2c4.7,0,8.5,3.8,8.5,8.5   S379.2,319.95,374.5,319.95"/>
	<polygon style="fill:#7F6E5D;" points="263.5,345.55 263.5,413.85 297.7,413.85 434.2,413.85 434.2,345.55  "/>
	<path style="fill:#56493F;" d="M502.5,166.35H7.5c-4.7,0-8.5,3.8-8.5,8.5v34.1c0,4.7,3.8,8.5,8.5,8.5h8.6v264.6   c0,4.7,3.8,8.5,8.5,8.5h51.2c4.7,0,8.5-3.8,8.5-8.5v-264.5H255v59.8v68.3v68.3c0,4.7,3.8,8.5,8.5,8.5h162.2v59.8   c0,4.7,3.8,8.5,8.5,8.5h51.2c4.7,0,8.5-3.8,8.5-8.5v-264.7h8.6c4.7,0,8.5-3.8,8.5-8.5v-34.1C511,170.15,507.2,166.35,502.5,166.35z    M67.3,473.55H33.1v-256h34.2V473.55z M272,285.75h153.7v51.3H272V285.75z M425.7,268.75H272v-51.3h153.7V268.75z M272,405.35   v-51.3h153.7v51.3H272z M476.9,473.55h-34.2v-59.8v-68.3v-68.3v-59.8h34.2V473.55z M494,200.55h-8.6h-51.2H263.5H75.8H24.6H16   v-17.1h478V200.55z"/>
	<path style="fill:#F3D55B;" d="M374.5,388.25h-51.2c-4.7,0-8.5-3.8-8.5-8.5s3.8-8.5,8.5-8.5h51.2c4.7,0,8.5,3.8,8.5,8.5   S379.2,388.25,374.5,388.25"/>
</g>
<g>
</g>
<g>
</g>
<g>
</g>
<g>
</g>
<g>
</g>
<g>
</g>
<g>
</g>
<g>
</g>
<g>
</g>
<g>
</g>
<g>
</g>
<g>
</g>
<g>
</g>
<g>
</g>
<g>
</g>
</svg>
