<?xml version="1.0" encoding="iso-8859-1"?>
<!-- Generator: Adobe Illustrator 19.0.0, SVG Export Plug-In . SVG Version: 6.00 Build 0)  -->
<svg xmlns="http://www.w3.org/2000/svg" xmlns:xlink="http://www.w3.org/1999/xlink" version="1.1" id="Capa_1" x="0px" y="0px" viewBox="0 0 512 512" style="enable-background:new 0 0 512 512;" xml:space="preserve">
<g>
	<g>
		<path style="fill:#A9AAA9;" d="M256,203.034c-4.882,0-8.828-3.946-8.828-8.828v-35.31c0-4.882,3.946-8.828,8.828-8.828    s8.828,3.946,8.828,8.828v35.31C264.828,199.089,260.882,203.034,256,203.034"/>
		<path style="fill:#A9AAA9;" d="M450.207,203.034c-4.882,0-8.828-3.946-8.828-8.828v-35.31c0-4.882,3.946-8.828,8.828-8.828    c4.882,0,8.828,3.946,8.828,8.828v35.31C459.034,199.089,455.089,203.034,450.207,203.034"/>
		<path style="fill:#A9AAA9;" d="M61.793,203.034c-4.882,0-8.828-3.946-8.828-8.828v-35.31c0-4.882,3.946-8.828,8.828-8.828    s8.828,3.946,8.828,8.828v35.31C70.621,199.089,66.675,203.034,61.793,203.034"/>
	</g>
	<polygon style="fill:#706B67;" points="35.31,388.414 476.69,388.414 476.69,229.517 35.31,229.517  "/>
	<g>
		<path style="fill:#C7BFB7;" d="M476.69,423.724c4.634,7.601,7.751,16.375,5.879,25.679c-0.044,0.23-0.088,0.459-0.132,0.68    c-3.187,16.34-1.192,29.705,11.229,43.502l0.68,0.759h-5.817c-29.078,0-40.872-31.029-40.201-44.941    c0.521-10.673-2.657-19.138-6.947-25.679H476.69z"/>
		<path style="fill:#C7BFB7;" d="M35.31,423.724c-4.634,7.601-7.751,16.375-5.879,25.679c0.044,0.23,0.088,0.459,0.132,0.68    c3.187,16.34,1.192,29.705-11.229,43.502l-0.68,0.759h5.817c29.078,0,40.872-31.029,40.201-44.941    c-0.521-10.673,2.657-19.138,6.947-25.679H35.31z"/>
	</g>
	<g>
		<polygon style="fill:#D1D4D1;" points="158.897,158.897 353.103,158.897 353.103,17.655 158.897,17.655   "/>
		<path style="fill:#D1D4D1;" d="M282.483,229.517h-52.966c-9.71,0-17.655-7.945-17.655-17.655c0-9.71,7.945-17.655,17.655-17.655    h52.966c9.71,0,17.655,7.945,17.655,17.655C300.138,221.572,292.193,229.517,282.483,229.517"/>
	</g>
	<g>
		<polygon style="fill:#A9AAA9;" points="158.897,132.414 353.103,132.414 353.103,114.759 158.897,114.759   "/>
		<polygon style="fill:#A9AAA9;" points="158.897,61.793 353.103,61.793 353.103,44.138 158.897,44.138   "/>
	</g>
	<polygon style="fill:#E64C3C;" points="353.103,388.414 432.552,388.414 432.552,361.931 353.103,361.931  "/>
	<polygon style="fill:#F3D55B;" points="335.448,361.931 414.897,361.931 414.897,335.448 335.448,335.448  "/>
	<polygon style="fill:#8697CB;" points="361.931,335.448 441.379,335.448 441.379,308.966 361.931,308.966  "/>
	<polygon style="fill:#24AE5F;" points="79.448,388.414 105.931,388.414 105.931,308.966 79.448,308.966  "/>
	<polygon style="fill:#88C057;" points="114.759,388.414 141.241,388.414 141.241,326.621 114.759,326.621  "/>
	<polygon style="fill:#D1D4D1;" points="185.379,388.414 291.31,388.414 291.31,317.793 185.379,317.793  "/>
	<path style="fill:#A9AAA9;" d="M247.172,361.931h-17.655c-4.882,0-8.828-3.946-8.828-8.828c0-4.882,3.946-8.828,8.828-8.828h17.655   c4.882,0,8.828,3.946,8.828,8.828C256,357.985,252.054,361.931,247.172,361.931"/>
	<path style="fill:#D1D4D1;" d="M454.181,158.897h-7.945c-12.438,0-22.51-10.081-22.51-22.51V48.949   c0-12.403,10.055-22.466,22.466-22.466h8.024c12.412,0,22.475,10.063,22.475,22.466v87.437   C476.691,148.815,466.61,158.897,454.181,158.897"/>
	<path style="fill:#A9AAA9;" d="M454.621,114.759h-8.828c-12.191,0-22.069-9.878-22.069-22.069s9.878-22.069,22.069-22.069h8.828   c12.191,0,22.069,9.878,22.069,22.069S466.812,114.759,454.621,114.759"/>
	<g>
		<path style="fill:#D1D4D1;" d="M476.69,229.517h-52.966v-26.483c0-4.882,3.946-8.828,8.828-8.828h35.31    c4.882,0,8.828,3.946,8.828,8.828V229.517z"/>
		<path style="fill:#D1D4D1;" d="M57.819,158.897h7.945c12.438,0,22.51-10.081,22.51-22.51V48.949    c0-12.403-10.055-22.466-22.466-22.466h-8.024c-12.412,0-22.475,10.063-22.475,22.466v87.437    C35.309,148.815,45.39,158.897,57.819,158.897"/>
	</g>
	<path style="fill:#A9AAA9;" d="M57.379,114.759h8.828c12.191,0,22.069-9.878,22.069-22.069s-9.878-22.069-22.069-22.069h-8.828   c-12.191,0-22.069,9.878-22.069,22.069S45.188,114.759,57.379,114.759"/>
	<path style="fill:#D1D4D1;" d="M35.31,229.517h52.966v-26.483c0-4.882-3.946-8.828-8.828-8.828h-35.31   c-4.882,0-8.828,3.946-8.828,8.828V229.517z"/>
	<polygon style="fill:#F7F0E8;" points="476.69,229.517 476.69,388.414 35.31,388.414 35.31,229.517 0,229.517 0,423.724    512,423.724 512,229.517  "/>
</g>
<g>
</g>
<g>
</g>
<g>
</g>
<g>
</g>
<g>
</g>
<g>
</g>
<g>
</g>
<g>
</g>
<g>
</g>
<g>
</g>
<g>
</g>
<g>
</g>
<g>
</g>
<g>
</g>
<g>
</g>
</svg>
