<?xml version="1.0" encoding="iso-8859-1"?>
<!-- Generator: Adobe Illustrator 19.0.0, SVG Export Plug-In . SVG Version: 6.00 Build 0)  -->
<svg xmlns="http://www.w3.org/2000/svg" xmlns:xlink="http://www.w3.org/1999/xlink" version="1.1" id="Capa_1" x="0px" y="0px" viewBox="0 0 510.5 510.5" style="enable-background:new 0 0 510.5 510.5;" xml:space="preserve">
<g transform="translate(1)">
	<polygon style="fill:#2C343F;" points="92.2,174.2 126.3,174.2 126.3,130.5 92.2,130.5  "/>
	<polygon style="fill:#88C057;" points="459.1,174.2 493.2,174.2 493.2,71.8 459.1,71.8  "/>
	<polygon style="fill:#F3D55B;" points="425,174.2 459.1,174.2 459.1,88.9 425,88.9  "/>
	<polygon style="fill:#464F5D;" points="23.9,140.1 194.6,140.1 194.6,20.6 23.9,20.6  "/>
	<polygon style="fill:#2C343F;" points="297,174.2 331.1,174.2 331.1,130.5 297,130.5  "/>
	<polygon style="fill:#464F5D;" points="228.7,140.1 399.4,140.1 399.4,20.6 228.7,20.6  "/>
	<g>
		<g>
			<rect x="26.2" y="213.1" style="fill:#996E5A;" width="46.7" height="263.6"/>
			<rect x="8.1" y="175.9" style="fill:#996E5A;" width="492.4" height="30.8"/>
			<rect x="350.7" y="210.9" style="fill:#996E5A;" width="131.5" height="131.5"/>
			<rect x="350.7" y="347.7" style="fill:#996E5A;" width="131.5" height="130.9"/>
		</g>
		<path style="fill:#8A5B46;" d="M501.8,166.5H6.8c-4.3,0-7.8,3.5-7.8,7.8v34.1c0,4.3,3.5,7.8,7.8,7.8h9.3v265.3    c0,4.3,3.5,7.8,7.8,7.8h51.2c4.3,0,7.8-3.5,7.8-7.8V216.1h256.8v128.8v136.5c0,4.7,3.8,8.5,8.5,8.5h136.5c4.7,0,8.5-3.8,8.5-8.5    V344.9V216.1h8.5c4.3,0,7.8-3.5,7.8-7.8v-34.1C509.5,170,506,166.5,501.8,166.5z M494,200.6H75.1H23.9h-9.3V182H494L494,200.6    L494,200.6z M476.2,336.4H356.7V216.9h119.5V336.4z M476.2,472.9H356.7V353.4h119.5V472.9z M67.3,473.7H31.7V216.1h35.6V473.7z"/>
	</g>
	<g>
		<path style="fill:#F0C419;" d="M442,396.1h-51.2c-4.7,0-8.5,3.8-8.5,8.5s3.8,8.5,8.5,8.5h17.1v8.5c0,4.7,3.8,8.5,8.5,8.5    s8.5-3.8,8.5-8.5v-8.5H442c4.7,0,8.5-3.8,8.5-8.5S446.8,396.1,442,396.1z"/>
		<path style="fill:#F0C419;" d="M442,259.6h-51.2c-4.7,0-8.5,3.8-8.5,8.5s3.8,8.5,8.5,8.5h17.1v8.5c0,4.7,3.8,8.5,8.5,8.5    s8.5-3.8,8.5-8.5v-8.5H442c4.7,0,8.5-3.8,8.5-8.5S446.8,259.6,442,259.6z"/>
	</g>
	<g>
		<polygon style="fill:#2C343F;" points="23.9,114.5 194.6,114.5 194.6,97.4 23.9,97.4   "/>
		<polygon style="fill:#2C343F;" points="228.7,114.5 399.4,114.5 399.4,97.4 228.7,97.4   "/>
	</g>
</g>
<g>
</g>
<g>
</g>
<g>
</g>
<g>
</g>
<g>
</g>
<g>
</g>
<g>
</g>
<g>
</g>
<g>
</g>
<g>
</g>
<g>
</g>
<g>
</g>
<g>
</g>
<g>
</g>
<g>
</g>
</svg>
