<?xml version="1.0" encoding="iso-8859-1"?>
<!-- Generator: Adobe Illustrator 19.0.0, SVG Export Plug-In . SVG Version: 6.00 Build 0)  -->
<svg xmlns="http://www.w3.org/2000/svg" xmlns:xlink="http://www.w3.org/1999/xlink" version="1.1" id="Capa_1" x="0px" y="0px" viewBox="0 0 512.004 512.004" style="enable-background:new 0 0 512.004 512.004;" xml:space="preserve">
<g>
	<path style="fill:#A9AAA9;" d="M26.486,494.347c-4.873,0-8.828-3.946-8.828-8.828V308.967c0-4.882,3.955-8.828,8.828-8.828   s8.828,3.946,8.828,8.828v176.552C35.314,490.401,31.359,494.347,26.486,494.347"/>
	<path style="fill:#2C343F;" d="M256.004,256.002c-4.873,0-8.828-3.946-8.828-8.828v-35.31c0-4.882,3.955-8.828,8.828-8.828   s8.828,3.946,8.828,8.828v35.31C264.831,252.056,260.876,256.002,256.004,256.002"/>
	<g>
		<polygon style="fill:#464F5D;" points="158.9,211.864 353.107,211.864 353.107,70.622 158.9,70.622   "/>
		<path style="fill:#464F5D;" d="M282.486,282.485h-52.966c-9.71,0-17.655-7.945-17.655-17.655c0-9.71,7.945-17.655,17.655-17.655    h52.966c9.71,0,17.655,7.945,17.655,17.655C300.141,274.54,292.197,282.485,282.486,282.485"/>
	</g>
	<g>
		<polygon style="fill:#2C343F;" points="158.9,185.381 353.107,185.381 353.107,167.726 158.9,167.726   "/>
		<polygon style="fill:#2C343F;" points="158.9,114.76 353.107,114.76 353.107,97.105 158.9,97.105   "/>
	</g>
	<polygon style="fill:#C7BFB7;" points="88.279,397.243 423.728,397.243 423.728,282.485 88.279,282.485  "/>
	<polygon style="fill:#B2AAA4;" points="88.279,512.002 423.728,512.002 423.728,397.243 88.279,397.243  "/>
	<polygon style="fill:#8697CB;" points="220.693,512.002 247.176,512.002 247.176,432.553 220.693,432.553  "/>
	<polygon style="fill:#24AE5F;" points="194.21,512.002 220.693,512.002 220.693,432.553 194.21,432.553  "/>
	<polygon style="fill:#88C057;" points="167.728,512.002 194.21,512.002 194.21,432.553 167.728,432.553  "/>
	<polygon style="fill:#F3D55B;" points="141.245,512.002 167.728,512.002 167.728,432.553 141.245,432.553  "/>
	<polygon style="fill:#E64C3C;" points="114.762,512.002 141.245,512.002 141.245,432.553 114.762,432.553  "/>
	<polygon style="fill:#88C057;" points="300.141,397.243 379.59,397.243 379.59,370.76 300.141,370.76  "/>
	<polygon style="fill:#E64C3C;" points="282.486,370.76 361.935,370.76 361.935,344.278 282.486,344.278  "/>
	<polygon style="fill:#8697CB;" points="308.969,344.278 388.417,344.278 388.417,317.795 308.969,317.795  "/>
	<polygon style="fill:#706B67;" points="114.762,397.243 220.693,397.243 220.693,326.622 114.762,326.622  "/>
	<g>
		<path style="fill:#D1D4D1;" d="M176.555,370.76H158.9c-4.873,0-8.828-3.946-8.828-8.828c0-4.882,3.955-8.828,8.828-8.828h17.655    c4.873,0,8.828,3.946,8.828,8.828C185.383,366.814,181.428,370.76,176.555,370.76"/>
		<path style="fill:#D1D4D1;" d="M30.499,308.967h-8.024C10.063,308.967,0,298.904,0,286.501V22.468    C0,10.065,10.063,0.002,22.475,0.002h8.024c12.412,0,22.466,10.063,22.466,22.466v264.033    C52.966,298.904,42.911,308.967,30.499,308.967"/>
	</g>
	<g>
		<path style="fill:#A9AAA9;" d="M30.9,88.278h-8.828c-12.191,0-22.069-9.878-22.069-22.069S9.882,44.14,22.072,44.14H30.9    c12.191,0,22.069,9.878,22.069,22.069S43.091,88.278,30.9,88.278"/>
		<path style="fill:#A9AAA9;" d="M30.9,176.553h-8.828c-12.191,0-22.069-9.878-22.069-22.069s9.878-22.069,22.069-22.069H30.9    c12.191,0,22.069,9.878,22.069,22.069S43.091,176.553,30.9,176.553"/>
		<path style="fill:#A9AAA9;" d="M30.9,264.829h-8.828c-12.191,0-22.069-9.878-22.069-22.069s9.878-22.069,22.069-22.069H30.9    c12.191,0,22.069,9.878,22.069,22.069S43.091,264.829,30.9,264.829"/>
	</g>
	<path style="fill:#D1D4D1;" d="M52.969,512.002H0.004V498.76c0-7.309,5.923-13.241,13.241-13.241h26.483   c7.318,0,13.241,5.932,13.241,13.241V512.002z"/>
	<path style="fill:#A9AAA9;" d="M485.521,494.347c-4.873,0-8.828-3.946-8.828-8.828V308.967c0-4.882,3.955-8.828,8.828-8.828   c4.873,0,8.828,3.946,8.828,8.828v176.552C494.348,490.401,490.394,494.347,485.521,494.347"/>
	<path style="fill:#D1D4D1;" d="M489.534,308.967h-8.024c-12.412,0-22.475-10.063-22.475-22.466V22.468   c0-12.403,10.063-22.466,22.475-22.466h8.024C501.945,0.002,512,10.065,512,22.468v264.033   C512,298.904,501.945,308.967,489.534,308.967"/>
	<g>
		<path style="fill:#A9AAA9;" d="M489.935,88.278h-8.828c-12.191,0-22.069-9.878-22.069-22.069s9.878-22.069,22.069-22.069h8.828    c12.191,0,22.069,9.878,22.069,22.069S502.125,88.278,489.935,88.278"/>
		<path style="fill:#A9AAA9;" d="M489.935,176.553h-8.828c-12.191,0-22.069-9.878-22.069-22.069s9.878-22.069,22.069-22.069h8.828    c12.191,0,22.069,9.878,22.069,22.069S502.125,176.553,489.935,176.553"/>
		<path style="fill:#A9AAA9;" d="M489.935,264.829h-8.828c-12.191,0-22.069-9.878-22.069-22.069s9.878-22.069,22.069-22.069h8.828    c12.191,0,22.069,9.878,22.069,22.069S502.125,264.829,489.935,264.829"/>
	</g>
	<g>
		<path style="fill:#D1D4D1;" d="M512.004,512.002h-52.966V498.76c0-7.309,5.923-13.241,13.241-13.241h26.483    c7.318,0,13.241,5.932,13.241,13.241V512.002z"/>
		<polygon style="fill:#D1D4D1;" points="308.969,512.002 361.935,512.002 361.935,476.691 308.969,476.691   "/>
	</g>
	<path style="fill:#A5A5A4;" d="M379.59,485.519h-88.276c-4.873,0-8.828-3.946-8.828-8.828c0-4.882,3.955-8.828,8.828-8.828h88.276   c4.873,0,8.828,3.946,8.828,8.828C388.417,481.573,384.463,485.519,379.59,485.519"/>
</g>
<g>
</g>
<g>
</g>
<g>
</g>
<g>
</g>
<g>
</g>
<g>
</g>
<g>
</g>
<g>
</g>
<g>
</g>
<g>
</g>
<g>
</g>
<g>
</g>
<g>
</g>
<g>
</g>
<g>
</g>
</svg>
