<?xml version="1.0" encoding="iso-8859-1"?>
<!-- Generator: Adobe Illustrator 19.0.0, SVG Export Plug-In . SVG Version: 6.00 Build 0)  -->
<svg xmlns="http://www.w3.org/2000/svg" xmlns:xlink="http://www.w3.org/1999/xlink" version="1.1" id="Capa_1" x="0px" y="0px" viewBox="0 0 512 512" style="enable-background:new 0 0 512 512;" xml:space="preserve">
<g>
	<path style="fill:#2C343F;" d="M256,290.133c-4.71,0-8.533-3.814-8.533-8.533v-34.133c0-4.719,3.823-8.533,8.533-8.533   c4.71,0,8.533,3.814,8.533,8.533V281.6C264.533,286.319,260.71,290.133,256,290.133"/>
	<polygon style="fill:#69432E;" points="8.533,494.933 128,494.933 128,375.467 8.533,375.467  "/>
	<path style="fill:#8A5B46;" d="M17.067,486.4h102.4V384h-102.4V486.4z M128,503.467H8.533c-4.71,0-8.533-3.814-8.533-8.533V375.467   c0-4.719,3.823-8.533,8.533-8.533H128c4.71,0,8.533,3.814,8.533,8.533v119.467C136.533,499.652,132.71,503.467,128,503.467   L128,503.467z"/>
	<polygon style="fill:#69432E;" points="8.533,375.467 128,375.467 128,256 8.533,256  "/>
	<path style="fill:#8A5B46;" d="M17.067,366.933h102.4v-102.4h-102.4V366.933z M128,384H8.533C3.823,384,0,380.186,0,375.467V256   c0-4.719,3.823-8.533,8.533-8.533H128c4.71,0,8.533,3.814,8.533,8.533v119.467C136.533,380.186,132.71,384,128,384L128,384z"/>
	<polygon style="fill:#69432E;" points="8.533,256 128,256 128,136.533 8.533,136.533  "/>
	<path style="fill:#8A5B46;" d="M17.067,247.467h102.4v-102.4h-102.4V247.467z M128,264.533H8.533C3.823,264.533,0,260.719,0,256   V136.533C0,131.814,3.823,128,8.533,128H128c4.71,0,8.533,3.814,8.533,8.533V256C136.533,260.719,132.71,264.533,128,264.533   L128,264.533z"/>
	<polygon style="fill:#69432E;" points="8.533,136.533 128,136.533 128,17.067 8.533,17.067  "/>
	<path style="fill:#8A5B46;" d="M17.067,128h102.4V25.6h-102.4V128z M128,145.067H8.533c-4.71,0-8.533-3.814-8.533-8.533V17.067   c0-4.719,3.823-8.533,8.533-8.533H128c4.71,0,8.533,3.814,8.533,8.533v119.467C136.533,141.252,132.71,145.067,128,145.067   L128,145.067z"/>
	<polygon style="fill:#69432E;" points="384,494.933 503.467,494.933 503.467,375.467 384,375.467  "/>
	<path style="fill:#8A5B46;" d="M392.533,486.4h102.4V384h-102.4V486.4z M503.467,503.467H384c-4.71,0-8.533-3.814-8.533-8.533   V375.467c0-4.719,3.823-8.533,8.533-8.533h119.467c4.719,0,8.533,3.814,8.533,8.533v119.467   C512,499.652,508.186,503.467,503.467,503.467L503.467,503.467z"/>
	<polygon style="fill:#69432E;" points="384,375.467 503.467,375.467 503.467,256 384,256  "/>
	<path style="fill:#8A5B46;" d="M392.533,366.933h102.4v-102.4h-102.4V366.933z M503.467,384H384c-4.71,0-8.533-3.814-8.533-8.533   V256c0-4.719,3.823-8.533,8.533-8.533h119.467c4.719,0,8.533,3.814,8.533,8.533v119.467C512,380.186,508.186,384,503.467,384   L503.467,384z"/>
	<polygon style="fill:#69432E;" points="384,256 503.467,256 503.467,136.533 384,136.533  "/>
	<path style="fill:#8A5B46;" d="M392.533,247.467h102.4v-102.4h-102.4V247.467z M503.467,264.533H384   c-4.71,0-8.533-3.814-8.533-8.533V136.533c0-4.719,3.823-8.533,8.533-8.533h119.467c4.719,0,8.533,3.814,8.533,8.533V256   C512,260.719,508.186,264.533,503.467,264.533L503.467,264.533z"/>
	<polygon style="fill:#69432E;" points="384,136.533 503.467,136.533 503.467,17.067 384,17.067  "/>
	<path style="fill:#8A5B46;" d="M392.533,128h102.4V25.6h-102.4V128z M503.467,145.067H384c-4.71,0-8.533-3.814-8.533-8.533V17.067   c0-4.719,3.823-8.533,8.533-8.533h119.467c4.719,0,8.533,3.814,8.533,8.533v119.467C512,141.252,508.186,145.067,503.467,145.067   L503.467,145.067z"/>
	<polygon style="fill:#F0C419;" points="42.667,366.933 93.867,366.933 93.867,341.333 42.667,341.333  "/>
	<polygon style="fill:#E64C3C;" points="42.667,341.333 93.867,341.333 93.867,315.733 42.667,315.733  "/>
	<polygon style="fill:#13A085;" points="42.667,315.733 93.867,315.733 93.867,290.133 42.667,290.133  "/>
	<polygon style="fill:#D1D4D1;" points="51.2,128 85.333,128 85.333,93.867 51.2,93.867  "/>
	<path style="fill:#A5A5A4;" d="M93.867,102.4h-51.2c-4.71,0-8.533-3.814-8.533-8.533c0-4.719,3.823-8.533,8.533-8.533h51.2   c4.71,0,8.533,3.814,8.533,8.533C102.4,98.586,98.577,102.4,93.867,102.4"/>
	<polygon style="fill:#88C057;" points="443.733,247.467 469.333,247.467 469.333,170.667 443.733,170.667  "/>
	<polygon style="fill:#E64C3C;" points="418.133,247.467 443.733,247.467 443.733,170.667 418.133,170.667  "/>
	<polygon style="fill:#25C3AB;" points="409.6,486.4 426.667,486.4 426.667,409.6 409.6,409.6  "/>
	<polygon style="fill:#F0C419;" points="435.2,486.4 452.267,486.4 452.267,409.6 435.2,409.6  "/>
	<polygon style="fill:#25C3AB;" points="460.8,486.4 477.867,486.4 477.867,409.6 460.8,409.6  "/>
	<g>
		<polygon style="fill:#464F5D;" points="162.133,247.467 349.867,247.467 349.867,110.933 162.133,110.933   "/>
		<path style="fill:#464F5D;" d="M281.6,315.733h-51.2c-9.387,0-17.067-7.68-17.067-17.067s7.68-17.067,17.067-17.067h51.2    c9.387,0,17.067,7.68,17.067,17.067S290.987,315.733,281.6,315.733"/>
	</g>
	<g>
		<polygon style="fill:#2C343F;" points="162.133,221.867 349.867,221.867 349.867,204.8 162.133,204.8   "/>
		<polygon style="fill:#2C343F;" points="162.133,153.6 349.867,153.6 349.867,136.533 162.133,136.533   "/>
	</g>
	<polygon style="fill:#69432E;" points="128,384 384,384 384,315.733 128,315.733  "/>
	<path style="fill:#8A5B46;" d="M136.533,375.467h238.933v-51.2H136.533V375.467z M384,392.533H128c-4.71,0-8.533-3.814-8.533-8.533   v-68.267c0-4.719,3.823-8.533,8.533-8.533h256c4.71,0,8.533,3.814,8.533,8.533V384C392.533,388.719,388.71,392.533,384,392.533   L384,392.533z"/>
	<path style="fill:#D1D4D1;" d="M315.733,384H196.267v-25.6c0-4.719,3.823-8.533,8.533-8.533h102.4c4.71,0,8.533,3.814,8.533,8.533   V384z"/>
	<polygon style="fill:#69432E;" points="128,494.933 384,494.933 384,384 128,384  "/>
	<path style="fill:#8A5B46;" d="M136.533,486.4h238.933v-93.867H136.533V486.4z M384,503.467H128c-4.71,0-8.533-3.814-8.533-8.533   V384c0-4.719,3.823-8.533,8.533-8.533h256c4.71,0,8.533,3.814,8.533,8.533v110.933C392.533,499.652,388.71,503.467,384,503.467   L384,503.467z"/>
	<path style="fill:#69432E;" d="M256,384v110.933"/>
	<polygon style="fill:#8A5B46;" points="247.467,494.933 264.533,494.933 264.533,384 247.467,384  "/>
	<g>
		<path style="fill:#F0C419;" d="M221.867,426.667H204.8c-4.71,0-8.533-3.814-8.533-8.533c0-4.719,3.823-8.533,8.533-8.533h17.067    c4.71,0,8.533,3.814,8.533,8.533C230.4,422.852,226.577,426.667,221.867,426.667"/>
		<path style="fill:#F0C419;" d="M221.867,443.733c-4.71,0-8.533-3.814-8.533-8.533v-17.067c0-4.719,3.823-8.533,8.533-8.533    c4.71,0,8.533,3.814,8.533,8.533V435.2C230.4,439.919,226.577,443.733,221.867,443.733"/>
		<path style="fill:#F0C419;" d="M307.2,426.667h-17.067c-4.71,0-8.533-3.814-8.533-8.533c0-4.719,3.823-8.533,8.533-8.533H307.2    c4.71,0,8.533,3.814,8.533,8.533C315.733,422.852,311.91,426.667,307.2,426.667"/>
		<path style="fill:#F0C419;" d="M290.133,443.733c-4.71,0-8.533-3.814-8.533-8.533v-17.067c0-4.719,3.823-8.533,8.533-8.533    c4.71,0,8.533,3.814,8.533,8.533V435.2C298.667,439.919,294.844,443.733,290.133,443.733"/>
	</g>
</g>
<g>
</g>
<g>
</g>
<g>
</g>
<g>
</g>
<g>
</g>
<g>
</g>
<g>
</g>
<g>
</g>
<g>
</g>
<g>
</g>
<g>
</g>
<g>
</g>
<g>
</g>
<g>
</g>
<g>
</g>
</svg>
