<?xml version="1.0" encoding="iso-8859-1"?>
<!-- Generator: Adobe Illustrator 19.0.0, SVG Export Plug-In . SVG Version: 6.00 Build 0)  -->
<svg xmlns="http://www.w3.org/2000/svg" xmlns:xlink="http://www.w3.org/1999/xlink" version="1.1" id="Capa_1" x="0px" y="0px" viewBox="0 0 512 512" style="enable-background:new 0 0 512 512;" xml:space="preserve">
<polygon style="fill:#F3D55B;" points="353.1,172.05 459,172.05 459,136.75 353.1,136.75 "/>
<polygon style="fill:#25C3AB;" points="370.8,136.75 476.7,136.75 476.7,101.45 370.8,101.45 "/>
<polygon style="fill:#955BA5;" points="353.1,101.45 459,101.45 459,66.15 353.1,66.15 "/>
<polygon style="fill:#D1D4D1;" points="194.2,172.05 247.2,172.05 247.2,136.75 194.2,136.75 "/>
<g>
	<path style="fill:#A5A5A4;" d="M264.8,145.65h-88.3c-4.9,0-8.8-3.9-8.8-8.8c0-4.9,4-8.8,8.8-8.8h88.3c4.9,0,8.8,3.9,8.8,8.8   C273.7,141.65,269.7,145.65,264.8,145.65"/>
	<path style="fill:#A5A5A4;" d="M220.1,76.05L220.1,76.05L220.1,76.05z M220.7,110.25c-1.1,0-2.3-0.2-3.4-0.7   c-8.4-3.5-13.4-9.8-13.4-17s5-13.5,13.4-17c0.5-0.2,1-0.5,1.4-0.7c-0.4-0.2-0.8-0.5-1.4-0.7c-4.5-1.9-6.6-7-4.8-11.5   c1.9-4.5,7-6.7,11.5-4.8c8.4,3.5,13.4,9.8,13.4,17c0,7.1-5,13.5-13.4,17c-0.5,0.2-1,0.5-1.4,0.7c0.4,0.2,0.8,0.5,1.4,0.7   c4.5,1.9,6.6,7,4.8,11.5C227.5,108.25,224.2,110.25,220.7,110.25L220.7,110.25z"/>
</g>
<g>
	<polygon style="fill:#69432E;" points="353.1,207.35 353.1,278.05 353.1,348.65 494.3,348.65 494.3,278.05 494.3,207.35  "/>
	<polygon style="fill:#69432E;" points="353.1,348.65 353.1,419.25 353.1,489.85 494.3,489.85 494.3,419.25 494.3,348.65  "/>
</g>
<path style="fill:#8A5B46;" d="M494.3,198.55H353.1c-4.9,0-8.8,3.9-8.8,8.8v282.5c0,4.9,4,8.8,8.8,8.8h141.2c4.9,0,8.8-3.9,8.8-8.8  v-282.5C503.2,202.55,499.2,198.55,494.3,198.55z M361.9,216.25h123.6v123.6H361.9V216.25z M485.5,481.05H361.9v-123.6h123.6V481.05  z"/>
<polygon style="fill:#69432E;" points="17.7,489.85 70.6,489.85 70.6,207.35 17.7,207.35 "/>
<path style="fill:#8A5B46;" d="M70.6,498.85h-53c-5,0-9-4-9-9v-282.5c0-5,4-9,9-9h53c5,0,9,4,9,9v282.5  C79.6,494.85,75.6,498.85,70.6,498.85z M26.7,480.85h35v-264.5h-35V480.85z"/>
<g>
	<path style="fill:#F0C419;" d="M450.2,419.25h-53c-4.9,0-8.8-3.9-8.8-8.8s4-8.8,8.8-8.8h53c4.9,0,8.8,3.9,8.8,8.8   S455.1,419.25,450.2,419.25"/>
	<path style="fill:#F0C419;" d="M423.7,436.95c-4.9,0-8.8-3.9-8.8-8.8v-17.7c0-4.9,4-8.8,8.8-8.8c4.9,0,8.8,3.9,8.8,8.8v17.7   C432.6,432.95,428.6,436.95,423.7,436.95"/>
	<path style="fill:#F0C419;" d="M450.2,278.05h-53c-4.9,0-8.8-3.9-8.8-8.8s4-8.8,8.8-8.8h53c4.9,0,8.8,3.9,8.8,8.8   C459,274.05,455.1,278.05,450.2,278.05"/>
	<path style="fill:#F0C419;" d="M423.7,295.65c-4.9,0-8.8-3.9-8.8-8.8v-17.7c0-4.9,4-8.8,8.8-8.8c4.9,0,8.8,3.9,8.8,8.8v17.7   C432.6,291.75,428.6,295.65,423.7,295.65"/>
</g>
<path style="fill:#D1D4D1;" d="M61.8,154.45c-4.9,0-8.8-3.9-8.8-8.8v-61.8c0-4.9,4-8.8,8.8-8.8s8.8,3.9,8.8,8.8v61.8  C70.6,150.45,66.7,154.45,61.8,154.45"/>
<polygon style="fill:#A5A5A4;" points="35.3,172.05 88.3,172.05 88.3,145.65 35.3,145.65 "/>
<polygon style="fill:#F0C419;" points="35.3,83.85 88.3,83.85 88.3,13.15 35.3,13.15 "/>
<polygon style="fill:#4F3022;" points="0,216.25 512,216.25 512,172.05 0,172.05 "/>
<g>
</g>
<g>
</g>
<g>
</g>
<g>
</g>
<g>
</g>
<g>
</g>
<g>
</g>
<g>
</g>
<g>
</g>
<g>
</g>
<g>
</g>
<g>
</g>
<g>
</g>
<g>
</g>
<g>
</g>
</svg>
