<?xml version="1.0" encoding="iso-8859-1"?>
<!-- Generator: Adobe Illustrator 19.0.0, SVG Export Plug-In . SVG Version: 6.00 Build 0)  -->
<svg xmlns="http://www.w3.org/2000/svg" xmlns:xlink="http://www.w3.org/1999/xlink" version="1.1" id="Capa_1" x="0px" y="0px" viewBox="0 0 512 512" style="enable-background:new 0 0 512 512;" xml:space="preserve">
<g>
	<polygon style="fill:#687492;" points="0,454.621 512,454.621 512,57.379 0,57.379  "/>
	<polygon style="fill:#464F5D;" points="406.069,454.621 512,454.621 512,57.379 406.069,57.379  "/>
	<polygon style="fill:#6D9B42;" points="44.138,410.483 361.931,410.483 361.931,101.517 44.138,101.517  "/>
	<g>
		<path style="fill:#687492;" d="M476.69,110.345h-35.31c-4.882,0-8.828-3.955-8.828-8.828s3.946-8.828,8.828-8.828h35.31    c4.882,0,8.828,3.955,8.828,8.828S481.571,110.345,476.69,110.345"/>
		<path style="fill:#687492;" d="M476.69,154.483h-35.31c-4.882,0-8.828-3.955-8.828-8.828c0-4.873,3.946-8.828,8.828-8.828h35.31    c4.882,0,8.828,3.955,8.828,8.828C485.517,150.528,481.571,154.483,476.69,154.483"/>
		<path style="fill:#687492;" d="M476.69,198.621h-35.31c-4.882,0-8.828-3.955-8.828-8.828c0-4.873,3.946-8.828,8.828-8.828h35.31    c4.882,0,8.828,3.955,8.828,8.828C485.517,194.666,481.571,198.621,476.69,198.621"/>
		<path style="fill:#687492;" d="M476.69,242.759h-35.31c-4.882,0-8.828-3.955-8.828-8.828c0-4.873,3.946-8.828,8.828-8.828h35.31    c4.882,0,8.828,3.955,8.828,8.828C485.517,238.804,481.571,242.759,476.69,242.759"/>
		<path style="fill:#687492;" d="M476.69,286.897h-35.31c-4.882,0-8.828-3.955-8.828-8.828s3.946-8.828,8.828-8.828h35.31    c4.882,0,8.828,3.955,8.828,8.828S481.571,286.897,476.69,286.897"/>
		<path style="fill:#687492;" d="M476.69,331.034h-35.31c-4.882,0-8.828-3.955-8.828-8.828c0-4.873,3.946-8.828,8.828-8.828h35.31    c4.882,0,8.828,3.955,8.828,8.828C485.517,327.08,481.571,331.034,476.69,331.034"/>
		<path style="fill:#687492;" d="M476.69,375.172h-35.31c-4.882,0-8.828-3.955-8.828-8.828c0-4.873,3.946-8.828,8.828-8.828h35.31    c4.882,0,8.828,3.955,8.828,8.828C485.517,371.218,481.571,375.172,476.69,375.172"/>
		<path style="fill:#687492;" d="M476.69,419.31h-35.31c-4.882,0-8.828-3.955-8.828-8.828s3.946-8.828,8.828-8.828h35.31    c4.882,0,8.828,3.955,8.828,8.828S481.571,419.31,476.69,419.31"/>
	</g>
	<polygon style="fill:#4B6D27;" points="141.241,410.483 264.828,410.483 264.828,304.552 141.241,304.552  "/>
	<polygon style="fill:#344C18;" points="264.828,304.552 141.241,304.552 203.034,233.931  "/>
	<g>
		<polygon style="fill:#4B6D27;" points="44.138,189.793 132.414,189.793 132.414,101.517 44.138,101.517   "/>
		<polygon style="fill:#4B6D27;" points="273.655,189.793 361.931,189.793 361.931,101.517 273.655,101.517   "/>
	</g>
	<polygon style="fill:#344C18;" points="132.414,189.793 273.655,189.793 273.655,101.517 132.414,101.517  "/>
	<g>
		<path style="fill:#6D9B42;" d="M97.103,154.483H79.448c-4.882,0-8.828-3.955-8.828-8.828c0-4.873,3.946-8.828,8.828-8.828h17.655    c4.882,0,8.828,3.955,8.828,8.828C105.931,150.528,101.985,154.483,97.103,154.483"/>
		<path style="fill:#6D9B42;" d="M326.621,154.483h-17.655c-4.882,0-8.828-3.955-8.828-8.828c0-4.873,3.946-8.828,8.828-8.828    h17.655c4.882,0,8.828,3.955,8.828,8.828C335.448,150.528,331.502,154.483,326.621,154.483"/>
		<path style="fill:#6D9B42;" d="M220.69,145.655h-35.31c-4.882,0-8.828-3.955-8.828-8.828c0-4.873,3.946-8.828,8.828-8.828h35.31    c4.882,0,8.828,3.955,8.828,8.828C229.517,141.7,225.571,145.655,220.69,145.655"/>
		<path style="fill:#6D9B42;" d="M203.034,163.31c-4.882,0-8.828-3.955-8.828-8.828v-17.655c0-4.873,3.946-8.828,8.828-8.828    s8.828,3.955,8.828,8.828v17.655C211.862,159.356,207.916,163.31,203.034,163.31"/>
	</g>
	<polygon style="fill:#344C18;" points="176.552,410.483 229.517,410.483 229.517,357.517 176.552,357.517  "/>
</g>
<g>
</g>
<g>
</g>
<g>
</g>
<g>
</g>
<g>
</g>
<g>
</g>
<g>
</g>
<g>
</g>
<g>
</g>
<g>
</g>
<g>
</g>
<g>
</g>
<g>
</g>
<g>
</g>
<g>
</g>
</svg>
