<?xml version="1.0" encoding="iso-8859-1"?>
<!-- Generator: Adobe Illustrator 19.0.0, SVG Export Plug-In . SVG Version: 6.00 Build 0)  -->
<svg xmlns="http://www.w3.org/2000/svg" xmlns:xlink="http://www.w3.org/1999/xlink" version="1.1" id="Capa_1" x="0px" y="0px" viewBox="0 0 512 512" style="enable-background:new 0 0 512 512;" xml:space="preserve">
<g>
	<g>
		<path style="fill:#492B1D;" d="M477.867,354.133c4.48,7.347,7.492,15.829,5.683,24.823c-0.043,0.222-0.085,0.444-0.128,0.657    c-3.081,15.787-1.152,28.715,10.854,42.052l0.657,0.734h-5.623c-28.109,0-39.509-29.995-38.861-43.443    c0.504-10.317-2.569-18.5-6.716-24.823H477.867z"/>
		<path style="fill:#492B1D;" d="M34.133,354.133c-4.48,7.347-7.492,15.829-5.692,24.823c0.051,0.222,0.094,0.444,0.137,0.657    c3.081,15.787,1.161,28.715-10.854,42.052l-0.657,0.734h5.623c28.109,0,39.509-29.995,38.861-43.443    c-0.495-10.317,2.569-18.5,6.716-24.823H34.133z"/>
	</g>
	<polygon style="fill:#966F58;" points="8.533,354.133 179.2,354.133 179.2,98.133 8.533,98.133  "/>
	<path style="fill:#69432E;" d="M17.067,345.6h153.6V106.667h-153.6V345.6z M0,362.667h187.733V89.6H0V362.667z"/>
	<polygon style="fill:#966F58;" points="179.2,354.133 349.867,354.133 349.867,98.133 179.2,98.133  "/>
	<path style="fill:#69432E;" d="M187.733,345.6h153.6V106.667h-153.6V345.6z M170.667,362.667H358.4V89.6H170.667V362.667z"/>
	<g>
		<path style="fill:#DEC150;" d="M221.867,243.2c-4.71,0-8.533-3.823-8.533-8.533v-25.6c0-4.71,3.823-8.533,8.533-8.533    c4.71,0,8.533,3.823,8.533,8.533v25.6C230.4,239.377,226.577,243.2,221.867,243.2"/>
		<path style="fill:#DEC150;" d="M136.533,243.2c-4.71,0-8.533-3.823-8.533-8.533v-25.6c0-4.71,3.823-8.533,8.533-8.533    s8.533,3.823,8.533,8.533v25.6C145.067,239.377,141.244,243.2,136.533,243.2"/>
	</g>
	<polygon style="fill:#966F58;" points="349.867,183.467 503.467,183.467 503.467,98.133 349.867,98.133  "/>
	<path style="fill:#69432E;" d="M358.4,174.933h136.533v-68.267H358.4V174.933z M341.333,192H512V89.6H341.333V192z"/>
	<polygon style="fill:#966F58;" points="349.867,354.133 503.467,354.133 503.467,268.8 349.867,268.8  "/>
	<path style="fill:#69432E;" d="M358.4,345.6h136.533v-68.267H358.4V345.6z M341.333,362.667H512v-102.4H341.333V362.667z"/>
	<polygon style="fill:#966F58;" points="349.867,268.8 503.467,268.8 503.467,183.467 349.867,183.467  "/>
	<path style="fill:#69432E;" d="M358.4,260.267h136.533V192H358.4V260.267z M341.333,277.333H512v-102.4H341.333V277.333z"/>
	<g>
		<path style="fill:#DEC150;" d="M247.467,217.6h-25.6c-4.71,0-8.533-3.823-8.533-8.533s3.823-8.533,8.533-8.533h25.6    c4.71,0,8.533,3.823,8.533,8.533S252.177,217.6,247.467,217.6"/>
		<path style="fill:#DEC150;" d="M443.733,234.667H409.6c-4.719,0-8.533-3.823-8.533-8.533s3.814-8.533,8.533-8.533h34.133    c4.719,0,8.533,3.823,8.533,8.533S448.452,234.667,443.733,234.667"/>
		<path style="fill:#DEC150;" d="M443.733,149.333H409.6c-4.719,0-8.533-3.823-8.533-8.533s3.814-8.533,8.533-8.533h34.133    c4.719,0,8.533,3.823,8.533,8.533S448.452,149.333,443.733,149.333"/>
		<path style="fill:#DEC150;" d="M443.733,320H409.6c-4.719,0-8.533-3.823-8.533-8.533c0-4.71,3.814-8.533,8.533-8.533h34.133    c4.719,0,8.533,3.823,8.533,8.533C452.267,316.177,448.452,320,443.733,320"/>
		<path style="fill:#DEC150;" d="M136.533,217.6h-25.6c-4.71,0-8.533-3.823-8.533-8.533s3.823-8.533,8.533-8.533h25.6    c4.71,0,8.533,3.823,8.533,8.533S141.244,217.6,136.533,217.6"/>
	</g>
</g>
<g>
</g>
<g>
</g>
<g>
</g>
<g>
</g>
<g>
</g>
<g>
</g>
<g>
</g>
<g>
</g>
<g>
</g>
<g>
</g>
<g>
</g>
<g>
</g>
<g>
</g>
<g>
</g>
<g>
</g>
</svg>
