<?xml version="1.0" encoding="iso-8859-1"?>
<!-- Generator: Adobe Illustrator 19.0.0, SVG Export Plug-In . SVG Version: 6.00 Build 0)  -->
<svg xmlns="http://www.w3.org/2000/svg" xmlns:xlink="http://www.w3.org/1999/xlink" version="1.1" id="Capa_1" x="0px" y="0px" viewBox="0 0 511.902 511.902" style="enable-background:new 0 0 511.902 511.902;" xml:space="preserve">
<g transform="translate(0 1)">
	<g>
		<polygon style="fill:#69432E;" points="349.9,195.001 349.9,263.201 349.9,331.501 349.9,399.801 349.9,468.001 486.4,468.001     486.4,399.801 486.4,331.501 486.4,263.201 486.4,195.001   "/>
		<polygon style="fill:#69432E;" points="25.6,468.001 76.8,468.001 76.8,195.001 25.6,195.001   "/>
	</g>
	<g>
		<path style="fill:#DEC150;" d="M443.7,399.801h-51.2c-4.7,0-8.5-3.8-8.5-8.5s3.8-8.5,8.5-8.5h51.2c4.7,0,8.5,3.8,8.5,8.5    S448.5,399.801,443.7,399.801"/>
		<path style="fill:#DEC150;" d="M418.1,416.801c-4.7,0-8.5-3.8-8.5-8.5v-17.1c0-4.7,3.8-8.5,8.5-8.5s8.5,3.8,8.5,8.5v17.1    C426.7,413.001,422.9,416.801,418.1,416.801"/>
		<path style="fill:#DEC150;" d="M443.7,263.201h-51.2c-4.7,0-8.5-3.8-8.5-8.5c0-4.7,3.8-8.5,8.5-8.5h51.2c4.7,0,8.5,3.8,8.5,8.5    C452.3,259.401,448.5,263.201,443.7,263.201"/>
		<path style="fill:#DEC150;" d="M418.1,280.301c-4.7,0-8.5-3.8-8.5-8.5v-17.1c0-4.7,3.8-8.5,8.5-8.5s8.5,3.8,8.5,8.5v17.1    C426.7,276.501,422.9,280.301,418.1,280.301"/>
	</g>
	<polygon style="fill:#69432E;" points="76.8,195.001 76.8,246.201 76.8,348.601 349.9,348.601 349.9,246.201 349.9,195.001  "/>
	<g>
		<path style="fill:#966F58;" d="M443.7,41.401H68.3c0,23.6-19.1,42.7-42.7,51.2v25.6v42.7h460.8v-42.7v-25.6    C462.8,84.001,443.7,64.901,443.7,41.401z"/>
		<g>
			<rect x="341.3" y="203.001" style="fill:#8A5B46;" width="0.5" height="35.2"/>
			<polygon style="fill:#8A5B46;" points="341.3,331.501 341.3,340.601 341.9,340.601 341.9,254.201 341.3,254.201    "/>
			<path style="fill:#8A5B46;" d="M486.4,186.401H25.6c-4.4,0-8,4.1-8,8.5v273.1c0,4.4,3.6,8,8,8h51.2c4.4,0,8-3.6,8-8v-111.4h256.5     v111.5c0,4.7,3.8,8.5,8.5,8.5h136.5c4.7,0,8.5-3.8,8.5-8.5v-136.6v-136.5C494.9,190.301,491.1,186.401,486.4,186.401z      M68.8,238.201v16v102.4v103.5H33.6v-257.1h35.2V238.201z M341.9,340.601h-0.5H84.8v-86.4h256.5h0.5v86.4H341.9z M341.9,238.201     h-0.5H84.8v-35.2h256.5h0.5v35.2H341.9z M477.9,459.501H358.4v-119.5h119.5V459.501z M477.9,323.001H358.4v-119.5h119.5V323.001z     "/>
			<path style="fill:#8A5B46;" d="M494.4,110.201v-23.2l-5.3-1.9c-22.7-8.2-37.4-25.4-37.4-43.7v-8H60.3v8     c0,18.3-14.7,35.5-37.4,43.7l-5.3,1.9v23.2v58.7h476.8V110.201z M478.4,152.801H33.6v-26.7h444.8V152.801z M478.4,110.201H33.6     v-12.2c23.1-10,38.8-28.2,42-48.6h360.7c3.3,20.4,18.9,38.6,42,48.6v12.2H478.4z"/>
		</g>
	</g>
	<path style="fill:#69432E;" d="M489.1,85.001c-22.7-8.2-37.4-25.4-37.4-43.7v-8H60.3v8c0,18.3-14.7,35.5-37.4,43.7l-5.3,1.9v23.2   v58.7h476.8v-58.7v-23.1L489.1,85.001z M478.4,152.801H33.6v-26.7h444.8V152.801z M33.6,110.201v-12.2c23.1-10,38.8-28.2,42-48.6   h360.7c3.3,20.4,18.9,38.6,42,48.6v12.2H33.6z"/>
	<path style="fill:#4F3022;" d="M503.5,152.301H8.5c-4.7,0-8.5,3.8-8.5,8.5v34.1c0,4.7,3.8,8.5,8.5,8.5h494.9c4.7,0,8.5-3.8,8.5-8.5   v-34.1C512,156.101,508.2,152.301,503.5,152.301"/>
</g>
<g>
</g>
<g>
</g>
<g>
</g>
<g>
</g>
<g>
</g>
<g>
</g>
<g>
</g>
<g>
</g>
<g>
</g>
<g>
</g>
<g>
</g>
<g>
</g>
<g>
</g>
<g>
</g>
<g>
</g>
</svg>
