<?xml version="1.0" encoding="iso-8859-1"?>
<!-- Generator: Adobe Illustrator 19.0.0, SVG Export Plug-In . SVG Version: 6.00 Build 0)  -->
<svg xmlns="http://www.w3.org/2000/svg" xmlns:xlink="http://www.w3.org/1999/xlink" version="1.1" id="Capa_1" x="0px" y="0px" viewBox="0 0 512.001 512.001" style="enable-background:new 0 0 512.001 512.001;" xml:space="preserve">
<g>
	<path style="fill:#E64C3C;" d="M286.035,152.702h-2.246c-0.467,0-0.844-0.377-0.844-0.844v-35.085H229.05v35.085   c0,0.467-0.377,0.844-0.835,0.844h-2.246c-10.599,0-20.705,6.647-23.202,16.941c-3.557,14.704,7.644,27.971,21.791,27.971h62.877   c14.147,0,25.357-13.267,21.791-27.971C306.74,159.349,296.634,152.702,286.035,152.702"/>
	<g>
		<path style="fill:#7A6958;" d="M381.062,511.228c-12.638-14.04-14.668-27.648-11.417-44.266c0.036-0.225,0.081-0.458,0.126-0.692    c1.904-9.467-1.258-18.396-5.982-26.13v-17.965h-35.93v17.965c4.365,6.656,7.599,15.27,7.069,26.13    c-0.683,14.156,11.318,45.73,40.906,45.73h5.919L381.062,511.228z"/>
		<path style="fill:#7A6958;" d="M130.939,511.228c12.638-14.04,14.668-27.648,11.417-44.266c-0.036-0.225-0.081-0.458-0.135-0.692    c-1.895-9.467,1.267-18.396,5.991-26.13v-17.965h35.93v17.965c-4.365,6.656-7.599,15.27-7.069,26.13    c0.683,14.156-11.318,45.73-40.906,45.73h-5.919L130.939,511.228z"/>
	</g>
	<polygon style="fill:#AD9883;" points="121.264,440.14 390.737,440.14 390.737,188.632 121.264,188.632  "/>
	<polygon style="fill:#7A6958;" points="157.193,314.386 354.807,314.386 354.807,224.561 157.193,224.561  "/>
	<polygon style="fill:#56483B;" points="157.193,404.211 354.807,404.211 354.807,314.386 157.193,314.386  "/>
	<g>
		<path style="fill:#F0C419;" d="M291.93,269.474h-71.86c-4.967,0-8.982-4.024-8.982-8.982c0-4.958,4.015-8.982,8.982-8.982h71.86    c4.967,0,8.982,4.024,8.982,8.982C300.913,265.45,296.898,269.474,291.93,269.474"/>
		<path style="fill:#F0C419;" d="M256,287.439c-4.967,0-8.982-4.024-8.982-8.982v-17.965c0-4.958,4.015-8.982,8.982-8.982    c4.967,0,8.982,4.024,8.982,8.982v17.965C264.983,283.414,260.968,287.439,256,287.439"/>
		<path style="fill:#F0C419;" d="M291.93,359.298h-71.86c-4.967,0-8.982-4.024-8.982-8.982c0-4.958,4.015-8.982,8.982-8.982h71.86    c4.967,0,8.982,4.024,8.982,8.982C300.913,355.274,296.898,359.298,291.93,359.298"/>
		<path style="fill:#F0C419;" d="M256,377.263c-4.967,0-8.982-4.024-8.982-8.982v-17.965c0-4.958,4.015-8.982,8.982-8.982    c4.967,0,8.982,4.024,8.982,8.982v17.965C264.983,373.239,260.968,377.263,256,377.263"/>
		<polygon style="fill:#F0C419;" points="336.843,125.754 175.158,125.754 202.106,0 309.895,0   "/>
	</g>
	<g>
		<path style="fill:#FFFFFF;" d="M220.08,107.789c-0.368,0-0.746-0.018-1.123-0.072c-4.922-0.611-8.417-5.102-7.797-10.024    l8.982-71.86c0.611-4.913,5.048-8.461,10.024-7.797c4.922,0.611,8.417,5.102,7.797,10.024l-8.982,71.86    C228.415,104.466,224.544,107.789,220.08,107.789"/>
		<path style="fill:#FFFFFF;" d="M256,107.789c-4.967,0-8.982-4.024-8.982-8.982v-71.86c0-4.958,4.015-8.982,8.982-8.982    c4.967,0,8.982,4.024,8.982,8.982v71.86C264.983,103.765,260.968,107.789,256,107.789"/>
		<path style="fill:#FFFFFF;" d="M291.921,107.789c-4.464,0-8.336-3.324-8.902-7.869l-8.982-71.86    c-0.62-4.922,2.874-9.414,7.797-10.024c4.931-0.665,9.405,2.883,10.024,7.797l8.982,71.86c0.62,4.922-2.874,9.414-7.797,10.024    C292.667,107.772,292.29,107.789,291.921,107.789"/>
	</g>
</g>
<g>
</g>
<g>
</g>
<g>
</g>
<g>
</g>
<g>
</g>
<g>
</g>
<g>
</g>
<g>
</g>
<g>
</g>
<g>
</g>
<g>
</g>
<g>
</g>
<g>
</g>
<g>
</g>
<g>
</g>
</svg>
