<?xml version="1.0" encoding="iso-8859-1"?>
<!-- Generator: Adobe Illustrator 19.0.0, SVG Export Plug-In . SVG Version: 6.00 Build 0)  -->
<svg xmlns="http://www.w3.org/2000/svg" xmlns:xlink="http://www.w3.org/1999/xlink" version="1.1" id="Capa_1" x="0px" y="0px" viewBox="0 0 512 512" style="enable-background:new 0 0 512 512;" xml:space="preserve">
<g>
	<polygon style="fill:#67594D;" points="256,26.483 35.31,26.483 35.31,423.724 256,423.724 476.69,423.724 476.69,26.483  "/>
	<polygon style="fill:#C7BFB7;" points="70.621,370.759 264.828,370.759 264.828,70.621 70.621,70.621  "/>
	<g>
		<polygon style="fill:#99928C;" points="70.621,141.241 264.828,141.241 264.828,123.586 70.621,123.586   "/>
		<path style="fill:#99928C;" d="M167.724,194.207c-4.882,0-8.828-3.955-8.828-8.828v-26.483c0-4.873,3.946-8.828,8.828-8.828    c9.737,0,17.655-7.918,17.655-17.655c0-9.737-7.918-17.655-17.655-17.655c-9.737,0-17.655,7.918-17.655,17.655    c0,4.873-3.946,8.828-8.828,8.828s-8.828-3.955-8.828-8.828c0-19.474,15.837-35.31,35.31-35.31s35.31,15.837,35.31,35.31    c0,16.419-11.264,30.261-26.483,34.198v18.767C176.552,190.252,172.606,194.207,167.724,194.207"/>
	</g>
	<path style="fill:#FFFFFF;" d="M211.862,335.448h-88.276c-4.882,0-8.828-3.955-8.828-8.828v-79.448H97.103   c-4.882,0-8.828-3.955-8.828-8.828V220.69c0-26.403,31.929-44.138,79.448-44.138s79.448,17.735,79.448,44.138v17.655   c0,4.873-3.946,8.828-8.828,8.828H220.69v79.448C220.69,331.493,216.744,335.448,211.862,335.448"/>
	<g>
		<polygon style="fill:#67594D;" points="432.552,512 459.034,512 459.034,432.552 414.897,432.552   "/>
		<polygon style="fill:#67594D;" points="79.448,512 52.966,512 52.966,432.552 97.103,432.552   "/>
	</g>
	<g>
		<polygon style="fill:#C7BFB7;" points="17.655,35.31 494.345,35.31 494.345,0 17.655,0   "/>
		<polygon style="fill:#C7BFB7;" points="17.655,441.379 494.345,441.379 494.345,406.069 17.655,406.069   "/>
		<polygon style="fill:#C7BFB7;" points="300.138,141.241 441.379,141.241 441.379,70.621 300.138,70.621   "/>
		<polygon style="fill:#C7BFB7;" points="300.138,370.759 441.379,370.759 441.379,300.138 300.138,300.138   "/>
		<polygon style="fill:#C7BFB7;" points="300.138,264.828 441.379,264.828 441.379,176.552 300.138,176.552   "/>
	</g>
	<g>
		<path style="fill:#67594D;" d="M388.414,114.759h-35.31c-4.882,0-8.828-3.955-8.828-8.828c0-4.873,3.946-8.828,8.828-8.828h35.31    c4.882,0,8.828,3.955,8.828,8.828C397.241,110.804,393.295,114.759,388.414,114.759"/>
		<path style="fill:#67594D;" d="M388.414,229.517h-35.31c-4.882,0-8.828-3.955-8.828-8.828c0-4.873,3.946-8.828,8.828-8.828h35.31    c4.882,0,8.828,3.955,8.828,8.828C397.241,225.562,393.295,229.517,388.414,229.517"/>
		<path style="fill:#67594D;" d="M388.414,344.276h-35.31c-4.882,0-8.828-3.955-8.828-8.828s3.946-8.828,8.828-8.828h35.31    c4.882,0,8.828,3.955,8.828,8.828S393.295,344.276,388.414,344.276"/>
	</g>
</g>
<g>
</g>
<g>
</g>
<g>
</g>
<g>
</g>
<g>
</g>
<g>
</g>
<g>
</g>
<g>
</g>
<g>
</g>
<g>
</g>
<g>
</g>
<g>
</g>
<g>
</g>
<g>
</g>
<g>
</g>
</svg>
