<?xml version="1.0" encoding="iso-8859-1"?>
<!-- Generator: Adobe Illustrator 19.0.0, SVG Export Plug-In . SVG Version: 6.00 Build 0)  -->
<svg xmlns="http://www.w3.org/2000/svg" xmlns:xlink="http://www.w3.org/1999/xlink" version="1.1" id="Capa_1" x="0px" y="0px" viewBox="0 0 512.004 512.004" style="enable-background:new 0 0 512.004 512.004;" xml:space="preserve">
<g>
	<path style="fill:#69432E;" d="M170.669,384H34.135V38.579c0-16.589,13.457-30.046,30.046-30.046h106.487V384z"/>
	<path style="fill:#8A5B46;" d="M42.669,375.467h119.467v-358.4H64.181c-11.861,0-21.513,9.651-21.513,21.513V375.467z    M170.669,392.533H34.135c-4.71,0-8.533-3.823-8.533-8.533V38.579C25.602,17.306,42.908,0,64.181,0h106.487   c4.71,0,8.533,3.823,8.533,8.533V384C179.202,388.71,175.379,392.533,170.669,392.533L170.669,392.533z"/>
	<path style="fill:#69432E;" d="M256.002,290.133h51.2V38.579c0-16.589-13.457-30.046-30.046-30.046H170.669V384h102.4v-59.733   h-17.067V290.133z"/>
	<path style="fill:#8A5B46;" d="M179.202,375.467h85.333V332.8h-8.533c-4.71,0-8.533-3.823-8.533-8.533v-34.133   c0-4.71,3.823-8.533,8.533-8.533h42.667V38.579c0-11.861-9.651-21.513-21.513-21.513h-97.954V375.467z M273.069,392.533h-102.4   c-4.71,0-8.533-3.823-8.533-8.533V8.533c0-4.71,3.823-8.533,8.533-8.533h106.487c21.274,0,38.579,17.306,38.579,38.579v251.554   c0,4.71-3.823,8.533-8.533,8.533h-42.667v17.067h8.533c4.71,0,8.533,3.823,8.533,8.533V384   C281.602,388.71,277.779,392.533,273.069,392.533L273.069,392.533z"/>
	<polygon style="fill:#69432E;" points="273.069,392.533 273.069,384 34.135,384 34.135,503.467 290.135,503.467 290.135,460.8    273.069,460.8  "/>
	<path style="fill:#8A5B46;" d="M42.669,494.933h238.933v-25.6h-8.533c-4.71,0-8.533-3.823-8.533-8.533v-68.267H42.669V494.933z    M290.135,512h-256c-4.71,0-8.533-3.823-8.533-8.533V384c0-4.71,3.823-8.533,8.533-8.533h238.933c4.71,0,8.533,3.823,8.533,8.533   v68.267h8.533c4.71,0,8.533,3.823,8.533,8.533v42.667C298.669,508.177,294.846,512,290.135,512L290.135,512z"/>
	<g>
		<path style="fill:#DEC150;" d="M204.802,443.733h-68.267c-4.71,0-8.533-3.823-8.533-8.533s3.823-8.533,8.533-8.533h68.267    c4.71,0,8.533,3.823,8.533,8.533S209.513,443.733,204.802,443.733"/>
		<path style="fill:#DEC150;" d="M170.669,460.8c-4.71,0-8.533-3.823-8.533-8.533V435.2c0-4.71,3.823-8.533,8.533-8.533    s8.533,3.823,8.533,8.533v17.067C179.202,456.977,175.379,460.8,170.669,460.8"/>
		<path style="fill:#DEC150;" d="M119.469,196.267c-4.71,0-8.533-3.823-8.533-8.533v-25.6c0-4.71,3.823-8.533,8.533-8.533    c4.71,0,8.533,3.823,8.533,8.533v25.6C128.002,192.444,124.179,196.267,119.469,196.267"/>
		<path style="fill:#DEC150;" d="M119.469,170.667h-25.6c-4.71,0-8.533-3.823-8.533-8.533s3.823-8.533,8.533-8.533h25.6    c4.71,0,8.533,3.823,8.533,8.533S124.179,170.667,119.469,170.667"/>
		<path style="fill:#DEC150;" d="M221.869,196.267c-4.71,0-8.533-3.823-8.533-8.533v-25.6c0-4.71,3.823-8.533,8.533-8.533    c4.71,0,8.533,3.823,8.533,8.533v25.6C230.402,192.444,226.579,196.267,221.869,196.267"/>
		<path style="fill:#DEC150;" d="M247.469,170.667h-25.6c-4.71,0-8.533-3.823-8.533-8.533s3.823-8.533,8.533-8.533h25.6    c4.71,0,8.533,3.823,8.533,8.533S252.179,170.667,247.469,170.667"/>
	</g>
	<g>
		<path style="fill:#7A6958;" d="M443.735,452.267h-42.667c-2.833,0-5.478,1.408-7.066,3.746c-1.587,2.347-1.911,5.325-0.862,7.962    l17.067,42.667c1.306,3.234,4.437,5.359,7.927,5.359h25.6c4.71,0,8.533-3.823,8.533-8.533V460.8    C452.269,456.09,448.446,452.267,443.735,452.267"/>
		<path style="fill:#7A6958;" d="M339.869,456.017c-1.587-2.347-4.233-3.746-7.066-3.746h-42.667c-4.71,0-8.533,3.814-8.533,8.533    v42.667c0,4.71,3.823,8.533,8.533,8.533h25.6c3.49,0,6.622-2.125,7.927-5.367l17.067-42.667    C341.78,461.342,341.456,458.364,339.869,456.017"/>
	</g>
	<path style="fill:#BCA591;" d="M460.802,315.733H273.069c-4.71,0-8.533,3.823-8.533,8.533v68.267c0,4.71,3.823,8.533,8.533,8.533   h187.733c4.71,0,8.533-3.823,8.533-8.533v-68.267C469.335,319.556,465.513,315.733,460.802,315.733"/>
	<path style="fill:#A08877;" d="M469.335,392.533h-204.8V460.8c0,4.71,3.823,8.533,8.533,8.533h187.733   c4.71,0,8.533-3.823,8.533-8.533V392.533z"/>
	<g>
		<path style="fill:#7A6958;" d="M401.069,366.933h-68.267c-4.71,0-8.533-3.823-8.533-8.533s3.823-8.533,8.533-8.533h68.267    c4.71,0,8.533,3.823,8.533,8.533S405.779,366.933,401.069,366.933"/>
		<path style="fill:#7A6958;" d="M401.069,435.2h-68.267c-4.71,0-8.533-3.823-8.533-8.533s3.823-8.533,8.533-8.533h68.267    c4.71,0,8.533,3.823,8.533,8.533S405.779,435.2,401.069,435.2"/>
		<path style="fill:#7A6958;" d="M477.869,281.6H256.002c-4.71,0-8.533,3.823-8.533,8.533v34.133c0,4.71,3.823,8.533,8.533,8.533    h221.867c4.71,0,8.533-3.823,8.533-8.533v-34.133C486.402,285.423,482.579,281.6,477.869,281.6"/>
	</g>
</g>
<g>
</g>
<g>
</g>
<g>
</g>
<g>
</g>
<g>
</g>
<g>
</g>
<g>
</g>
<g>
</g>
<g>
</g>
<g>
</g>
<g>
</g>
<g>
</g>
<g>
</g>
<g>
</g>
<g>
</g>
</svg>
