<?xml version="1.0" encoding="iso-8859-1"?>
<!-- Generator: Adobe Illustrator 19.0.0, SVG Export Plug-In . SVG Version: 6.00 Build 0)  -->
<svg xmlns="http://www.w3.org/2000/svg" xmlns:xlink="http://www.w3.org/1999/xlink" version="1.1" id="Capa_1" x="0px" y="0px" viewBox="0 0 512 512" style="enable-background:new 0 0 512 512;" xml:space="preserve">
<g>
	<g>
		<path style="fill:#706B67;" d="M35.31,317.793v17.655c-4.634,7.601-7.751,16.375-5.888,25.679c0.053,0.23,0.097,0.459,0.141,0.68    c3.187,16.331,1.201,29.705-11.229,43.502l-0.68,0.759h5.817c29.078,0,40.872-31.029,40.201-44.941    c-0.521-10.673,2.657-19.138,6.947-25.679v-17.655H35.31z"/>
		<path style="fill:#706B67;" d="M476.69,317.793v17.655c4.634,7.601,7.751,16.375,5.888,25.679c-0.044,0.23-0.097,0.459-0.141,0.68    c-3.187,16.331-1.201,29.705,11.229,43.502l0.68,0.759h-5.817c-29.078,0-40.872-31.029-40.201-44.941    c0.521-10.673-2.657-19.138-6.947-25.679v-17.655H476.69z"/>
	</g>
	<polygon style="fill:#C7BFB7;" points="0,335.448 512,335.448 512,105.931 0,105.931  "/>
	<polygon style="fill:#706B67;" points="35.31,300.138 476.69,300.138 476.69,141.241 35.31,141.241  "/>
	<polygon style="fill:#88C057;" points="291.31,300.138 256,300.138 291.31,238.345 326.621,238.345  "/>
	<polygon style="fill:#13A085;" points="326.621,300.138 361.931,300.138 361.931,220.69 326.621,220.69  "/>
	<polygon style="fill:#25C3AB;" points="361.931,300.138 397.241,300.138 397.241,220.69 361.931,220.69  "/>
	<polygon style="fill:#4C8056;" points="397.241,300.138 432.552,300.138 432.552,220.69 397.241,220.69  "/>
	<polygon style="fill:#F3D55B;" points="88.276,300.138 194.207,300.138 194.207,264.828 88.276,264.828  "/>
	<polygon style="fill:#F18D46;" points="105.931,264.828 211.862,264.828 211.862,229.517 105.931,229.517  "/>
	<polygon style="fill:#E64C3C;" points="88.276,229.517 194.207,229.517 194.207,194.207 88.276,194.207  "/>
</g>
<g>
</g>
<g>
</g>
<g>
</g>
<g>
</g>
<g>
</g>
<g>
</g>
<g>
</g>
<g>
</g>
<g>
</g>
<g>
</g>
<g>
</g>
<g>
</g>
<g>
</g>
<g>
</g>
<g>
</g>
</svg>
