<?xml version="1.0" encoding="iso-8859-1"?>
<!-- Generator: Adobe Illustrator 19.0.0, SVG Export Plug-In . SVG Version: 6.00 Build 0)  -->
<svg xmlns="http://www.w3.org/2000/svg" xmlns:xlink="http://www.w3.org/1999/xlink" version="1.1" id="Capa_1" x="0px" y="0px" viewBox="0 0 512 512" style="enable-background:new 0 0 512 512;" xml:space="preserve">
<g>
	<g>
		<path style="fill:#706B67;" d="M493.664,484.759c-12.429-13.798-14.415-27.171-11.22-43.502c0.035-0.221,0.079-0.45,0.132-0.68    c1.871-9.304-1.245-18.079-5.888-25.679v-17.655h-35.31v17.655c4.29,6.541,7.468,15.007,6.947,25.679    c-0.671,13.912,11.123,44.941,40.201,44.941h5.817L493.664,484.759z"/>
		<path style="fill:#706B67;" d="M18.336,484.759c12.429-13.798,14.415-27.171,11.229-43.502c-0.044-0.221-0.088-0.45-0.141-0.68    c-1.871-9.304,1.254-18.079,5.888-25.679v-17.655h35.31v17.655c-4.29,6.541-7.459,15.007-6.947,25.679    c0.671,13.912-11.123,44.941-40.201,44.941h-5.817L18.336,484.759z"/>
	</g>
	<polygon style="fill:#C7BFB7;" points="0,414.896 512,414.896 512,26.482 0,26.482  "/>
	<polygon style="fill:#706B67;" points="35.31,229.517 476.69,229.517 476.69,61.793 35.31,61.793  "/>
	<polygon style="fill:#514C49;" points="35.31,220.689 35.31,379.586 88.276,379.586 88.276,344.275 194.207,344.275    194.207,379.586 476.69,379.586 476.69,220.689  "/>
	<polygon style="fill:#88C057;" points="291.31,379.586 256,379.586 291.31,317.793 326.621,317.793  "/>
	<polygon style="fill:#BDC3C7;" points="273.655,220.689 308.966,220.689 308.966,141.241 273.655,141.241  "/>
	<polygon style="fill:#E64C3C;" points="308.966,220.689 344.276,220.689 344.276,141.241 308.966,141.241  "/>
	<polygon style="fill:#F3D55B;" points="344.276,220.689 379.586,220.689 379.586,141.241 344.276,141.241  "/>
	<polygon style="fill:#88C057;" points="379.586,220.689 414.897,220.689 414.897,141.241 379.586,141.241  "/>
	<polygon style="fill:#13A085;" points="326.621,379.586 361.931,379.586 361.931,300.137 326.621,300.137  "/>
	<polygon style="fill:#25C3AB;" points="361.931,379.586 397.241,379.586 397.241,300.137 361.931,300.137  "/>
	<polygon style="fill:#4C8056;" points="397.241,379.586 432.552,379.586 432.552,300.137 397.241,300.137  "/>
	<polygon style="fill:#F3D55B;" points="105.931,220.689 185.379,220.689 185.379,185.379 105.931,185.379  "/>
	<polygon style="fill:#955BA5;" points="105.931,185.379 185.379,185.379 185.379,150.069 105.931,150.069  "/>
	<polygon style="fill:#F3D55B;" points="88.276,379.586 194.207,379.586 194.207,344.275 88.276,344.275  "/>
	<polygon style="fill:#F18D46;" points="105.931,344.275 211.862,344.275 211.862,308.965 105.931,308.965  "/>
	<polygon style="fill:#E64C3C;" points="88.276,308.965 194.207,308.965 194.207,273.655 88.276,273.655  "/>
</g>
<g>
</g>
<g>
</g>
<g>
</g>
<g>
</g>
<g>
</g>
<g>
</g>
<g>
</g>
<g>
</g>
<g>
</g>
<g>
</g>
<g>
</g>
<g>
</g>
<g>
</g>
<g>
</g>
<g>
</g>
</svg>
