<?xml version="1.0" encoding="iso-8859-1"?>
<!-- Generator: Adobe Illustrator 19.0.0, SVG Export Plug-In . SVG Version: 6.00 Build 0)  -->
<svg xmlns="http://www.w3.org/2000/svg" xmlns:xlink="http://www.w3.org/1999/xlink" version="1.1" id="Capa_1" x="0px" y="0px" viewBox="0 0 512 512" style="enable-background:new 0 0 512 512;" xml:space="preserve">
<g>
	<path style="fill:#D1D4D1;" d="M68.267,204.8c-4.71,0-8.533-3.823-8.533-8.533v-59.733c0-4.71,3.823-8.533,8.533-8.533   s8.533,3.823,8.533,8.533v59.733C76.8,200.977,72.977,204.8,68.267,204.8"/>
	<polygon style="fill:#A5A5A4;" points="42.667,221.867 93.867,221.867 93.867,196.267 42.667,196.267  "/>
	<polygon style="fill:#88C057;" points="349.867,221.867 452.267,221.867 452.267,187.733 349.867,187.733  "/>
	<polygon style="fill:#E64C3C;" points="366.933,187.733 469.333,187.733 469.333,153.6 366.933,153.6  "/>
	<polygon style="fill:#E57E25;" points="349.867,153.6 452.267,153.6 452.267,119.467 349.867,119.467  "/>
	<g>
		<path style="fill:#492B1D;" d="M477.867,375.467c4.48,7.347,7.492,15.829,5.692,24.823c-0.051,0.222-0.094,0.444-0.137,0.657    c-3.081,15.787-1.161,28.715,10.854,42.052l0.657,0.734h-5.623c-28.109,0-39.509-29.995-38.861-43.443    c0.495-10.317-2.569-18.5-6.716-24.823H477.867z"/>
		<path style="fill:#492B1D;" d="M34.133,375.467c-4.48,7.347-7.492,15.829-5.692,24.823c0.051,0.222,0.094,0.444,0.137,0.657    c3.081,15.787,1.161,28.715-10.854,42.052l-0.657,0.734h5.623c28.109,0,39.509-29.995,38.861-43.443    c-0.495-10.317,2.569-18.5,6.716-24.823H34.133z"/>
	</g>
	<polygon style="fill:#D1D4D1;" points="196.267,221.867 247.467,221.867 247.467,187.733 196.267,187.733  "/>
	<path style="fill:#A5A5A4;" d="M264.533,196.267H179.2c-4.71,0-8.533-3.823-8.533-8.533c0-4.71,3.823-8.533,8.533-8.533h85.333   c4.71,0,8.533,3.823,8.533,8.533C273.067,192.444,269.244,196.267,264.533,196.267"/>
	<polygon style="fill:#69432E;" points="8.533,375.467 153.6,375.467 153.6,221.867 8.533,221.867  "/>
	<path style="fill:#8A5B46;" d="M17.067,366.933h128V230.4h-128V366.933z M153.6,384H8.533C3.823,384,0,380.177,0,375.467v-153.6   c0-4.71,3.823-8.533,8.533-8.533H153.6c4.71,0,8.533,3.823,8.533,8.533v153.6C162.133,380.177,158.31,384,153.6,384L153.6,384z"/>
	<polygon style="fill:#69432E;" points="153.6,375.467 349.867,375.467 349.867,221.867 153.6,221.867  "/>
	<path style="fill:#8A5B46;" d="M162.133,366.933h179.2V230.4h-179.2V366.933z M349.867,384H153.6c-4.71,0-8.533-3.823-8.533-8.533   v-153.6c0-4.71,3.823-8.533,8.533-8.533h196.267c4.71,0,8.533,3.823,8.533,8.533v153.6C358.4,380.177,354.577,384,349.867,384   L349.867,384z"/>
	<polygon style="fill:#69432E;" points="349.867,375.467 503.467,375.467 503.467,221.867 349.867,221.867  "/>
	<path style="fill:#8A5B46;" d="M358.4,366.933h136.533V230.4H358.4V366.933z M503.467,384h-153.6c-4.71,0-8.533-3.823-8.533-8.533   v-153.6c0-4.71,3.823-8.533,8.533-8.533h153.6c4.71,0,8.533,3.823,8.533,8.533v153.6C512,380.177,508.177,384,503.467,384   L503.467,384z"/>
	<polygon style="fill:#69432E;" points="349.867,298.667 503.467,298.667 503.467,221.867 349.867,221.867  "/>
	<path style="fill:#8A5B46;" d="M358.4,290.133h136.533V230.4H358.4V290.133z M503.467,307.2h-153.6   c-4.71,0-8.533-3.823-8.533-8.533v-76.8c0-4.71,3.823-8.533,8.533-8.533h153.6c4.71,0,8.533,3.823,8.533,8.533v76.8   C512,303.377,508.177,307.2,503.467,307.2L503.467,307.2z"/>
	<polygon style="fill:#69432E;" points="349.867,375.467 503.467,375.467 503.467,298.667 349.867,298.667  "/>
	<path style="fill:#8A5B46;" d="M358.4,366.933h136.533V307.2H358.4V366.933z M503.467,384h-153.6c-4.71,0-8.533-3.823-8.533-8.533   v-76.8c0-4.71,3.823-8.533,8.533-8.533h153.6c4.71,0,8.533,3.823,8.533,8.533v76.8C512,380.177,508.177,384,503.467,384   L503.467,384z"/>
	<g>
		<path style="fill:#DEC150;" d="M443.733,273.067H409.6c-4.71,0-8.533-3.823-8.533-8.533c0-4.71,3.823-8.533,8.533-8.533h34.133    c4.71,0,8.533,3.823,8.533,8.533C452.267,269.244,448.444,273.067,443.733,273.067"/>
		<path style="fill:#DEC150;" d="M443.733,349.867H409.6c-4.71,0-8.533-3.823-8.533-8.533s3.823-8.533,8.533-8.533h34.133    c4.71,0,8.533,3.823,8.533,8.533S448.444,349.867,443.733,349.867"/>
	</g>
	<polygon style="fill:#13A085;" points="281.6,366.933 307.2,366.933 307.2,298.667 281.6,298.667  "/>
	<polygon style="fill:#71C285;" points="256,366.933 281.6,366.933 281.6,298.667 256,298.667  "/>
	<polygon style="fill:#8697CB;" points="213.333,366.933 187.733,366.933 213.333,307.2 238.933,307.2  "/>
	<polygon style="fill:#E57E25;" points="42.667,366.933 119.467,366.933 119.467,341.333 42.667,341.333  "/>
	<g>
		<polygon style="fill:#F0C419;" points="42.667,341.333 119.467,341.333 119.467,315.733 42.667,315.733   "/>
		<polygon style="fill:#F0C419;" points="42.667,136.533 93.867,136.533 93.867,68.267 42.667,68.267   "/>
	</g>
	<path style="fill:#A5A5A4;" d="M221.304,129.025h0.085H221.304z M221.876,162.134c-1.092,0-2.193-0.213-3.26-0.649   c-8.141-3.371-12.988-9.515-12.988-16.418c0-6.912,4.847-13.047,12.988-16.418c0.529-0.222,0.973-0.444,1.34-0.649   c-0.367-0.213-0.811-0.427-1.34-0.649c-4.361-1.809-6.426-6.801-4.617-11.153c1.801-4.352,6.784-6.426,11.145-4.617   c8.132,3.371,12.988,9.506,12.988,16.418c0,6.903-4.855,13.047-12.988,16.418c-0.529,0.222-0.981,0.435-1.348,0.649   c0.367,0.205,0.819,0.427,1.348,0.649c4.352,1.801,6.426,6.793,4.617,11.153C228.404,160.154,225.221,162.134,221.876,162.134   L221.876,162.134z"/>
</g>
<g>
</g>
<g>
</g>
<g>
</g>
<g>
</g>
<g>
</g>
<g>
</g>
<g>
</g>
<g>
</g>
<g>
</g>
<g>
</g>
<g>
</g>
<g>
</g>
<g>
</g>
<g>
</g>
<g>
</g>
</svg>
