<?xml version="1.0" encoding="iso-8859-1"?>
<!-- Generator: Adobe Illustrator 19.0.0, SVG Export Plug-In . SVG Version: 6.00 Build 0)  -->
<svg xmlns="http://www.w3.org/2000/svg" xmlns:xlink="http://www.w3.org/1999/xlink" version="1.1" id="Capa_1" x="0px" y="0px" viewBox="0 0 512 512" style="enable-background:new 0 0 512 512;" xml:space="preserve">
<g>
	<g>
		<path style="fill:#DEC150;" d="M102.4,512c-4.719,0-8.533-3.823-8.533-8.533v-25.6c0-4.71,3.814-8.533,8.533-8.533    c4.719,0,8.533,3.823,8.533,8.533v25.6C110.933,508.177,107.119,512,102.4,512"/>
		<path style="fill:#DEC150;" d="M136.533,512c-4.719,0-8.533-3.823-8.533-8.533v-25.6c0-4.71,3.814-8.533,8.533-8.533    s8.533,3.823,8.533,8.533v25.6C145.067,508.177,141.252,512,136.533,512"/>
		<path style="fill:#DEC150;" d="M170.667,512c-4.719,0-8.533-3.823-8.533-8.533v-25.6c0-4.71,3.814-8.533,8.533-8.533    c4.719,0,8.533,3.823,8.533,8.533v25.6C179.2,508.177,175.386,512,170.667,512"/>
		<path style="fill:#DEC150;" d="M204.8,512c-4.719,0-8.533-3.823-8.533-8.533v-25.6c0-4.71,3.814-8.533,8.533-8.533    c4.719,0,8.533,3.823,8.533,8.533v25.6C213.333,508.177,209.519,512,204.8,512"/>
		<path style="fill:#DEC150;" d="M238.933,512c-4.719,0-8.533-3.823-8.533-8.533v-25.6c0-4.71,3.814-8.533,8.533-8.533    c4.719,0,8.533,3.823,8.533,8.533v25.6C247.467,508.177,243.652,512,238.933,512"/>
		<path style="fill:#DEC150;" d="M273.067,512c-4.719,0-8.533-3.823-8.533-8.533v-25.6c0-4.71,3.814-8.533,8.533-8.533    s8.533,3.823,8.533,8.533v25.6C281.6,508.177,277.786,512,273.067,512"/>
		<path style="fill:#DEC150;" d="M307.2,512c-4.719,0-8.533-3.823-8.533-8.533v-25.6c0-4.71,3.814-8.533,8.533-8.533    s8.533,3.823,8.533,8.533v25.6C315.733,508.177,311.919,512,307.2,512"/>
		<path style="fill:#DEC150;" d="M341.333,512c-4.719,0-8.533-3.823-8.533-8.533v-25.6c0-4.71,3.814-8.533,8.533-8.533    s8.533,3.823,8.533,8.533v25.6C349.867,508.177,346.052,512,341.333,512"/>
		<path style="fill:#DEC150;" d="M375.467,512c-4.719,0-8.533-3.823-8.533-8.533v-25.6c0-4.71,3.814-8.533,8.533-8.533    c4.719,0,8.533,3.823,8.533,8.533v25.6C384,508.177,380.186,512,375.467,512"/>
		<path style="fill:#DEC150;" d="M409.6,512c-4.719,0-8.533-3.823-8.533-8.533v-25.6c0-4.71,3.814-8.533,8.533-8.533    c4.719,0,8.533,3.823,8.533,8.533v25.6C418.133,508.177,414.319,512,409.6,512"/>
		<path style="fill:#DEC150;" d="M102.4,42.667c-4.719,0-8.533-3.823-8.533-8.533v-25.6C93.867,3.823,97.681,0,102.4,0    c4.719,0,8.533,3.823,8.533,8.533v25.6C110.933,38.844,107.119,42.667,102.4,42.667"/>
		<path style="fill:#DEC150;" d="M136.533,42.667c-4.719,0-8.533-3.823-8.533-8.533v-25.6C128,3.823,131.814,0,136.533,0    s8.533,3.823,8.533,8.533v25.6C145.067,38.844,141.252,42.667,136.533,42.667"/>
		<path style="fill:#DEC150;" d="M170.667,42.667c-4.719,0-8.533-3.823-8.533-8.533v-25.6c0-4.71,3.814-8.533,8.533-8.533    c4.719,0,8.533,3.823,8.533,8.533v25.6C179.2,38.844,175.386,42.667,170.667,42.667"/>
		<path style="fill:#DEC150;" d="M204.8,42.667c-4.719,0-8.533-3.823-8.533-8.533v-25.6c0-4.71,3.814-8.533,8.533-8.533    c4.719,0,8.533,3.823,8.533,8.533v25.6C213.333,38.844,209.519,42.667,204.8,42.667"/>
		<path style="fill:#DEC150;" d="M238.933,42.667c-4.719,0-8.533-3.823-8.533-8.533v-25.6c0-4.71,3.814-8.533,8.533-8.533    c4.719,0,8.533,3.823,8.533,8.533v25.6C247.467,38.844,243.652,42.667,238.933,42.667"/>
		<path style="fill:#DEC150;" d="M273.067,42.667c-4.719,0-8.533-3.823-8.533-8.533v-25.6c0-4.71,3.814-8.533,8.533-8.533    s8.533,3.823,8.533,8.533v25.6C281.6,38.844,277.786,42.667,273.067,42.667"/>
		<path style="fill:#DEC150;" d="M307.2,42.667c-4.719,0-8.533-3.823-8.533-8.533v-25.6c0-4.71,3.814-8.533,8.533-8.533    s8.533,3.823,8.533,8.533v25.6C315.733,38.844,311.919,42.667,307.2,42.667"/>
		<path style="fill:#DEC150;" d="M341.333,42.667c-4.719,0-8.533-3.823-8.533-8.533v-25.6c0-4.71,3.814-8.533,8.533-8.533    s8.533,3.823,8.533,8.533v25.6C349.867,38.844,346.052,42.667,341.333,42.667"/>
		<path style="fill:#DEC150;" d="M375.467,42.667c-4.719,0-8.533-3.823-8.533-8.533v-25.6c0-4.71,3.814-8.533,8.533-8.533    C380.186,0,384,3.823,384,8.533v25.6C384,38.844,380.186,42.667,375.467,42.667"/>
		<path style="fill:#DEC150;" d="M409.6,42.667c-4.719,0-8.533-3.823-8.533-8.533v-25.6c0-4.71,3.814-8.533,8.533-8.533    c4.719,0,8.533,3.823,8.533,8.533v25.6C418.133,38.844,414.319,42.667,409.6,42.667"/>
	</g>
	<path style="fill:#F3D55B;" d="M409.6,486.4H102.4c-4.719,0-8.533-3.823-8.533-8.533V34.133c0-4.71,3.814-8.533,8.533-8.533h307.2   c4.719,0,8.533,3.823,8.533,8.533v443.733C418.133,482.577,414.319,486.4,409.6,486.4"/>
	<polygon style="fill:#DEC150;" points="136.533,443.733 375.467,443.733 375.467,68.267 136.533,68.267  "/>
	<g>
		<path style="fill:#AD983E;" d="M238.933,281.6c0-18.85-15.283-34.133-34.133-34.133s-34.133,15.283-34.133,34.133    s15.283,34.133,34.133,34.133S238.933,300.45,238.933,281.6"/>
		<path style="fill:#AD983E;" d="M375.467,283.837c-5.47-1.408-11.162-2.236-17.067-2.236c-37.7,0-68.267,30.558-68.267,68.267    c0,37.7,30.566,68.267,68.267,68.267c5.905,0,11.597-0.828,17.067-2.236V283.837z"/>
		<path style="fill:#AD983E;" d="M136.533,127.808c7.151,5.402,15.949,8.721,25.6,8.721c23.569,0,42.667-19.098,42.667-42.667    c0-9.643-3.328-18.449-8.721-25.6h-59.546V127.808z"/>
		<path style="fill:#AD983E;" d="M170.667,358.4c-12.698,0-24.448,3.994-34.133,10.752v74.581h88.038    c3.695-7.765,5.828-16.427,5.828-25.6C230.4,385.143,203.657,358.4,170.667,358.4"/>
		<path style="fill:#AD983E;" d="M298.667,85.333c0,37.7,30.566,68.267,68.267,68.267c2.901,0,5.734-0.239,8.533-0.589V68.267    h-74.564C299.494,73.728,298.667,79.428,298.667,85.333"/>
		<path style="fill:#AD983E;" d="M307.2,187.733c0-14.14-11.46-25.6-25.6-25.6c-14.14,0-25.6,11.46-25.6,25.6    c0,14.14,11.46,25.6,25.6,25.6C295.74,213.333,307.2,201.873,307.2,187.733"/>
	</g>
</g>
<g>
</g>
<g>
</g>
<g>
</g>
<g>
</g>
<g>
</g>
<g>
</g>
<g>
</g>
<g>
</g>
<g>
</g>
<g>
</g>
<g>
</g>
<g>
</g>
<g>
</g>
<g>
</g>
<g>
</g>
</svg>
