<?xml version="1.0" encoding="iso-8859-1"?>
<!-- Generator: Adobe Illustrator 19.0.0, SVG Export Plug-In . SVG Version: 6.00 Build 0)  -->
<svg xmlns="http://www.w3.org/2000/svg" xmlns:xlink="http://www.w3.org/1999/xlink" version="1.1" id="Capa_1" x="0px" y="0px" viewBox="0 0 512 512" style="enable-background:new 0 0 512 512;" xml:space="preserve">
<g>
	<g>
		<path style="fill:#E64C3C;" d="M102.4,512c-4.71,0-8.533-3.823-8.533-8.533v-25.6c0-4.71,3.823-8.533,8.533-8.533    c4.71,0,8.533,3.823,8.533,8.533v25.6C110.933,508.177,107.11,512,102.4,512"/>
		<path style="fill:#E64C3C;" d="M136.533,512c-4.71,0-8.533-3.823-8.533-8.533v-25.6c0-4.71,3.823-8.533,8.533-8.533    s8.533,3.823,8.533,8.533v25.6C145.067,508.177,141.244,512,136.533,512"/>
		<path style="fill:#E64C3C;" d="M170.667,512c-4.71,0-8.533-3.823-8.533-8.533v-25.6c0-4.71,3.823-8.533,8.533-8.533    s8.533,3.823,8.533,8.533v25.6C179.2,508.177,175.377,512,170.667,512"/>
		<path style="fill:#E64C3C;" d="M204.8,512c-4.71,0-8.533-3.823-8.533-8.533v-25.6c0-4.71,3.823-8.533,8.533-8.533    c4.71,0,8.533,3.823,8.533,8.533v25.6C213.333,508.177,209.51,512,204.8,512"/>
		<path style="fill:#E64C3C;" d="M238.933,512c-4.71,0-8.533-3.823-8.533-8.533v-25.6c0-4.71,3.823-8.533,8.533-8.533    s8.533,3.823,8.533,8.533v25.6C247.467,508.177,243.644,512,238.933,512"/>
		<path style="fill:#E64C3C;" d="M273.067,512c-4.71,0-8.533-3.823-8.533-8.533v-25.6c0-4.71,3.823-8.533,8.533-8.533    s8.533,3.823,8.533,8.533v25.6C281.6,508.177,277.777,512,273.067,512"/>
		<path style="fill:#E64C3C;" d="M307.2,512c-4.71,0-8.533-3.823-8.533-8.533v-25.6c0-4.71,3.823-8.533,8.533-8.533    c4.71,0,8.533,3.823,8.533,8.533v25.6C315.733,508.177,311.91,512,307.2,512"/>
		<path style="fill:#E64C3C;" d="M341.333,512c-4.71,0-8.533-3.823-8.533-8.533v-25.6c0-4.71,3.823-8.533,8.533-8.533    c4.71,0,8.533,3.823,8.533,8.533v25.6C349.867,508.177,346.044,512,341.333,512"/>
		<path style="fill:#E64C3C;" d="M375.467,512c-4.71,0-8.533-3.823-8.533-8.533v-25.6c0-4.71,3.823-8.533,8.533-8.533    c4.71,0,8.533,3.823,8.533,8.533v25.6C384,508.177,380.177,512,375.467,512"/>
		<path style="fill:#E64C3C;" d="M409.6,512c-4.71,0-8.533-3.823-8.533-8.533v-25.6c0-4.71,3.823-8.533,8.533-8.533    c4.71,0,8.533,3.823,8.533,8.533v25.6C418.133,508.177,414.31,512,409.6,512"/>
		<path style="fill:#E64C3C;" d="M102.4,42.667c-4.71,0-8.533-3.823-8.533-8.533v-25.6C93.867,3.823,97.69,0,102.4,0    c4.71,0,8.533,3.823,8.533,8.533v25.6C110.933,38.844,107.11,42.667,102.4,42.667"/>
		<path style="fill:#E64C3C;" d="M136.533,42.667c-4.71,0-8.533-3.823-8.533-8.533v-25.6C128,3.823,131.823,0,136.533,0    s8.533,3.823,8.533,8.533v25.6C145.067,38.844,141.244,42.667,136.533,42.667"/>
		<path style="fill:#E64C3C;" d="M170.667,42.667c-4.71,0-8.533-3.823-8.533-8.533v-25.6c0-4.71,3.823-8.533,8.533-8.533    s8.533,3.823,8.533,8.533v25.6C179.2,38.844,175.377,42.667,170.667,42.667"/>
		<path style="fill:#E64C3C;" d="M204.8,42.667c-4.71,0-8.533-3.823-8.533-8.533v-25.6c0-4.71,3.823-8.533,8.533-8.533    c4.71,0,8.533,3.823,8.533,8.533v25.6C213.333,38.844,209.51,42.667,204.8,42.667"/>
		<path style="fill:#E64C3C;" d="M238.933,42.667c-4.71,0-8.533-3.823-8.533-8.533v-25.6c0-4.71,3.823-8.533,8.533-8.533    s8.533,3.823,8.533,8.533v25.6C247.467,38.844,243.644,42.667,238.933,42.667"/>
		<path style="fill:#E64C3C;" d="M273.067,42.667c-4.71,0-8.533-3.823-8.533-8.533v-25.6c0-4.71,3.823-8.533,8.533-8.533    s8.533,3.823,8.533,8.533v25.6C281.6,38.844,277.777,42.667,273.067,42.667"/>
		<path style="fill:#E64C3C;" d="M307.2,42.667c-4.71,0-8.533-3.823-8.533-8.533v-25.6c0-4.71,3.823-8.533,8.533-8.533    c4.71,0,8.533,3.823,8.533,8.533v25.6C315.733,38.844,311.91,42.667,307.2,42.667"/>
		<path style="fill:#E64C3C;" d="M341.333,42.667c-4.71,0-8.533-3.823-8.533-8.533v-25.6c0-4.71,3.823-8.533,8.533-8.533    c4.71,0,8.533,3.823,8.533,8.533v25.6C349.867,38.844,346.044,42.667,341.333,42.667"/>
		<path style="fill:#E64C3C;" d="M375.467,42.667c-4.71,0-8.533-3.823-8.533-8.533v-25.6c0-4.71,3.823-8.533,8.533-8.533    C380.177,0,384,3.823,384,8.533v25.6C384,38.844,380.177,42.667,375.467,42.667"/>
		<path style="fill:#E64C3C;" d="M409.6,42.667c-4.71,0-8.533-3.823-8.533-8.533v-25.6c0-4.71,3.823-8.533,8.533-8.533    c4.71,0,8.533,3.823,8.533,8.533v25.6C418.133,38.844,414.31,42.667,409.6,42.667"/>
	</g>
	<path style="fill:#BC342A;" d="M409.6,486.4H102.4c-4.71,0-8.533-3.823-8.533-8.533V34.133c0-4.71,3.823-8.533,8.533-8.533h307.2   c4.71,0,8.533,3.823,8.533,8.533v443.733C418.133,482.577,414.31,486.4,409.6,486.4"/>
	<polygon style="fill:#F3D55B;" points="136.533,443.733 375.467,443.733 375.467,68.267 136.533,68.267  "/>
	<polygon style="fill:#D1B84B;" points="136.533,281.6 349.867,68.267 136.533,68.267  "/>
	<polygon style="fill:#AD983E;" points="174.933,243.2 136.533,281.6 136.533,443.733 375.467,443.733  "/>
	<g>
		<polygon style="fill:#FFFFFF;" points="375.467,324.267 341.333,324.267 341.333,290.133 307.2,290.133 307.2,256 273.067,256     273.067,221.867 307.2,221.867 307.2,187.733 341.333,187.733 341.333,153.6 375.467,153.6   "/>
		<polygon style="fill:#FFFFFF;" points="136.533,443.733 136.533,307.2 170.667,307.2 170.667,341.333 204.8,341.333     204.8,375.467 238.933,375.467 238.933,409.6 204.8,409.6 204.8,443.733   "/>
		<polygon style="fill:#FFFFFF;" points="136.533,68.267 136.533,170.667 170.667,170.667 170.667,136.533 204.8,136.533     204.8,102.4 238.933,102.4 238.933,68.267   "/>
	</g>
</g>
<g>
</g>
<g>
</g>
<g>
</g>
<g>
</g>
<g>
</g>
<g>
</g>
<g>
</g>
<g>
</g>
<g>
</g>
<g>
</g>
<g>
</g>
<g>
</g>
<g>
</g>
<g>
</g>
<g>
</g>
</svg>
