<?xml version="1.0" encoding="iso-8859-1"?>
<!-- Generator: Adobe Illustrator 19.0.0, SVG Export Plug-In . SVG Version: 6.00 Build 0)  -->
<svg xmlns="http://www.w3.org/2000/svg" xmlns:xlink="http://www.w3.org/1999/xlink" version="1.1" id="Capa_1" x="0px" y="0px" viewBox="0 0 512 512" style="enable-background:new 0 0 512 512;" xml:space="preserve">
<g>
	<polygon style="fill:#E64C3C;" points="344.276,44.138 344.276,158.897 414.897,158.897 414.897,82.388 414.897,44.138  "/>
	<polygon style="fill:#F3D55B;" points="397.241,158.897 467.862,158.897 467.862,79.448 397.241,79.448  "/>
	<polygon style="fill:#464F5D;" points="300.138,264.828 300.138,344.276 300.138,397.241 450.207,397.241 450.207,344.276    450.207,264.828  "/>
	<polygon style="fill:#F7F0E8;" points="326.621,397.241 423.724,397.241 423.724,291.31 326.621,291.31  "/>
	<g>
		<polygon style="fill:#D1D4D1;" points="273.655,406.069 344.276,406.069 344.276,344.276 273.655,344.276   "/>
		<polygon style="fill:#D1D4D1;" points="397.241,406.069 467.862,406.069 467.862,344.276 397.241,344.276   "/>
	</g>
	<polygon style="fill:#706B67;" points="26.483,220.69 26.483,406.069 167.724,406.069 167.724,308.966 167.724,220.69  "/>
	<polygon style="fill:#F7F0E8;" points="132.414,317.793 141.241,317.793 141.241,247.172 52.966,247.172 52.966,370.759    141.241,370.759  "/>
	<polygon style="fill:#D1D4D1;" points="132.414,406.069 238.345,406.069 238.345,308.966 132.414,308.966  "/>
	<g>
		<polygon style="fill:#6B4A3A;" points="406.069,467.862 459.034,467.862 459.034,414.897 406.069,414.897   "/>
		<polygon style="fill:#6B4A3A;" points="35.31,467.862 88.276,467.862 88.276,414.897 35.31,414.897   "/>
		<polygon style="fill:#6B4A3A;" points="450.207,211.862 485.517,211.862 485.517,176.552 450.207,176.552   "/>
		<polygon style="fill:#6B4A3A;" points="326.621,211.862 361.931,211.862 361.931,176.552 326.621,176.552   "/>
	</g>
	<g>
		<polygon style="fill:#966F58;" points="0,432.552 494.345,432.552 494.345,397.241 0,397.241   "/>
		<polygon style="fill:#966F58;" points="300.138,185.379 512,185.379 512,150.069 300.138,150.069   "/>
	</g>
</g>
<g>
</g>
<g>
</g>
<g>
</g>
<g>
</g>
<g>
</g>
<g>
</g>
<g>
</g>
<g>
</g>
<g>
</g>
<g>
</g>
<g>
</g>
<g>
</g>
<g>
</g>
<g>
</g>
<g>
</g>
</svg>
