<?xml version="1.0" encoding="iso-8859-1"?>
<!-- Generator: Adobe Illustrator 19.0.0, SVG Export Plug-In . SVG Version: 6.00 Build 0)  -->
<svg xmlns="http://www.w3.org/2000/svg" xmlns:xlink="http://www.w3.org/1999/xlink" version="1.1" id="Capa_1" x="0px" y="0px" viewBox="0 0 511.9 511.9" style="enable-background:new 0 0 511.9 511.9;" xml:space="preserve">
<g>
	<path style="fill:#492B1D;" d="M468.5,434.7c5.1,8.3,8.5,17.9,6.4,28.1c0,0.3-0.1,0.5-0.2,0.7c-3.5,17.9-1.3,32.5,12.3,47.6   l0.7,0.8h-6.4c-31.8,0-44.7-34-44-49.2c0.6-11.7-2.9-20.9-7.6-28.1h38.8V434.7z"/>
	<path style="fill:#492B1D;" d="M43.5,434.7c-5.1,8.3-8.5,17.9-6.4,28.1c0.1,0.3,0.1,0.5,0.2,0.7c3.5,17.9,1.3,32.5-12.3,47.6   l-0.7,0.8h6.4c31.8,0,44.7-34,44-49.2c-0.6-11.7,2.9-20.9,7.6-28.1H43.5V434.7z"/>
</g>
<g>
	<polygon style="fill:#966F58;" points="14.5,434.7 256,434.7 256,357.4 14.5,357.4  "/>
	<polygon style="fill:#966F58;" points="256,434.7 497.5,434.7 497.5,357.4 256,357.4  "/>
	<polygon style="fill:#966F58;" points="14.5,357.4 256,357.4 256,86.9 14.5,86.9  "/>
	<polygon style="fill:#966F58;" points="256,357.4 497.5,357.4 497.5,86.9 256,86.9  "/>
</g>
<path style="fill:#DEC150;" d="M169.1,405.7h-67.6c-5.3,0-9.7-4.3-9.7-9.7c0-5.3,4.3-9.7,9.7-9.7h67.6c5.3,0,9.7,4.3,9.7,9.7  C178.7,401.4,174.4,405.7,169.1,405.7"/>
<g>
	<polygon style="fill:#966F58;" points="14.5,86.9 169.1,86.9 169.1,9.7 14.5,9.7  "/>
	<polygon style="fill:#966F58;" points="169.1,86.9 342.9,86.9 342.9,9.7 169.1,9.7  "/>
	<polygon style="fill:#966F58;" points="342.9,86.9 497.5,86.9 497.5,9.7 342.9,9.7  "/>
</g>
<path style="fill:#69432E;" d="M352.6,0h-19.3H178.7h-19.3H4.8v77.3v19.3v251.2v19.3v77.3h241.5h19.3h241.5v-77.3v-19.3V96.6V77.3V0  H352.6z M178.7,19.3h154.6v58h-67.6h-19.3h-67.6v-58H178.7z M24.2,19.3h135.2v58H24.2V19.3z M24.2,96.6h135.2h19.3h67.6v251.2H24.2  V96.6z M246.3,425.1H24.2v-58h222.2v58H246.3z M487.8,425.1H265.7v-58h222.2v58H487.8z M487.8,347.8H265.7V96.6h67.6h19.3h135.2  V347.8z M352.6,77.3v-58h135.2v58H352.6z"/>
<g>
	<path style="fill:#DEC150;" d="M410.6,405.7H343c-5.3,0-9.7-4.3-9.7-9.7c0-5.3,4.3-9.7,9.7-9.7h67.6c5.3,0,9.7,4.3,9.7,9.7   C420.2,401.4,415.9,405.7,410.6,405.7"/>
	<path style="fill:#DEC150;" d="M198,251.2c-5.3,0-9.7-4.3-9.7-9.7v-29c0-5.3,4.3-9.7,9.7-9.7s9.7,4.3,9.7,9.7v29   C207.7,246.8,203.4,251.2,198,251.2"/>
	<path style="fill:#DEC150;" d="M198,222.2h-29c-5.3,0-9.7-4.3-9.7-9.7s4.3-9.7,9.7-9.7h29c5.3,0,9.7,4.3,9.7,9.7   S203.4,222.2,198,222.2"/>
	<path style="fill:#DEC150;" d="M314,251.2c-5.3,0-9.7-4.3-9.7-9.7v-29c0-5.3,4.3-9.7,9.7-9.7c5.3,0,9.7,4.3,9.7,9.7v29   C323.6,246.8,319.3,251.2,314,251.2"/>
	<path style="fill:#DEC150;" d="M342.9,222.2h-29c-5.3,0-9.7-4.3-9.7-9.7s4.3-9.7,9.7-9.7h29c5.3,0,9.7,4.3,9.7,9.7   S348.3,222.2,342.9,222.2"/>
	<path style="fill:#DEC150;" d="M111.1,58H72.5c-5.3,0-9.7-4.3-9.7-9.7s4.3-9.7,9.7-9.7h38.6c5.3,0,9.7,4.3,9.7,9.7   S116.4,58,111.1,58"/>
	<path style="fill:#DEC150;" d="M439.5,58h-38.6c-5.3,0-9.7-4.3-9.7-9.7s4.3-9.7,9.7-9.7h38.6c5.3,0,9.7,4.3,9.7,9.7   S444.9,58,439.5,58"/>
	<path style="fill:#DEC150;" d="M285,58h-48.3c-5.3,0-9.7-4.3-9.7-9.7s4.3-9.7,9.7-9.7H285c5.3,0,9.7,4.3,9.7,9.7S290.3,58,285,58"/>
</g>
<g>
</g>
<g>
</g>
<g>
</g>
<g>
</g>
<g>
</g>
<g>
</g>
<g>
</g>
<g>
</g>
<g>
</g>
<g>
</g>
<g>
</g>
<g>
</g>
<g>
</g>
<g>
</g>
<g>
</g>
</svg>
