<?xml version="1.0" encoding="iso-8859-1"?>
<!-- Generator: Adobe Illustrator 19.0.0, SVG Export Plug-In . SVG Version: 6.00 Build 0)  -->
<svg xmlns="http://www.w3.org/2000/svg" xmlns:xlink="http://www.w3.org/1999/xlink" version="1.1" id="Capa_1" x="0px" y="0px" viewBox="0 0 512 512" style="enable-background:new 0 0 512 512;" xml:space="preserve">
<path style="fill:#88C057;" d="M287.6,125.45c3.3-3.3,3.3-8.7,0-12.1c-3.3-3.3-8.7-3.3-12.1,0l-2.5,2.5v-13.5c0-4.7-3.8-8.5-8.5-8.5  s-8.5,3.8-8.5,8.5v30.6l-2.5-2.5c-3.3-3.3-8.7-3.3-12.1,0c-3.3,3.3-3.3,8.7,0,12.1l14.6,14.6v13.5c0,4.7,3.8,8.5,8.5,8.5  s8.5-3.8,8.5-8.5v-17v-0.1v-13.5L287.6,125.45z"/>
<path style="fill:#7D6599;" d="M239.1,170.65c-5.4,13.6-8.7,14.4-8.7,34.1c0,42.4,15.3,42.7,34.1,42.7s34.1-0.2,34.1-42.7  c0-19.7-3.3-20.5-8.7-34.1L239.1,170.65L239.1,170.65z"/>
<path style="fill:#E64C3C;" d="M264.5,59.65v-17h-25.6v34.1c0,14.1,11.5,25.6,25.6,25.6v8.5c14.1,0,25.6-11.5,25.6-25.6v-25.6H264.5  z"/>
<path style="fill:#C03A2B;" d="M264.5,59.65h25.6v25.6c0,14.1-11.5,25.6-25.6,25.6V59.65z"/>
<polygon style="fill:#D1D4D1;" points="51.2,247.45 102.4,247.45 102.4,213.25 51.2,213.25 "/>
<path style="fill:#A5A5A4;" d="M119.5,221.85H34.1c-4.7,0-8.5-3.8-8.5-8.5s3.8-8.5,8.5-8.5h85.3c4.7,0,8.5,3.8,8.5,8.5  S124.2,221.85,119.5,221.85"/>
<polygon style="fill:#D1D4D1;" points="409.6,247.45 460.8,247.45 460.8,213.25 409.6,213.25 "/>
<path style="fill:#A5A5A4;" d="M476.9,221.85h-85.3c-4.7,0-8.5-3.8-8.5-8.5s3.8-8.5,8.5-8.5h85.3c4.7,0,8.5,3.8,8.5,8.5  S481.6,221.85,476.9,221.85"/>
<g>
	<path style="fill:#492B1D;" d="M477.9,401.05c4.5,7.3,7.5,15.8,5.7,24.8c-0.1,0.2-0.1,0.4-0.1,0.7c-3.1,15.8-1.2,28.7,10.9,42.1   l0.7,0.7h-5.6c-28.1,0-39.5-30-38.9-43.4c0.5-10.3-2.6-18.5-6.7-24.8h34V401.05z"/>
	<path style="fill:#492B1D;" d="M34.1,401.05c-4.5,7.3-7.5,15.8-5.7,24.8c0.1,0.2,0.1,0.4,0.1,0.7c3.1,15.8,1.2,28.7-10.9,42.1   l-0.7,0.7h5.6c28.1,0,39.5-30,38.9-43.4c-0.5-10.3,2.6-18.5,6.7-24.8h-34V401.05z"/>
</g>
<g>
	<polygon style="fill:#966F58;" points="8.5,401.05 179.2,401.05 179.2,247.45 8.5,247.45  "/>
	<polygon style="fill:#966F58;" points="179.2,401.05 349.9,401.05 349.9,247.45 179.2,247.45  "/>
	<polygon style="fill:#966F58;" points="349.9,401.05 503.5,401.05 503.5,247.45 349.9,247.45  "/>
</g>
<path style="fill:#69432E;" d="M358.4,392.45h136.5v-136.5H358.4V392.45z M341.3,409.55H512v-170.7H341.3V409.55z"/>
<g>
	<polygon style="fill:#966F58;" points="349.9,324.25 503.5,324.25 503.5,247.45 349.9,247.45  "/>
	<polygon style="fill:#966F58;" points="349.9,401.05 503.5,401.05 503.5,324.25 349.9,324.25  "/>
</g>
<path style="fill:#69432E;" d="M358.4,238.85h-17.1H187.7h-17.1H0v170.7h170.7h17.1h153.6h17.1H512v-76.8v-17.1v-76.8L358.4,238.85  L358.4,238.85z M170.7,392.45H17.1v-136.5h153.6L170.7,392.45L170.7,392.45z M341.3,392.45H187.7v-136.5h153.6v59.7v17.1V392.45z   M494.9,392.45H358.4v-59.7h136.5V392.45z M358.4,315.65v-59.7h136.5v59.7H358.4z"/>
<g>
	<path style="fill:#DEC150;" d="M247.5,281.55h-25.6c-4.7,0-8.5,3.8-8.5,8.5v25.6c0,4.7,3.8,8.5,8.5,8.5s8.5-3.8,8.5-8.5v-17.1h17.1   c4.7,0,8.5-3.8,8.5-8.5S252.2,281.55,247.5,281.55z"/>
	<path style="fill:#DEC150;" d="M409.6,298.65h34.1c4.7,0,8.5-3.8,8.5-8.5s-3.8-8.5-8.5-8.5h-34.1c-4.7,0-8.5,3.8-8.5,8.5   C401.1,294.75,404.9,298.65,409.6,298.65z"/>
	<path style="fill:#DEC150;" d="M443.7,358.35h-34.1c-4.7,0-8.5,3.8-8.5,8.5s3.8,8.5,8.5,8.5h34.1c4.7,0,8.5-3.8,8.5-8.5   S448.4,358.35,443.7,358.35z"/>
	<path style="fill:#DEC150;" d="M136.5,281.55h-25.6c-4.7,0-8.5,3.8-8.5,8.5s3.8,8.5,8.5,8.5H128v17.1c0,4.7,3.8,8.5,8.5,8.5   s8.5-3.8,8.5-8.5v-25.6C145.1,285.35,141.2,281.55,136.5,281.55z"/>
</g>
<g>
</g>
<g>
</g>
<g>
</g>
<g>
</g>
<g>
</g>
<g>
</g>
<g>
</g>
<g>
</g>
<g>
</g>
<g>
</g>
<g>
</g>
<g>
</g>
<g>
</g>
<g>
</g>
<g>
</g>
</svg>
