<?xml version="1.0" encoding="iso-8859-1"?>
<!-- Generator: Adobe Illustrator 19.0.0, SVG Export Plug-In . SVG Version: 6.00 Build 0)  -->
<svg xmlns="http://www.w3.org/2000/svg" xmlns:xlink="http://www.w3.org/1999/xlink" version="1.1" id="Capa_1" x="0px" y="0px" viewBox="0 0 512 512" style="enable-background:new 0 0 512 512;" xml:space="preserve">
<g>
	<path style="fill:#492B1D;" d="M82.6,256c-12.9,18.5-26.6,48.4-20.8,88.3c7,47.8-10,61.7-9.8,61.8l-25.5,35.3h8.8   c44.1,0,62.8-68.1,61.8-97.1c-2.2-62.9,28.8-84.2,29.1-84.5l3.8-3.8L82.6,256L82.6,256z"/>
	<path style="fill:#492B1D;" d="M438.3,256c12.9,18.5,26.6,48.4,20.8,88.3c-7,47.8,10,61.7,9.8,61.8l25.5,35.3h-8.8   c-44.1,0-62.8-68.1-61.8-97.1c2.2-62.9-28.8-84.2-29.1-84.5l-3.8-3.8L438.3,256L438.3,256z"/>
</g>
<polygon style="fill:#966F58;" points="17.7,256 494.3,256 494.3,97.1 17.7,97.1 "/>
<path style="fill:#69432E;" d="M8.8,88.3v176.6h494.3V88.3H8.8z M485.5,247.2h-459V105.9h459V247.2z"/>
<g>
	<polygon style="fill:#492B1D;" points="53,220.7 229.5,220.7 229.5,132.4 53,132.4  "/>
	<polygon style="fill:#492B1D;" points="282.5,220.7 459,220.7 459,132.4 282.5,132.4  "/>
	<polygon style="fill:#492B1D;" points="0,105.9 512,105.9 512,70.6 0,70.6  "/>
</g>
<g>
	<path style="fill:#DEC150;" d="M176.6,176.6H106c-4.9,0-8.8-4-8.8-8.8c0-4.9,3.9-8.8,8.8-8.8h70.6c4.9,0,8.8,4,8.8,8.8   C185.4,172.6,181.4,176.6,176.6,176.6"/>
	<path style="fill:#DEC150;" d="M141.2,194.2c-4.9,0-8.8-4-8.8-8.8v-17.7c0-4.9,3.9-8.8,8.8-8.8s8.8,4,8.8,8.8v17.7   C150.1,190.3,146.1,194.2,141.2,194.2"/>
	<path style="fill:#DEC150;" d="M406.1,176.6h-70.6c-4.9,0-8.8-4-8.8-8.8c0-4.9,3.9-8.8,8.8-8.8h70.6c4.9,0,8.8,4,8.8,8.8   S411,176.6,406.1,176.6"/>
	<path style="fill:#DEC150;" d="M370.8,194.2c-4.9,0-8.8-4-8.8-8.8v-17.7c0-4.9,3.9-8.8,8.8-8.8s8.8,4,8.8,8.8v17.7   C379.6,190.3,375.6,194.2,370.8,194.2"/>
</g>
<g>
</g>
<g>
</g>
<g>
</g>
<g>
</g>
<g>
</g>
<g>
</g>
<g>
</g>
<g>
</g>
<g>
</g>
<g>
</g>
<g>
</g>
<g>
</g>
<g>
</g>
<g>
</g>
<g>
</g>
</svg>
