<?xml version="1.0" encoding="iso-8859-1"?>
<!-- Generator: Adobe Illustrator 19.0.0, SVG Export Plug-In . SVG Version: 6.00 Build 0)  -->
<svg xmlns="http://www.w3.org/2000/svg" xmlns:xlink="http://www.w3.org/1999/xlink" version="1.1" id="Capa_1" x="0px" y="0px" viewBox="0 0 512 512" style="enable-background:new 0 0 512 512;" xml:space="preserve">
<g>
	<polygon style="fill:#706B67;" points="26.483,260.414 494.345,260.414 494.345,101.517 26.483,101.517  "/>
	<g>
		<polygon style="fill:#C7BFB7;" points="61.793,225.103 459.034,225.103 459.034,136.828 61.793,136.828   "/>
		<polygon style="fill:#C7BFB7;" points="0,101.517 512,101.517 512,66.207 0,66.207   "/>
	</g>
	<g>
		<path style="fill:#706B67;" d="M291.31,180.966H220.69c-4.882,0-8.828-3.955-8.828-8.828c0-4.873,3.946-8.828,8.828-8.828h70.621    c4.882,0,8.828,3.955,8.828,8.828C300.138,177.011,296.192,180.966,291.31,180.966"/>
		<path style="fill:#706B67;" d="M256,198.621c-4.882,0-8.828-3.955-8.828-8.828v-17.655c0-4.873,3.946-8.828,8.828-8.828    s8.828,3.955,8.828,8.828v17.655C264.828,194.666,260.882,198.621,256,198.621"/>
	</g>
	<g>
		<polygon style="fill:#C7BFB7;" points="52.966,445.793 88.276,445.793 88.276,260.414 52.966,260.414   "/>
		<polygon style="fill:#C7BFB7;" points="432.552,445.793 467.862,445.793 467.862,260.414 432.552,260.414   "/>
	</g>
</g>
<g>
</g>
<g>
</g>
<g>
</g>
<g>
</g>
<g>
</g>
<g>
</g>
<g>
</g>
<g>
</g>
<g>
</g>
<g>
</g>
<g>
</g>
<g>
</g>
<g>
</g>
<g>
</g>
<g>
</g>
</svg>
