<?xml version="1.0" encoding="iso-8859-1"?>
<!-- Generator: Adobe Illustrator 19.0.0, SVG Export Plug-In . SVG Version: 6.00 Build 0)  -->
<svg xmlns="http://www.w3.org/2000/svg" xmlns:xlink="http://www.w3.org/1999/xlink" version="1.1" id="Capa_1" x="0px" y="0px" viewBox="0 0 512 512" style="enable-background:new 0 0 512 512;" xml:space="preserve">
<g>
	<g>
		<path style="fill:#67594D;" d="M450.207,441.379c4.634,7.601,7.751,16.375,5.879,25.679c-0.044,0.23-0.088,0.459-0.132,0.68    c-3.187,16.331-1.192,29.705,11.229,43.502l0.68,0.759h-5.817c-29.078,0-40.872-31.029-40.201-44.941    c0.521-10.673-2.657-19.138-6.947-25.679H450.207z"/>
		<path style="fill:#67594D;" d="M61.793,441.379c-4.634,7.601-7.751,16.375-5.879,25.679c0.044,0.23,0.088,0.459,0.132,0.68    c3.187,16.331,1.192,29.705-11.229,43.502L44.138,512h5.817c29.078,0,40.872-31.029,40.201-44.941    c-0.521-10.673,2.657-19.138,6.947-25.679H61.793z"/>
	</g>
	<polygon style="fill:#7F6E5D;" points="35.31,388.414 256,388.414 256,308.966 35.31,308.966  "/>
	<g>
		<polygon style="fill:#67594D;" points="256,388.414 476.69,388.414 476.69,308.966 256,308.966   "/>
		<polygon style="fill:#67594D;" points="35.31,317.793 264.828,317.793 264.828,52.966 35.31,52.966   "/>
	</g>
	<polygon style="fill:#7F6E5D;" points="256,317.793 476.69,317.793 476.69,52.966 256,52.966  "/>
	<g>
		<path style="fill:#998B81;" d="M176.552,353.103h-61.793c-4.882,0-8.828-3.955-8.828-8.828c0-4.873,3.946-8.828,8.828-8.828    h61.793c4.882,0,8.828,3.955,8.828,8.828C185.379,349.149,181.433,353.103,176.552,353.103"/>
		<path style="fill:#998B81;" d="M397.241,353.103h-61.793c-4.882,0-8.828-3.955-8.828-8.828c0-4.873,3.946-8.828,8.828-8.828    h61.793c4.882,0,8.828,3.955,8.828,8.828C406.069,349.149,402.123,353.103,397.241,353.103"/>
		<path style="fill:#998B81;" d="M203.034,211.862c-4.882,0-8.828-3.955-8.828-8.828v-26.483c0-4.873,3.946-8.828,8.828-8.828    s8.828,3.955,8.828,8.828v26.483C211.862,207.907,207.916,211.862,203.034,211.862"/>
		<path style="fill:#998B81;" d="M203.034,185.379h-26.483c-4.882,0-8.828-3.955-8.828-8.828c0-4.873,3.946-8.828,8.828-8.828    h26.483c4.882,0,8.828,3.955,8.828,8.828C211.862,181.425,207.916,185.379,203.034,185.379"/>
		<path style="fill:#998B81;" d="M308.966,211.862c-4.882,0-8.828-3.955-8.828-8.828v-26.483c0-4.873,3.946-8.828,8.828-8.828    c4.882,0,8.828,3.955,8.828,8.828v26.483C317.793,207.907,313.847,211.862,308.966,211.862"/>
		<path style="fill:#998B81;" d="M335.448,185.379h-26.483c-4.882,0-8.828-3.955-8.828-8.828c0-4.873,3.946-8.828,8.828-8.828    h26.483c4.882,0,8.828,3.955,8.828,8.828C344.276,181.425,340.33,185.379,335.448,185.379"/>
		<path style="fill:#998B81;" d="M70.621,0H8.828v35.31c14.627,0,26.483,11.855,26.483,26.483h35.31H476.69    c0-14.627,11.855-26.483,26.483-26.483V0H70.621z"/>
		<path style="fill:#998B81;" d="M441.379,441.379h61.793v-35.31c-14.627,0-26.483-11.855-26.483-26.483h-35.31H35.31    c0,14.627-11.855,26.483-26.483,26.483v35.31H441.379z"/>
	</g>
</g>
<g>
</g>
<g>
</g>
<g>
</g>
<g>
</g>
<g>
</g>
<g>
</g>
<g>
</g>
<g>
</g>
<g>
</g>
<g>
</g>
<g>
</g>
<g>
</g>
<g>
</g>
<g>
</g>
<g>
</g>
</svg>
