<?xml version="1.0" encoding="iso-8859-1"?>
<!-- Generator: Adobe Illustrator 19.0.0, SVG Export Plug-In . SVG Version: 6.00 Build 0)  -->
<svg xmlns="http://www.w3.org/2000/svg" xmlns:xlink="http://www.w3.org/1999/xlink" version="1.1" id="Capa_1" x="0px" y="0px" viewBox="0 0 512 512" style="enable-background:new 0 0 512 512;" xml:space="preserve">
<g>
	<path style="fill:#4F3022;" d="M446.9,442.6c4.6,7.5,7.6,16.1,5.8,25.2c0,0.2-0.1,0.5-0.1,0.7c-3.1,16.1-1.2,29.2,11,42.8l0.7,0.7   h-5.7c-28.6,0-40.2-30.5-39.5-44.2c0.5-10.5-2.6-18.8-6.8-25.2L446.9,442.6L446.9,442.6z"/>
	<path style="fill:#4F3022;" d="M65.1,442.6c-4.6,7.5-7.6,16.1-5.8,25.2c0,0.2,0.1,0.5,0.1,0.7c3.1,16.1,1.2,29.2-11,42.8l-0.7,0.7   h5.7c28.6,0,40.2-30.5,39.5-44.2c-0.5-10.5,2.6-18.8,6.8-25.2L65.1,442.6L65.1,442.6z"/>
</g>
<g>
	<path style="fill:#69432E;" d="M73.8,8.7H13v34.7c14.4,0,26,11.7,26,26h34.7h399.2c0-14.4,11.7-26,26-26V8.7H73.8z"/>
	<path style="fill:#69432E;" d="M438.2,442.6H499v-34.7c-14.4,0-26-11.7-26-26h-34.7H39.1c0,14.4-11.7,26-26,26v34.7H438.2z"/>
	<polygon style="fill:#69432E;" points="39.1,381.8 472.9,381.8 472.9,69.4 39.1,69.4  "/>
</g>
<path style="fill:#8A5B46;" d="M499,52.1c4.8,0,8.7-3.9,8.7-8.7V8.7c0-4.8-3.9-8.7-8.7-8.7H13C8.2,0,4.3,3.9,4.3,8.7v34.7  c0,4.8,3.9,8.7,8.7,8.7c9.6,0,17.4,7.8,17.4,17.4v312.4c0,9.6-7.8,17.4-17.4,17.4c-4.8,0-8.7,3.9-8.7,8.7v34.7  c0,4.8,3.9,8.7,8.7,8.7h486c4.8,0,8.7-3.9,8.7-8.7V408c0-4.8-3.9-8.7-8.7-8.7c-9.6,0-17.4-7.8-17.4-17.4V69.4  C481.6,59.9,489.4,52.1,499,52.1z M21.7,35.8V17.4h468.6v18.4c-12.2,3.2-21.8,12.8-24.9,24.9H46.6C43.5,48.6,33.9,39,21.7,35.8z   M47.7,78.1h416.5v295.1H47.7V78.1z M490.3,415.4v18.4H21.7v-18.4c12.2-3.2,21.8-12.8,24.9-24.9h418.7  C468.5,402.7,478.1,412.3,490.3,415.4z"/>
<g>
	<polygon style="fill:#966F58;" points="73.8,225.6 438.2,225.6 438.2,104.1 73.8,104.1  "/>
	<polygon style="fill:#966F58;" points="73.8,347.1 438.2,347.1 438.2,225.6 73.8,225.6  "/>
</g>
<path style="fill:#69432E;" d="M65.1,95.5V217v17.4v121.5h381.8V234.3v-17.4V95.5H65.1z M429.6,338.4H82.4V234.3h347.1v104.1H429.6z   M82.4,216.9V112.8h347.1v104.1H82.4z"/>
<g>
	<path style="fill:#DEC150;" d="M290.7,147.5h-69.4c-4.8,0-8.7,3.9-8.7,8.7s3.9,8.7,8.7,8.7h26v8.7c0,4.8,3.9,8.7,8.7,8.7   s8.7-3.9,8.7-8.7v-8.7h26c4.8,0,8.7-3.9,8.7-8.7S295.5,147.5,290.7,147.5z"/>
	<path style="fill:#DEC150;" d="M290.7,269h-69.4c-4.8,0-8.7,3.9-8.7,8.7s3.9,8.7,8.7,8.7h26v8.7c0,4.8,3.9,8.7,8.7,8.7   s8.7-3.9,8.7-8.7v-8.7h26c4.8,0,8.7-3.9,8.7-8.7S295.5,269,290.7,269z"/>
</g>
<g>
</g>
<g>
</g>
<g>
</g>
<g>
</g>
<g>
</g>
<g>
</g>
<g>
</g>
<g>
</g>
<g>
</g>
<g>
</g>
<g>
</g>
<g>
</g>
<g>
</g>
<g>
</g>
<g>
</g>
</svg>
