<?xml version="1.0" encoding="iso-8859-1"?>
<!-- Generator: Adobe Illustrator 19.0.0, SVG Export Plug-In . SVG Version: 6.00 Build 0)  -->
<svg xmlns="http://www.w3.org/2000/svg" xmlns:xlink="http://www.w3.org/1999/xlink" version="1.1" id="Capa_1" x="0px" y="0px" viewBox="0 0 512 512" style="enable-background:new 0 0 512 512;" xml:space="preserve">
<g>
	<g>
		<polygon style="fill:#706B67;" points="432.552,512 459.034,512 459.034,441.379 414.897,441.379   "/>
		<polygon style="fill:#706B67;" points="79.448,512 52.966,512 52.966,441.379 97.103,441.379   "/>
		<polygon style="fill:#706B67;" points="256,35.31 35.31,35.31 35.31,406.069 256,406.069 476.69,406.069 476.69,35.31   "/>
	</g>
	<g>
		<polygon style="fill:#C7BFB7;" points="17.655,35.31 494.345,35.31 494.345,0 17.655,0   "/>
		<polygon style="fill:#C7BFB7;" points="17.655,441.379 494.345,441.379 494.345,406.069 17.655,406.069   "/>
		<polygon style="fill:#C7BFB7;" points="70.621,141.241 238.345,141.241 238.345,70.621 70.621,70.621   "/>
		<polygon style="fill:#C7BFB7;" points="273.655,141.241 441.379,141.241 441.379,70.621 273.655,70.621   "/>
		<polygon style="fill:#C7BFB7;" points="70.621,247.172 238.345,247.172 238.345,176.552 70.621,176.552   "/>
		<polygon style="fill:#C7BFB7;" points="273.655,247.172 441.379,247.172 441.379,176.552 273.655,176.552   "/>
		<polygon style="fill:#C7BFB7;" points="70.621,370.759 441.379,370.759 441.379,282.483 70.621,282.483   "/>
	</g>
	<g>
		<path style="fill:#F7F0E8;" d="M291.31,326.621H220.69c-4.873,0-8.828-3.955-8.828-8.828c0-4.873,3.955-8.828,8.828-8.828h70.621    c4.873,0,8.828,3.955,8.828,8.828C300.138,322.666,296.183,326.621,291.31,326.621"/>
		<path style="fill:#F7F0E8;" d="M256,344.276c-4.873,0-8.828-3.955-8.828-8.828v-17.655c0-4.873,3.955-8.828,8.828-8.828    s8.828,3.955,8.828,8.828v17.655C264.828,340.321,260.873,344.276,256,344.276"/>
		<path style="fill:#F7F0E8;" d="M194.207,114.759h-79.448c-4.873,0-8.828-3.955-8.828-8.828c0-4.873,3.955-8.828,8.828-8.828    h79.448c4.873,0,8.828,3.955,8.828,8.828C203.034,110.804,199.08,114.759,194.207,114.759"/>
		<path style="fill:#F7F0E8;" d="M397.241,114.759h-79.448c-4.873,0-8.828-3.955-8.828-8.828c0-4.873,3.955-8.828,8.828-8.828    h79.448c4.873,0,8.828,3.955,8.828,8.828C406.069,110.804,402.114,114.759,397.241,114.759"/>
		<path style="fill:#F7F0E8;" d="M194.207,220.69h-79.448c-4.873,0-8.828-3.955-8.828-8.828c0-4.873,3.955-8.828,8.828-8.828h79.448    c4.873,0,8.828,3.955,8.828,8.828C203.034,216.735,199.08,220.69,194.207,220.69"/>
		<path style="fill:#F7F0E8;" d="M397.241,220.69h-79.448c-4.873,0-8.828-3.955-8.828-8.828c0-4.873,3.955-8.828,8.828-8.828h79.448    c4.873,0,8.828,3.955,8.828,8.828C406.069,216.735,402.114,220.69,397.241,220.69"/>
	</g>
</g>
<g>
</g>
<g>
</g>
<g>
</g>
<g>
</g>
<g>
</g>
<g>
</g>
<g>
</g>
<g>
</g>
<g>
</g>
<g>
</g>
<g>
</g>
<g>
</g>
<g>
</g>
<g>
</g>
<g>
</g>
</svg>
