<?xml version="1.0" encoding="iso-8859-1"?>
<!-- Generator: Adobe Illustrator 19.0.0, SVG Export Plug-In . SVG Version: 6.00 Build 0)  -->
<svg xmlns="http://www.w3.org/2000/svg" xmlns:xlink="http://www.w3.org/1999/xlink" version="1.1" id="Capa_1" x="0px" y="0px" viewBox="0 0 512 512" style="enable-background:new 0 0 512 512;" xml:space="preserve">
<g>
	<path style="fill:#AD9883;" d="M264.828,326.621H79.448V31.082C79.448,13.921,93.369,0,110.53,0h154.297V326.621z"/>
	<path style="fill:#BCA591;" d="M432.552,326.621H256V0h145.47c17.161,0,31.082,13.921,31.082,31.082V326.621z"/>
	<g>
		<path style="fill:#AD9883;" d="M105.931,423.724v17.655c-4.634,7.601-7.751,16.375-5.888,25.679    c0.053,0.23,0.097,0.459,0.141,0.68c3.187,16.331,1.201,29.705-11.229,43.502L88.276,512h5.817    c29.078,0,40.872-31.029,40.201-44.941c-0.521-10.673,2.657-19.138,6.947-25.679v-17.655H105.931z"/>
		<path style="fill:#AD9883;" d="M406.069,423.724v17.655c4.634,7.601,7.751,16.375,5.888,25.679    c-0.044,0.23-0.097,0.459-0.141,0.68c-3.187,16.331-1.201,29.705,11.229,43.502l0.68,0.759h-5.817    c-29.078,0-40.872-31.029-40.201-44.941c0.521-10.673-2.657-19.138-6.947-25.679v-17.655H406.069z"/>
	</g>
	<polygon style="fill:#7A6958;" points="79.448,441.379 432.552,441.379 432.552,317.793 79.448,317.793  "/>
	<g>
		<path style="fill:#BCA591;" d="M291.31,379.586H220.69c-4.873,0-8.828-3.955-8.828-8.828c0-4.873,3.955-8.828,8.828-8.828h70.621    c4.873,0,8.828,3.955,8.828,8.828C300.138,375.631,296.183,379.586,291.31,379.586"/>
		<path style="fill:#BCA591;" d="M256,397.241c-4.873,0-8.828-3.955-8.828-8.828v-17.655c0-4.873,3.955-8.828,8.828-8.828    s8.828,3.955,8.828,8.828v17.655C264.828,393.287,260.873,397.241,256,397.241"/>
	</g>
	<g>
		<path style="fill:#7A6958;" d="M203.034,194.207c-4.873,0-8.828-3.955-8.828-8.828v-26.483c0-4.873,3.955-8.828,8.828-8.828    c4.873,0,8.828,3.955,8.828,8.828v26.483C211.862,190.252,207.907,194.207,203.034,194.207"/>
		<path style="fill:#7A6958;" d="M203.034,167.724h-26.483c-4.873,0-8.828-3.955-8.828-8.828c0-4.873,3.955-8.828,8.828-8.828    h26.483c4.873,0,8.828,3.955,8.828,8.828C211.862,163.769,207.907,167.724,203.034,167.724"/>
		<path style="fill:#7A6958;" d="M308.966,194.207c-4.873,0-8.828-3.955-8.828-8.828v-26.483c0-4.873,3.955-8.828,8.828-8.828    s8.828,3.955,8.828,8.828v26.483C317.793,190.252,313.838,194.207,308.966,194.207"/>
		<path style="fill:#7A6958;" d="M335.448,167.724h-26.483c-4.873,0-8.828-3.955-8.828-8.828c0-4.873,3.955-8.828,8.828-8.828    h26.483c4.873,0,8.828,3.955,8.828,8.828C344.276,163.769,340.321,167.724,335.448,167.724"/>
	</g>
</g>
<g>
</g>
<g>
</g>
<g>
</g>
<g>
</g>
<g>
</g>
<g>
</g>
<g>
</g>
<g>
</g>
<g>
</g>
<g>
</g>
<g>
</g>
<g>
</g>
<g>
</g>
<g>
</g>
<g>
</g>
</svg>
