<?xml version="1.0" encoding="iso-8859-1"?>
<!-- Generator: Adobe Illustrator 19.0.0, SVG Export Plug-In . SVG Version: 6.00 Build 0)  -->
<svg xmlns="http://www.w3.org/2000/svg" xmlns:xlink="http://www.w3.org/1999/xlink" version="1.1" id="Capa_1" x="0px" y="0px" viewBox="0 0 512 512" style="enable-background:new 0 0 512 512;" xml:space="preserve">
<g>
	<polygon style="fill:#28160F;" points="438.9,512 466.3,512 466.3,457.1 420.6,457.1  "/>
	<polygon style="fill:#28160F;" points="73.1,512 45.7,512 45.7,457.1 91.4,457.1  "/>
</g>
<polygon style="fill:#966F58;" points="256,27.4 27.4,27.4 27.4,429.7 256,429.7 484.6,429.7 484.6,27.4 "/>
<path style="fill:#69432E;" d="M18.3,18.3v420.6h475.4V18.3H18.3z M475.4,420.6H36.6v-384h438.9v384H475.4z"/>
<g>
	<polygon style="fill:#492B1D;" points="9.1,36.6 502.9,36.6 502.9,0 9.1,0  "/>
	<polygon style="fill:#492B1D;" points="9.1,457.1 502.9,457.1 502.9,420.6 9.1,420.6  "/>
	<polygon style="fill:#492B1D;" points="64,146.3 448,146.3 448,64 64,64  "/>
	<polygon style="fill:#492B1D;" points="64,274.3 448,274.3 448,182.9 64,182.9  "/>
	<polygon style="fill:#492B1D;" points="64,393.1 448,393.1 448,310.9 64,310.9  "/>
</g>
<g>
	<path style="fill:#DEC150;" d="M292.6,109.7h-73.1c-5,0-9.1-4.1-9.1-9.1s4.1-9.1,9.1-9.1h73.1c5,0,9.1,4.1,9.1,9.1   S297.6,109.7,292.6,109.7"/>
	<path style="fill:#DEC150;" d="M256,128c-5,0-9.1-4.1-9.1-9.1v-18.3c0-5,4.1-9.1,9.1-9.1s9.1,4.1,9.1,9.1v18.3   C265.1,123.9,261,128,256,128"/>
	<path style="fill:#DEC150;" d="M292.6,228.6h-73.1c-5,0-9.1-4.1-9.1-9.1s4.1-9.1,9.1-9.1h73.1c5,0,9.1,4.1,9.1,9.1   S297.6,228.6,292.6,228.6"/>
	<path style="fill:#DEC150;" d="M256,246.9c-5,0-9.1-4.1-9.1-9.1v-18.3c0-5,4.1-9.1,9.1-9.1s9.1,4.1,9.1,9.1v18.3   C265.1,242.8,261,246.9,256,246.9"/>
	<path style="fill:#DEC150;" d="M292.6,356.6h-73.1c-5,0-9.1-4.1-9.1-9.1s4.1-9.1,9.1-9.1h73.1c5,0,9.1,4.1,9.1,9.1   S297.6,356.6,292.6,356.6"/>
	<path style="fill:#DEC150;" d="M256,374.9c-5,0-9.1-4.1-9.1-9.1v-18.3c0-5,4.1-9.1,9.1-9.1s9.1,4.1,9.1,9.1v18.3   C265.1,370.8,261,374.9,256,374.9"/>
</g>
<g>
</g>
<g>
</g>
<g>
</g>
<g>
</g>
<g>
</g>
<g>
</g>
<g>
</g>
<g>
</g>
<g>
</g>
<g>
</g>
<g>
</g>
<g>
</g>
<g>
</g>
<g>
</g>
<g>
</g>
</svg>
