<?xml version="1.0" encoding="iso-8859-1"?>
<!-- Generator: Adobe Illustrator 19.0.0, SVG Export Plug-In . SVG Version: 6.00 Build 0)  -->
<svg xmlns="http://www.w3.org/2000/svg" xmlns:xlink="http://www.w3.org/1999/xlink" version="1.1" id="Capa_1" x="0px" y="0px" viewBox="0 0 512 512" style="enable-background:new 0 0 512 512;" xml:space="preserve">
<polygon style="fill:#F9EBB0;" points="256,27.4 27.4,27.4 27.4,411.4 256,411.4 484.6,411.4 484.6,27.4 "/>
<path style="fill:#D9CA8D;" d="M18.3,18.3v402.3h475.4V18.3H18.3z M475.4,402.3H36.6V36.6h438.9v365.7H475.4z"/>
<g>
	<polygon style="fill:#7F6E5D;" points="64,374.9 237.7,374.9 237.7,64 64,64  "/>
	<polygon style="fill:#7F6E5D;" points="274.3,137.1 448,137.1 448,64 274.3,64  "/>
	<polygon style="fill:#7F6E5D;" points="274.3,374.9 448,374.9 448,301.7 274.3,301.7  "/>
	<polygon style="fill:#7F6E5D;" points="274.3,265.1 448,265.1 448,173.7 274.3,173.7  "/>
</g>
<g>
	<polygon style="fill:#4F3022;" points="438.9,512 466.3,512 466.3,438.9 420.6,438.9  "/>
	<polygon style="fill:#4F3022;" points="73.1,512 45.7,512 45.7,438.9 91.4,438.9  "/>
</g>
<g>
	<path style="fill:#F9EBB0;" d="M192,256c-5,0-9.1-4.1-9.1-9.1v-27.4c0-5,4.1-9.1,9.1-9.1s9.1,4.1,9.1,9.1v27.4   C201.1,251.9,197,256,192,256"/>
	<path style="fill:#F9EBB0;" d="M192,228.6h-27.4c-5,0-9.1-4.1-9.1-9.1s4.1-9.1,9.1-9.1H192c5,0,9.1,4.1,9.1,9.1   S197,228.6,192,228.6"/>
</g>
<g>
	<polygon style="fill:#7F6E5D;" points="9.1,36.6 502.9,36.6 502.9,0 9.1,0  "/>
	<polygon style="fill:#7F6E5D;" points="9.1,438.9 502.9,438.9 502.9,402.3 9.1,402.3  "/>
</g>
<g>
	<path style="fill:#F9EBB0;" d="M393.1,109.7h-64c-5,0-9.1-4.1-9.1-9.1s4.1-9.1,9.1-9.1h64c5,0,9.1,4.1,9.1,9.1   S398.2,109.7,393.1,109.7"/>
	<path style="fill:#F9EBB0;" d="M393.1,228.6h-64c-5,0-9.1-4.1-9.1-9.1s4.1-9.1,9.1-9.1h64c5,0,9.1,4.1,9.1,9.1   C402.3,224.5,398.2,228.6,393.1,228.6"/>
	<path style="fill:#F9EBB0;" d="M393.1,347.4h-64c-5,0-9.1-4.1-9.1-9.1s4.1-9.1,9.1-9.1h64c5,0,9.1,4.1,9.1,9.1   S398.2,347.4,393.1,347.4"/>
</g>
<g>
</g>
<g>
</g>
<g>
</g>
<g>
</g>
<g>
</g>
<g>
</g>
<g>
</g>
<g>
</g>
<g>
</g>
<g>
</g>
<g>
</g>
<g>
</g>
<g>
</g>
<g>
</g>
<g>
</g>
</svg>
