<?xml version="1.0" encoding="iso-8859-1"?>
<!-- Generator: Adobe Illustrator 19.0.0, SVG Export Plug-In . SVG Version: 6.00 Build 0)  -->
<svg xmlns="http://www.w3.org/2000/svg" xmlns:xlink="http://www.w3.org/1999/xlink" version="1.1" id="Capa_1" x="0px" y="0px" viewBox="0 0 512 512" style="enable-background:new 0 0 512 512;" xml:space="preserve">
<g>
	<g>
		<path style="fill:#ECF0F1;" d="M386.169,242.983h-34.712c-4.799,0-8.678-3.888-8.678-8.678s3.879-8.678,8.678-8.678h34.712    c4.799,0,8.678,3.888,8.678,8.678S390.968,242.983,386.169,242.983"/>
		<path style="fill:#ECF0F1;" d="M134.508,512c-4.799,0-8.678-3.888-8.678-8.678V208.271c0-4.79,3.879-8.678,8.678-8.678    c4.799,0,8.678,3.888,8.678,8.678v295.051C143.186,508.112,139.307,512,134.508,512"/>
		<path style="fill:#ECF0F1;" d="M377.492,512c-4.799,0-8.678-3.888-8.678-8.678V208.271c0-4.79,3.879-8.678,8.678-8.678    c4.799,0,8.678,3.888,8.678,8.678v295.051C386.169,508.112,382.29,512,377.492,512"/>
		<path style="fill:#ECF0F1;" d="M160.542,242.983h-34.712c-4.799,0-8.678-3.888-8.678-8.678s3.879-8.678,8.678-8.678h34.712    c4.799,0,8.678,3.888,8.678,8.678S165.341,242.983,160.542,242.983"/>
	</g>
	<path style="fill:#90BAE1;" d="M334.102,381.831H177.898c-9.58,0-17.356-7.775-17.356-17.356V17.356   c0-9.58,7.775-17.356,17.356-17.356h156.203c9.58,0,17.356,7.775,17.356,17.356v347.119   C351.458,374.055,343.682,381.831,334.102,381.831"/>
	<g>
		<path style="fill:#B0D3F0;" d="M212.61,234.305c-2.222,0-4.443-0.85-6.135-2.543c-3.393-3.393-3.393-8.878,0-12.271l86.78-86.78    c3.393-3.393,8.878-3.393,12.271,0c3.393,3.393,3.393,8.878,0,12.271l-86.78,86.78    C217.053,233.455,214.832,234.305,212.61,234.305"/>
		<path style="fill:#B0D3F0;" d="M212.61,190.915c-2.222,0-4.443-0.85-6.135-2.543c-3.393-3.393-3.393-8.878,0-12.271l43.39-43.39    c3.393-3.393,8.878-3.393,12.271,0c3.393,3.393,3.393,8.878,0,12.271l-43.39,43.39    C217.053,190.065,214.832,190.915,212.61,190.915"/>
		<path style="fill:#B0D3F0;" d="M264.678,225.627c-2.222,0-4.443-0.85-6.135-2.543c-3.393-3.393-3.393-8.878,0-12.271    l26.034-26.034c3.393-3.393,8.878-3.393,12.271,0c3.393,3.393,3.393,8.878,0,12.271l-26.034,26.034    C269.121,224.777,266.9,225.627,264.678,225.627"/>
		<path style="fill:#B0D3F0;" d="M247.322,242.983c-1.128,0-2.256-0.26-3.298-0.694c-1.041-0.434-1.996-1.041-2.864-1.822    c-1.571-1.649-2.517-3.905-2.517-6.161s0.946-4.513,2.517-6.161c0.868-0.781,1.822-1.388,2.864-1.822    c3.115-1.388,7.029-0.607,9.459,1.822c0.347,0.434,0.694,0.868,1.041,1.388c0.347,0.434,0.599,0.955,0.781,1.475    c0.26,0.521,0.434,1.041,0.512,1.562c0.095,0.607,0.182,1.128,0.182,1.736c0,2.256-0.955,4.513-2.517,6.161    C251.835,242.028,249.578,242.983,247.322,242.983"/>
	</g>
	<g>
		<path style="fill:#ECF0F1;" d="M386.169,425.22H125.831c-4.799,0-8.678-3.888-8.678-8.678c0-4.79,3.879-8.678,8.678-8.678h260.339    c4.799,0,8.678,3.888,8.678,8.678C394.847,421.333,390.968,425.22,386.169,425.22"/>
		<path style="fill:#ECF0F1;" d="M151.864,512h-34.712c-4.799,0-8.678-3.888-8.678-8.678s3.879-8.678,8.678-8.678h34.712    c4.799,0,8.678,3.888,8.678,8.678S156.663,512,151.864,512"/>
		<path style="fill:#ECF0F1;" d="M394.847,512h-34.712c-4.799,0-8.678-3.888-8.678-8.678s3.879-8.678,8.678-8.678h34.712    c4.799,0,8.678,3.888,8.678,8.678S399.646,512,394.847,512"/>
	</g>
</g>
<g>
</g>
<g>
</g>
<g>
</g>
<g>
</g>
<g>
</g>
<g>
</g>
<g>
</g>
<g>
</g>
<g>
</g>
<g>
</g>
<g>
</g>
<g>
</g>
<g>
</g>
<g>
</g>
<g>
</g>
</svg>
