<?xml version="1.0" encoding="iso-8859-1"?>
<!-- Generator: Adobe Illustrator 19.0.0, SVG Export Plug-In . SVG Version: 6.00 Build 0)  -->
<svg xmlns="http://www.w3.org/2000/svg" xmlns:xlink="http://www.w3.org/1999/xlink" version="1.1" id="Capa_1" x="0px" y="0px" viewBox="0 0 512 512" style="enable-background:new 0 0 512 512;" xml:space="preserve">
<g>
	<path style="fill:#BDC3C7;" d="M264.5,89.553c-2.6,0-5.2-1.2-6.8-3.4l-51.2-68.3c-2.8-3.8-2.1-9.1,1.7-11.9s9.1-2.1,11.9,1.7   l51.2,68.3c2.8,3.8,2.1,9.1-1.7,11.9C268.1,88.953,266.3,89.553,264.5,89.553"/>
	<path style="fill:#BDC3C7;" d="M264.5,89.553c-1.8,0-3.6-0.6-5.1-1.7c-3.8-2.8-4.5-8.2-1.7-11.9l51.2-68.3   c2.8-3.8,8.2-4.5,11.9-1.7c3.8,2.8,4.5,8.2,1.7,11.9l-51.2,68.3C269.7,88.353,267.1,89.553,264.5,89.553"/>
</g>
<polygon style="fill:#4F3022;" points="136.5,285.853 392.5,285.853 392.5,81.053 136.5,81.053 "/>
<g>
	<path style="fill:#492B1D;" d="M477.9,439.453c4.5,7.3,7.5,15.8,5.7,24.8c-0.1,0.2-0.1,0.4-0.1,0.7c-3.1,15.8-1.2,28.7,10.9,42.1   l0.7,0.7h-5.6c-28.1,0-39.5-30-38.9-43.4c0.5-10.3-2.6-18.5-6.7-24.8h34V439.453z"/>
	<path style="fill:#492B1D;" d="M34.1,439.453c-4.5,7.3-7.5,15.8-5.7,24.8c0.1,0.2,0.1,0.4,0.1,0.7c3.1,15.8,1.2,28.7-10.9,42.1   l-0.7,0.7h5.6c28.1,0,39.5-30,38.9-43.4c-0.5-10.3,2.6-18.5,6.7-24.8h-34V439.453z"/>
</g>
<g>
	<polygon style="fill:#966F58;" points="8.5,439.453 179.2,439.453 179.2,285.853 8.5,285.853  "/>
	<polygon style="fill:#966F58;" points="179.2,439.453 349.9,439.453 349.9,285.853 179.2,285.853  "/>
	<polygon style="fill:#966F58;" points="349.9,439.453 503.5,439.453 503.5,285.853 349.9,285.853  "/>
</g>
<path style="fill:#69432E;" d="M358.4,430.853h136.5v-136.5H358.4V430.853z M341.3,447.953H512v-170.7H341.3V447.953z"/>
<g>
	<path style="fill:#DEC150;" d="M221.9,362.653c-4.7,0-8.5-3.8-8.5-8.5v-25.6c0-4.7,3.8-8.5,8.5-8.5s8.5,3.8,8.5,8.5v25.6   C230.4,358.753,226.6,362.653,221.9,362.653"/>
	<path style="fill:#DEC150;" d="M136.5,362.653c-4.7,0-8.5-3.8-8.5-8.5v-25.6c0-4.7,3.8-8.5,8.5-8.5s8.5,3.8,8.5,8.5v25.6   C145.1,358.753,141.2,362.653,136.5,362.653"/>
</g>
<g>
	<polygon style="fill:#966F58;" points="349.9,362.653 503.5,362.653 503.5,285.853 349.9,285.853  "/>
	<polygon style="fill:#966F58;" points="349.9,439.453 503.5,439.453 503.5,362.653 349.9,362.653  "/>
</g>
<path style="fill:#69432E;" d="M358.4,277.253h-17.1H187.7h-17.1H0v170.7h170.7h17.1h153.6h17.1H512v-76.8v-17.1v-76.8H358.4z   M170.7,430.853H17.1v-136.5h153.6L170.7,430.853L170.7,430.853z M341.3,430.853H187.7v-136.5h153.6v59.7v17.1V430.853z   M494.9,430.853H358.4v-59.7h136.5V430.853z M358.4,354.053v-59.7h136.5v59.7H358.4z"/>
<g>
	<path style="fill:#DEC150;" d="M247.5,337.053h-25.6c-4.7,0-8.5-3.8-8.5-8.5s3.8-8.5,8.5-8.5h25.6c4.7,0,8.5,3.8,8.5,8.5   S252.2,337.053,247.5,337.053"/>
	<path style="fill:#DEC150;" d="M443.7,337.053h-34.1c-4.7,0-8.5-3.8-8.5-8.5s3.8-8.5,8.5-8.5h34.1c4.7,0,8.5,3.8,8.5,8.5   S448.4,337.053,443.7,337.053"/>
	<path style="fill:#DEC150;" d="M443.7,413.853h-34.1c-4.7,0-8.5-3.8-8.5-8.5s3.8-8.5,8.5-8.5h34.1c4.7,0,8.5,3.8,8.5,8.5   S448.4,413.853,443.7,413.853"/>
	<path style="fill:#DEC150;" d="M136.5,337.053h-25.6c-4.7,0-8.5-3.8-8.5-8.5s3.8-8.5,8.5-8.5h25.6c4.7,0,8.5,3.8,8.5,8.5   S141.2,337.053,136.5,337.053"/>
</g>
<path style="fill:#8697CB;" d="M298.8,242.953L298.8,242.953c-39,11.2-80.4,11.2-119.5,0c-11.2-39-11.2-80.4,0-119.5  c39-11.2,80.4-11.2,119.5,0C310,162.553,310,203.953,298.8,242.953"/>
<g>
	<path style="fill:#966F58;" d="M358.4,132.253h-17.1c-4.7,0-8.5-3.8-8.5-8.5c0-4.7,3.8-8.5,8.5-8.5h17.1c4.7,0,8.5,3.8,8.5,8.5   C366.9,128.453,363.1,132.253,358.4,132.253"/>
	<path style="fill:#966F58;" d="M358.4,166.353h-17.1c-4.7,0-8.5-3.8-8.5-8.5s3.8-8.5,8.5-8.5h17.1c4.7,0,8.5,3.8,8.5,8.5   S363.1,166.353,358.4,166.353"/>
	<path style="fill:#966F58;" d="M358.4,200.453h-17.1c-4.7,0-8.5-3.8-8.5-8.5s3.8-8.5,8.5-8.5h17.1c4.7,0,8.5,3.8,8.5,8.5   S363.1,200.453,358.4,200.453"/>
	<path style="fill:#966F58;" d="M349.9,251.653c-4.7,0-8.5-3.8-8.5-8.5v-17.1c0-4.7,3.8-8.5,8.5-8.5s8.5,3.8,8.5,8.5v17.1   C358.4,247.853,354.6,251.653,349.9,251.653"/>
</g>
<g>
</g>
<g>
</g>
<g>
</g>
<g>
</g>
<g>
</g>
<g>
</g>
<g>
</g>
<g>
</g>
<g>
</g>
<g>
</g>
<g>
</g>
<g>
</g>
<g>
</g>
<g>
</g>
<g>
</g>
</svg>
