<?xml version="1.0" encoding="iso-8859-1"?>
<!-- Generator: Adobe Illustrator 19.0.0, SVG Export Plug-In . SVG Version: 6.00 Build 0)  -->
<svg xmlns="http://www.w3.org/2000/svg" xmlns:xlink="http://www.w3.org/1999/xlink" version="1.1" id="Capa_1" x="0px" y="0px" viewBox="0 0 512 512" style="enable-background:new 0 0 512 512;" xml:space="preserve">
<g>
	<path style="fill:#ECF0F1;" d="M459.034,256c0,141.383-90.906,256-203.034,256S52.966,397.383,52.966,256S143.872,0,256,0   S459.034,114.617,459.034,256"/>
	<path style="fill:#90BAE1;" d="M256,476.69c-92.487,0-167.724-99.001-167.724-220.69S163.513,35.31,256,35.31   S423.724,134.312,423.724,256S348.487,476.69,256,476.69"/>
	<g>
		<path style="fill:#B0D3F0;" d="M150.069,291.31c-2.26,0-4.52-0.865-6.241-2.586c-3.452-3.452-3.452-9.031,0-12.482    l158.897-158.897c3.452-3.452,9.031-3.452,12.482,0c3.452,3.452,3.452,9.031,0,12.482L156.31,288.724    C154.589,290.445,152.329,291.31,150.069,291.31"/>
		<path style="fill:#B0D3F0;" d="M158.897,229.517c-2.26,0-4.52-0.865-6.241-2.586c-3.452-3.452-3.452-9.031,0-12.482l97.103-97.103    c3.452-3.452,9.031-3.452,12.482,0c3.452,3.452,3.452,9.031,0,12.482l-97.103,97.103    C163.416,228.652,161.156,229.517,158.897,229.517"/>
	</g>
</g>
<g>
</g>
<g>
</g>
<g>
</g>
<g>
</g>
<g>
</g>
<g>
</g>
<g>
</g>
<g>
</g>
<g>
</g>
<g>
</g>
<g>
</g>
<g>
</g>
<g>
</g>
<g>
</g>
<g>
</g>
</svg>
