<?xml version="1.0" encoding="iso-8859-1"?>
<!-- Generator: Adobe Illustrator 19.0.0, SVG Export Plug-In . SVG Version: 6.00 Build 0)  -->
<svg xmlns="http://www.w3.org/2000/svg" xmlns:xlink="http://www.w3.org/1999/xlink" version="1.1" id="Capa_1" x="0px" y="0px" viewBox="0 0 512 512" style="enable-background:new 0 0 512 512;" xml:space="preserve">
<g>
	<path style="fill:#ECF0F1;" d="M412.203,190.915c0,105.437-69.936,190.915-156.203,190.915S99.797,296.353,99.797,190.915   S169.732,0,256,0S412.203,85.478,412.203,190.915"/>
	<path style="fill:#90BAE1;" d="M256,347.119c-66.994,0-121.492-70.075-121.492-156.203S189.006,34.712,256,34.712   s121.492,70.075,121.492,156.203S322.994,347.119,256,347.119"/>
	<g>
		<path style="fill:#B0D3F0;" d="M212.61,242.983c-2.222,0-4.443-0.85-6.135-2.543c-3.393-3.393-3.393-8.878,0-12.271l86.78-86.78    c3.393-3.393,8.878-3.393,12.271,0c3.393,3.393,3.393,8.878,0,12.271l-86.78,86.78    C217.053,242.133,214.832,242.983,212.61,242.983"/>
		<path style="fill:#B0D3F0;" d="M212.61,199.593c-2.222,0-4.443-0.85-6.135-2.543c-3.393-3.393-3.393-8.878,0-12.271l43.39-43.39    c3.393-3.393,8.878-3.393,12.271,0c3.393,3.393,3.393,8.878,0,12.271l-43.39,43.39    C217.053,198.743,214.832,199.593,212.61,199.593"/>
		<path style="fill:#B0D3F0;" d="M264.678,234.305c-2.222,0-4.443-0.85-6.135-2.543c-3.393-3.393-3.393-8.878,0-12.271    l26.034-26.034c3.393-3.393,8.878-3.393,12.271,0c3.393,3.393,3.393,8.878,0,12.271l-26.034,26.034    C269.121,233.455,266.9,234.305,264.678,234.305"/>
		<path style="fill:#B0D3F0;" d="M247.322,251.661c-2.256,0-4.521-0.955-6.161-2.517c-1.571-1.649-2.517-3.905-2.517-6.161    s0.946-4.513,2.517-6.161c2.421-2.43,6.248-3.211,9.459-1.822c1.041,0.434,1.987,1.041,2.864,1.822    c1.562,1.649,2.517,3.905,2.517,6.161s-0.955,4.513-2.517,6.161c-0.876,0.781-1.822,1.388-2.864,1.822    C249.578,251.401,248.45,251.661,247.322,251.661"/>
	</g>
	<g>
		<path style="fill:#ECF0F1;" d="M82.441,477.288H47.729c-4.799,0-8.678-3.888-8.678-8.678V225.627c0-4.79,3.879-8.678,8.678-8.678    h34.712c4.799,0,8.678,3.888,8.678,8.678V468.61C91.119,473.4,87.24,477.288,82.441,477.288"/>
		<path style="fill:#ECF0F1;" d="M464.271,477.288h-34.712c-4.799,0-8.678-3.888-8.678-8.678V225.627    c0-4.79,3.879-8.678,8.678-8.678h34.712c4.799,0,8.678,3.888,8.678,8.678V468.61C472.949,473.4,469.07,477.288,464.271,477.288"/>
	</g>
	<g>
		<path style="fill:#D1D4D1;" d="M99.797,512H30.373c-4.799,0-8.678-3.888-8.678-8.678V468.61c0-4.79,3.879-8.678,8.678-8.678    h69.424c4.799,0,8.678,3.888,8.678,8.678v34.712C108.475,508.112,104.596,512,99.797,512"/>
		<path style="fill:#D1D4D1;" d="M481.627,512h-69.424c-4.799,0-8.678-3.888-8.678-8.678V468.61c0-4.79,3.879-8.678,8.678-8.678    h69.424c4.799,0,8.678,3.888,8.678,8.678v34.712C490.305,508.112,486.426,512,481.627,512"/>
		<path style="fill:#D1D4D1;" d="M65.085,234.305c-23.925,0-43.39-19.465-43.39-43.39s19.465-43.39,43.39-43.39    s43.39,19.465,43.39,43.39S89.01,234.305,65.085,234.305"/>
		<path style="fill:#D1D4D1;" d="M446.915,234.305c-23.925,0-43.39-19.465-43.39-43.39s19.465-43.39,43.39-43.39    s43.39,19.465,43.39,43.39S470.84,234.305,446.915,234.305"/>
	</g>
</g>
<g>
</g>
<g>
</g>
<g>
</g>
<g>
</g>
<g>
</g>
<g>
</g>
<g>
</g>
<g>
</g>
<g>
</g>
<g>
</g>
<g>
</g>
<g>
</g>
<g>
</g>
<g>
</g>
<g>
</g>
</svg>
