<?xml version="1.0" encoding="iso-8859-1"?>
<!-- Generator: Adobe Illustrator 19.0.0, SVG Export Plug-In . SVG Version: 6.00 Build 0)  -->
<svg xmlns="http://www.w3.org/2000/svg" xmlns:xlink="http://www.w3.org/1999/xlink" version="1.1" id="Capa_1" x="0px" y="0px" viewBox="0 0 512 512" style="enable-background:new 0 0 512 512;" xml:space="preserve">
<path style="fill:#D1D4D1;" d="M274,170.7h-36c0,29.8-24.1,53.9-53.9,53.9h143.7C298.1,224.6,274,200.5,274,170.7"/>
<g>
	<path style="fill:#492B1D;" d="M408.7,440.1c4.7,7.7,7.9,16.7,6,26.1c0,0.2-0.1,0.5-0.1,0.7c-3.2,16.6-1.2,30.2,11.4,44.3l0.7,0.8   h-5.9c-29.6,0-41.6-31.6-40.9-45.7c0.5-10.9-2.7-19.5-7.1-26.1h35.9V440.1z"/>
	<path style="fill:#492B1D;" d="M103.3,440.1c-4.7,7.7-7.9,16.7-6,26.1c0,0.2,0.1,0.5,0.1,0.7c3.2,16.6,1.2,30.2-11.4,44.3l-0.7,0.8   h5.9c29.6,0,41.6-31.6,40.9-45.7c-0.5-10.9,2.7-19.5,7.1-26.1h-35.9V440.1z"/>
</g>
<g>
	<polygon style="fill:#7F6E5D;" points="67.4,332.4 444.6,332.4 444.6,224.6 67.4,224.6  "/>
	<polygon style="fill:#7F6E5D;" points="67.4,440.1 444.6,440.1 444.6,332.4 67.4,332.4  "/>
</g>
<path style="fill:#67594D;" d="M58.4,215.6v107.8v18v107.8h395.2V341.3v-18V215.6H58.4z M435.6,431.2H76.4v-89.8h359.3v89.8H435.6z   M76.4,323.4v-89.8h359.3v89.8H76.4z"/>
<g>
	<path style="fill:#F0C419;" d="M291.9,278.5H220c-5,0-9-4-9-9s4-9,9-9h71.9c5,0,9,4,9,9S296.9,278.5,291.9,278.5"/>
	<path style="fill:#F0C419;" d="M256,296.4c-5,0-9-4-9-9v-18c0-5,4-9,9-9s9,4,9,9v18C265,292.4,261,296.4,256,296.4"/>
	<path style="fill:#F0C419;" d="M291.9,386.2H220c-5,0-9-4-9-9s4-9,9-9h71.9c5,0,9,4,9,9S296.9,386.2,291.9,386.2"/>
	<path style="fill:#F0C419;" d="M256,404.2c-5,0-9-4-9-9v-18c0-5,4-9,9-9s9,4,9,9v18C265,400.2,261,404.2,256,404.2"/>
</g>
<path style="fill:#90BAE1;" d="M327.9,89.8c0,49.6-32.2,89.8-71.9,89.8s-71.9-40.2-71.9-89.8S216.3,0,256,0S327.9,40.2,327.9,89.8"/>
<g>
	<path style="fill:#B0D3F0;" d="M229.1,116.8c-2.3,0-4.6-0.9-6.4-2.6c-3.5-3.5-3.5-9.2,0-12.7l44.9-44.9c3.5-3.5,9.2-3.5,12.7,0   s3.5,9.2,0,12.7l-44.9,44.9C233.7,115.9,231.4,116.8,229.1,116.8"/>
	<path style="fill:#B0D3F0;" d="M220.1,80.8c-2.3,0-4.6-0.9-6.4-2.6c-3.5-3.5-3.5-9.2,0-12.7l26.9-26.9c3.5-3.5,9.2-3.5,12.7,0   c3.5,3.5,3.5,9.2,0,12.7l-26.9,26.9C224.7,80,222.4,80.8,220.1,80.8"/>
</g>
<g>
</g>
<g>
</g>
<g>
</g>
<g>
</g>
<g>
</g>
<g>
</g>
<g>
</g>
<g>
</g>
<g>
</g>
<g>
</g>
<g>
</g>
<g>
</g>
<g>
</g>
<g>
</g>
<g>
</g>
</svg>
