<?xml version="1.0" encoding="iso-8859-1"?>
<!-- Generator: Adobe Illustrator 19.0.0, SVG Export Plug-In . SVG Version: 6.00 Build 0)  -->
<svg xmlns="http://www.w3.org/2000/svg" xmlns:xlink="http://www.w3.org/1999/xlink" version="1.1" id="Capa_1" x="0px" y="0px" viewBox="0 0 512 512" style="enable-background:new 0 0 512 512;" xml:space="preserve">
<g>
	<polygon style="fill:#7A6958;" points="0,512 512,512 512,0 0,0  "/>
	<polygon style="fill:#AD9883;" points="35.31,256 256,256 256,35.31 35.31,35.31  "/>
	<g>
		<polygon style="fill:#96826C;" points="256,256 476.69,256 476.69,35.31 256,35.31   "/>
		<polygon style="fill:#96826C;" points="35.31,476.69 256,476.69 256,256 35.31,256   "/>
	</g>
	<polygon style="fill:#AD9883;" points="256,476.69 476.69,476.69 476.69,256 256,256  "/>
	<g>
		<path style="fill:#F0C419;" d="M220.69,388.414c-4.873,0-8.828-3.955-8.828-8.828v-26.483c0-4.873,3.955-8.828,8.828-8.828    c4.873,0,8.828,3.955,8.828,8.828v26.483C229.517,384.459,225.562,388.414,220.69,388.414"/>
		<path style="fill:#F0C419;" d="M220.69,361.931h-26.483c-4.873,0-8.828-3.955-8.828-8.828c0-4.873,3.955-8.828,8.828-8.828h26.483    c4.873,0,8.828,3.955,8.828,8.828C229.517,357.976,225.562,361.931,220.69,361.931"/>
		<path style="fill:#F0C419;" d="M291.31,176.552c-4.873,0-8.828-3.955-8.828-8.828v-26.483c0-4.873,3.955-8.828,8.828-8.828    c4.873,0,8.828,3.955,8.828,8.828v26.483C300.138,172.597,296.183,176.552,291.31,176.552"/>
		<path style="fill:#F0C419;" d="M317.793,150.069H291.31c-4.873,0-8.828-3.955-8.828-8.828s3.955-8.828,8.828-8.828h26.483    c4.873,0,8.828,3.955,8.828,8.828S322.666,150.069,317.793,150.069"/>
	</g>
	<polygon style="fill:#E64C3C;" points="326.621,476.69 291.31,476.69 326.621,361.931 361.931,361.931  "/>
	<polygon style="fill:#F0C419;" points="361.931,476.69 397.241,476.69 397.241,344.276 361.931,344.276  "/>
	<polygon style="fill:#955BA5;" points="397.241,476.69 432.552,476.69 432.552,344.276 397.241,344.276  "/>
	<polygon style="fill:#E57E25;" points="88.276,256 194.207,256 194.207,220.69 88.276,220.69  "/>
	<polygon style="fill:#F0C419;" points="105.931,220.69 211.862,220.69 211.862,185.379 105.931,185.379  "/>
	<polygon style="fill:#13A085;" points="105.931,150.069 211.862,150.069 211.862,114.759 105.931,114.759  "/>
	<polygon style="fill:#71C285;" points="88.276,185.379 194.207,185.379 194.207,150.069 88.276,150.069  "/>
</g>
<g>
</g>
<g>
</g>
<g>
</g>
<g>
</g>
<g>
</g>
<g>
</g>
<g>
</g>
<g>
</g>
<g>
</g>
<g>
</g>
<g>
</g>
<g>
</g>
<g>
</g>
<g>
</g>
<g>
</g>
</svg>
