<?xml version="1.0" encoding="iso-8859-1"?>
<!-- Generator: Adobe Illustrator 19.0.0, SVG Export Plug-In . SVG Version: 6.00 Build 0)  -->
<svg xmlns="http://www.w3.org/2000/svg" xmlns:xlink="http://www.w3.org/1999/xlink" version="1.1" id="Capa_1" x="0px" y="0px" viewBox="0 0 512 512" style="enable-background:new 0 0 512 512;" xml:space="preserve">
<g>
	<polygon style="fill:#69432E;" points="119.467,503.467 392.533,503.467 392.533,230.4 119.467,230.4  "/>
	<path style="fill:#8A5B46;" d="M128,494.933h256v-256H128V494.933z M392.533,512H119.467c-4.719,0-8.533-3.823-8.533-8.533V230.4   c0-4.71,3.814-8.533,8.533-8.533h273.067c4.719,0,8.533,3.823,8.533,8.533v273.067C401.067,508.177,397.252,512,392.533,512   L392.533,512z"/>
	<polygon style="fill:#69432E;" points="119.467,503.467 153.6,503.467 153.6,230.4 119.467,230.4  "/>
	<path style="fill:#8A5B46;" d="M128,494.933h17.067v-256H128V494.933z M153.6,512h-34.133c-4.719,0-8.533-3.823-8.533-8.533V230.4   c0-4.71,3.814-8.533,8.533-8.533H153.6c4.719,0,8.533,3.823,8.533,8.533v273.067C162.133,508.177,158.319,512,153.6,512L153.6,512z   "/>
	<polygon style="fill:#69432E;" points="358.4,503.467 392.533,503.467 392.533,230.4 358.4,230.4  "/>
	<path style="fill:#8A5B46;" d="M366.933,494.933H384v-256h-17.067V494.933z M392.533,512H358.4c-4.719,0-8.533-3.823-8.533-8.533   V230.4c0-4.71,3.814-8.533,8.533-8.533h34.133c4.719,0,8.533,3.823,8.533,8.533v273.067C401.067,508.177,397.252,512,392.533,512   L392.533,512z"/>
	<path style="fill:#BDC3C7;" d="M256,401.067c-4.719,0-8.533-3.823-8.533-8.533V230.4c0-4.71,3.814-8.533,8.533-8.533   c4.719,0,8.533,3.823,8.533,8.533v162.133C264.533,397.244,260.719,401.067,256,401.067"/>
	<path style="fill:#DEC150;" d="M290.133,426.667c0,18.85-15.283,34.133-34.133,34.133c-18.85,0-34.133-15.283-34.133-34.133   S237.15,392.533,256,392.533C274.85,392.533,290.133,407.817,290.133,426.667"/>
	<path style="fill:#BDC3C7;" d="M204.8,298.667c-4.719,0-8.533-3.823-8.533-8.533V230.4c0-4.71,3.814-8.533,8.533-8.533   c4.719,0,8.533,3.823,8.533,8.533v59.733C213.333,294.844,209.519,298.667,204.8,298.667"/>
	<polygon style="fill:#DEC150;" points="187.733,332.8 221.867,332.8 221.867,290.133 187.733,290.133  "/>
	<path style="fill:#BDC3C7;" d="M307.2,324.267c-4.719,0-8.533-3.823-8.533-8.533V230.4c0-4.71,3.814-8.533,8.533-8.533   s8.533,3.823,8.533,8.533v85.333C315.733,320.444,311.919,324.267,307.2,324.267"/>
	<polygon style="fill:#DEC150;" points="290.133,358.4 324.267,358.4 324.267,315.733 290.133,315.733  "/>
	<path style="fill:#69432E;" d="M332.8,8.533H256h-76.8c0,32.99-26.743,59.733-59.733,59.733V230.4H256h136.533V68.267   C359.543,68.267,332.8,41.523,332.8,8.533"/>
	<path style="fill:#8A5B46;" d="M128,221.867h256V76.271c-30.831-3.866-55.339-28.373-59.204-59.204h-137.6   C183.339,47.898,158.831,72.405,128,76.271V221.867z M392.533,238.933H119.467c-4.719,0-8.533-3.823-8.533-8.533V68.267   c0-4.71,3.814-8.533,8.533-8.533c28.237,0,51.2-22.963,51.2-51.2c0-4.71,3.814-8.533,8.533-8.533h153.6   c4.719,0,8.533,3.823,8.533,8.533c0,28.237,22.963,51.2,51.2,51.2c4.719,0,8.533,3.823,8.533,8.533V230.4   C401.067,235.11,397.252,238.933,392.533,238.933L392.533,238.933z"/>
	<path style="fill:#4F3022;" d="M332.8,119.467c0,42.419-34.381,76.8-76.8,76.8s-76.8-34.381-76.8-76.8s34.381-76.8,76.8-76.8   S332.8,77.047,332.8,119.467"/>
	<g>
		<path style="fill:#DEC150;" d="M256,128c-4.719,0-8.533-3.823-8.533-8.533V76.8c0-4.71,3.814-8.533,8.533-8.533    c4.719,0,8.533,3.823,8.533,8.533v42.667C264.533,124.177,260.719,128,256,128"/>
		<path style="fill:#DEC150;" d="M281.6,153.6c-2.185,0-4.369-0.836-6.033-2.5l-25.6-25.6c-3.337-3.337-3.337-8.73,0-12.066    c3.337-3.337,8.73-3.337,12.066,0l25.6,25.6c3.337,3.337,3.337,8.73,0,12.066C285.969,152.764,283.785,153.6,281.6,153.6"/>
	</g>
</g>
<g>
</g>
<g>
</g>
<g>
</g>
<g>
</g>
<g>
</g>
<g>
</g>
<g>
</g>
<g>
</g>
<g>
</g>
<g>
</g>
<g>
</g>
<g>
</g>
<g>
</g>
<g>
</g>
<g>
</g>
</svg>
