<?xml version="1.0" encoding="iso-8859-1"?>
<!-- Generator: Adobe Illustrator 19.0.0, SVG Export Plug-In . SVG Version: 6.00 Build 0)  -->
<svg xmlns="http://www.w3.org/2000/svg" xmlns:xlink="http://www.w3.org/1999/xlink" version="1.1" id="Capa_1" x="0px" y="0px" viewBox="0 0 512 512" style="enable-background:new 0 0 512 512;" xml:space="preserve">
<g>
	<path style="fill:#492B1D;" d="M477.9,439.45c4.5,7.3,7.5,15.8,5.7,24.8c-0.1,0.2-0.1,0.4-0.1,0.7c-3.1,15.8-1.2,28.7,10.9,42.1   l0.7,0.7h-5.6c-28.1,0-39.5-30-38.9-43.4c0.5-10.3-2.6-18.5-6.7-24.8h34V439.45z"/>
	<path style="fill:#492B1D;" d="M34.1,439.45c-4.5,7.3-7.5,15.8-5.7,24.8c0.1,0.2,0.1,0.4,0.1,0.7c3.1,15.8,1.2,28.7-10.9,42.1   l-0.7,0.7h5.6c28.1,0,39.5-30,38.9-43.4c-0.5-10.3,2.6-18.5,6.7-24.8h-34V439.45z"/>
</g>
<g>
	<polygon style="fill:#966F58;" points="8.5,439.45 179.2,439.45 179.2,285.85 8.5,285.85  "/>
	<polygon style="fill:#966F58;" points="179.2,439.45 349.9,439.45 349.9,285.85 179.2,285.85  "/>
</g>
<rect x="59.7" y="12.45" style="fill:#8697CB;" width="392.5" height="205.5"/>
<path style="fill:#687492;" d="M460.8,226.05V4.25H51.2v221.9h196.3v25.6h-17.1c-9.4,0-17.1,7.7-17.1,17.1s7.7,17.1,17.1,17.1h51.2  c9.4,0,17.1-7.7,17.1-17.1s-7.7-17.1-17.1-17.1h-17.1v-25.6h196.3V226.05z M68.3,21.25h375.5v17.1H68.3V21.25z M68.3,55.45h375.5  v119.5H68.3V55.45z M68.3,209.05v-17.1h375.5v17.1H68.3z"/>
<polygon style="fill:#966F58;" points="349.9,439.45 503.5,439.45 503.5,285.85 349.9,285.85 "/>
<path style="fill:#69432E;" d="M358.4,430.85h136.5v-136.5H358.4V430.85z M341.3,447.95H512v-170.7H341.3V447.95z"/>
<g>
	<path style="fill:#DEC150;" d="M221.9,362.65c-4.7,0-8.5-3.8-8.5-8.5v-25.6c0-4.7,3.8-8.5,8.5-8.5s8.5,3.8,8.5,8.5v25.6   C230.4,358.75,226.6,362.65,221.9,362.65"/>
	<path style="fill:#DEC150;" d="M136.5,362.65c-4.7,0-8.5-3.8-8.5-8.5v-25.6c0-4.7,3.8-8.5,8.5-8.5s8.5,3.8,8.5,8.5v25.6   C145.1,358.75,141.2,362.65,136.5,362.65"/>
</g>
<g>
	<polygon style="fill:#966F58;" points="349.9,362.65 503.5,362.65 503.5,285.85 349.9,285.85  "/>
	<polygon style="fill:#966F58;" points="349.9,439.45 503.5,439.45 503.5,362.65 349.9,362.65  "/>
</g>
<path style="fill:#69432E;" d="M358.4,277.25h-17.1H187.7h-17.1H0v170.7h170.7h17.1h153.6h17.1H512v-76.8v-17.1v-76.8H358.4z   M170.7,430.85H17.1v-136.5h153.6L170.7,430.85L170.7,430.85z M341.3,354.05v17.1v59.7H187.7v-136.5h153.6V354.05z M494.9,430.85  H358.4v-59.7h136.5V430.85z M494.9,354.05H358.4v-59.7h136.5V354.05z"/>
<g>
	<path style="fill:#DEC150;" d="M247.5,337.05h-25.6c-4.7,0-8.5-3.8-8.5-8.5s3.8-8.5,8.5-8.5h25.6c4.7,0,8.5,3.8,8.5,8.5   S252.2,337.05,247.5,337.05"/>
	<path style="fill:#DEC150;" d="M443.7,337.05h-34.1c-4.7,0-8.5-3.8-8.5-8.5s3.8-8.5,8.5-8.5h34.1c4.7,0,8.5,3.8,8.5,8.5   S448.4,337.05,443.7,337.05"/>
	<path style="fill:#DEC150;" d="M443.7,413.85h-34.1c-4.7,0-8.5-3.8-8.5-8.5s3.8-8.5,8.5-8.5h34.1c4.7,0,8.5,3.8,8.5,8.5   S448.4,413.85,443.7,413.85"/>
	<path style="fill:#DEC150;" d="M136.5,337.05h-25.6c-4.7,0-8.5-3.8-8.5-8.5s3.8-8.5,8.5-8.5h25.6c4.7,0,8.5,3.8,8.5,8.5   S141.2,337.05,136.5,337.05"/>
</g>
<g>
</g>
<g>
</g>
<g>
</g>
<g>
</g>
<g>
</g>
<g>
</g>
<g>
</g>
<g>
</g>
<g>
</g>
<g>
</g>
<g>
</g>
<g>
</g>
<g>
</g>
<g>
</g>
<g>
</g>
</svg>
